<?xml version="1.0" standalone="no"?>
<!DOCTYPE svg PUBLIC "-//W3C//DTD SVG 20010904//EN"
 "http://www.w3.org/TR/2001/REC-SVG-20010904/DTD/svg10.dtd">
<svg version="1.0" xmlns="http://www.w3.org/2000/svg"
 width="438.000000pt" height="438.000000pt" viewBox="0 0 438.000000 438.000000"
 preserveAspectRatio="xMidYMid meet">
<metadata>
Created by potrace 1.14, written by Peter Selinger 2001-2017
</metadata>
<g transform="translate(0.000000,438.000000) scale(0.100000,-0.100000)"
fill="#000000" stroke="none">
<path d="M3183 3733 c-59 -104 -114 -197 -120 -208 -7 -11 -20 -33 -28 -50 -9
-16 -22 -39 -28 -50 -7 -11 -28 -47 -47 -80 -19 -33 -43 -73 -52 -90 -10 -16
-24 -41 -30 -55 -7 -14 -15 -27 -18 -30 -12 -10 -192 -331 -188 -335 2 -2 120
-71 263 -153 143 -82 276 -159 295 -171 19 -11 60 -34 90 -51 67 -38 146 -84
307 -178 l122 -71 34 57 c19 31 70 118 112 192 164 284 268 465 279 485 6 11
13 22 16 25 3 3 16 25 29 48 13 24 54 96 90 160 l68 117 -65 37 c-35 21 -68
38 -73 38 -5 0 -9 3 -9 8 0 4 -10 12 -23 18 -35 17 -138 75 -179 101 -21 13
-40 23 -43 23 -3 0 -18 9 -33 19 -19 13 -497 289 -654 377 -3 2 -55 -80 -115
-183z"/>
<path d="M1300 3318 c-22 -40 -45 -80 -50 -88 -25 -39 -210 -363 -210 -368 0
-3 -6 -13 -14 -21 -7 -9 -28 -43 -46 -76 -48 -87 -62 -111 -114 -198 -25 -43
-46 -80 -46 -82 0 -7 -74 -130 -88 -148 -9 -9 -13 -19 -11 -21 6 -6 344 -203
409 -239 30 -17 84 -48 119 -69 34 -21 64 -38 66 -38 1 0 52 -29 113 -64 61
-36 131 -76 154 -89 24 -14 83 -48 132 -76 49 -28 91 -50 93 -47 6 6 156 264
196 336 16 30 33 60 38 65 6 8 130 223 254 440 13 22 48 83 79 135 60 104 61
102 -4 138 -36 20 -133 76 -160 92 -79 49 -505 290 -512 290 -4 0 -8 5 -8 10
0 6 -4 10 -10 10 -5 0 -80 41 -166 90 -85 50 -159 90 -164 90 -5 0 -27 -33
-50 -72z"/>
<path d="M2542 2615 c-18 -29 -32 -57 -32 -61 0 -4 -6 -15 -14 -23 -8 -9 -21
-27 -28 -41 -21 -40 -211 -368 -230 -398 -10 -15 -24 -40 -32 -57 -9 -16 -27
-50 -42 -75 -29 -49 -27 -44 -139 -239 -71 -123 -76 -135 -59 -145 10 -6 39
-23 64 -37 25 -14 101 -58 169 -97 68 -40 127 -72 132 -72 5 0 9 -3 9 -7 0 -5
10 -13 23 -19 36 -17 141 -75 152 -84 6 -4 26 -17 45 -27 50 -29 356 -205 418
-241 l52 -32 25 40 c14 22 38 62 53 90 25 45 351 609 379 655 7 11 16 27 20
35 4 8 26 47 48 85 23 39 55 95 72 125 l31 55 -182 105 c-99 57 -275 159 -391
225 -115 67 -230 133 -255 147 -25 14 -85 49 -135 78 -49 28 -97 56 -106 60
-12 7 -22 -3 -47 -45z"/>
<path d="M595 2088 c-17 -28 -41 -70 -54 -92 -13 -23 -40 -70 -61 -106 -20
-36 -67 -116 -103 -179 -37 -62 -67 -115 -67 -117 0 -3 -11 -23 -26 -45 -14
-22 -33 -55 -43 -72 -59 -104 -216 -375 -228 -393 -12 -20 -2 -27 263 -180
152 -87 293 -168 313 -179 40 -23 157 -90 203 -118 166 -99 293 -166 298 -160
6 6 305 520 393 673 10 19 67 117 125 218 57 100 103 184 101 186 -2 1 -56 32
-119 68 -63 36 -214 123 -335 193 -246 143 -265 154 -350 202 -33 19 -67 38
-75 43 -51 33 -169 98 -186 104 -15 5 -25 -5 -49 -46z"/>
</g>
</svg>
