<svg width="44" height="42" viewBox="0 0 44 42" fill="none" xmlns="http://www.w3.org/2000/svg">
<rect width="44" height="41.747" rx="6" fill="#4364C8"/>
<path d="M25.6962 12.0064C25.2893 12.0298 24.8886 12.1296 24.5113 12.3183L22.316 13.391H16.0795L12.5372 12.5303C12.4841 12.5147 12.4296 12.5116 12.375 12.5178C12.1817 12.5412 12.0351 12.7003 12.0258 12.8952C12.0164 13.0885 12.1474 13.2615 12.3376 13.3036L15.9298 14.1768L15.9797 14.1892H20.6821L17.2894 15.8481C17.2754 15.8544 17.266 15.8669 17.252 15.8731C16.725 16.1054 16.5862 16.8257 16.9776 17.2451L16.9651 17.2576C16.9713 17.2638 16.9838 17.2638 16.99 17.2701C18.1781 18.572 20.06 19.0038 21.7173 18.3552H21.7298L24.0747 17.4447L28.9143 22.2967C29.2807 22.6631 29.2807 23.24 28.9143 23.6064C28.5479 23.9728 27.971 23.9728 27.6046 23.6064C27.4456 23.4785 27.2164 23.491 27.0714 23.6345C26.928 23.7795 26.9155 24.0087 27.0433 24.1677C27.4097 24.5341 27.4097 25.1234 27.0433 25.4898C26.6769 25.8562 26.1001 25.8562 25.7337 25.4898L25.4468 25.203C25.2878 25.0751 25.0586 25.0876 24.9136 25.231C24.7701 25.376 24.7576 25.6052 24.8855 25.7642C25.2519 26.1306 25.2519 26.72 24.8855 27.0864C24.5191 27.4528 23.9422 27.4528 23.5758 27.0864L23.3014 26.7995C23.1471 26.6405 22.8929 26.6389 22.7339 26.7933C22.5749 26.9476 22.5733 27.2018 22.7277 27.3608C23.0941 27.7272 23.0941 28.3165 22.7277 28.6829C22.3613 29.0493 21.7844 29.0493 21.418 28.6829L20.9191 28.184L21.2184 27.8847C21.8031 27.3 21.8031 26.3489 21.2184 25.7642C20.9269 25.4727 20.5418 25.3277 20.1582 25.3277C20.1535 25.3277 20.1504 25.3277 20.1457 25.3277C20.152 24.9348 20.007 24.5403 19.7092 24.2425C19.4176 23.951 19.0325 23.806 18.649 23.806C18.6287 23.806 18.6069 23.8044 18.5866 23.806C18.5991 23.4053 18.4556 23.0015 18.15 22.6959C17.8585 22.4043 17.4734 22.2468 17.0898 22.2468C17.0696 22.2468 17.0477 22.2453 17.0275 22.2468C17.0399 21.8461 16.8965 21.4423 16.5909 21.1367C16.2993 20.8452 15.9142 20.7002 15.5307 20.7002C15.1471 20.7002 14.762 20.8452 14.4705 21.1367L14.1088 21.4985L12.4997 21.224C12.4748 21.2178 12.4498 21.2131 12.4249 21.2116C12.2051 21.1975 12.0148 21.3659 12.0008 21.5858C11.9868 21.8056 12.1552 21.9958 12.375 22.0098L13.6847 22.2468C13.5662 22.738 13.6894 23.2743 14.0713 23.6563C14.3801 23.965 14.7901 24.11 15.1939 24.0928C15.1768 24.4967 15.3218 24.9067 15.6305 25.2154C15.9392 25.5241 16.3492 25.6691 16.7531 25.652C16.7406 26.0527 16.884 26.4565 17.1896 26.7621C17.4874 27.0599 17.8819 27.2049 18.2748 27.1986C18.2654 27.5931 18.4057 27.9907 18.6989 28.2838L18.7113 28.2963C19.1276 28.7032 19.7263 28.8108 20.2455 28.633L20.8567 29.2442C21.5271 29.9147 22.631 29.9147 23.3014 29.2442C23.6273 28.9184 23.7785 28.488 23.7879 28.0593C24.3647 28.2121 24.9978 28.0967 25.4468 27.6477C25.7726 27.3218 25.9364 26.8915 25.9457 26.4627C26.521 26.614 27.1556 26.5002 27.6046 26.0511C27.9882 25.6676 28.1332 25.1453 28.0786 24.6417C28.5822 24.6978 29.1045 24.5512 29.4881 24.1677C29.9168 23.7389 30.0696 23.1371 29.9496 22.5836L30.1866 22.3466L31.6584 22.1346C31.8782 22.1003 32.0294 21.8929 31.9951 21.6731C31.9608 21.4532 31.7535 21.302 31.5336 21.3363L29.9371 21.5858L29.8124 21.5982L29.5754 21.8352C29.5473 21.8025 29.5192 21.7666 29.4881 21.7354L24.5737 16.821C24.555 16.8023 24.5331 16.7852 24.5113 16.7712C24.5066 16.7665 24.5035 16.7634 24.4988 16.7587C24.3944 16.6043 24.1979 16.5435 24.0249 16.609L21.4305 17.6069C20.0662 18.1463 18.5305 17.7955 17.5638 16.7213L17.5513 16.7088C17.4999 16.6573 17.4968 16.6215 17.5638 16.5965H17.5888L17.6012 16.5841L22.5281 14.1768C22.6123 14.1643 22.6918 14.1253 22.7526 14.0645L24.8606 13.0292H24.873C25.6089 12.6613 26.468 12.7361 27.1431 13.1914L27.2928 13.366L27.3302 13.4159L27.3801 13.4408C28.1051 13.9398 28.9782 14.0723 29.7999 13.8525V13.8649L29.8248 13.8525L31.6833 13.4658C31.9 13.4175 32.0372 13.2023 31.9889 12.9856C31.9406 12.7689 31.7254 12.6317 31.5087 12.68L29.6377 13.0791L29.6253 13.0916H29.6128C29.0172 13.2569 28.4029 13.1477 27.8666 12.7922L27.7169 12.6176L27.6795 12.5802L27.6296 12.5428C27.1712 12.2216 26.6473 12.047 26.1079 12.0064C25.9722 11.9971 25.8319 11.9986 25.6962 12.0064ZM15.5307 21.4735C15.7053 21.4735 15.8831 21.5515 16.0296 21.698C16.3227 21.9911 16.3227 22.4027 16.0296 22.6959L15.7178 22.9952L15.6804 23.0326L15.6305 23.095C15.3374 23.3881 14.9258 23.3881 14.6326 23.095C14.3925 22.8549 14.3567 22.54 14.5079 22.2718C14.5781 22.2219 14.6295 22.1533 14.6576 22.0722L14.9819 21.7604L15.0318 21.698C15.1783 21.5515 15.3561 21.4735 15.5307 21.4735ZM17.0898 23.0326C17.2645 23.0326 17.4422 23.1106 17.5888 23.2572C17.8819 23.5503 17.8819 23.9494 17.5888 24.2425L17.1896 24.6417C16.8965 24.9348 16.4849 24.9348 16.1918 24.6417C15.8987 24.3485 15.8987 23.9494 16.1918 23.6563L16.5909 23.2572C16.7375 23.1106 16.9152 23.0326 17.0898 23.0326ZM18.649 24.5918C18.8236 24.5918 18.9889 24.6697 19.1354 24.8163C19.3771 25.058 19.4176 25.3729 19.2601 25.6395C19.2056 25.68 19.1479 25.7143 19.098 25.7642L18.6989 26.1634V26.1759H18.6864C18.6427 26.2242 18.61 26.2741 18.5741 26.3255C18.3075 26.483 17.9926 26.4425 17.7509 26.2008C17.4578 25.9077 17.4578 25.5085 17.7509 25.2154L18.0503 24.9036L18.1251 24.8412L18.15 24.8163C18.2966 24.6697 18.4743 24.5918 18.649 24.5918ZM20.1582 26.1135C20.3328 26.1135 20.5106 26.179 20.6571 26.3255C20.9502 26.6186 20.9502 27.0303 20.6571 27.3234L20.258 27.7225C20.2237 27.7568 20.1956 27.7958 20.1582 27.8223C20.1551 27.8239 20.1488 27.8207 20.1457 27.8223C19.8666 28.0156 19.5174 27.9798 19.2601 27.7225C19.0715 27.5339 19.0278 27.1565 19.1604 26.8743C19.2103 26.8354 19.2648 26.8073 19.31 26.7621L19.7092 26.3629C19.7622 26.3099 19.8027 26.2476 19.8464 26.1883C19.9462 26.1384 20.0537 26.1135 20.1582 26.1135Z" fill="white"/>
</svg>
