<svg width="168" height="190" viewBox="0 0 168 190" fill="none" xmlns="http://www.w3.org/2000/svg">
<path d="M22.1466 0.839844C15.3699 0.839844 9.75102 3.5352 6.11328 7.62766C2.47554 11.7201 0.746562 17.0087 0.746562 22.2398C0.746562 27.471 2.47554 32.7596 6.11328 36.852C9.75102 40.9445 15.3699 43.6398 22.1466 43.6398C28.9232 43.6398 34.5505 40.9445 38.1882 36.852C41.8259 32.7596 43.5466 27.471 43.5466 22.2398C43.5466 17.0087 41.8259 11.7201 38.1882 7.62766C34.5505 3.5352 28.9232 0.839844 22.1466 0.839844ZM137.707 0.839844C130.93 0.839844 125.311 3.5352 121.673 7.62766C118.036 11.7201 116.307 17.0087 116.307 22.2398C116.307 27.471 118.036 32.7596 121.673 36.852C125.311 40.9445 130.93 43.6398 137.707 43.6398C144.483 43.6398 150.11 40.9445 153.748 36.852C157.386 32.7596 159.107 27.471 159.107 22.2398C159.107 17.0087 157.386 11.7201 153.748 7.62766C150.11 3.5352 144.483 0.839844 137.707 0.839844ZM22.1466 9.39984C26.7832 9.39984 29.7244 10.9845 31.7933 13.312C33.8622 15.6396 34.9866 18.911 34.9866 22.2398C34.9866 25.5687 33.8622 28.8401 31.7933 31.1677C29.7244 33.4952 26.7832 35.0798 22.1466 35.0798C17.5099 35.0798 14.5771 33.4952 12.5082 31.1677C10.4393 28.8401 9.30656 25.5687 9.30656 22.2398C9.30656 18.911 10.4393 15.6396 12.5082 13.312C14.5771 10.9845 17.5099 9.39984 22.1466 9.39984ZM137.707 9.39984C142.343 9.39984 145.284 10.9845 147.353 13.312C149.422 15.6396 150.547 18.911 150.547 22.2398C150.547 25.5687 149.422 28.8401 147.353 31.1677C145.284 33.4952 142.343 35.0798 137.707 35.0798C133.07 35.0798 130.137 33.4952 128.068 31.1677C125.999 28.8401 124.867 25.5687 124.867 22.2398C124.867 18.911 125.999 15.6396 128.068 13.312C130.137 10.9845 133.07 9.39984 137.707 9.39984ZM19.9397 47.9198C9.35337 47.9198 0.679688 56.5935 0.679688 67.1798V111.351C0.679688 117.602 4.3448 122.594 9.23969 125.787V174.18C9.23969 182.403 15.997 189.16 24.2197 189.16C32.4424 189.16 39.1997 182.403 39.1997 174.18V117.662V116.4V85.1859L48.4786 90.2016C49.1048 90.5414 49.8058 90.7195 50.5183 90.7198H73.4397C80.4802 90.7198 86.2797 84.9203 86.2797 77.8798C86.2797 70.8394 80.4802 65.0398 73.4397 65.0398H55.7094L33.6574 52.6763C33.6396 52.666 33.6168 52.6533 33.5989 52.6429H33.5905C30.2465 50.6934 25.5715 47.9198 19.9397 47.9198ZM136.177 47.9198C122.852 47.9198 111.96 58.8124 111.96 72.137V86.4398V124.96V172.04C111.96 181.444 119.675 189.16 129.08 189.16C131.892 189.16 134.564 188.461 136.921 187.246C139.057 188.424 141.466 189.16 144.06 189.16C151.125 189.16 156.985 184.141 158.521 177.49C159.001 176.154 159.04 175.322 159.04 174.18V159.2V125.787C161.306 124.308 163.285 122.425 164.783 120.228C166.513 118.082 167.6 115.397 167.6 112.454V77.8798V75.7398C167.6 69.2485 165.102 62.4785 160.377 57.1235C155.652 51.7685 148.493 47.9198 139.78 47.9198H136.177ZM19.9397 56.4798C22.3809 56.4798 26.2374 58.259 29.3523 60.0744L29.3607 60.0827C29.3774 60.0912 29.3941 60.0996 29.4109 60.1078L52.4995 73.0565C53.1382 73.4132 53.8577 73.6003 54.5893 73.5998H73.4397C75.858 73.5998 77.7197 75.4615 77.7197 77.8798C77.7197 80.2982 75.858 82.1599 73.4397 82.1599H51.5966L23.6847 67.0628C23.1901 66.7953 22.6477 66.6278 22.0884 66.57C21.5291 66.5121 20.9639 66.565 20.4251 66.7257C19.8862 66.8863 19.3843 67.1515 18.948 67.5062C18.5117 67.8608 18.1495 68.2979 17.8821 68.7926C17.6147 69.2872 17.4474 69.8297 17.3898 70.389C17.3321 70.9483 17.3852 71.5135 17.546 72.0523C17.7068 72.5911 17.9721 73.0929 18.3269 73.5291C18.6817 73.9654 19.1189 74.3274 19.6137 74.5946L30.648 80.5632C30.6415 80.6662 30.6387 80.7693 30.6397 80.8725V116.4V117.662V174.18C30.6397 177.779 27.8184 180.6 24.2197 180.6C20.621 180.6 17.7997 177.779 17.7997 174.18V123.965C17.7989 123.11 17.5421 122.275 17.0623 121.567C16.5826 120.86 15.9019 120.312 15.108 119.994C11.6711 118.618 9.23969 115.315 9.23969 111.351V67.1798C9.23969 61.2197 13.9795 56.4798 19.9397 56.4798ZM136.177 56.4798H139.78C146.047 56.4798 150.657 59.0512 153.957 62.7912C157.257 66.5311 159.04 71.5312 159.04 75.7398V103.643V111.351C159.04 112.401 158.846 113.392 158.53 114.327C157.873 115.559 156.627 116.4 155.094 116.4H154.425C152.191 116.4 150.48 114.689 150.48 112.454V73.5998C150.488 73.0272 150.38 72.4589 150.165 71.9284C149.949 71.3979 149.629 70.9162 149.223 70.5116C148.818 70.1071 148.336 69.7879 147.805 69.5732C147.274 69.3584 146.705 69.2524 146.133 69.2613C144.999 69.2791 143.919 69.7458 143.129 70.5592C142.339 71.3726 141.904 72.4661 141.92 73.5998V112.454C141.92 117.927 145.54 122.582 150.48 124.258V159.2V174.18C150.48 175.15 150.042 175.829 150.664 174.489C150.52 174.796 150.413 175.119 150.346 175.45C149.759 178.385 147.218 180.6 144.06 180.6C140.461 180.6 137.64 177.779 137.64 174.18V172.04V159.2V124.96C137.648 124.393 137.543 123.83 137.331 123.303C137.12 122.777 136.806 122.298 136.408 121.894C136.009 121.49 135.535 121.169 135.012 120.951C134.488 120.732 133.927 120.619 133.36 120.619C132.792 120.619 132.231 120.732 131.708 120.951C131.184 121.169 130.71 121.49 130.312 121.894C129.913 122.298 129.599 122.777 129.388 123.303C129.176 123.83 129.072 124.393 129.08 124.96V159.2V172.04V174.18C129.08 176.435 129.627 178.557 130.534 180.483C130.064 180.562 129.579 180.6 129.08 180.6C124.3 180.6 120.52 176.819 120.52 172.04V120.68V86.4398V72.137C120.52 63.4367 127.477 56.4798 136.177 56.4798Z" fill="#FFF7D9"/>
<circle cx="137.5" cy="21.5" r="13.5" fill="#71C2FF"/>
</svg>
