<svg width="214" height="214" viewBox="0 0 214 214" fill="none" xmlns="http://www.w3.org/2000/svg">
<path d="M26.75 40.125C23.2027 40.125 19.8007 41.5341 17.2924 44.0424C14.7841 46.5507 13.375 49.9527 13.375 53.5C13.375 57.0473 14.7841 60.4493 17.2924 62.9576C19.8007 65.4659 23.2027 66.875 26.75 66.875C30.2973 66.875 33.6993 65.4659 36.2076 62.9576C38.7159 60.4493 40.125 57.0473 40.125 53.5C40.125 49.9527 38.7159 46.5507 36.2076 44.0424C33.6993 41.5341 30.2973 40.125 26.75 40.125ZM62.4167 44.5833V62.4167H196.167V44.5833H62.4167ZM26.75 93.625C23.2027 93.625 19.8007 95.0341 17.2924 97.5424C14.7841 100.051 13.375 103.453 13.375 107C13.375 110.547 14.7841 113.949 17.2924 116.458C19.8007 118.966 23.2027 120.375 26.75 120.375C30.2973 120.375 33.6993 118.966 36.2076 116.458C38.7159 113.949 40.125 110.547 40.125 107C40.125 103.453 38.7159 100.051 36.2076 97.5424C33.6993 95.0341 30.2973 93.625 26.75 93.625ZM62.4167 98.0833V115.917H116.857C128.11 104.896 143.505 98.0833 160.5 98.0833H62.4167ZM160.5 115.917C135.533 115.917 115.917 135.533 115.917 160.5C115.917 185.467 135.533 205.083 160.5 205.083C169.417 205.083 178.34 202.401 185.474 197.943L201.513 214L214 201.513L197.943 185.474C202.401 178.34 205.083 169.417 205.083 160.5C205.083 135.533 185.467 115.917 160.5 115.917ZM160.5 133.75C175.658 133.75 187.25 145.342 187.25 160.5C187.25 175.658 175.658 187.25 160.5 187.25C145.342 187.25 133.75 175.658 133.75 160.5C133.75 145.342 145.342 133.75 160.5 133.75ZM26.75 147.125C23.2027 147.125 19.8007 148.534 17.2924 151.042C14.7841 153.551 13.375 156.953 13.375 160.5C13.375 164.047 14.7841 167.449 17.2924 169.958C19.8007 172.466 23.2027 173.875 26.75 173.875C30.2973 173.875 33.6993 172.466 36.2076 169.958C38.7159 167.449 40.125 164.047 40.125 160.5C40.125 156.953 38.7159 153.551 36.2076 151.042C33.6993 148.534 30.2973 147.125 26.75 147.125ZM62.4167 151.583V169.417H98.7974C98.3783 166.501 98.0833 163.532 98.0833 160.5C98.0833 157.468 98.3783 154.499 98.7974 151.583H62.4167Z" fill="#FFF7D9"/>
<circle cx="26.5" cy="53.5" r="13.5" fill="#71C2FF"/>
<circle cx="26.5" cy="106.5" r="13.5" fill="#71C2FF"/>
<circle cx="26.5" cy="160.5" r="13.5" fill="#71C2FF"/>
</svg>
