<svg width="44" height="44" viewBox="0 0 44 44" fill="none" xmlns="http://www.w3.org/2000/svg">
<rect width="44" height="43.1305" rx="6" fill="#ECF1FF"/>
<path d="M18.5616 12C17.8234 12 17.2174 12.6093 17.2174 13.3477V17.6522C17.2174 18.3677 17.8087 18.9566 18.5217 18.9566H20.8621L21.6111 20.4554C21.6472 20.5276 21.7027 20.5884 21.7714 20.6308C21.8401 20.6733 21.9192 20.6958 22 20.6958C22.0808 20.6958 22.1599 20.6733 22.2286 20.6308C22.2973 20.5884 22.3528 20.5276 22.3889 20.4554L23.1379 18.9566H25.5182C26.2312 18.9566 26.8225 18.3677 26.8225 17.6522V13.3477C26.8225 12.6093 26.2165 12 25.4783 12H18.5616ZM18.5616 12.8696H25.4783C25.7401 12.8696 25.953 13.0816 25.953 13.3477V17.6522C25.953 17.9411 25.8052 18.087 25.5182 18.087H22.8696C22.7888 18.087 22.7097 18.1095 22.641 18.1519C22.5723 18.1944 22.5168 18.2551 22.4806 18.3273L22 19.2886L21.5194 18.3273C21.4832 18.2551 21.4277 18.1944 21.359 18.1519C21.2903 18.1095 21.2112 18.087 21.1304 18.087H18.5217C18.2347 18.087 18.0869 17.9411 18.0869 17.6522V13.3477C18.0869 13.0816 18.2998 12.8696 18.5616 12.8696ZM17.231 20.6957C16.2893 20.6957 15.5262 20.9314 14.9891 21.381C14.452 21.8306 14.1739 22.4907 14.1739 23.1957C14.1739 23.4687 14.2368 23.7467 14.2945 23.9846C14.3209 24.0936 14.327 24.1051 14.348 24.1799C14.251 24.3351 14.1739 24.549 14.1739 24.8262C14.1739 25.1704 14.2667 25.4659 14.4643 25.6635C14.5528 25.752 14.6482 25.737 14.7479 25.7755C14.8052 26.0068 14.8637 26.2422 14.9653 26.4328C15.0354 26.5643 15.1105 26.6825 15.1904 26.7852C15.2087 26.8088 15.2428 26.8266 15.2608 26.8489V27.5232C15.2009 27.6527 15.0771 27.7783 14.8184 27.9155C14.5428 28.0616 14.1643 28.2011 13.7705 28.3834C13.3767 28.5657 12.9606 28.794 12.6216 29.1587C12.2825 29.5234 12.04 30.0321 12.0008 30.6694C11.9972 30.7286 12.0058 30.7879 12.026 30.8437C12.0461 30.8995 12.0775 30.9505 12.1182 30.9937C12.1588 31.0369 12.2079 31.0713 12.2623 31.0948C12.3167 31.1184 12.3754 31.1305 12.4347 31.1305H21.5652H22.8696H31.5653C31.6246 31.1305 31.6833 31.1184 31.7377 31.0948C31.7921 31.0713 31.8412 31.0369 31.8818 30.9937C31.9225 30.9505 31.9539 30.8995 31.974 30.8437C31.9942 30.7879 32.0028 30.7286 31.9992 30.6694C31.9592 30.0178 31.6738 29.4983 31.2893 29.1375C30.9048 28.7766 30.4389 28.5553 29.9926 28.3749C29.5462 28.1946 29.1129 28.0541 28.7961 27.9053C28.4969 27.7648 28.3583 27.6329 28.3044 27.5206V26.8481C28.3224 26.8258 28.3565 26.808 28.3749 26.7844C28.4546 26.6817 28.5289 26.5643 28.599 26.4328C28.7007 26.2423 28.7599 26.0067 28.8173 25.7755C28.917 25.737 29.0124 25.752 29.1009 25.6635C29.2985 25.4659 29.3913 25.1704 29.3913 24.8262C29.3913 24.549 29.3143 24.3351 29.2173 24.1799C29.2382 24.1051 29.2443 24.0936 29.2708 23.9846C29.3284 23.7467 29.3913 23.4687 29.3913 23.1957C29.3913 22.7365 29.2734 22.2423 28.9659 21.8336C28.7092 21.4925 28.2786 21.273 27.7753 21.1959L27.6046 20.9088C27.5662 20.844 27.5115 20.7902 27.446 20.7528C27.3805 20.7155 27.3064 20.6958 27.231 20.6957C26.2894 20.6957 25.5262 20.9314 24.9891 21.381C24.4521 21.8306 24.1739 22.4907 24.1739 23.1957C24.1739 23.4687 24.2368 23.7467 24.2945 23.9846C24.3209 24.0936 24.327 24.1051 24.348 24.1799C24.251 24.3351 24.1739 24.549 24.1739 24.8262C24.1739 25.1704 24.2668 25.4659 24.4643 25.6635C24.5528 25.752 24.6483 25.737 24.748 25.7755C24.8052 26.0068 24.8637 26.2422 24.9654 26.4328C25.0355 26.5643 25.1106 26.6825 25.1904 26.7852C25.2088 26.8088 25.2428 26.8266 25.2609 26.8489V27.5232C25.2009 27.6527 25.0772 27.7783 24.8185 27.9155C24.5429 28.0616 24.1644 28.2011 23.7706 28.3834C23.3767 28.5657 22.9606 28.794 22.6216 29.1587C22.2826 29.5234 22.04 30.0321 22.0008 30.6694C22.0005 30.674 22.0002 30.6785 22 30.683C21.9998 30.6785 21.9995 30.674 21.9992 30.6694C21.9591 30.0178 21.6737 29.4983 21.2892 29.1375C20.9047 28.7766 20.4389 28.5553 19.9925 28.3749C19.5462 28.1946 19.1129 28.0541 18.796 27.9053C18.4968 27.7648 18.3583 27.6329 18.3043 27.5206V26.8481C18.3223 26.8258 18.3565 26.808 18.3748 26.7844C18.4545 26.6817 18.5289 26.5643 18.599 26.4328C18.7006 26.2423 18.7599 26.0067 18.8172 25.7755C18.9169 25.737 19.0124 25.752 19.1009 25.6635C19.2985 25.4659 19.3913 25.1704 19.3913 24.8262C19.3913 24.549 19.3142 24.3351 19.2172 24.1799C19.2382 24.1051 19.2443 24.0936 19.2707 23.9846C19.3284 23.7467 19.3913 23.4687 19.3913 23.1957C19.3913 22.7365 19.2733 22.2423 18.9658 21.8336C18.7092 21.4925 18.2786 21.273 17.7753 21.1959L17.6046 20.9088C17.5661 20.844 17.5115 20.7902 17.446 20.7528C17.3805 20.7155 17.3064 20.6958 17.231 20.6957ZM17.0017 21.5958L17.1155 21.7869C17.1539 21.8518 17.2086 21.9056 17.2741 21.9429C17.3396 21.9803 17.4137 22 17.4891 22.0001C17.8965 22.0001 18.1076 22.1404 18.2704 22.3567C18.4331 22.573 18.5217 22.894 18.5217 23.1957C18.5217 23.3031 18.4759 23.5686 18.4249 23.7791C18.3739 23.9896 18.3239 24.1544 18.3239 24.1544C18.2971 24.2417 18.2984 24.3351 18.3277 24.4215C18.357 24.5079 18.4127 24.5829 18.4869 24.6359C18.4926 24.6443 18.5217 24.6838 18.5217 24.8262C18.5217 25.0254 18.4787 25.056 18.4861 25.0486C18.4934 25.0413 18.5036 25.0435 18.4674 25.0435C18.3603 25.0435 18.257 25.0831 18.1772 25.1545C18.0974 25.226 18.0469 25.3243 18.0351 25.4308C18.0171 25.5951 17.9321 25.8362 17.8322 26.0235C17.7822 26.1172 17.7285 26.1987 17.6878 26.2511C17.6471 26.3035 17.5974 26.3244 17.6708 26.2868C17.5997 26.3233 17.54 26.3788 17.4983 26.4472C17.4567 26.5155 17.4347 26.594 17.4348 26.674V27.6523C17.4349 27.7051 17.4447 27.7575 17.4636 27.8068C17.6362 28.2593 18.0301 28.5067 18.4258 28.6925C18.8214 28.8783 19.2599 29.0165 19.6664 29.1808C20.0729 29.3451 20.4406 29.5341 20.6939 29.7718C20.8416 29.9104 20.9446 30.0728 21.02 30.261H13.0538C13.1214 30.0938 13.1443 29.8734 13.2584 29.7506C13.4758 29.5168 13.7852 29.3345 14.1357 29.1723C14.4861 29.0101 14.8706 28.8717 15.226 28.6832C15.5814 28.4947 15.9378 28.2369 16.1015 27.8068C16.1205 27.7575 16.1302 27.7051 16.1304 27.6523V26.674C16.1304 26.5939 16.1083 26.5153 16.0665 26.447C16.0247 26.3787 15.9648 26.3232 15.8935 26.2868C15.9668 26.3243 15.9172 26.3035 15.8765 26.2511C15.8358 26.1987 15.7829 26.1171 15.733 26.0235C15.6331 25.8363 15.5479 25.5949 15.53 25.4308C15.5183 25.3243 15.4677 25.226 15.388 25.1545C15.3082 25.0831 15.2049 25.0435 15.0978 25.0435C15.0616 25.0435 15.0717 25.0413 15.0791 25.0486C15.0865 25.056 15.0434 25.0254 15.0434 24.8262C15.0434 24.6838 15.0726 24.6443 15.0783 24.6359C15.1525 24.5829 15.2082 24.5079 15.2375 24.4215C15.2667 24.3351 15.2681 24.2417 15.2413 24.1544C15.2413 24.1544 15.1913 23.9896 15.1402 23.7791C15.0892 23.5686 15.0434 23.3031 15.0434 23.1957C15.0434 22.705 15.2076 22.3326 15.547 22.0485C15.8481 21.7965 16.3447 21.6344 17.0017 21.5958ZM27.0017 21.5958L27.1155 21.7869C27.154 21.8518 27.2086 21.9056 27.2741 21.9429C27.3396 21.9803 27.4137 22 27.4892 22.0001C27.8965 22.0001 28.1077 22.1404 28.2704 22.3567C28.4331 22.573 28.5218 22.894 28.5218 23.1957C28.5218 23.3031 28.476 23.5686 28.425 23.7791C28.3739 23.9896 28.3239 24.1544 28.3239 24.1544C28.2971 24.2417 28.2985 24.3351 28.3277 24.4215C28.357 24.5079 28.4127 24.5829 28.487 24.6359C28.4926 24.6443 28.5218 24.6838 28.5218 24.8262C28.5218 25.0254 28.4787 25.056 28.4861 25.0486C28.4935 25.0413 28.5037 25.0435 28.4674 25.0435C28.3603 25.0435 28.257 25.0831 28.1773 25.1545C28.0975 25.226 28.0469 25.3243 28.0352 25.4308C28.0171 25.5951 27.9321 25.8362 27.8322 26.0235C27.7823 26.1172 27.7286 26.1987 27.6879 26.2511C27.6471 26.3035 27.5975 26.3244 27.6709 26.2868C27.5997 26.3233 27.54 26.3788 27.4984 26.4472C27.4567 26.5155 27.4347 26.594 27.4348 26.674V27.6523C27.435 27.7051 27.4447 27.7575 27.4637 27.8068C27.6362 28.2593 28.0301 28.5067 28.4258 28.6925C28.8215 28.8783 29.26 29.0165 29.6665 29.1808C30.073 29.3451 30.4407 29.5341 30.694 29.7718C30.8417 29.9104 30.9447 30.0728 31.0201 30.261H23.0538C23.1215 30.0938 23.1443 29.8734 23.2585 29.7506C23.4759 29.5168 23.7853 29.3345 24.1357 29.1723C24.4861 29.0101 24.8707 28.8717 25.2261 28.6832C25.5815 28.4947 25.9378 28.2369 26.1016 27.8068C26.1205 27.7575 26.1303 27.7051 26.1305 27.6523V26.674C26.1305 26.5939 26.1083 26.5153 26.0665 26.447C26.0247 26.3787 25.9649 26.3232 25.8935 26.2868C25.9669 26.3243 25.9173 26.3035 25.8765 26.2511C25.8358 26.1987 25.783 26.1171 25.733 26.0235C25.6332 25.8363 25.548 25.5949 25.5301 25.4308C25.5184 25.3243 25.4678 25.226 25.388 25.1545C25.3083 25.0831 25.2049 25.0435 25.0978 25.0435C25.0616 25.0435 25.0718 25.0413 25.0792 25.0486C25.0865 25.056 25.0435 25.0254 25.0435 24.8262C25.0435 24.6838 25.0726 24.6443 25.0783 24.6359C25.1526 24.5829 25.2083 24.5079 25.2375 24.4215C25.2668 24.3351 25.2681 24.2417 25.2414 24.1544C25.2414 24.1544 25.1913 23.9896 25.1403 23.7791C25.0893 23.5686 25.0435 23.3031 25.0435 23.1957C25.0435 22.705 25.2076 22.3326 25.5471 22.0485C25.8481 21.7965 26.3447 21.6344 27.0017 21.5958Z" fill="#4364C8"/>
</svg>
