<svg width="350" height="298" viewBox="0 0 350 298" fill="none" xmlns="http://www.w3.org/2000/svg">
<path d="M43.2757 215.998C47.2105 213.784 51.8362 213.498 56.199 214.284C58.5419 214.711 60.9824 215.473 62.5818 217.399C64.1813 219.325 64.4741 222.703 62.6419 224.35C61.5531 225.334 60.0362 225.481 58.6245 225.465C55.2078 225.424 51.4157 224.768 48.6899 227.006C47.1279 228.293 46.0917 230.416 44.2369 231.047C42.3821 231.678 40.3547 230.489 39.3935 228.694C38.5053 226.827 38.309 224.658 38.8453 222.637C39.0652 221.232 39.5795 219.902 40.348 218.751C41.1165 217.599 42.1185 216.657 43.2757 215.998Z" fill="#FEFBB2"/>
<path d="M34.2736 197.031C36.6766 200.777 41.3473 199.531 43.5174 197.252C45.6876 194.973 46.5962 191.645 47.4297 188.49C49.3295 181.268 51.2519 173.735 49.8326 166.358C49.4942 164.13 48.5976 162.048 47.242 160.342C46.5569 159.499 45.6808 158.867 44.7015 158.51C43.7223 158.153 42.6743 158.084 41.6627 158.309C39.3048 158.989 37.848 161.506 36.7892 163.907C33.6704 170.977 32.0362 178.717 32.0059 186.563C32.0059 190.211 32.3888 194.039 34.2586 197.055" fill="#FEFBB2"/>
<path d="M27.6724 202.407C30.2856 199.021 30.7812 194.095 29.6173 189.857C28.4533 185.62 25.8627 182.021 22.814 179.079C19.2568 175.625 15.1172 172.96 10.6266 171.234C8.88862 170.465 7.01805 170.118 5.14489 170.218C4.20935 170.276 3.30096 170.582 2.49872 171.111C1.69648 171.64 1.02469 172.374 0.541766 173.251C-0.742302 175.923 0.489201 179.161 1.81832 181.808C4.16301 186.465 6.83952 190.913 9.8231 195.112C12.226 198.489 14.9744 201.817 18.6314 203.308C22.2883 204.8 26.088 204.661 28.0629 201.923" fill="#FEFBB2"/>
<path d="M34.1141 253.54C34.2389 252.984 34.3119 252.416 34.3319 251.843C34.437 250.598 34.5797 249.048 34.7449 247.196C34.9545 244.906 35.2728 242.63 35.6985 240.376C36.2545 237.635 37.0078 234.947 37.9513 232.335C38.8833 229.728 40.1473 227.278 41.7059 225.056C42.9782 223.249 44.6049 221.776 46.4667 220.745C47.7351 220.071 49.0938 219.623 50.4916 219.417C51.0161 219.394 51.537 219.311 52.046 219.171C51.522 219.107 50.9931 219.107 50.4691 219.171C49.0218 219.291 47.6056 219.69 46.2865 220.351C44.33 221.362 42.6135 222.851 41.2703 224.704C39.6436 226.956 38.3303 229.459 37.3731 232.13C36.4054 234.786 35.6516 237.528 35.1203 240.327C34.7162 242.607 34.4379 244.912 34.2868 247.229C34.1516 249.204 34.1066 250.802 34.0766 251.909C34.0352 252.453 34.0477 253 34.1141 253.54Z" fill="#CECECE"/>
<path d="M34.4073 249.967C34.4355 249.694 34.4355 249.419 34.4073 249.147V246.885C34.4073 244.926 34.4073 242.09 34.4974 238.59C34.6551 231.581 35.2483 224.04 36.2771 213.409C37.2833 203.417 38.6425 191.778 40.0767 184.22C40.3771 182.499 40.6925 180.942 40.9778 179.597C41.2632 178.253 41.496 177.065 41.7288 176.114C41.9615 175.163 42.0892 174.474 42.2168 173.925C42.2911 173.659 42.334 173.384 42.3445 173.105C42.2294 173.338 42.1435 173.586 42.0892 173.843C41.9315 174.409 41.7363 175.13 41.4885 176.007C41.2407 176.884 40.9478 178.106 40.6399 179.466C40.332 180.827 39.9716 182.36 39.6337 184.073C37.8655 193.006 36.532 202.035 35.6388 211.122C34.5725 221.778 34.0919 231.475 34.0469 238.491C34.0469 242.008 34.0469 244.852 34.1595 246.811C34.2121 247.729 34.2571 248.45 34.2872 249.065C34.2895 249.37 34.33 249.674 34.4073 249.967Z" fill="#CECECE"/>
<path d="M34.447 231.26C34.5043 230.474 34.5043 229.685 34.447 228.899C34.3247 226.757 34.1041 224.623 33.7862 222.505C33.3154 219.365 32.6811 216.256 31.8863 213.194C30.9493 209.435 29.7493 205.76 28.297 202.202C25.8111 195.618 22.2488 189.583 17.7841 184.39C17.0105 183.503 16.188 182.668 15.3211 181.89C14.9381 181.546 14.6077 181.194 14.2623 180.923L13.3087 180.202C12.7528 179.717 12.1627 179.282 11.544 178.898C11.4389 179.046 14.1196 180.775 17.5063 184.702C21.8064 189.942 25.2574 195.943 27.7112 202.448C29.1269 205.997 30.326 209.644 31.3006 213.366C32.2318 216.792 32.855 219.923 33.3206 222.587C33.7862 225.251 34.0265 227.415 34.1842 228.923C34.2214 229.708 34.3093 230.489 34.447 231.26Z" fill="#CECECE"/>
<path d="M17.8887 264.262L19.6008 289.942H49.8252L51.5448 264.262H17.8887Z" fill="#CECECE"/>
<path d="M55.1484 254.137H14.9668V264.26H55.1484V254.137Z" fill="#CECECE"/>
<path d="M14.9668 288.959V291.762H16.8516H54.4876V288.959H14.9668Z" fill="#7D8488"/>
<path d="M18.7063 296.704L16.8516 291.762H53.0458L50.8831 296.704H18.7063Z" fill="#7D8488"/>
<path d="M50.9807 272.696C50.9432 272.779 50.8951 272.856 50.8381 272.925C50.7179 273.106 50.5752 273.319 50.3875 273.581L48.6304 276.04L48.5478 276.155L48.4727 276.04L44.1474 269.483H44.3952L40.1375 276.04L40.0023 276.245L39.8521 276.056L34.806 269.499H35.0988C35.0087 269.614 34.9111 269.745 34.821 269.876L30.3155 276.056L30.1653 276.261L30.0301 276.048L25.7649 269.491H26.0127C23.9177 272.105 22.1305 274.319 20.7563 276.048L20.6662 276.163L20.5986 276.032C19.9003 274.769 19.3521 273.753 18.9541 273.024C18.7814 272.696 18.6387 272.433 18.5336 272.204C18.4765 272.116 18.431 272.019 18.3984 271.917C18.3984 271.917 18.466 271.999 18.5787 272.171L19.0442 272.942L20.7713 275.901H20.6061L25.7649 269.294L25.9001 269.13L26.0127 269.31L30.3155 275.868H30.0151L34.5206 269.679L34.7985 269.302L34.9486 269.105L35.0913 269.294C36.8635 271.597 38.5606 273.819 40.13 275.851H39.8446L44.1474 269.294L44.275 269.105L44.3952 269.294L48.6304 275.901H48.4802L50.3124 273.515L50.8005 272.892C50.9156 272.723 50.9757 272.657 50.9807 272.696Z" fill="#E0E0E0"/>
<path d="M51.9636 264.088C51.9636 264.202 44.3868 264.293 35.0529 264.293C25.719 264.293 18.1348 264.202 18.1348 264.088C18.1348 263.973 25.704 263.883 35.0529 263.883C44.4018 263.883 51.9636 263.973 51.9636 264.088Z" fill="#7D8488"/>
<path d="M53.4895 292.039C53.4895 292.154 45.2294 292.244 35.1071 292.244C24.9847 292.244 16.7246 292.154 16.7246 292.039C16.7246 291.924 24.9847 291.834 35.1071 291.834C45.2294 291.834 53.4895 291.924 53.4895 292.039Z" fill="#CECECE"/>
<path d="M260.171 188.357H330.404C333.417 188.357 336.307 189.664 338.438 191.99C340.569 194.316 341.766 197.47 341.766 200.759V297.17H248.832V200.759C248.832 197.474 250.026 194.324 252.152 191.999C254.278 189.673 257.162 188.364 260.171 188.357Z" fill="#7D8488"/>
<path d="M333.941 188.914C334.054 188.914 334.137 213.136 334.137 243.013C334.137 272.89 334.054 297.112 333.941 297.112C333.829 297.112 333.746 272.89 333.746 243.013C333.746 213.136 333.836 188.914 333.941 188.914Z" fill="#CECECE"/>
<path d="M288.15 70.237C296.697 83.5936 301.598 99.3228 302.283 115.598C302.718 126.5 301.374 138.115 306.112 147.721C312.916 161.508 327.626 161.041 332.131 175.902C334.091 182.369 330.479 196.591 329.503 203.32C328.399 210.96 332.68 217.378 331.576 225.025C330.562 232.033 325.756 237.034 319.989 240.296C314.853 243.198 310.107 243.28 304.768 240.861C294.586 236.263 286.115 231.411 278.869 222.361C268.687 209.656 265.608 192.033 263.851 175.287C260.016 138.253 260.792 100.823 266.156 64.0156" fill="#3F3F3F"/>
<path d="M309.92 242.427C310.026 242.389 310.134 242.359 310.243 242.336C310.461 242.279 310.791 242.222 311.212 242.082C314.379 241.142 317.218 239.193 319.366 236.484C320.175 235.451 320.792 234.257 321.184 232.967C321.558 231.5 321.773 229.99 321.822 228.467C321.877 224.957 321.549 221.451 320.846 218.025C320.192 214.303 319.344 210.336 319.089 206.033C318.965 203.836 319.108 201.631 319.517 199.475C319.987 197.236 320.625 195.043 321.424 192.918C322.242 190.737 322.959 188.513 323.572 186.254C324.208 183.944 324.387 181.514 324.097 179.123C323.747 176.744 322.913 174.481 321.657 172.5C320.429 170.572 319 168.806 317.399 167.237C314.298 164.073 310.941 161.5 308.073 158.532C302.955 153.363 298.826 147.14 295.923 140.221C294.798 137.572 293.864 134.831 293.129 132.024C292.769 130.803 292.559 129.622 292.303 128.557C292.048 127.491 291.935 126.491 291.77 125.606C291.538 123.811 291.357 122.426 291.312 121.507C291.312 121.048 291.252 120.688 291.237 120.425C291.222 120.163 291.237 120.057 291.237 120.057C291.237 120.057 291.237 120.18 291.29 120.425C291.342 120.671 291.357 121.04 291.41 121.499C291.477 122.442 291.68 123.827 291.935 125.598C292.108 126.483 292.296 127.467 292.499 128.54C292.701 129.614 292.979 130.762 293.355 131.983C294.109 134.762 295.055 137.475 296.186 140.098C299.109 146.954 303.234 153.119 308.328 158.245C311.182 161.147 314.546 163.746 317.677 166.926C319.299 168.518 320.748 170.308 321.995 172.262C323.284 174.297 324.139 176.622 324.495 179.065C324.795 181.513 324.613 184.003 323.962 186.369C323.376 188.697 322.558 190.902 321.799 193.065C321.007 195.165 320.369 197.331 319.892 199.541C319.487 201.666 319.343 203.841 319.464 206.008C319.667 210.254 320.538 214.205 321.184 217.951C321.875 221.407 322.187 224.94 322.115 228.476C322.052 230.024 321.825 231.558 321.439 233.049C321.022 234.362 320.382 235.577 319.554 236.631C318.23 238.309 316.618 239.687 314.808 240.689C313.681 241.342 312.483 241.838 311.242 242.164C310.808 242.288 310.366 242.376 309.92 242.427Z" fill="#7D8488"/>
<path d="M170.107 271.715L206.151 253.034C206.151 253.034 220.186 178.648 222.844 173.066C225.503 167.484 236.586 162.656 236.586 162.656L234.731 263.378L231.427 286.633L180.605 291.887L170.107 271.715Z" fill="#FEFBB2"/>
<path d="M139.357 289.336C139.154 289.336 138.156 290.008 138.989 291.738C139.823 293.467 145.935 299.18 147.73 297.188C149.525 295.197 146.784 292.77 146.784 292.77L139.357 289.336Z" fill="#FFBE9D"/>
<path d="M147.039 292.844C147.039 292.844 154.413 293.86 157.244 295.041C160.33 296.319 164.085 295.442 166.608 293.582C168.042 292.539 169.38 291.348 170.603 290.024L180.004 289.86C181.356 288.133 182.242 286.03 182.566 283.786C182.889 281.542 182.637 279.244 181.836 277.147C181.333 275.688 180.607 274.333 179.689 273.139C178.57 271.819 176.805 270.753 173.757 270.18L162.59 272.811C162.59 272.811 145.319 271.458 142.211 273.049C142.211 273.049 138.343 275.549 137.149 276.598C136.699 276.999 135.325 281.803 138.141 284.303C138.141 284.303 135.693 286.426 137.022 288.336L137.653 289.155C137.653 289.155 136.008 291.483 136.857 292.5C137.705 293.516 145.117 298.237 147.752 297.123C150.388 296.008 148.21 293.311 147.039 292.819" fill="#FFBE9D"/>
<path d="M139.994 280.148C140.306 280.249 140.611 280.369 140.91 280.509C141.488 280.747 142.337 281.091 143.403 281.46C143.929 281.648 144.514 281.837 145.153 282.017C145.791 282.198 146.474 282.353 147.188 282.607C147.964 282.839 148.666 283.302 149.215 283.944C149.518 284.299 149.728 284.737 149.823 285.211C149.918 285.686 149.895 286.179 149.756 286.64C149.579 287.105 149.257 287.485 148.847 287.714C148.461 287.921 148.044 288.048 147.616 288.091C146.83 288.142 146.041 288.095 145.265 287.952C143.966 287.722 142.688 287.36 141.451 286.87C140.392 286.46 139.558 286.05 138.98 285.804C138.674 285.683 138.38 285.53 138.102 285.345C138.415 285.436 138.724 285.549 139.025 285.681C139.611 285.911 140.459 286.263 141.518 286.64C142.741 287.093 143.997 287.431 145.273 287.648C146.018 287.776 146.773 287.814 147.526 287.763C147.915 287.725 148.294 287.609 148.644 287.419C148.985 287.225 149.251 286.905 149.395 286.517C149.517 286.119 149.54 285.693 149.464 285.282C149.388 284.87 149.214 284.488 148.96 284.173C148.448 283.575 147.796 283.141 147.075 282.919C146.384 282.665 145.693 282.501 145.063 282.304C144.432 282.107 143.839 281.903 143.313 281.706C142.247 281.304 141.413 280.886 140.842 280.648C140.546 280.511 140.262 280.344 139.994 280.148Z" fill="#EB996E"/>
<path d="M140.656 274.336C140.967 274.431 141.271 274.551 141.565 274.697C142.151 274.943 142.992 275.295 144.043 275.672C145.094 276.049 146.363 276.492 147.797 276.844C148.584 276.979 149.332 277.31 149.983 277.811C150.327 278.124 150.555 278.565 150.621 279.049C150.687 279.537 150.622 280.035 150.433 280.484C150.242 280.911 149.972 281.291 149.64 281.598C149.308 281.906 148.921 282.135 148.503 282.27C147.746 282.539 146.94 282.61 146.153 282.475C144.872 282.196 143.616 281.795 142.398 281.279L139.913 280.328C139.605 280.222 139.304 280.094 139.012 279.943C139.331 280.001 139.645 280.089 139.95 280.205L142.466 281.025C143.69 281.5 144.945 281.872 146.221 282.139C146.964 282.256 147.722 282.183 148.436 281.926C148.815 281.799 149.167 281.588 149.468 281.306C149.769 281.024 150.013 280.677 150.185 280.287C150.363 279.914 150.423 279.489 150.356 279.075C150.29 278.662 150.1 278.284 149.817 278C149.203 277.532 148.5 277.221 147.76 277.09C146.326 276.697 145.057 276.27 144.005 275.844C142.954 275.418 142.128 275.024 141.557 274.762C141.247 274.647 140.946 274.504 140.656 274.336Z" fill="#EB996E"/>
<path d="M144.208 275.974C144.054 275.439 143.941 274.89 143.87 274.335C143.701 273.802 143.577 273.253 143.502 272.695C143.86 273.122 144.093 273.656 144.17 274.228C144.358 274.79 144.371 275.403 144.208 275.974Z" fill="#EB996E"/>
<path d="M170.213 276.237L163.642 273.516C163.642 273.516 145.403 264.221 145.095 264.729C144.787 265.237 143.796 265.172 144.013 267.598C144.231 270.024 154.857 274.926 155.195 275.795C155.532 276.664 154.969 280.893 158.897 283.934C162.824 286.975 165.655 287.049 165.655 287.049" fill="#FFBE9D"/>
<path d="M165.654 286.974H165.481L165.031 286.925C164.452 286.825 163.882 286.674 163.326 286.474C161.279 285.713 159.386 284.524 157.754 282.974C156.649 281.844 155.867 280.389 155.502 278.785C155.313 277.903 155.183 277.008 155.111 276.105C155.098 276.002 155.076 275.9 155.044 275.802C155.001 275.722 154.942 275.655 154.871 275.605C154.699 275.469 154.521 275.343 154.338 275.228C153.97 274.99 153.587 274.761 153.181 274.531C151.604 273.605 149.915 272.679 148.218 271.613C147.348 271.078 146.503 270.495 145.687 269.867C145.265 269.544 144.868 269.182 144.501 268.785C144.305 268.582 144.136 268.35 143.998 268.097C143.923 267.958 143.872 267.805 143.847 267.646C143.833 267.499 143.833 267.35 143.847 267.203C143.787 266.61 143.884 266.01 144.125 265.474C144.274 265.221 144.472 265.006 144.703 264.843C144.798 264.776 144.884 264.696 144.959 264.605C144.959 264.605 144.959 264.605 145.019 264.531C145.055 264.501 145.101 264.486 145.146 264.49C145.189 264.485 145.232 264.485 145.274 264.49L145.477 264.548C146.461 264.875 147.369 265.31 148.278 265.72C150.08 266.539 151.8 267.359 153.437 268.179C156.718 269.818 159.647 271.277 162.11 272.539C162.725 272.843 163.304 273.162 163.859 273.425L165.466 274.113L168.042 275.228L169.664 275.941L170.077 276.138C170.175 276.138 170.22 276.203 170.22 276.212C170.22 276.22 170.167 276.212 170.069 276.162L169.641 276.007L167.997 275.343L165.399 274.335L163.777 273.671C163.206 273.417 162.628 273.105 162.012 272.802L153.316 268.515C151.672 267.695 149.952 266.876 148.15 266.056C147.249 265.654 146.333 265.236 145.387 264.9L145.222 264.859H145.162C145.162 264.859 145.162 264.81 145.162 264.777C145.372 264.925 145.214 264.826 145.259 264.859C145.169 264.98 145.063 265.085 144.944 265.171C144.743 265.305 144.574 265.487 144.448 265.703C144.237 266.185 144.154 266.722 144.208 267.253C144.203 267.509 144.257 267.763 144.366 267.99C144.491 268.218 144.642 268.427 144.816 268.613C145.171 268.995 145.556 269.343 145.965 269.654C146.776 270.294 147.625 270.851 148.466 271.384C150.155 272.449 151.83 273.384 153.414 274.31C153.812 274.548 154.165 274.777 154.578 275.031C154.772 275.152 154.96 275.283 155.141 275.425C155.251 275.505 155.339 275.615 155.397 275.744C155.434 275.864 155.46 275.988 155.472 276.113C155.543 277.006 155.666 277.893 155.84 278.769C156.183 280.331 156.928 281.753 157.987 282.867C159.587 284.413 161.439 285.617 163.446 286.417C163.993 286.627 164.552 286.794 165.121 286.917C165.316 286.966 165.466 286.982 165.571 286.999L165.654 286.974Z" fill="#EB996E"/>
<path d="M145.538 287.91C145.781 287.942 146.017 288.017 146.237 288.131C146.854 288.402 147.433 288.766 147.956 289.213C148.321 289.525 148.654 289.88 148.948 290.271C149.132 290.491 149.275 290.75 149.366 291.032C149.458 291.313 149.497 291.612 149.481 291.91C149.421 292.249 149.275 292.563 149.06 292.817C148.845 293.07 148.569 293.253 148.264 293.345C147.637 293.532 146.972 293.509 146.357 293.279C144.268 292.604 142.242 291.718 140.305 290.631C139.721 290.299 139.155 289.933 138.608 289.533C138.397 289.402 138.203 289.242 138.029 289.058C138.253 289.154 138.467 289.275 138.668 289.418C139.073 289.672 139.659 290.025 140.402 290.418C142.343 291.43 144.351 292.28 146.41 292.959C146.971 293.171 147.577 293.197 148.152 293.033C148.404 292.961 148.634 292.814 148.815 292.608C148.997 292.403 149.123 292.147 149.18 291.869C149.197 291.606 149.166 291.341 149.088 291.091C149.011 290.84 148.889 290.609 148.73 290.41C148.454 290.028 148.142 289.679 147.799 289.369C147.105 288.781 146.345 288.291 145.538 287.91Z" fill="#EB996E"/>
<g opacity="0.3">
<path d="M231.172 286.631C225.27 264.901 220.066 236.917 214.164 215.188C212.001 235.245 214.704 261.729 218.084 281.582C218.482 283.909 218.662 286.188 220.336 287.721L231.172 286.631Z" fill="black"/>
</g>
<path d="M221.509 271.714C221.427 271.714 221.179 270.296 220.375 268.124C219.903 266.858 219.338 265.636 218.686 264.469C217.872 263.052 216.942 261.719 215.907 260.485C214.858 259.264 213.706 258.153 212.468 257.165C211.453 256.363 210.378 255.656 209.254 255.05C207.332 254.018 206.04 253.641 206.063 253.559C206.376 253.599 206.683 253.678 206.979 253.796C207.335 253.894 207.684 254.02 208.023 254.173C208.483 254.349 208.934 254.552 209.374 254.78C210.531 255.358 211.637 256.049 212.678 256.846C213.949 257.833 215.128 258.953 216.2 260.19C217.25 261.455 218.185 262.827 218.994 264.288C219.642 265.481 220.193 266.735 220.638 268.034C220.841 268.583 220.961 269.1 221.089 269.551C221.204 269.934 221.295 270.325 221.359 270.723C221.438 271.047 221.488 271.379 221.509 271.714Z" fill="#3F3F3F"/>
<path d="M232.757 161.64C232.757 161.64 213.887 207.665 213.887 216.14C213.887 224.615 228.026 283.296 228.026 283.296C227.891 285.632 227.343 297.329 227.343 297.329L306.632 297.633L307.841 279.026L301.654 261.296L307.834 211.173C307.834 211.173 311.994 182.074 312.339 173.935C312.805 163.754 281.206 151.951 282.07 150.541L276.618 142.541L245.373 170.238L239.193 150.762L231.789 158.394L232.757 161.64Z" fill="#FEFBB2"/>
<path d="M284.682 173.884C276.099 189.728 260.397 218.597 260.397 218.597L232.253 253.631C232.253 253.631 230.413 271.426 234.093 276.885C237.772 282.344 244.087 286.073 244.087 286.073C244.087 286.073 251.514 286.073 260.953 277.459C270.392 268.844 296.426 233.245 296.426 233.245L305.37 221.466C305.37 221.466 316.033 192.876 314.043 178.327C313.292 172.712 311.084 170.384 308.171 167.81C300.834 161.359 289.48 165.023 284.682 173.884Z" fill="#FEFBB2"/>
<path d="M308.679 211.551C308.641 211.663 308.596 211.773 308.544 211.879C308.446 212.108 308.304 212.411 308.131 212.813C307.756 213.633 307.185 214.821 306.404 216.33C304.849 219.354 302.432 223.625 299.278 228.78C297.693 231.354 295.929 234.149 293.984 237.117C292.039 240.084 289.831 243.141 288.014 246.715C286.197 250.289 284.545 254.19 282.555 258.092C280.51 262.135 278.114 265.953 275.399 269.494C272.682 273.05 269.487 276.134 265.922 278.642C262.581 280.968 258.849 282.546 254.944 283.281C251.409 283.966 247.78 283.798 244.311 282.789C242.741 282.326 241.228 281.657 239.805 280.797C238.481 280.035 237.237 279.117 236.096 278.06C235.049 277.113 234.111 276.031 233.302 274.838C232.574 273.779 231.955 272.635 231.455 271.428C230.683 269.487 230.177 267.432 229.953 265.33C229.824 264.004 229.781 262.67 229.825 261.338C229.825 260.895 229.87 260.518 229.885 260.297C229.878 260.18 229.878 260.062 229.885 259.945C229.894 260.062 229.894 260.18 229.885 260.297C229.885 260.551 229.885 260.895 229.885 261.338C229.871 262.664 229.936 263.989 230.081 265.305C230.333 267.385 230.859 269.414 231.643 271.33C232.147 272.513 232.767 273.635 233.49 274.674C234.295 275.846 235.228 276.906 236.268 277.83C237.399 278.867 238.631 279.765 239.94 280.51C241.343 281.349 242.833 282.001 244.378 282.453C247.811 283.432 251.399 283.583 254.891 282.896C258.744 282.158 262.425 280.592 265.719 278.289C269.252 275.8 272.42 272.74 275.113 269.215C277.813 265.698 280.194 261.905 282.224 257.887C284.214 254.01 285.821 250.076 287.706 246.518C289.547 243.196 291.552 239.987 293.713 236.903C295.666 233.953 297.468 231.166 299.037 228.608C302.221 223.485 304.669 219.239 306.261 216.248C307.065 214.748 307.658 213.575 308.048 212.772L308.506 211.854C308.553 211.746 308.611 211.644 308.679 211.551Z" fill="#3F3F3F"/>
<path d="M230.811 252.064C230.811 252.122 230.413 252.392 229.895 253.023C229.205 253.823 228.78 254.851 228.687 255.944C228.595 257.037 228.84 258.133 229.384 259.056C229.782 259.778 230.135 260.13 230.135 260.179C230.135 260.228 229.662 259.95 229.166 259.228C228.519 258.272 228.217 257.089 228.318 255.905C228.419 254.721 228.916 253.619 229.714 252.81C230.005 252.45 230.386 252.191 230.811 252.064Z" fill="#3F3F3F"/>
<path d="M236.016 261.361C236.166 261.383 236.315 261.422 236.459 261.476L236.984 261.632L237.735 261.779C239.295 262.004 240.881 261.841 242.376 261.304C244.599 260.491 246.645 259.185 248.383 257.468C250.449 255.303 252.323 252.929 253.978 250.378C255.659 247.805 257.595 245.444 259.752 243.336C260.773 242.402 261.772 241.574 262.606 240.681C263.399 239.886 264.038 238.924 264.483 237.853C264.781 237.07 264.898 236.22 264.823 235.376C264.749 234.533 264.485 233.722 264.055 233.017C263.692 232.531 263.225 232.151 262.696 231.91C262.845 231.941 262.991 231.988 263.131 232.05C263.536 232.247 263.893 232.545 264.175 232.918C264.651 233.64 264.953 234.481 265.052 235.363C265.152 236.246 265.047 237.141 264.746 237.968C264.298 239.086 263.65 240.095 262.838 240.935C261.99 241.853 260.984 242.705 259.985 243.64C257.864 245.744 255.956 248.091 254.293 250.64C252.618 253.213 250.717 255.602 248.616 257.771C246.841 259.498 244.753 260.8 242.489 261.591C240.952 262.116 239.323 262.237 237.735 261.943L236.984 261.755C236.774 261.689 236.601 261.607 236.466 261.558C236.309 261.512 236.158 261.446 236.016 261.361Z" fill="#3F3F3F"/>
<path d="M288.505 169.018C288.41 169.189 288.305 169.353 288.189 169.509C287.942 169.854 287.626 170.329 287.228 170.878C286.372 172.042 285.193 173.78 283.752 175.944C280.077 181.63 276.734 187.562 273.742 193.706C270.198 200.887 267.269 207.551 265.024 212.305C263.912 214.69 262.996 216.608 262.328 217.92L261.6 219.42C261.518 219.599 261.42 219.77 261.307 219.928C261.363 219.738 261.436 219.554 261.524 219.379L262.23 217.829L264.806 212.165C266.984 207.37 269.882 200.69 273.426 193.493C276.421 187.329 279.809 181.402 283.564 175.755C285.066 173.616 286.245 171.895 287.138 170.763L288.159 169.444C288.26 169.288 288.376 169.145 288.505 169.018Z" fill="#3F3F3F"/>
<g opacity="0.3">
<path d="M229.911 259.94C233.568 262.104 237.593 261.874 241.678 261.006C245.802 260.106 249.515 257.679 252.191 254.137C251.573 258.082 249.88 261.733 247.332 264.612C244.734 267.391 240.964 268.998 237.39 268.284C233.816 267.571 230.196 263.899 229.881 259.94" fill="black"/>
</g>
<g opacity="0.3">
<path d="M264.529 236.289C266.85 240.195 267.66 244.946 266.781 249.502C269.883 244.322 270.611 237.765 269.785 231.642C268.959 225.519 266.669 219.74 264.131 214.207C264.131 214.207 261.337 219.371 261.307 219.945C261.172 222.928 262.178 228.535 262.704 231.461C263.405 232.196 263.928 233.11 264.226 234.12C264.523 235.13 264.586 236.205 264.409 237.248" fill="black"/>
</g>
<g opacity="0.3">
<path d="M242.316 281.385C249.781 287.737 260.857 288.032 269.019 282.819C276.881 277.795 281.725 268.745 286.215 260.098C293.176 246.704 301.661 230.138 306.632 215.729C306.632 215.729 292.703 236.475 288.505 245.417C285.707 251.463 282.531 257.291 278.999 262.86C275.002 269.136 269.599 274.188 263.305 277.536C257.01 280.884 250.035 282.415 243.045 281.983" fill="black"/>
</g>
<path d="M227.342 297.287C227.33 297.203 227.33 297.117 227.342 297.033C227.342 296.836 227.342 296.59 227.342 296.287C227.342 295.59 227.394 294.648 227.439 293.443C227.544 290.984 227.687 287.459 227.867 283.254V283.352C226.523 278.434 224.946 272.467 223.309 266.024C221.147 257.483 219.322 249.713 218.09 244.065C217.482 241.245 217.002 238.95 216.701 237.36C216.558 236.598 216.446 235.983 216.363 235.532C216.319 235.319 216.286 235.103 216.266 234.885C216.342 235.086 216.399 235.294 216.438 235.508L216.851 237.327C217.219 238.967 217.73 241.213 218.353 243.991C219.652 249.623 221.522 257.377 223.685 265.91C225.314 272.352 226.869 278.32 228.19 283.246V283.303C227.957 287.508 227.762 291.008 227.619 293.5C227.544 294.689 227.484 295.639 227.439 296.336C227.439 296.631 227.394 296.877 227.379 297.074C227.375 297.146 227.362 297.218 227.342 297.287Z" fill="#3F3F3F"/>
<path d="M306.655 167.335C306.655 167.4 305.844 167.089 304.545 166.736C302.851 166.27 301.117 165.995 299.371 165.917C297.624 165.864 295.878 166.013 294.16 166.359C292.838 166.63 292.035 166.876 292.02 166.81C292.186 166.693 292.369 166.605 292.56 166.548C293.065 166.358 293.579 166.196 294.1 166.064C295.822 165.626 297.588 165.433 299.356 165.49C301.137 165.549 302.904 165.857 304.612 166.408C305.124 166.571 305.625 166.768 306.114 166.999C306.49 167.204 306.655 167.302 306.655 167.335Z" fill="#3F3F3F"/>
<path d="M281.551 152.205C281.496 152.354 281.428 152.497 281.348 152.631L280.71 153.803C280.147 154.82 279.313 156.263 278.254 158.058C276.129 161.607 273.088 166.451 269.491 171.599C266.6 175.754 263.799 179.484 261.509 182.402L261.344 182.607L261.246 182.361C260.15 179.755 259.248 177.591 258.595 176.025C258.302 175.304 258.07 174.713 257.882 174.263C257.79 174.061 257.717 173.85 257.664 173.632C257.785 173.816 257.888 174.014 257.972 174.222C258.175 174.664 258.43 175.238 258.76 175.943C259.444 177.492 260.39 179.632 261.524 182.222L261.268 182.181C263.521 179.23 266.292 175.492 269.183 171.345C272.773 166.197 275.836 161.394 278.021 157.885L280.582 153.713L281.28 152.582C281.355 152.444 281.446 152.317 281.551 152.205Z" fill="#3F3F3F"/>
<path d="M299.806 284.393C299.694 284.393 300.039 280.122 300.557 274.885C301.076 269.647 301.609 265.417 301.714 265.434C301.819 265.45 301.474 269.696 300.963 274.934C300.452 280.171 299.897 284.401 299.806 284.393Z" fill="#3F3F3F"/>
<path d="M245.453 283.27C245.88 285.631 246.178 288.017 246.347 290.417C246.651 292.8 246.819 295.2 246.85 297.606C246.428 295.244 246.129 292.857 245.956 290.458C245.661 288.075 245.493 285.674 245.453 283.27Z" fill="#3F3F3F"/>
<path d="M285.561 189.654C285.525 189.491 285.453 189.34 285.352 189.214C285.252 189.087 285.125 188.989 284.982 188.928C284.839 188.866 284.685 188.842 284.533 188.859C284.38 188.875 284.233 188.931 284.104 189.023L284.052 189.072C283.934 189.186 283.846 189.332 283.795 189.496C283.745 189.659 283.735 189.834 283.765 190.003C283.795 190.172 283.866 190.329 283.969 190.46C284.072 190.59 284.204 190.689 284.353 190.746C284.501 190.804 284.661 190.818 284.817 190.788C284.972 190.758 285.117 190.684 285.238 190.574C285.36 190.463 285.452 190.321 285.508 190.159C285.563 189.998 285.579 189.824 285.554 189.654H285.561Z" fill="white"/>
<path d="M277.727 168.818C277.691 168.655 277.619 168.504 277.519 168.378C277.418 168.252 277.291 168.153 277.148 168.092C277.006 168.03 276.852 168.006 276.699 168.023C276.546 168.039 276.399 168.095 276.271 168.187L276.226 168.236C276.108 168.35 276.02 168.497 275.969 168.66C275.919 168.823 275.908 168.998 275.939 169.167C275.969 169.336 276.039 169.493 276.142 169.624C276.245 169.754 276.378 169.853 276.527 169.91C276.675 169.968 276.835 169.982 276.99 169.952C277.146 169.922 277.291 169.848 277.412 169.738C277.533 169.627 277.626 169.485 277.682 169.323C277.737 169.162 277.753 168.988 277.727 168.818Z" fill="white"/>
<path d="M259.76 185.597C259.723 185.434 259.652 185.283 259.551 185.157C259.45 185.031 259.323 184.933 259.181 184.871C259.038 184.809 258.884 184.785 258.731 184.802C258.579 184.819 258.432 184.875 258.303 184.966H258.258C258.14 185.08 258.052 185.226 258.001 185.389C257.951 185.552 257.94 185.726 257.97 185.895C257.999 186.064 258.069 186.221 258.171 186.352C258.274 186.483 258.406 186.582 258.554 186.64C258.702 186.698 258.862 186.714 259.017 186.684C259.172 186.655 259.318 186.582 259.439 186.473C259.561 186.363 259.655 186.221 259.711 186.061C259.767 185.9 259.784 185.726 259.76 185.556V185.597Z" fill="white"/>
<path d="M240.333 177.172C240.298 177.009 240.227 176.858 240.127 176.732C240.027 176.605 239.901 176.507 239.758 176.445C239.616 176.383 239.463 176.36 239.31 176.376C239.158 176.393 239.012 176.449 238.884 176.54L238.831 176.59C238.713 176.704 238.625 176.85 238.575 177.014C238.524 177.177 238.514 177.352 238.544 177.521C238.575 177.69 238.645 177.847 238.748 177.977C238.851 178.108 238.983 178.207 239.132 178.264C239.281 178.322 239.441 178.336 239.596 178.306C239.751 178.276 239.897 178.202 240.018 178.092C240.139 177.981 240.232 177.838 240.287 177.677C240.342 177.516 240.358 177.342 240.333 177.172Z" fill="white"/>
<path d="M236.902 168.868C236.866 168.706 236.794 168.555 236.693 168.429C236.592 168.302 236.465 168.204 236.323 168.142C236.18 168.081 236.026 168.057 235.873 168.073C235.721 168.09 235.574 168.146 235.445 168.237L235.393 168.287C235.271 168.401 235.18 168.548 235.127 168.713C235.074 168.878 235.062 169.056 235.092 169.228C235.122 169.4 235.192 169.56 235.296 169.693C235.401 169.826 235.535 169.926 235.686 169.985C235.837 170.043 235.999 170.058 236.157 170.026C236.314 169.995 236.462 169.919 236.584 169.806C236.706 169.693 236.799 169.547 236.854 169.382C236.908 169.218 236.922 169.041 236.894 168.868H236.902Z" fill="white"/>
<path d="M238.394 159.279C238.358 159.116 238.286 158.965 238.185 158.839C238.085 158.712 237.958 158.614 237.815 158.553C237.672 158.491 237.518 158.467 237.366 158.484C237.213 158.5 237.066 158.556 236.937 158.647L236.885 158.688C236.767 158.803 236.679 158.948 236.628 159.111C236.578 159.274 236.567 159.449 236.597 159.618C236.626 159.786 236.696 159.944 236.798 160.075C236.901 160.205 237.033 160.305 237.181 160.363C237.329 160.421 237.489 160.436 237.644 160.407C237.799 160.377 237.945 160.304 238.066 160.195C238.188 160.086 238.281 159.944 238.338 159.783C238.394 159.622 238.411 159.449 238.387 159.279H238.394Z" fill="white"/>
<path d="M227.636 172.474C227.6 172.311 227.528 172.16 227.428 172.034C227.327 171.908 227.2 171.81 227.057 171.748C226.915 171.686 226.761 171.662 226.608 171.679C226.455 171.695 226.308 171.752 226.18 171.843L226.127 171.884C226.009 171.998 225.921 172.144 225.87 172.307C225.82 172.47 225.809 172.644 225.839 172.813C225.869 172.982 225.938 173.139 226.041 173.27C226.143 173.401 226.275 173.5 226.423 173.558C226.571 173.616 226.731 173.632 226.886 173.602C227.041 173.573 227.187 173.5 227.309 173.39C227.43 173.281 227.524 173.139 227.58 172.978C227.636 172.818 227.653 172.644 227.629 172.474H227.636Z" fill="white"/>
<path d="M252.589 176.277C252.553 176.115 252.483 175.964 252.383 175.837C252.283 175.711 252.156 175.613 252.014 175.551C251.872 175.489 251.719 175.465 251.566 175.482C251.414 175.498 251.268 175.555 251.14 175.646L251.087 175.695C250.969 175.81 250.881 175.956 250.831 176.119C250.78 176.282 250.77 176.457 250.8 176.626C250.831 176.795 250.901 176.953 251.004 177.083C251.107 177.213 251.239 177.312 251.388 177.37C251.537 177.427 251.696 177.442 251.852 177.412C252.007 177.381 252.152 177.307 252.274 177.197C252.395 177.087 252.488 176.944 252.543 176.783C252.598 176.621 252.614 176.447 252.589 176.277Z" fill="white"/>
<path d="M231.457 193.384C231.42 193.221 231.349 193.071 231.248 192.944C231.147 192.818 231.02 192.72 230.878 192.658C230.735 192.596 230.581 192.573 230.428 192.589C230.276 192.606 230.129 192.662 230 192.753H229.947C229.83 192.867 229.741 193.013 229.691 193.176C229.64 193.339 229.629 193.513 229.659 193.682C229.689 193.851 229.758 194.008 229.861 194.139C229.963 194.27 230.095 194.369 230.243 194.427C230.392 194.486 230.551 194.501 230.706 194.471C230.862 194.442 231.007 194.369 231.129 194.26C231.25 194.15 231.344 194.008 231.4 193.848C231.456 193.687 231.473 193.513 231.449 193.343L231.457 193.384Z" fill="white"/>
<path d="M212.145 242.581C212.108 242.419 212.037 242.268 211.936 242.142C211.835 242.015 211.708 241.917 211.565 241.855C211.423 241.793 211.269 241.77 211.116 241.786C210.963 241.803 210.816 241.859 210.688 241.95L210.643 241.991C210.525 242.105 210.436 242.251 210.386 242.414C210.335 242.577 210.324 242.751 210.354 242.92C210.384 243.089 210.454 243.247 210.556 243.377C210.659 243.508 210.791 243.607 210.939 243.666C211.087 243.724 211.247 243.739 211.402 243.71C211.557 243.68 211.703 243.607 211.824 243.498C211.946 243.389 212.039 243.247 212.095 243.086C212.152 242.925 212.169 242.751 212.145 242.581Z" fill="white"/>
<path d="M219.036 214.204C218.999 214.042 218.928 213.891 218.827 213.765C218.726 213.638 218.599 213.54 218.457 213.478C218.314 213.417 218.16 213.393 218.007 213.409C217.855 213.426 217.708 213.482 217.579 213.573L217.526 213.622C217.409 213.737 217.32 213.883 217.27 214.046C217.22 214.21 217.209 214.384 217.24 214.553C217.27 214.722 217.34 214.88 217.443 215.01C217.546 215.141 217.679 215.24 217.827 215.297C217.976 215.355 218.136 215.369 218.291 215.339C218.446 215.309 218.592 215.235 218.713 215.124C218.834 215.014 218.927 214.871 218.982 214.71C219.038 214.549 219.053 214.374 219.028 214.204H219.036Z" fill="white"/>
<path d="M269.859 164.384C269.823 164.221 269.751 164.071 269.65 163.944C269.55 163.818 269.423 163.72 269.28 163.658C269.137 163.596 268.983 163.573 268.831 163.589C268.678 163.606 268.531 163.662 268.402 163.753L268.35 163.794C268.232 163.908 268.144 164.054 268.093 164.217C268.042 164.38 268.032 164.554 268.061 164.723C268.091 164.892 268.161 165.049 268.263 165.18C268.366 165.311 268.498 165.41 268.646 165.468C268.794 165.527 268.954 165.542 269.109 165.512C269.264 165.483 269.41 165.41 269.531 165.301C269.653 165.191 269.746 165.049 269.802 164.889C269.859 164.728 269.876 164.554 269.852 164.384H269.859Z" fill="white"/>
<path d="M294.07 220.876C294.033 220.714 293.962 220.563 293.861 220.436C293.76 220.31 293.633 220.212 293.491 220.15C293.348 220.088 293.194 220.065 293.041 220.081C292.889 220.098 292.742 220.154 292.613 220.245L292.561 220.294C292.439 220.409 292.348 220.556 292.295 220.721C292.242 220.886 292.23 221.064 292.26 221.236C292.29 221.407 292.36 221.568 292.464 221.701C292.568 221.833 292.703 221.934 292.854 221.993C293.005 222.051 293.167 222.065 293.325 222.034C293.482 222.003 293.63 221.927 293.752 221.814C293.874 221.701 293.967 221.555 294.022 221.39C294.076 221.226 294.09 221.049 294.062 220.876H294.07Z" fill="white"/>
<path d="M303.508 172.261C303.472 172.099 303.402 171.948 303.302 171.822C303.202 171.695 303.075 171.597 302.933 171.535C302.791 171.473 302.638 171.45 302.485 171.466C302.333 171.483 302.187 171.539 302.059 171.63L302.006 171.671C301.888 171.786 301.8 171.931 301.749 172.094C301.699 172.257 301.688 172.432 301.718 172.6C301.747 172.769 301.817 172.927 301.92 173.057C302.022 173.188 302.154 173.287 302.302 173.346C302.45 173.404 302.61 173.419 302.765 173.39C302.92 173.36 303.066 173.287 303.187 173.178C303.309 173.069 303.403 172.927 303.459 172.766C303.515 172.605 303.532 172.431 303.508 172.261Z" fill="white"/>
<path d="M299.804 204.097C299.768 203.934 299.696 203.784 299.596 203.657C299.495 203.531 299.368 203.433 299.225 203.371C299.083 203.309 298.928 203.285 298.776 203.302C298.623 203.319 298.476 203.375 298.348 203.466L298.295 203.515C298.174 203.63 298.082 203.777 298.03 203.942C297.977 204.107 297.965 204.284 297.994 204.456C298.024 204.628 298.094 204.788 298.199 204.921C298.303 205.054 298.437 205.155 298.588 205.213C298.739 205.272 298.902 205.286 299.059 205.255C299.217 205.223 299.364 205.147 299.486 205.034C299.609 204.921 299.702 204.775 299.756 204.611C299.811 204.446 299.825 204.269 299.797 204.097H299.804Z" fill="white"/>
<path d="M278.622 227.091C278.585 226.928 278.514 226.778 278.413 226.651C278.312 226.525 278.185 226.427 278.043 226.365C277.9 226.303 277.746 226.28 277.593 226.296C277.44 226.313 277.294 226.369 277.165 226.46L277.112 226.509C276.995 226.624 276.906 226.77 276.856 226.933C276.806 227.096 276.795 227.271 276.826 227.44C276.856 227.609 276.926 227.767 277.029 227.897C277.132 228.027 277.265 228.126 277.413 228.184C277.562 228.242 277.722 228.256 277.877 228.226C278.032 228.195 278.178 228.121 278.299 228.011C278.42 227.901 278.513 227.758 278.568 227.597C278.624 227.435 278.639 227.261 278.614 227.091H278.622Z" fill="white"/>
<path d="M279.517 207.943C279.481 207.78 279.409 207.629 279.308 207.503C279.208 207.377 279.081 207.278 278.938 207.217C278.795 207.155 278.641 207.131 278.489 207.148C278.336 207.164 278.189 207.22 278.06 207.312L278.008 207.361C277.887 207.475 277.795 207.622 277.742 207.788C277.69 207.953 277.678 208.13 277.707 208.302C277.737 208.474 277.807 208.634 277.912 208.767C278.016 208.9 278.15 209.001 278.301 209.059C278.452 209.118 278.614 209.132 278.772 209.1C278.93 209.069 279.077 208.993 279.199 208.88C279.322 208.767 279.415 208.621 279.469 208.457C279.524 208.292 279.538 208.115 279.51 207.943H279.517Z" fill="white"/>
<path d="M292.29 172.426C292.255 172.263 292.184 172.112 292.084 171.986C291.984 171.859 291.858 171.761 291.715 171.699C291.573 171.637 291.42 171.614 291.267 171.63C291.115 171.647 290.969 171.703 290.841 171.794L290.788 171.844C290.67 171.958 290.582 172.104 290.532 172.268C290.481 172.431 290.471 172.606 290.501 172.775C290.532 172.944 290.602 173.101 290.705 173.231C290.808 173.362 290.94 173.461 291.089 173.518C291.238 173.576 291.398 173.59 291.553 173.56C291.708 173.53 291.854 173.456 291.975 173.345C292.096 173.235 292.189 173.092 292.244 172.931C292.299 172.77 292.315 172.596 292.29 172.426Z" fill="white"/>
<path d="M275.115 153.884C275.08 153.722 275.009 153.571 274.909 153.445C274.809 153.318 274.683 153.22 274.541 153.158C274.399 153.096 274.245 153.073 274.093 153.089C273.94 153.106 273.794 153.162 273.666 153.253L273.613 153.294C273.496 153.409 273.407 153.554 273.357 153.717C273.306 153.88 273.295 154.055 273.325 154.223C273.355 154.392 273.424 154.55 273.527 154.68C273.629 154.811 273.761 154.91 273.909 154.969C274.058 155.027 274.217 155.042 274.372 155.013C274.528 154.983 274.673 154.91 274.795 154.801C274.916 154.692 275.01 154.55 275.066 154.389C275.122 154.228 275.139 154.054 275.115 153.884Z" fill="white"/>
<path d="M274.463 183.778C274.428 183.614 274.357 183.462 274.257 183.335C274.156 183.207 274.029 183.108 273.886 183.046C273.743 182.984 273.588 182.961 273.435 182.978C273.281 182.996 273.134 183.054 273.006 183.147L272.961 183.188C272.843 183.302 272.755 183.448 272.704 183.611C272.654 183.773 272.643 183.948 272.673 184.117C272.703 184.286 272.772 184.443 272.875 184.574C272.977 184.704 273.109 184.804 273.257 184.862C273.405 184.92 273.565 184.935 273.72 184.906C273.875 184.877 274.021 184.804 274.143 184.694C274.264 184.585 274.358 184.443 274.414 184.282C274.47 184.122 274.487 183.948 274.463 183.778Z" fill="white"/>
<path d="M252.505 274.968C252.468 274.811 252.398 274.665 252.3 274.542C252.202 274.42 252.079 274.324 251.941 274.262C251.803 274.201 251.654 274.176 251.505 274.189C251.357 274.202 251.213 274.253 251.086 274.337L251.033 274.378C250.916 274.492 250.827 274.638 250.777 274.801C250.726 274.964 250.715 275.138 250.745 275.307C250.775 275.476 250.844 275.633 250.947 275.764C251.049 275.895 251.181 275.994 251.329 276.052C251.478 276.111 251.637 276.126 251.792 276.096C251.948 276.067 252.093 275.994 252.215 275.885C252.336 275.775 252.43 275.633 252.486 275.473C252.542 275.312 252.559 275.138 252.535 274.968H252.505Z" fill="white"/>
<path d="M227.311 259.966C227.275 259.803 227.203 259.653 227.102 259.526C227.002 259.4 226.875 259.302 226.732 259.24C226.589 259.178 226.435 259.155 226.283 259.171C226.13 259.188 225.983 259.244 225.854 259.335L225.802 259.384C225.684 259.499 225.596 259.645 225.545 259.808C225.495 259.971 225.485 260.146 225.515 260.315C225.545 260.484 225.616 260.642 225.719 260.772C225.822 260.902 225.954 261.001 226.103 261.059C226.251 261.117 226.411 261.131 226.567 261.101C226.722 261.07 226.867 260.996 226.988 260.886C227.11 260.776 227.202 260.633 227.258 260.472C227.313 260.31 227.329 260.136 227.304 259.966H227.311Z" fill="white"/>
<path d="M206.939 267.32C206.903 267.157 206.831 267.006 206.731 266.88C206.63 266.753 206.503 266.655 206.36 266.594C206.218 266.532 206.064 266.508 205.911 266.525C205.758 266.541 205.611 266.597 205.483 266.689L205.438 266.729C205.32 266.844 205.231 266.99 205.181 267.152C205.13 267.315 205.119 267.49 205.149 267.659C205.179 267.827 205.249 267.985 205.351 268.116C205.454 268.246 205.585 268.346 205.734 268.404C205.882 268.462 206.041 268.477 206.197 268.448C206.352 268.418 206.497 268.346 206.619 268.236C206.741 268.127 206.834 267.985 206.89 267.824C206.947 267.664 206.963 267.49 206.939 267.32Z" fill="white"/>
<path d="M204.763 279.984C204.727 279.821 204.655 279.67 204.555 279.544C204.454 279.418 204.327 279.319 204.184 279.258C204.042 279.196 203.888 279.172 203.735 279.189C203.582 279.205 203.435 279.261 203.307 279.353L203.254 279.394C203.136 279.508 203.048 279.654 202.997 279.816C202.947 279.979 202.936 280.154 202.966 280.323C202.996 280.491 203.065 280.649 203.168 280.78C203.27 280.91 203.402 281.01 203.55 281.068C203.698 281.126 203.858 281.141 204.013 281.112C204.168 281.082 204.314 281.01 204.436 280.9C204.557 280.791 204.651 280.649 204.707 280.488C204.763 280.328 204.78 280.154 204.756 279.984H204.763Z" fill="white"/>
<path d="M223.856 284.222C223.82 284.059 223.748 283.909 223.648 283.782C223.547 283.656 223.42 283.558 223.277 283.496C223.135 283.434 222.981 283.41 222.828 283.427C222.675 283.444 222.528 283.5 222.4 283.591L222.355 283.64C222.237 283.755 222.148 283.901 222.098 284.064C222.048 284.227 222.037 284.402 222.068 284.571C222.098 284.74 222.168 284.897 222.271 285.028C222.374 285.158 222.507 285.257 222.655 285.315C222.804 285.372 222.964 285.387 223.119 285.356C223.275 285.326 223.42 285.252 223.541 285.142C223.662 285.032 223.755 284.889 223.81 284.728C223.866 284.566 223.882 284.392 223.856 284.222Z" fill="white"/>
<path d="M217.474 255.859C217.438 255.696 217.366 255.545 217.265 255.419C217.165 255.293 217.038 255.194 216.895 255.133C216.752 255.071 216.598 255.047 216.446 255.064C216.293 255.08 216.146 255.136 216.017 255.228L215.965 255.277C215.844 255.391 215.752 255.538 215.7 255.704C215.647 255.869 215.635 256.046 215.664 256.218C215.694 256.39 215.764 256.55 215.869 256.683C215.973 256.816 216.107 256.917 216.258 256.975C216.409 257.034 216.571 257.048 216.729 257.016C216.887 256.985 217.034 256.909 217.156 256.796C217.279 256.683 217.372 256.537 217.426 256.373C217.481 256.208 217.495 256.031 217.467 255.859H217.474Z" fill="white"/>
<path d="M240.902 263.073C240.867 262.909 240.797 262.757 240.696 262.629C240.596 262.502 240.468 262.403 240.325 262.341C240.182 262.279 240.027 262.256 239.874 262.273C239.721 262.291 239.574 262.349 239.446 262.442L239.4 262.483C239.283 262.597 239.194 262.743 239.144 262.906C239.093 263.068 239.082 263.243 239.112 263.412C239.142 263.581 239.212 263.738 239.314 263.869C239.416 263.999 239.548 264.099 239.697 264.157C239.845 264.215 240.004 264.23 240.16 264.201C240.315 264.172 240.46 264.099 240.582 263.989C240.704 263.88 240.797 263.738 240.853 263.577C240.909 263.417 240.926 263.243 240.902 263.073Z" fill="white"/>
<path d="M296.6 255.819C296.566 255.656 296.496 255.504 296.396 255.376C296.297 255.248 296.17 255.149 296.027 255.087C295.885 255.025 295.73 255.002 295.577 255.019C295.425 255.037 295.278 255.095 295.15 255.188L295.098 255.229C294.98 255.343 294.892 255.489 294.841 255.652C294.79 255.815 294.78 255.989 294.809 256.158C294.839 256.327 294.909 256.485 295.011 256.615C295.114 256.746 295.246 256.845 295.394 256.903C295.542 256.962 295.702 256.977 295.857 256.948C296.012 256.918 296.158 256.845 296.279 256.736C296.401 256.627 296.494 256.485 296.551 256.324C296.607 256.163 296.624 255.989 296.6 255.819Z" fill="white"/>
<path d="M262.139 291.863C262.103 291.7 262.031 291.549 261.931 291.423C261.83 291.296 261.703 291.198 261.56 291.137C261.418 291.075 261.263 291.051 261.111 291.068C260.958 291.084 260.811 291.14 260.682 291.231L260.63 291.281C260.512 291.395 260.424 291.541 260.374 291.705C260.323 291.868 260.313 292.043 260.343 292.212C260.374 292.381 260.444 292.538 260.547 292.669C260.65 292.799 260.782 292.898 260.931 292.955C261.079 293.013 261.239 293.027 261.395 292.997C261.55 292.967 261.695 292.893 261.817 292.783C261.938 292.672 262.031 292.53 262.086 292.368C262.141 292.207 262.157 292.033 262.132 291.863H262.139Z" fill="white"/>
<path d="M276.835 271.795C276.8 271.632 276.729 271.481 276.629 271.355C276.529 271.228 276.403 271.13 276.26 271.068C276.118 271.006 275.965 270.983 275.812 270.999C275.66 271.016 275.514 271.072 275.386 271.164L275.333 271.213C275.215 271.327 275.127 271.473 275.077 271.637C275.026 271.8 275.016 271.975 275.046 272.144C275.077 272.313 275.147 272.47 275.25 272.601C275.353 272.731 275.485 272.83 275.634 272.887C275.783 272.945 275.942 272.959 276.098 272.929C276.253 272.899 276.399 272.825 276.52 272.715C276.641 272.604 276.734 272.462 276.789 272.3C276.844 272.139 276.86 271.965 276.835 271.795Z" fill="white"/>
<path d="M285.568 288.113C285.534 287.95 285.466 287.798 285.368 287.669C285.269 287.541 285.145 287.44 285.004 287.375C284.863 287.311 284.709 287.283 284.557 287.296C284.404 287.309 284.257 287.361 284.126 287.449L284.081 287.498C283.963 287.613 283.875 287.759 283.825 287.922C283.774 288.085 283.764 288.26 283.794 288.429C283.825 288.598 283.895 288.755 283.998 288.886C284.101 289.016 284.233 289.115 284.382 289.173C284.531 289.23 284.691 289.245 284.846 289.214C285.001 289.184 285.147 289.11 285.268 289C285.389 288.89 285.482 288.747 285.537 288.585C285.592 288.424 285.608 288.25 285.583 288.08L285.568 288.113Z" fill="white"/>
<path d="M261.274 202.656C261.238 202.493 261.166 202.342 261.065 202.216C260.965 202.089 260.838 201.991 260.695 201.929C260.552 201.868 260.398 201.844 260.246 201.861C260.093 201.877 259.946 201.933 259.817 202.024L259.765 202.074C259.647 202.188 259.559 202.334 259.508 202.498C259.458 202.661 259.448 202.836 259.478 203.005C259.508 203.174 259.578 203.331 259.681 203.461C259.785 203.592 259.917 203.691 260.066 203.748C260.214 203.806 260.374 203.82 260.529 203.79C260.685 203.76 260.83 203.686 260.951 203.576C261.073 203.465 261.165 203.322 261.221 203.161C261.276 203 261.292 202.826 261.267 202.656H261.274Z" fill="white"/>
<path d="M281.049 244.322C281.012 244.159 280.941 244.008 280.84 243.882C280.739 243.755 280.612 243.657 280.469 243.595C280.327 243.534 280.173 243.51 280.02 243.527C279.867 243.543 279.72 243.599 279.592 243.69L279.539 243.731C279.421 243.846 279.333 243.991 279.282 244.154C279.232 244.317 279.221 244.492 279.251 244.661C279.281 244.829 279.35 244.987 279.453 245.118C279.555 245.248 279.687 245.347 279.835 245.406C279.983 245.464 280.143 245.479 280.298 245.45C280.454 245.42 280.599 245.347 280.721 245.238C280.842 245.129 280.936 244.987 280.992 244.826C281.048 244.665 281.065 244.492 281.041 244.322H281.049Z" fill="white"/>
<path d="M274.636 260.097C274.6 259.934 274.528 259.783 274.428 259.657C274.327 259.531 274.2 259.433 274.057 259.371C273.915 259.309 273.761 259.285 273.608 259.302C273.455 259.319 273.308 259.375 273.18 259.466L273.127 259.507C273.009 259.621 272.921 259.767 272.87 259.93C272.82 260.093 272.809 260.267 272.839 260.436C272.869 260.605 272.938 260.762 273.041 260.893C273.143 261.024 273.275 261.123 273.423 261.181C273.571 261.239 273.731 261.255 273.886 261.225C274.041 261.196 274.187 261.123 274.309 261.014C274.43 260.904 274.524 260.762 274.58 260.602C274.636 260.441 274.653 260.267 274.629 260.097H274.636Z" fill="white"/>
<path d="M295.713 272.769C295.677 272.606 295.605 272.455 295.505 272.329C295.404 272.203 295.277 272.105 295.134 272.043C294.992 271.981 294.838 271.957 294.685 271.974C294.532 271.99 294.385 272.047 294.257 272.138L294.204 272.187C294.086 272.302 293.998 272.448 293.948 272.611C293.897 272.774 293.887 272.949 293.917 273.118C293.948 273.287 294.018 273.444 294.121 273.575C294.224 273.705 294.356 273.804 294.505 273.862C294.654 273.919 294.814 273.934 294.969 273.903C295.124 273.873 295.27 273.799 295.391 273.689C295.512 273.579 295.605 273.436 295.66 273.274C295.715 273.113 295.731 272.939 295.706 272.769H295.713Z" fill="white"/>
<path d="M238.037 291.075C238.002 290.911 237.931 290.759 237.831 290.631C237.73 290.504 237.603 290.405 237.46 290.343C237.317 290.281 237.162 290.258 237.009 290.275C236.855 290.293 236.708 290.35 236.58 290.444L236.527 290.485C236.41 290.599 236.321 290.745 236.271 290.907C236.22 291.07 236.209 291.245 236.239 291.414C236.269 291.582 236.339 291.74 236.441 291.871C236.543 292.001 236.675 292.101 236.824 292.159C236.972 292.217 237.131 292.232 237.287 292.203C237.442 292.174 237.587 292.101 237.709 291.991C237.831 291.882 237.924 291.74 237.98 291.579C238.036 291.419 238.053 291.245 238.029 291.075H238.037Z" fill="white"/>
<path d="M189.976 286.281C189.94 286.118 189.868 285.967 189.767 285.841C189.667 285.714 189.54 285.616 189.397 285.554C189.254 285.493 189.1 285.469 188.948 285.486C188.795 285.502 188.648 285.558 188.519 285.649L188.467 285.699C188.346 285.813 188.254 285.96 188.201 286.125C188.149 286.291 188.137 286.468 188.166 286.64C188.196 286.812 188.266 286.972 188.371 287.105C188.475 287.238 188.609 287.338 188.76 287.397C188.911 287.456 189.073 287.47 189.231 287.438C189.389 287.407 189.536 287.331 189.658 287.218C189.781 287.105 189.874 286.959 189.928 286.795C189.983 286.63 189.997 286.453 189.969 286.281H189.976Z" fill="white"/>
<path d="M232.312 277.663C232.276 277.501 232.204 277.35 232.103 277.224C232.003 277.097 231.876 276.999 231.733 276.937C231.59 276.875 231.436 276.852 231.284 276.868C231.131 276.885 230.984 276.941 230.855 277.032L230.803 277.081C230.682 277.196 230.59 277.343 230.537 277.508C230.485 277.673 230.473 277.851 230.502 278.023C230.532 278.194 230.602 278.355 230.706 278.488C230.811 278.621 230.945 278.721 231.096 278.78C231.247 278.838 231.409 278.853 231.567 278.821C231.725 278.79 231.872 278.714 231.994 278.601C232.117 278.488 232.21 278.342 232.264 278.177C232.318 278.013 232.332 277.836 232.305 277.663H232.312Z" fill="white"/>
<path d="M191.764 268.295C191.729 268.132 191.658 267.98 191.558 267.852C191.457 267.725 191.33 267.626 191.187 267.564C191.043 267.502 190.889 267.478 190.735 267.496C190.582 267.513 190.435 267.571 190.307 267.664L190.262 267.705C190.144 267.82 190.056 267.965 190.005 268.128C189.955 268.291 189.944 268.465 189.973 268.634C190.003 268.803 190.073 268.961 190.175 269.091C190.278 269.222 190.41 269.321 190.558 269.38C190.706 269.438 190.866 269.453 191.021 269.424C191.176 269.394 191.322 269.321 191.443 269.212C191.565 269.103 191.658 268.961 191.715 268.8C191.771 268.639 191.788 268.465 191.764 268.295Z" fill="white"/>
<path d="M259.496 238.54C259.459 238.378 259.388 238.227 259.287 238.101C259.186 237.974 259.059 237.876 258.917 237.814C258.774 237.752 258.62 237.729 258.467 237.745C258.315 237.762 258.168 237.818 258.039 237.909L257.986 237.95C257.869 238.064 257.78 238.21 257.73 238.373C257.679 238.536 257.668 238.71 257.698 238.879C257.728 239.048 257.798 239.206 257.9 239.336C258.002 239.467 258.134 239.566 258.282 239.625C258.431 239.683 258.59 239.698 258.746 239.669C258.901 239.639 259.046 239.566 259.168 239.457C259.29 239.348 259.383 239.206 259.439 239.045C259.495 238.884 259.512 238.71 259.488 238.54H259.496Z" fill="white"/>
<path d="M245.318 193.384C245.282 193.221 245.21 193.071 245.109 192.944C245.009 192.818 244.882 192.72 244.739 192.658C244.596 192.596 244.442 192.573 244.29 192.589C244.137 192.606 243.99 192.662 243.861 192.753H243.809C243.691 192.867 243.602 193.013 243.552 193.176C243.501 193.339 243.491 193.513 243.52 193.682C243.55 193.851 243.62 194.008 243.722 194.139C243.825 194.27 243.957 194.369 244.105 194.427C244.253 194.486 244.413 194.501 244.568 194.471C244.723 194.442 244.869 194.369 244.99 194.26C245.112 194.15 245.205 194.008 245.261 193.848C245.318 193.687 245.335 193.513 245.311 193.343L245.318 193.384Z" fill="white"/>
<path d="M241.774 232.533C241.738 232.37 241.666 232.219 241.566 232.093C241.465 231.966 241.338 231.868 241.195 231.806C241.053 231.745 240.899 231.721 240.746 231.738C240.593 231.754 240.446 231.81 240.318 231.901L240.273 231.951C240.155 232.065 240.066 232.211 240.016 232.375C239.966 232.538 239.955 232.713 239.986 232.882C240.016 233.051 240.086 233.208 240.189 233.338C240.292 233.469 240.425 233.568 240.573 233.625C240.722 233.683 240.882 233.697 241.037 233.667C241.193 233.637 241.338 233.563 241.459 233.453C241.58 233.342 241.673 233.199 241.728 233.038C241.784 232.877 241.8 232.703 241.774 232.533Z" fill="white"/>
<path d="M236.008 219.771C235.971 219.608 235.9 219.457 235.799 219.331C235.698 219.205 235.571 219.106 235.429 219.045C235.286 218.983 235.132 218.959 234.979 218.976C234.827 218.992 234.68 219.049 234.551 219.14H234.506C234.388 219.254 234.3 219.4 234.249 219.563C234.199 219.725 234.188 219.9 234.218 220.069C234.247 220.238 234.317 220.395 234.42 220.526C234.522 220.656 234.654 220.756 234.802 220.814C234.95 220.872 235.11 220.887 235.265 220.858C235.42 220.829 235.566 220.756 235.687 220.646C235.809 220.537 235.903 220.395 235.959 220.234C236.015 220.074 236.032 219.9 236.008 219.73V219.771Z" fill="white"/>
<path d="M261.517 259.917C261.481 259.755 261.409 259.604 261.308 259.477C261.208 259.351 261.081 259.253 260.938 259.191C260.795 259.129 260.641 259.106 260.489 259.122C260.336 259.139 260.189 259.195 260.06 259.286L260.008 259.335C259.887 259.45 259.795 259.597 259.742 259.762C259.69 259.927 259.678 260.105 259.707 260.277C259.737 260.448 259.807 260.609 259.912 260.742C260.016 260.874 260.15 260.975 260.301 261.034C260.452 261.092 260.614 261.106 260.772 261.075C260.93 261.044 261.077 260.968 261.199 260.855C261.322 260.742 261.415 260.596 261.469 260.431C261.524 260.267 261.538 260.09 261.51 259.917H261.517Z" fill="white"/>
<path d="M243.53 252.041C243.498 251.876 243.429 251.721 243.33 251.59C243.231 251.46 243.104 251.358 242.96 251.293C242.817 251.229 242.661 251.203 242.506 251.22C242.352 251.236 242.203 251.293 242.073 251.386L242.021 251.435C241.903 251.55 241.814 251.696 241.764 251.859C241.714 252.022 241.703 252.197 241.734 252.366C241.764 252.535 241.834 252.692 241.937 252.823C242.04 252.953 242.173 253.052 242.321 253.11C242.47 253.167 242.63 253.182 242.785 253.151C242.941 253.121 243.086 253.047 243.207 252.937C243.328 252.827 243.421 252.684 243.476 252.522C243.532 252.361 243.548 252.187 243.522 252.017L243.53 252.041Z" fill="white"/>
<path d="M251.229 208.802C251.193 208.64 251.122 208.489 251.023 208.363C250.923 208.236 250.796 208.138 250.654 208.076C250.512 208.014 250.358 207.991 250.206 208.007C250.054 208.024 249.907 208.08 249.779 208.171L249.727 208.212C249.609 208.327 249.52 208.472 249.47 208.635C249.419 208.798 249.408 208.973 249.438 209.141C249.468 209.31 249.538 209.468 249.64 209.598C249.743 209.729 249.874 209.828 250.023 209.887C250.171 209.945 250.331 209.96 250.486 209.931C250.641 209.901 250.787 209.828 250.908 209.719C251.03 209.61 251.123 209.468 251.179 209.307C251.236 209.146 251.252 208.972 251.229 208.802Z" fill="white"/>
<path d="M223.856 239.417C223.82 239.255 223.748 239.104 223.648 238.977C223.547 238.851 223.42 238.753 223.277 238.691C223.135 238.629 222.981 238.606 222.828 238.622C222.675 238.639 222.528 238.695 222.4 238.786L222.355 238.835C222.237 238.95 222.148 239.096 222.098 239.259C222.048 239.423 222.037 239.597 222.068 239.766C222.098 239.935 222.168 240.093 222.271 240.223C222.374 240.354 222.507 240.453 222.655 240.51C222.804 240.568 222.964 240.582 223.119 240.552C223.275 240.522 223.42 240.448 223.541 240.337C223.662 240.227 223.755 240.084 223.81 239.923C223.866 239.762 223.882 239.587 223.856 239.417Z" fill="white"/>
<path d="M266.105 225.368C266.069 225.206 265.997 225.055 265.896 224.929C265.796 224.802 265.669 224.704 265.526 224.642C265.383 224.581 265.229 224.557 265.077 224.573C264.924 224.59 264.777 224.646 264.648 224.737L264.596 224.778C264.478 224.893 264.39 225.038 264.339 225.201C264.289 225.364 264.278 225.539 264.307 225.707C264.337 225.876 264.407 226.034 264.509 226.164C264.612 226.295 264.744 226.394 264.892 226.453C265.04 226.511 265.2 226.526 265.355 226.497C265.51 226.467 265.656 226.394 265.777 226.285C265.899 226.176 265.992 226.034 266.049 225.873C266.105 225.712 266.122 225.538 266.098 225.368H266.105Z" fill="white"/>
<path d="M305.294 188.679C305.257 188.516 305.186 188.366 305.085 188.239C304.984 188.113 304.857 188.015 304.714 187.953C304.572 187.891 304.418 187.868 304.265 187.884C304.112 187.901 303.966 187.957 303.837 188.048L303.784 188.097C303.666 188.212 303.578 188.358 303.528 188.521C303.478 188.684 303.467 188.859 303.497 189.028C303.528 189.197 303.598 189.355 303.701 189.485C303.804 189.615 303.936 189.714 304.085 189.772C304.234 189.829 304.394 189.844 304.549 189.814C304.704 189.783 304.85 189.709 304.971 189.599C305.092 189.489 305.185 189.346 305.24 189.185C305.295 189.023 305.311 188.849 305.286 188.679H305.294Z" fill="white"/>
<path d="M289.381 160.902C289.345 160.739 289.273 160.588 289.173 160.462C289.072 160.336 288.945 160.237 288.802 160.176C288.66 160.114 288.506 160.09 288.353 160.107C288.2 160.123 288.053 160.179 287.925 160.271L287.872 160.32C287.754 160.434 287.666 160.58 287.616 160.744C287.565 160.907 287.555 161.082 287.585 161.251C287.616 161.42 287.686 161.577 287.789 161.708C287.892 161.838 288.024 161.937 288.173 161.994C288.322 162.052 288.482 162.066 288.637 162.036C288.792 162.006 288.938 161.932 289.059 161.822C289.18 161.711 289.273 161.569 289.328 161.407C289.383 161.246 289.399 161.072 289.374 160.902H289.381Z" fill="white"/>
<path d="M258.549 164.384C258.512 164.221 258.441 164.071 258.34 163.944C258.239 163.818 258.112 163.72 257.969 163.658C257.827 163.596 257.673 163.573 257.52 163.589C257.367 163.606 257.22 163.662 257.092 163.753L257.039 163.794C256.921 163.908 256.833 164.054 256.782 164.217C256.732 164.38 256.721 164.554 256.751 164.723C256.781 164.892 256.85 165.049 256.953 165.18C257.055 165.311 257.187 165.41 257.335 165.468C257.483 165.527 257.643 165.542 257.798 165.512C257.954 165.483 258.099 165.41 258.221 165.301C258.342 165.191 258.436 165.049 258.492 164.889C258.548 164.728 258.565 164.554 258.541 164.384H258.549Z" fill="white"/>
<path d="M227.096 64.6699C221.186 68.7683 218.835 77.3831 219.947 82.4733C220.517 85.0389 221.584 87.6209 221.118 90.2029C220.72 92.4407 219.241 94.2358 218.115 96.1702C216.259 99.4266 215.406 103.246 215.681 107.069C215.957 110.892 217.346 114.519 219.645 117.419C221.944 120.319 225.033 122.339 228.459 123.185C231.886 124.032 235.471 123.659 238.69 122.121" fill="#3F3F3F"/>
<path d="M223.594 98.2691C209.206 63.7278 243.433 46.3752 262.101 52.1294C279.65 57.5393 287.137 67.0721 290.028 79.8837C292.919 92.6953 292.776 106.589 288.173 118.794C285.92 124.81 281.82 130.925 275.895 131.679" fill="#3F3F3F"/>
<path d="M240.453 182.622C240.205 166.114 240.025 143.45 240.025 143.54C240.025 143.63 227.056 141.187 224.331 122.695C222.994 113.49 223.422 98.4001 224.128 86.0639C224.774 74.9572 231.509 61.3342 241.647 62.5063L273.298 71.2359C274.784 71.4062 276.157 72.18 277.144 73.4038C278.132 74.6276 278.662 76.212 278.629 77.8425L276.572 149.294" fill="#FFBE9D"/>
<path d="M229.79 97.3499C229.777 97.9643 229.986 98.5595 230.37 99.0083C230.755 99.4571 231.285 99.7239 231.847 99.7516C232.122 99.7796 232.399 99.7472 232.662 99.6562C232.926 99.5653 233.17 99.4176 233.38 99.2219C233.59 99.0263 233.762 98.7867 233.885 98.5172C234.009 98.2478 234.082 97.954 234.1 97.6532C234.11 97.0386 233.902 96.4437 233.518 95.994C233.134 95.5443 232.605 95.2752 232.042 95.2434C231.767 95.2165 231.49 95.25 231.226 95.3419C230.963 95.4339 230.719 95.5823 230.509 95.7786C230.299 95.9749 230.128 96.215 230.004 96.4849C229.88 96.7547 229.808 97.0489 229.79 97.3499Z" fill="#3F3F3F"/>
<path d="M252.256 97.3487C252.246 97.9617 252.455 98.5548 252.839 99.0018C253.224 99.4489 253.753 99.7145 254.314 99.7422C254.589 99.7702 254.866 99.7378 255.129 99.6468C255.392 99.5558 255.636 99.4082 255.846 99.2125C256.056 99.0169 256.228 98.7772 256.352 98.5078C256.476 98.2384 256.549 97.9446 256.566 97.6438C256.579 97.0295 256.37 96.4342 255.986 95.9854C255.601 95.5366 255.071 95.2698 254.509 95.2421C254.233 95.2141 253.956 95.2468 253.692 95.3383C253.428 95.4298 253.184 95.5782 252.974 95.7747C252.764 95.9712 252.592 96.2118 252.469 96.4822C252.345 96.7526 252.273 97.0473 252.256 97.3487Z" fill="#3F3F3F"/>
<path d="M227.447 93.0396C227.71 93.3593 229.399 92.0888 231.735 92.2199C234.07 92.3511 235.745 93.6462 236.015 93.3429C236.143 93.2117 235.88 92.6462 235.151 92.0232C234.165 91.2183 232.973 90.7686 231.742 90.7363C230.525 90.6896 229.327 91.0656 228.318 91.8101C227.582 92.3675 227.319 92.8921 227.447 93.0396Z" fill="#3F3F3F"/>
<path d="M249.661 93.6459C249.931 93.9574 251.576 92.6131 253.911 92.6131C256.246 92.6131 257.974 93.8754 258.221 93.564C258.349 93.4246 258.071 92.8672 257.32 92.2771C256.306 91.5121 255.099 91.111 253.866 91.1295C252.65 91.1295 251.466 91.5546 250.487 92.3426C249.766 92.9492 249.526 93.5066 249.661 93.6459Z" fill="#3F3F3F"/>
<path d="M241.638 113.318C241.638 113.17 240.196 112.9 237.838 112.564C237.237 112.498 236.674 112.367 236.576 111.924C236.523 111.25 236.662 110.574 236.974 109.99C237.53 108.416 238.123 106.76 238.739 105.023C241.195 97.9571 242.967 92.1373 242.704 92.0308C242.441 91.9242 240.241 97.5718 237.793 104.646L236.096 109.646C235.72 110.432 235.611 111.338 235.788 112.203C235.875 112.433 236.009 112.637 236.18 112.802C236.35 112.967 236.552 113.087 236.772 113.154C237.102 113.255 237.443 113.308 237.785 113.31C240.158 113.449 241.63 113.457 241.638 113.318Z" fill="#3F3F3F"/>
<path d="M240.025 143.538C248.009 143.671 255.87 141.384 262.733 136.932C262.733 136.932 256.996 149.801 240.025 148.071V143.538Z" fill="#EB996E"/>
<path d="M249.082 90.0158C249.307 90.7126 251.65 90.3765 254.391 90.7453C257.132 91.1142 259.354 91.9175 259.722 91.2945C259.888 90.9994 259.497 90.3437 258.604 89.6552C257.408 88.8318 256.057 88.3161 254.652 88.1471C253.247 87.9781 251.825 88.1603 250.494 88.6797C249.487 89.1388 248.977 89.688 249.082 90.0158Z" fill="#3F3F3F"/>
<path d="M227.987 86.6279C228.4 87.2099 230.015 86.6279 231.952 86.5787C233.889 86.5295 235.534 86.9722 235.909 86.3656C236.075 86.0705 235.819 85.4886 235.098 84.9394C234.141 84.2647 233.015 83.9323 231.877 83.9885C230.739 84.0128 229.635 84.4192 228.716 85.1525C228.032 85.7345 227.807 86.3328 227.987 86.6279Z" fill="#3F3F3F"/>
<path d="M275.724 102.205C275.971 102.073 284.802 97.811 284.907 108.893C285.012 119.975 274.792 117.803 274.77 117.483C274.747 117.164 275.724 102.205 275.724 102.205Z" fill="#FFBE9D"/>
<path d="M277.834 113.236C277.879 113.236 278.014 113.367 278.314 113.514C278.738 113.699 279.211 113.699 279.636 113.514C280.702 113.072 281.588 111.203 281.618 109.203C281.641 108.254 281.463 107.311 281.1 106.449C281.003 106.103 280.83 105.788 280.595 105.533C280.361 105.277 280.073 105.088 279.756 104.982C279.552 104.924 279.337 104.947 279.148 105.046C278.958 105.145 278.807 105.314 278.72 105.523C278.584 105.834 278.652 106.055 278.599 106.072C278.547 106.088 278.374 105.891 278.457 105.432C278.51 105.158 278.648 104.912 278.847 104.736C278.984 104.619 279.141 104.533 279.308 104.482C279.476 104.431 279.651 104.417 279.823 104.441C280.241 104.526 280.631 104.727 280.957 105.024C281.283 105.321 281.534 105.704 281.686 106.137C282.128 107.092 282.35 108.15 282.331 109.219C282.286 111.449 281.258 113.555 279.793 114.031C279.522 114.12 279.235 114.143 278.954 114.096C278.674 114.049 278.406 113.934 278.171 113.76C277.856 113.506 277.803 113.252 277.834 113.236Z" fill="#EB996E"/>
<path d="M238.267 57.0254C232.62 60.2139 230.293 72.8206 232.628 79.2797C234.963 85.7388 241.264 88.8863 247.474 90.3699C253.684 91.8536 259.774 92.0093 265.901 90.1732C266.322 94.6651 268.792 99.2799 272.787 100.468C278.081 102.034 283.413 96.7471 284.591 90.9027C285.77 85.0584 283.998 79.042 282.256 73.3616" fill="#3F3F3F"/>
<path d="M283.061 97.2286C283.061 97.2286 282.805 97.5565 282.272 98.0483C281.527 98.7368 280.747 99.3798 279.937 99.9745C278.725 100.887 277.393 101.592 275.987 102.065C274.23 102.669 272.342 102.638 270.603 101.975C268.891 101.222 267.457 99.8695 266.525 98.1302C265.771 96.741 265.274 95.2038 265.061 93.6056C264.913 92.5427 264.86 91.4666 264.903 90.3925C264.887 89.9995 264.93 89.6062 265.031 89.2285C265.144 89.2285 265.031 90.9089 265.467 93.5236C265.724 95.043 266.233 96.4985 266.968 97.8188C267.86 99.4211 269.2 100.668 270.791 101.376C272.418 101.99 274.18 102.03 275.829 101.491C277.193 101.06 278.495 100.423 279.696 99.5975C281.784 98.1712 283 97.1384 283.061 97.2286Z" fill="#3F3F3F"/>
<path d="M242.33 120.431C242.628 121.392 243.053 122.3 243.591 123.127C243.861 123.542 244.209 123.889 244.612 124.144C245.015 124.4 245.463 124.559 245.927 124.611C246.422 124.607 246.909 124.47 247.344 124.211C247.779 123.952 248.148 123.58 248.42 123.127C248.943 122.2 249.185 121.115 249.11 120.029C249.073 119.054 248.66 117.89 247.774 117.775C247.401 117.761 247.031 117.851 246.7 118.037L242.029 120.103" fill="#EB996E"/>
<path d="M244.192 124.622C244.192 124.466 245.243 124.917 246.685 124.286C247.502 123.941 248.173 123.279 248.569 122.425C248.793 121.905 248.914 121.339 248.925 120.764C248.935 120.19 248.834 119.619 248.63 119.089C248.521 118.819 248.385 118.563 248.224 118.327C248.036 118.114 248.066 118.122 247.871 118.155C247.676 118.188 247.368 118.368 247.12 118.474L246.369 118.819C245.371 119.261 244.462 119.638 243.704 119.958C242.202 120.581 241.203 120.909 241.158 120.778C241.113 120.647 241.999 120.122 243.471 119.352C244.222 118.966 245.085 118.532 246.069 118.032L246.82 117.663C247.098 117.54 247.3 117.409 247.676 117.278C247.9 117.196 248.142 117.196 248.367 117.278C248.572 117.373 248.751 117.526 248.885 117.72C249.386 118.431 249.689 119.285 249.757 120.179C249.825 121.073 249.655 121.97 249.268 122.761C249.019 123.264 248.68 123.707 248.273 124.066C247.866 124.425 247.397 124.692 246.895 124.852C246.242 125.086 245.543 125.117 244.875 124.942C244.394 124.852 244.177 124.679 244.192 124.622Z" fill="#3F3F3F"/>
<path d="M287.13 94.6051C286.094 94.5232 277.706 95.7117 278.367 112.72C278.983 128.614 289.195 125.114 292.454 119.13C295.518 113.466 297.305 95.3838 287.13 94.6051Z" fill="#7D8488"/>
<path d="M292.289 96.6139C292.265 96.4677 292.253 96.3197 292.251 96.1712C292.251 95.8352 292.251 95.4089 292.206 94.868C292.206 93.6958 292.131 92.0565 292.078 90.0237C292.003 85.8515 291.898 80.04 291.771 73.3432L291.958 73.5399H287.641L287.836 73.3268C287.836 74.5891 287.896 75.9252 287.933 77.2858C288.076 83.6629 288.211 89.581 288.324 94.5893V94.7368H288.196C286.423 95.1831 284.849 96.2904 283.743 97.868C282.906 99.0913 282.301 100.485 281.964 101.966C281.739 102.921 281.585 103.894 281.506 104.876C281.506 105.212 281.468 105.475 281.461 105.647C281.453 105.819 281.461 105.917 281.461 105.917C281.451 105.827 281.451 105.737 281.461 105.647C281.461 105.475 281.461 105.212 281.461 104.868C281.497 103.873 281.623 102.885 281.836 101.917C282.149 100.392 282.745 98.9527 283.586 97.6877C284.719 96.0453 286.341 94.8859 288.174 94.4089L288.046 94.5893C287.918 89.6138 287.761 83.6711 287.595 77.2858C287.558 75.9334 287.528 74.5973 287.498 73.3268V73.1055H292.206V73.3104C292.274 80.0154 292.334 85.8187 292.379 89.9991C292.379 92.0319 292.379 93.6712 292.379 94.8434C292.379 95.3844 292.379 95.8106 292.379 96.1385C292.369 96.3007 292.339 96.4607 292.289 96.6139Z" fill="#7D8488"/>
<path d="M287.13 73.3339C287.13 73.3339 282.744 62.1371 272.299 56.6043C268.304 54.4324 264.108 52.7342 259.781 51.5387C259.781 51.5387 265.879 49.9649 275.738 54.7518C280.244 56.9322 284.749 59.7601 287.753 64.0142C289.645 66.7109 292.018 71.9815 292.011 73.3339H287.13Z" fill="#7D8488"/>
<path d="M260.096 208.966C260.096 208.966 260.156 208.884 260.283 208.745C260.411 208.606 260.606 208.393 260.847 208.106C261.567 207.274 262.244 206.398 262.874 205.483C263.877 204.018 264.792 202.485 265.615 200.892C266.591 199.032 267.612 196.835 268.716 194.384C270.931 189.466 273.492 183.548 276.15 176.745C277.472 173.343 278.824 169.728 280.175 165.917L281.181 163.031C281.499 162.022 281.903 161.047 282.39 160.122C282.91 159.162 283.664 158.379 284.568 157.859C285.028 157.583 285.545 157.439 286.07 157.441C286.357 157.463 286.632 157.571 286.866 157.753C287.087 157.949 287.26 158.202 287.369 158.49V158.548V158.613C287.305 159.004 287.167 159.375 286.964 159.704C286.737 160.046 286.403 160.285 286.025 160.376C285.304 160.485 284.569 160.338 283.93 159.958C283.259 159.616 282.711 159.039 282.375 158.318C282.039 157.598 281.934 156.776 282.075 155.982C282.228 155.167 282.667 154.449 283.299 153.982C283.922 153.508 284.673 153.274 285.432 153.318C285.824 153.321 286.21 153.431 286.554 153.639C286.898 153.847 287.188 154.145 287.399 154.507C287.505 154.714 287.555 154.95 287.541 155.187C287.528 155.424 287.453 155.651 287.324 155.843C287.076 156.186 286.746 156.447 286.37 156.597C285.741 156.858 285.051 156.891 284.403 156.69C283.755 156.489 283.183 156.066 282.773 155.482C282.374 154.887 282.199 154.148 282.285 153.417C282.351 152.704 282.613 152.029 283.036 151.482C283.467 150.929 284.068 150.568 284.726 150.466C285.058 150.418 285.396 150.456 285.712 150.575C286.029 150.695 286.316 150.893 286.551 151.154C286.791 151.437 286.92 151.81 286.911 152.195C286.907 152.387 286.866 152.576 286.791 152.75C286.716 152.923 286.608 153.078 286.475 153.203C286.23 153.444 285.937 153.619 285.618 153.712C285.3 153.806 284.966 153.817 284.643 153.744C284.331 153.655 284.039 153.495 283.787 153.275C283.534 153.055 283.327 152.779 283.179 152.466C282.888 151.878 282.702 151.236 282.631 150.572C282.419 149.284 282.557 147.956 283.029 146.753C283.292 146.139 283.747 145.647 284.313 145.367C284.891 145.134 285.53 145.157 286.092 145.433C286.387 145.549 286.646 145.752 286.841 146.02C287.036 146.288 287.159 146.61 287.196 146.949C287.211 147.296 287.128 147.64 286.957 147.934C286.786 148.227 286.537 148.456 286.243 148.589C285.975 148.738 285.679 148.816 285.379 148.816C285.079 148.816 284.783 148.738 284.516 148.589C284.007 148.268 283.625 147.755 283.442 147.146C283.272 146.569 283.238 145.954 283.344 145.359C283.403 144.779 283.519 144.207 283.69 143.654C283.859 143.086 284.174 142.582 284.598 142.203C285.014 141.839 285.499 141.579 286.017 141.441C286.287 141.357 286.573 141.357 286.843 141.441C287.102 141.539 287.336 141.702 287.527 141.916C287.718 142.121 287.869 142.367 287.97 142.638C288.079 142.929 288.079 143.256 287.97 143.548C287.849 143.817 287.655 144.04 287.415 144.187C287.175 144.333 286.899 144.396 286.626 144.367C286.117 144.359 285.624 144.179 285.214 143.851C284.436 143.225 283.9 142.304 283.712 141.269C283.516 140.247 283.662 139.183 284.125 138.269C284.328 137.831 284.618 137.447 284.974 137.146C285.324 136.856 285.734 136.662 286.168 136.58C286.601 136.484 287.052 136.554 287.444 136.777C287.638 136.892 287.803 137.058 287.923 137.26C288.044 137.461 288.117 137.693 288.135 137.933C288.133 138.385 287.993 138.824 287.737 139.18C287.482 139.536 287.125 139.789 286.723 139.9C286.347 139.987 285.955 139.957 285.594 139.812C285.232 139.667 284.916 139.413 284.681 139.08C284.23 138.488 283.966 137.752 283.93 136.982C283.995 135.642 284.248 134.32 284.681 133.064C284.989 131.884 285.266 130.802 285.522 129.834C286.025 127.908 286.415 126.408 286.693 125.375C286.821 124.875 286.926 124.49 287.001 124.22C287.076 123.949 287.121 123.826 287.121 123.826C287.121 123.826 287.121 123.966 287.039 124.228C286.956 124.49 286.881 124.9 286.768 125.4C286.513 126.441 286.137 127.949 285.664 129.875L284.861 133.113C284.606 134.302 284.11 135.572 284.163 136.966C284.217 137.686 284.48 138.37 284.913 138.916C285.121 139.211 285.4 139.435 285.718 139.566C286.037 139.696 286.382 139.727 286.716 139.654C287.053 139.56 287.353 139.349 287.572 139.054C287.791 138.759 287.917 138.394 287.932 138.015C287.917 137.822 287.858 137.637 287.761 137.476C287.664 137.314 287.532 137.181 287.377 137.089C287.037 136.905 286.651 136.85 286.28 136.933C285.887 137.006 285.515 137.184 285.199 137.449C284.884 137.728 284.628 138.077 284.448 138.474C284.076 139.315 283.978 140.269 284.17 141.179C284.351 142.13 284.848 142.974 285.567 143.548C285.926 143.83 286.356 143.987 286.798 143.998C287.006 144.026 287.217 143.983 287.402 143.876C287.587 143.769 287.738 143.603 287.835 143.4C287.881 143.173 287.868 142.935 287.798 142.715C287.728 142.495 287.602 142.301 287.437 142.154C287.282 141.984 287.095 141.852 286.888 141.769C286.674 141.708 286.449 141.708 286.235 141.769C285.762 141.881 285.323 142.123 284.959 142.471C284.595 142.82 284.319 143.263 284.155 143.761C283.991 144.292 283.883 144.842 283.832 145.4C283.731 145.946 283.762 146.511 283.922 147.039C284.072 147.556 284.393 147.992 284.823 148.261C285.041 148.38 285.282 148.442 285.525 148.442C285.769 148.442 286.01 148.38 286.228 148.261C286.452 148.165 286.644 147.997 286.779 147.779C286.913 147.56 286.983 147.302 286.979 147.039C286.945 146.775 286.845 146.525 286.69 146.318C286.535 146.112 286.331 145.955 286.1 145.867C285.624 145.641 285.087 145.62 284.598 145.81C284.119 146.054 283.733 146.475 283.509 146.998C283.078 148.131 282.956 149.374 283.156 150.58C283.223 151.192 283.393 151.784 283.659 152.326C283.782 152.587 283.953 152.817 284.161 153.002C284.369 153.187 284.61 153.322 284.868 153.4C285.132 153.462 285.406 153.455 285.667 153.38C285.928 153.304 286.169 153.162 286.37 152.966C286.464 152.875 286.541 152.764 286.595 152.64C286.648 152.516 286.679 152.382 286.684 152.244C286.688 152.107 286.668 151.971 286.623 151.842C286.578 151.714 286.51 151.597 286.423 151.499C286.228 151.288 285.991 151.129 285.73 151.033C285.47 150.938 285.193 150.909 284.921 150.949C284.357 151.04 283.843 151.355 283.479 151.835C283.085 152.296 282.845 152.889 282.796 153.517C282.747 154.146 282.892 154.774 283.209 155.302C283.57 155.807 284.069 156.173 284.633 156.347C285.198 156.521 285.798 156.493 286.348 156.269C286.642 156.137 286.9 155.926 287.099 155.654C287.183 155.527 287.232 155.376 287.24 155.219C287.248 155.062 287.215 154.906 287.144 154.769C286.963 154.474 286.719 154.232 286.432 154.064C286.145 153.897 285.824 153.81 285.499 153.81C284.835 153.753 284.175 153.955 283.635 154.38C283.094 154.805 282.709 155.425 282.548 156.13C282.426 156.814 282.514 157.524 282.799 158.148C283.084 158.772 283.551 159.276 284.125 159.581C284.683 159.927 285.329 160.065 285.965 159.974C286.251 159.877 286.504 159.688 286.692 159.433C286.879 159.177 286.992 158.866 287.016 158.54V158.663C286.943 158.436 286.811 158.238 286.637 158.092C286.462 157.946 286.252 157.86 286.032 157.843C285.567 157.84 285.109 157.97 284.703 158.22C283.857 158.703 283.152 159.436 282.668 160.335C282.192 161.233 281.797 162.18 281.489 163.163L280.468 166.056C279.116 169.859 277.75 173.433 276.413 176.876C273.74 183.679 271.157 189.614 268.904 194.499C267.785 196.958 266.749 199.13 265.75 200.991C264.909 202.578 263.973 204.103 262.949 205.556C262.113 206.801 261.156 207.945 260.096 208.966Z" fill="white"/>
<path d="M296.207 86.6289C296.116 85.587 295.886 84.5653 295.524 83.5961C294.433 80.989 292.519 78.8972 290.132 77.7026C288.493 76.8945 286.732 76.4248 284.936 76.3173C282.87 76.2013 280.798 76.372 278.771 76.8255C274.468 77.6944 269.948 79.719 264.887 80.555C262.419 80.9117 259.92 80.9117 257.452 80.555C255.162 80.1785 252.919 79.5128 250.769 78.5714C247.119 76.9668 243.8 74.5812 241.007 71.555C239.128 69.5314 237.538 67.2103 236.292 64.6697C236.081 64.2825 235.895 63.8799 235.736 63.4647L235.375 62.5549C235.285 62.3336 235.218 62.145 235.158 61.9975C235.129 61.9355 235.109 61.8692 235.098 61.8008C235.137 61.8561 235.17 61.9167 235.195 61.9811L235.443 62.5221L235.841 63.4073C236.012 63.8171 236.208 64.2141 236.427 64.5959C237.715 67.0824 239.323 69.3543 241.203 71.3418C245.636 76.0814 251.334 79.1612 257.475 80.137C259.907 80.4896 262.372 80.4896 264.804 80.137C269.798 79.3173 274.326 77.3009 278.681 76.4484C280.736 76.0001 282.836 75.8403 284.929 75.973C286.762 76.0944 288.558 76.5921 290.222 77.4403C292.65 78.6816 294.576 80.8513 295.637 83.5387C295.9 84.2701 296.074 85.0363 296.155 85.8174V86.4239C296.182 86.489 296.199 86.558 296.207 86.6289Z" fill="#7D8488"/>
<path d="M284.879 68.965C284.702 69.0125 284.521 69.0453 284.339 69.0633C283.986 69.1207 283.46 69.2027 282.792 69.3338C281.455 69.5715 279.54 70.0387 277.182 70.6781C274.424 71.4897 271.616 72.0842 268.78 72.4568C265.294 72.8465 261.778 72.7611 258.312 72.2027C254.845 71.6536 251.449 70.6576 248.197 69.2354C245.531 68.0833 242.977 66.6416 240.575 64.9321C239.569 64.1862 238.668 63.4977 237.902 62.8419C237.136 62.1862 236.49 61.6206 235.995 61.1124L234.853 59.9403C234.598 59.6698 234.463 59.5223 234.478 59.5059C234.631 59.6141 234.774 59.7375 234.906 59.8747L236.092 60.9813C236.603 61.4731 237.286 61.9977 238.037 62.6206C238.788 63.2436 239.719 63.9239 240.725 64.6452C246.078 68.3314 252.079 70.7523 258.342 71.7519C261.781 72.3015 265.268 72.3951 268.727 72.0306C271.547 71.6959 274.342 71.1481 277.092 70.3912C279.458 69.7928 281.395 69.3666 282.747 69.1699C283.422 69.0715 283.948 69.0141 284.309 68.9895C284.497 68.9599 284.689 68.9516 284.879 68.965Z" fill="#7D8488"/>
<path d="M285.987 123.884C285.886 123.863 285.788 123.83 285.694 123.786C285.433 123.665 285.181 123.52 284.943 123.351C284.036 122.7 283.282 121.824 282.743 120.794C281.973 119.254 281.512 117.552 281.391 115.802C281.218 113.686 281.218 111.557 281.391 109.441C281.554 107.326 281.875 105.229 282.353 103.171C282.694 101.471 283.258 99.8339 284.027 98.31C284.581 97.2763 285.353 96.4022 286.28 95.7608C286.516 95.5909 286.768 95.4481 287.031 95.3345C287.219 95.2608 287.324 95.228 287.324 95.2444C287.324 95.2608 286.941 95.4329 286.332 95.9001C285.484 96.5783 284.781 97.4513 284.275 98.4575C283.553 99.9746 283.027 101.594 282.713 103.269C282.257 105.311 281.946 107.388 281.782 109.482C281.625 111.572 281.625 113.672 281.782 115.761C281.878 117.475 282.297 119.15 283.013 120.679C283.509 121.693 284.207 122.573 285.056 123.253C285.627 123.687 286.01 123.843 285.987 123.884Z" fill="#3F3F3F"/>
<path d="M252.216 121.353L244.508 123.003C243.348 123.252 242.593 124.479 242.82 125.746L242.877 126.059C243.104 127.325 244.229 128.15 245.389 127.902L253.096 126.251C254.256 126.003 255.012 124.775 254.784 123.509L254.728 123.195C254.5 121.929 253.376 121.104 252.216 121.353Z" fill="#7D8488"/>
<path d="M253.691 122.597L289.322 110.4C289.746 110.256 290.204 110.299 290.598 110.522C290.991 110.745 291.289 111.128 291.425 111.589C291.494 111.825 291.518 112.075 291.496 112.322C291.475 112.569 291.407 112.809 291.299 113.027C291.19 113.245 291.042 113.437 290.864 113.591C290.685 113.746 290.48 113.859 290.261 113.925L253.827 124.662L253.691 122.597Z" fill="#7D8488"/>
<path d="M280.026 117.236C280.408 117.052 280.802 116.901 281.205 116.785L284.464 115.703C285.831 115.244 287.513 114.752 289.285 114.121C289.723 113.943 290.12 113.663 290.449 113.301C290.773 112.941 290.954 112.455 290.952 111.949C290.95 111.701 290.877 111.459 290.742 111.259C290.607 111.059 290.418 110.91 290.201 110.834C289.706 110.697 289.186 110.714 288.699 110.883L278.014 114.638L274.762 115.736C274.39 115.904 274.006 116.038 273.613 116.138C273.989 115.938 274.378 115.771 274.777 115.638L277.991 114.408C280.717 113.4 284.457 111.998 288.662 110.531C289.221 110.354 289.815 110.354 290.374 110.531C290.659 110.644 290.907 110.848 291.084 111.117C291.261 111.386 291.359 111.708 291.365 112.039C291.366 112.653 291.144 113.242 290.749 113.679C290.354 114.057 289.887 114.337 289.383 114.498C287.543 115.129 285.898 115.572 284.509 115.998L281.25 116.957C280.851 117.092 280.441 117.185 280.026 117.236Z" fill="#3F3F3F"/>
<path d="M221.8 87.4492C223.016 92.1214 218.669 96.1296 217.137 100.695C215.635 105.105 216.911 110.048 218.736 114.31C220.561 118.572 222.964 122.605 223.895 127.187C226.2 138.499 216.829 150.687 218.639 162.106C219.284 166.27 220.824 170.614 222.153 174.573C223.437 178.306 223.437 182.422 222.153 186.155C220.125 192.712 216.686 195.786 214.268 202.163C213.029 205.442 213.127 209.081 213.187 212.606C213.247 216.131 213.232 219.819 211.79 222.983C210.348 226.147 207.059 228.59 203.936 227.672C205.621 229.733 207.883 231.131 210.37 231.648C212.857 232.165 215.43 231.773 217.692 230.532C221.8 228.139 224.098 223.286 226.065 218.68C235.587 196.376 240.625 194.491 240.332 169.884C240.332 168.302 240.047 143.655 240.047 143.655C238.074 143.076 236.182 142.208 234.423 141.073C223.79 133.056 223.399 118.777 223.482 107.704" fill="#3F3F3F"/>
<path d="M243.052 162.105V171.392C243.052 171.392 236.512 207.827 234.544 228.065C232.577 248.303 232.254 253.647 232.254 253.647C232.254 253.647 236.947 261.639 246.762 248.065C256.576 234.491 258.326 232.352 262.253 232.114C262.253 232.114 257.455 175.204 257.672 173.097C257.916 171.603 258.517 170.206 259.415 169.048L243.052 162.105Z" fill="#FFBE9D"/>
<path d="M255.922 141.156C255.922 141.156 245.236 156.631 244.365 158.763C243.494 160.894 243.051 162.09 243.051 162.09L259.413 169L275.34 149.951L281.227 133.041L279.478 113.041C279.478 113.041 275.994 112.803 275.34 116.139C274.94 118.252 274.791 120.411 274.897 122.565L270.016 118.279L262.139 115.664C262.139 115.664 260.284 118.992 263.341 120.664C266.397 122.336 267.268 122.303 267.268 122.303L270.016 127.541L268.815 133.41L263.243 127.672C262.703 127.116 262.002 126.783 261.262 126.732C260.521 126.682 259.787 126.915 259.188 127.393L255.584 130.246L252.212 128.607L245.671 134.992L243.051 137.607C243.051 137.607 244.8 141.18 248.307 139.516L251.799 137.877L255.922 141.156Z" fill="#FFBE9D"/>
<path d="M243.049 165.243C243.04 165.077 243.04 164.91 243.049 164.743C243.049 164.415 243.087 163.924 243.155 163.293C243.242 162.504 243.38 161.724 243.568 160.956C243.801 159.897 244.186 158.885 244.709 157.956C247.157 153.858 251.009 148.12 255.815 141.063V141.276L251.67 137.948H251.813L249.658 138.989C248.918 139.383 248.149 139.709 247.36 139.964C246.501 140.189 245.597 140.076 244.807 139.645C244.003 139.194 243.336 138.499 242.884 137.645L242.824 137.53L242.922 137.432C245.73 134.546 248.862 131.636 252.076 128.522L252.173 128.432L252.278 128.497L255.184 130.374H254.997L258.391 127.915C258.984 127.497 259.517 127.095 260.155 126.669C260.503 126.481 260.891 126.4 261.278 126.436C261.665 126.472 262.035 126.624 262.348 126.874L268.964 132.981L268.656 133.096C269.016 131.333 269.407 129.423 269.797 127.497V127.645L267.049 122.407L267.222 122.513C266.754 122.444 266.298 122.309 265.862 122.112C265.434 121.94 265.006 121.743 264.578 121.538C264.15 121.333 263.73 121.104 263.309 120.882C263.091 120.768 262.881 120.612 262.671 120.481C262.465 120.321 262.274 120.139 262.1 119.94C261.848 119.648 261.652 119.304 261.523 118.928C261.394 118.552 261.335 118.152 261.349 117.751C261.373 116.968 261.572 116.203 261.928 115.522L262.003 115.382L262.153 115.431L270.022 118.054H270.06L274.941 122.341L274.633 122.522C274.528 120.399 274.667 118.27 275.046 116.186C275.126 115.648 275.309 115.135 275.583 114.68C275.858 114.225 276.217 113.839 276.638 113.546C277.478 113.005 278.442 112.741 279.416 112.784H279.619V112.964C280.235 120.071 280.813 126.776 281.346 132.964V133.005C279.169 139.235 277.186 144.891 275.429 149.899L263.099 164.752L259.75 168.711C259.367 169.145 259.074 169.489 258.871 169.727L258.563 170.063C258.563 170.063 258.654 169.932 258.841 169.694L259.69 168.653L262.994 164.645L275.264 149.891V149.932L281.121 133.014V133.096C280.573 126.907 279.987 120.21 279.356 113.095L279.529 113.284C278.633 113.244 277.746 113.489 276.976 113.989C276.598 114.251 276.275 114.599 276.03 115.009C275.785 115.419 275.624 115.882 275.557 116.366C275.18 118.412 275.044 120.503 275.151 122.587V123.063L274.813 122.768L269.857 118.456H269.925L262.055 115.841L262.273 115.743C261.956 116.361 261.779 117.052 261.755 117.759C261.741 118.106 261.791 118.452 261.902 118.777C262.013 119.103 262.183 119.4 262.401 119.653C262.556 119.826 262.724 119.985 262.904 120.128C263.106 120.251 263.287 120.382 263.497 120.497C263.917 120.718 264.33 120.948 264.751 121.145C265.542 121.566 266.377 121.882 267.237 122.087H267.357L267.402 122.169L270.15 127.407L270.188 127.481V127.563C269.79 129.489 269.437 131.399 269.039 133.161L268.971 133.505L268.723 133.276L262.13 127.186C261.874 126.977 261.57 126.85 261.252 126.819C260.934 126.787 260.615 126.851 260.328 127.005C259.772 127.366 259.172 127.825 258.601 128.227L255.199 130.686L255.109 130.751L255.012 130.694L252.106 128.809H252.316C249.102 131.907 245.963 134.817 243.147 137.686L243.185 137.473C243.6 138.264 244.215 138.907 244.957 139.325C245.68 139.727 246.512 139.831 247.3 139.62C248.073 139.373 248.826 139.058 249.552 138.678L251.708 137.645H251.79L251.858 137.694L255.995 141.038L256.108 141.128L256.025 141.251C251.197 148.309 247.307 153.997 244.829 158.055C244.308 158.966 243.915 159.958 243.665 160.997C243.474 161.757 243.326 162.529 243.222 163.309C243.14 163.94 243.102 164.432 243.08 164.752C243.057 165.071 243.049 165.243 243.049 165.243Z" fill="#EB996E"/>
<path d="M263.297 144.737C263.222 144.737 263.507 143.474 263.628 141.458C263.707 140.283 263.532 139.103 263.117 138.015C262.49 136.741 261.598 135.646 260.511 134.819C258.571 133.195 256.548 131.692 254.451 130.319L252.537 129.089C252.29 128.956 252.059 128.794 251.846 128.605C252.11 128.676 252.363 128.789 252.597 128.942C253.077 129.179 253.761 129.556 254.587 130.056C256.736 131.365 258.794 132.844 260.744 134.483C261.88 135.348 262.803 136.505 263.432 137.851C263.864 138.997 264.024 140.243 263.898 141.474C263.834 142.287 263.711 143.093 263.53 143.884C263.489 144.179 263.411 144.466 263.297 144.737Z" fill="#EB996E"/>
<path d="M274.747 137.312C274.795 136.59 274.888 135.873 275.025 135.165C275.259 133.455 275.372 131.729 275.363 130.001C275.343 128.267 275.202 126.538 274.943 124.828C274.798 124.126 274.695 123.414 274.635 122.697C274.911 123.358 275.105 124.055 275.213 124.771C275.906 128.211 275.934 131.77 275.296 135.222C275.199 135.942 275.014 136.645 274.747 137.312Z" fill="#EB996E"/>
<path d="M201.823 76.5706L194.013 61.5131C198.85 52.9383 200.573 42.699 198.844 32.8078C197.116 22.9165 192.061 14.0887 184.672 8.05937C177.284 2.03005 168.097 -0.764682 158.916 0.224475C149.736 1.21363 141.227 5.91514 135.061 13.4049C128.895 20.8947 125.519 30.6311 125.595 40.7003C125.672 50.7695 129.196 60.4434 135.474 67.8206C141.753 75.1977 150.333 79.7445 159.527 80.5673C168.721 81.3902 177.864 78.4295 185.16 72.2673L201.823 76.5706Z" fill="white"/>
<path d="M201.824 76.5701L185.109 72.3897H184.966L185.056 72.2586L185.191 72.4061C182.85 74.3906 180.302 76.0662 177.6 77.398C174.383 78.9691 170.977 80.029 167.485 80.5455C165.55 80.8398 163.595 80.9467 161.643 80.8652C160.644 80.8078 159.615 80.775 158.586 80.6849L155.47 80.1685C146.182 78.1616 137.946 72.363 132.44 63.9552C129.366 59.31 127.241 53.9993 126.207 48.3813C125.14 42.4493 125.289 36.3332 126.642 30.4713C128.034 24.3443 130.745 18.668 134.55 13.9138L136.051 12.1023C136.547 11.4957 137.14 10.9957 137.673 10.4629C138.206 9.88572 138.765 9.33856 139.348 8.82357L141.12 7.38094C141.703 6.90919 142.315 6.48194 142.952 6.10224L144.822 4.86452L146.782 3.83992C147.42 3.47196 148.08 3.15155 148.757 2.8809C154.004 0.618199 159.649 -0.331332 165.277 0.102186C170.602 0.50958 175.78 2.18848 180.446 5.02026C188.832 10.1146 195.102 18.5348 197.957 28.5369C199.104 32.7931 199.646 37.2161 199.564 41.6517C199.466 45.4947 198.859 49.302 197.762 52.9551C196.845 55.9949 195.602 58.9058 194.06 61.6273V61.5208L201.802 76.6275C201.471 75.9963 198.963 71.2504 193.895 61.6191V61.5699V61.5208C195.412 58.8054 196.634 55.906 197.537 52.8813C198.607 49.2455 199.196 45.4613 199.286 41.6435C199.352 37.2476 198.802 32.8666 197.657 28.6516C194.805 18.7489 188.58 10.419 180.265 5.38092C175.642 2.59364 170.516 0.945708 165.247 0.553006C159.672 0.124307 154.08 1.06833 148.885 3.31533C148.215 3.58325 147.562 3.90093 146.932 4.26615L144.995 5.29075L143.14 6.52027C142.506 6.90465 141.901 7.34319 141.33 7.83176L139.573 9.258C138.98 9.71702 138.477 10.3154 137.921 10.8318C137.366 11.3482 136.81 11.881 136.314 12.4711L134.812 14.258C131.049 18.9667 128.366 24.5864 126.988 30.6516C125.648 36.4541 125.496 42.5077 126.545 48.3813C127.569 53.9354 129.668 59.1866 132.702 63.7831C138.169 72.0966 146.322 77.8356 155.515 79.8406L158.601 80.357C159.623 80.4554 160.644 80.4799 161.605 80.5455C163.542 80.6309 165.481 80.5322 167.402 80.2504C173.822 79.3225 179.902 76.5567 185.026 72.234L185.612 71.7422L185.161 72.3897L185.101 72.2176L201.824 76.5701Z" fill="#CECECE"/>
<path d="M154.57 40.4213C154.57 41.0698 154.394 41.7037 154.064 42.2429C153.734 42.782 153.264 43.2023 152.716 43.4504C152.167 43.6986 151.563 43.7635 150.98 43.637C150.398 43.5105 149.862 43.1982 149.442 42.7397C149.022 42.2812 148.736 41.6969 148.62 41.0609C148.504 40.4249 148.564 39.7657 148.791 39.1666C149.018 38.5675 149.403 38.0554 149.897 37.6951C150.391 37.3349 150.972 37.1426 151.566 37.1426C152.363 37.1426 153.127 37.488 153.69 38.1029C154.253 38.7178 154.57 39.5517 154.57 40.4213Z" fill="#CECECE"/>
<path d="M166.554 40.4213C166.554 41.0698 166.378 41.7037 166.048 42.2429C165.718 42.782 165.249 43.2023 164.7 43.4504C164.151 43.6986 163.547 43.7635 162.965 43.637C162.382 43.5105 161.847 43.1982 161.427 42.7397C161.007 42.2812 160.72 41.6969 160.605 41.0609C160.489 40.4249 160.548 39.7657 160.776 39.1666C161.003 38.5675 161.388 38.0554 161.882 37.6951C162.376 37.3349 162.956 37.1426 163.551 37.1426C164.347 37.1426 165.111 37.488 165.674 38.1029C166.238 38.7178 166.554 39.5517 166.554 40.4213Z" fill="#CECECE"/>
<path d="M178.517 38.7842C178.816 39.3456 178.955 39.9911 178.917 40.639C178.88 41.2868 178.667 41.9079 178.305 42.4235C177.944 42.9391 177.45 43.3259 176.887 43.535C176.324 43.7442 175.717 43.7661 175.142 43.5981C174.568 43.4301 174.052 43.0798 173.66 42.5914C173.268 42.1031 173.018 41.4987 172.941 40.855C172.864 40.2112 172.964 39.5571 173.228 38.9754C173.492 38.3937 173.909 37.9106 174.424 37.5875C175.113 37.1561 175.93 37.0398 176.697 37.264C177.464 37.4883 178.118 38.0348 178.517 38.7842Z" fill="#CECECE"/>
<path d="M349.455 297.401C349.455 297.524 273.117 297.614 178.997 297.614C84.8773 297.614 8.53906 297.524 8.53906 297.401C8.53906 297.278 84.8548 297.188 179.035 297.188C273.215 297.188 349.455 297.286 349.455 297.401Z" fill="#CECECE"/>
<path d="M253 297.605C254.762 294.678 257.139 292.253 259.932 290.531C262.726 288.808 265.856 287.839 269.062 287.703C280.033 287.293 285.515 297.605 285.515 297.605H253Z" fill="#7D8488"/>
<path d="M274.026 297.285C273.881 296.699 273.773 296.102 273.703 295.499C273.113 292.655 271.56 290.16 269.355 288.515C268.87 288.218 268.401 287.89 267.951 287.531C268.518 287.626 269.059 287.856 269.536 288.203C270.732 288.966 271.758 290.011 272.538 291.262C273.317 292.513 273.831 293.938 274.041 295.433C274.159 296.044 274.154 296.676 274.026 297.285Z" fill="#CECECE"/>
<path d="M246.212 297.173V297.091C246.195 295.885 245.743 294.735 244.954 293.89C244.166 293.044 243.105 292.572 242 292.574H148.631C147.513 292.574 146.442 293.059 145.652 293.921C144.862 294.783 144.418 295.953 144.418 297.173H246.212Z" fill="#7D8488"/>
<path d="M67.4629 118.596C67.4629 120.743 68.9647 248.744 68.9647 248.744L156.071 271.622H163.227L158.647 92.9316H152.099L67.4629 118.596Z" fill="#CECECE"/>
<path d="M85.8841 243.426L58.8887 297.426H83.5638C79.1484 296.951 122.611 297.426 122.611 297.426L83.5638 286.123L95.7812 255.836L94.7374 243.426H85.8841Z" fill="#CECECE"/>
<path d="M86.4836 253.392L83.5625 152.735L110.085 149.965L113.351 257.433L103.882 257.958L86.4836 253.392Z" fill="#CECECE"/>
<path d="M117.061 261.418C117.061 261.418 117.061 261.263 117.061 260.951C117.061 260.64 117.061 260.172 117.061 259.574C117.061 258.345 117.061 256.549 117.061 254.23C117.061 249.549 117.023 242.754 117.001 234.205C117.001 217.098 116.963 193.024 116.933 165.106L117.121 165.311H85.7702L85.9654 165.098V169.737C85.9654 196.967 85.9654 222.303 85.9278 243.418V243.459C77.8029 259.713 71.0672 273.205 66.3514 282.632C63.9936 287.337 62.1388 291.025 60.8697 293.55C60.239 294.796 59.7509 295.747 59.4205 296.41C59.0901 297.074 58.9023 297.378 58.9023 297.378C58.9023 297.378 59.06 297.033 59.3754 296.386C59.6908 295.738 60.1714 294.747 60.7796 293.492C62.0337 290.96 63.8584 287.255 66.1862 282.533L85.635 243.287V243.377C85.635 222.262 85.635 196.926 85.635 169.696V164.844H117.309V165.049C117.309 192.967 117.256 217.041 117.241 234.148C117.241 242.689 117.196 249.492 117.181 254.172C117.181 256.492 117.181 258.271 117.181 259.517C117.181 260.115 117.181 260.574 117.181 260.894C117.181 261.213 117.061 261.418 117.061 261.418Z" fill="#7D8488"/>
<path d="M95.7804 255.836C95.878 255.877 92.1234 265.361 87.3926 277C82.6618 288.64 78.7421 298.05 78.6444 298C78.5468 297.951 82.3014 288.476 87.0322 276.828C91.763 265.18 95.6827 255.787 95.7804 255.836Z" fill="#7D8488"/>
<path d="M156.035 271.656C156.035 271.656 156.035 271.5 156.035 271.197C156.035 270.893 156.035 270.426 156.035 269.844C156.035 268.639 155.998 266.893 155.975 264.647C155.975 260.139 155.848 253.615 155.705 245.549C155.427 229.418 154.759 207.147 153.94 182.548C153.122 157.95 152.499 135.654 152.288 119.523C152.176 111.458 152.123 104.925 152.146 100.416C152.146 98.1705 152.146 96.4246 152.146 95.2197C152.146 94.6377 152.146 94.1951 152.146 93.8672C152.146 93.5393 152.146 93.4082 152.146 93.4082C152.146 93.4082 152.146 93.5639 152.146 93.8672C152.146 94.1705 152.146 94.6377 152.146 95.2197C152.146 96.4246 152.146 98.1705 152.206 100.416C152.206 104.925 152.326 111.449 152.476 119.515C152.799 135.646 153.467 157.942 154.286 182.532C155.104 207.122 155.728 229.409 155.938 245.541C156.051 253.606 156.096 260.139 156.081 264.647C156.081 266.893 156.081 268.639 156.081 269.844C156.081 270.426 156.081 270.877 156.081 271.197C156.081 271.516 156.035 271.656 156.035 271.656Z" fill="#7D8488"/>
<path d="M112.31 164.357C112.423 164.357 112.506 185.767 112.506 212.169C112.506 238.571 112.423 259.981 112.31 259.981C112.198 259.981 112.115 238.579 112.115 212.169C112.115 185.759 112.205 164.357 112.31 164.357Z" fill="#7D8488"/>
<path d="M65.3849 289C65.2428 288.822 65.1171 288.63 65.0094 288.426C64.8818 288.229 64.7391 287.991 64.5739 287.721C64.3752 287.4 64.1946 287.066 64.0332 286.721C62.9322 284.552 62.1301 282.219 61.6528 279.795C60.9601 276.192 60.8029 272.492 61.1872 268.835C61.6572 264.359 62.7564 259.988 64.4462 255.876C65.3403 253.754 66.4838 251.767 67.8479 249.966C68.1585 249.52 68.492 249.093 68.8466 248.688C69.192 248.278 69.5224 247.868 69.8678 247.475C70.6188 246.729 71.2721 245.966 72.0155 245.319C73.3854 244.047 74.8441 242.893 76.3783 241.868C77.1292 241.425 77.8125 240.958 78.5184 240.589C79.2243 240.22 79.8926 239.827 80.5684 239.565C82.6554 238.589 84.861 237.948 87.1164 237.663C87.726 237.572 88.341 237.531 88.9561 237.54C89.171 237.52 89.387 237.52 89.6019 237.54C89.3908 237.58 89.1777 237.604 88.9637 237.614C88.3524 237.645 87.7431 237.713 87.1389 237.819C84.9094 238.165 82.734 238.843 80.6735 239.835C80.0052 240.106 79.3594 240.516 78.6536 240.868C77.9477 241.22 77.2719 241.688 76.5435 242.163C75.0327 243.191 73.5967 244.345 72.2482 245.614C71.4973 246.253 70.844 247.016 70.1307 247.753C69.7927 248.139 69.4623 248.573 69.1244 248.95C68.779 249.355 68.4532 249.779 68.1482 250.221C66.8058 251.997 65.6801 253.956 64.7992 256.048C63.1257 260.117 62.0293 264.44 61.5477 268.868C61.1491 272.485 61.2758 276.147 61.9231 279.721C62.3769 282.127 63.1351 284.453 64.1759 286.631C64.3253 286.981 64.4958 287.321 64.6865 287.647L65.0845 288.377C65.1972 288.577 65.2976 288.785 65.3849 289Z" fill="#7D8488"/>
</svg>
