<svg width="246" height="246" viewBox="0 0 246 246" fill="none" xmlns="http://www.w3.org/2000/svg">
<path d="M173.372 49.4297C159.902 49.4297 148.734 54.7845 141.503 62.9148C134.272 71.0452 130.836 81.552 130.836 91.9444C130.836 102.337 134.272 112.844 141.503 120.974C148.734 129.104 159.902 134.459 173.372 134.459C186.841 134.459 198.026 129.104 205.257 120.974C212.488 112.844 215.908 102.337 215.908 91.9444C215.908 81.552 212.488 71.0452 205.257 62.9148C198.026 54.7845 186.841 49.4297 173.372 49.4297ZM173.372 66.4356C182.588 66.4356 188.434 69.5838 192.546 74.2078C196.658 78.8319 198.893 85.331 198.893 91.9444C198.893 98.5578 196.658 105.057 192.546 109.681C188.434 114.305 182.588 117.453 173.372 117.453C164.156 117.453 158.326 114.305 154.214 109.681C150.102 105.057 147.85 98.5578 147.85 91.9444C147.85 85.331 150.102 78.8319 154.214 74.2078C158.326 69.5838 164.156 66.4356 173.372 66.4356ZM79.7929 83.4415C66.3232 83.4415 55.1548 88.7963 47.9243 96.9266C40.6937 105.057 37.2571 115.564 37.2571 125.956C37.2571 136.349 40.6937 146.855 47.9243 154.986C55.1548 163.116 66.3232 168.471 79.7929 168.471C93.2626 168.471 104.448 163.116 111.678 154.986C118.909 146.855 122.329 136.349 122.329 125.956C122.329 115.564 118.909 105.057 111.678 96.9266C104.448 88.7963 93.2626 83.4415 79.7929 83.4415ZM79.7929 100.447C89.009 100.447 94.8549 103.596 98.9673 108.22C103.08 112.844 105.314 119.343 105.314 125.956C105.314 132.57 103.08 139.069 98.9673 143.693C94.8549 148.317 89.009 151.465 79.7929 151.465C70.5768 151.465 64.7475 148.317 60.6352 143.693C56.5228 139.069 54.2714 132.57 54.2714 125.956C54.2714 119.343 56.5228 112.844 60.6352 108.22C64.7475 103.596 70.5768 100.447 79.7929 100.447ZM173.239 142.962C145.627 142.962 120.691 158.986 108.903 183.434C99.8671 179.356 89.9837 176.974 79.66 176.974C49.2033 176.974 21.9466 196.434 12.0679 225.235C11.6553 226.302 11.4625 227.442 11.5009 228.585C11.5393 229.729 11.8082 230.853 12.2915 231.89C12.7747 232.927 13.4624 233.856 14.3134 234.621C15.1644 235.387 16.1611 235.972 17.2439 236.344C18.3267 236.715 19.4733 236.864 20.6151 236.782C21.7569 236.699 22.8703 236.388 23.8887 235.865C24.9072 235.343 25.8096 234.621 26.5422 233.741C27.2747 232.862 27.8221 231.844 28.1518 230.748C35.6788 208.804 56.4535 193.98 79.66 193.98C102.866 193.98 123.641 208.804 131.168 230.748C131.498 231.844 132.045 232.862 132.778 233.741C133.51 234.621 134.413 235.343 135.431 235.865C136.45 236.388 137.563 236.699 138.705 236.782C139.847 236.864 140.993 236.715 142.076 236.344C143.159 235.972 144.156 235.387 145.007 234.621C145.858 233.856 146.545 232.927 147.028 231.89C147.512 230.853 147.781 229.729 147.819 228.585C147.857 227.442 147.665 226.302 147.252 225.235C142.675 211.892 134.252 200.696 123.625 192.369C132.289 172.895 151.638 159.968 173.239 159.968C196.445 159.968 217.22 174.792 224.747 196.737C225.077 197.832 225.624 198.85 226.357 199.729C227.089 200.609 227.992 201.331 229.01 201.854C230.028 202.376 231.142 202.688 232.284 202.77C233.425 202.852 234.572 202.703 235.655 202.332C236.738 201.961 237.734 201.375 238.585 200.61C239.436 199.844 240.124 198.915 240.607 197.878C241.091 196.841 241.359 195.717 241.398 194.573C241.436 193.43 241.243 192.29 240.831 191.223C230.952 162.422 203.695 142.962 173.239 142.962Z" fill="#FFF7D9"/>
<circle cx="80" cy="126" r="26" fill="#71C2FF"/>
<circle cx="173" cy="91" r="26" fill="#71C2FF"/>
</svg>
