<svg width="53" height="50" viewBox="0 0 53 50" fill="none" xmlns="http://www.w3.org/2000/svg">
<path d="M26.4152 3C25.4278 3 23.6074 3.19225 22.0381 4.46094C21.5534 4.80832 20.4706 5.71144 18.8993 7H11.6228C11.3425 7.00003 11.0738 7.10539 10.8757 7.29292C10.6775 7.48045 10.5662 7.73479 10.5661 8V13.9629C6.83772 17.0841 3.52281 19.8789 3.52281 19.8789C3.41179 19.9727 3.32296 20.0877 3.26215 20.2163C3.20133 20.3448 3.16991 20.4841 3.16992 20.625V46C3.16995 46.2652 3.28128 46.5195 3.47942 46.7071C3.67757 46.8946 3.94631 47 4.22653 47H48.6039C48.8841 47 49.1528 46.8946 49.351 46.7071C49.5491 46.5195 49.6605 46.2652 49.6605 46V20.625C49.6605 20.4841 49.6291 20.3448 49.5683 20.2163C49.5075 20.0877 49.4186 19.9727 49.3076 19.8789C49.3076 19.8789 45.9928 17.0834 42.2643 13.9629V8C42.2642 7.73479 42.1529 7.48045 41.9548 7.29292C41.7566 7.10539 41.4879 7.00003 41.2077 7H33.8672C32.3551 5.71245 31.2729 4.8048 30.7902 4.45898C29.2215 3.19205 27.4021 3 26.4152 3ZM26.4152 5C27.0914 5 28.4085 5.15887 29.4261 5.98438C29.4435 5.9986 29.4614 6.01227 29.4798 6.02539C29.5419 6.06944 30.3222 6.72773 30.6561 7H22.1475C22.484 6.72856 23.2888 6.06923 23.3506 6.02539C23.369 6.01227 23.3869 5.9986 23.4043 5.98438C24.4219 5.15887 25.739 5 26.4152 5ZM12.6794 9H19.0066C19.1713 9.03808 19.3433 9.03808 19.5081 9H33.2976C33.4184 9.02007 33.542 9.02007 33.6628 9H40.1511V14.418V26.543L34.1932 30.9805C33.0698 30.1456 31.0186 28.6287 30.7737 28.4434C29.1459 27.2104 27.4042 27 26.4152 27C25.3484 27 23.6934 27.3054 22.0918 28.418C21.8009 28.6197 19.6819 30.2012 18.631 30.9766L12.6794 26.543V14.5469C12.6954 14.4472 12.6954 14.3458 12.6794 14.2461V9ZM16.9058 14C16.7658 13.9981 16.6267 14.0226 16.4968 14.072C16.3669 14.1214 16.2486 14.1948 16.1489 14.2878C16.0492 14.3809 15.97 14.4918 15.916 14.614C15.8619 14.7363 15.8341 14.8675 15.8341 15C15.8341 15.1325 15.8619 15.2637 15.916 15.386C15.97 15.5082 16.0492 15.6191 16.1489 15.7122C16.2486 15.8052 16.3669 15.8786 16.4968 15.928C16.6267 15.9774 16.7658 16.0019 16.9058 16H35.9246C36.0647 16.0019 36.2037 15.9774 36.3336 15.928C36.4635 15.8786 36.5818 15.8052 36.6815 15.7122C36.7812 15.6191 36.8604 15.5082 36.9144 15.386C36.9685 15.2637 36.9963 15.1325 36.9963 15C36.9963 14.8675 36.9685 14.7363 36.9144 14.614C36.8604 14.4918 36.7812 14.3809 36.6815 14.2878C36.5818 14.1948 36.4635 14.1214 36.3336 14.072C36.2037 14.0226 36.0647 13.9981 35.9246 14H16.9058ZM10.5661 16.6367V24.9668L5.30996 21.0508C5.56197 20.8382 8.13549 18.6761 10.5661 16.6367ZM42.2643 16.6367C44.6954 18.6763 47.2693 20.8408 47.5205 21.0527L42.2643 24.9688V16.6367ZM16.9058 19C16.7658 18.9981 16.6267 19.0226 16.4968 19.072C16.3669 19.1214 16.2486 19.1948 16.1489 19.2878C16.0492 19.3809 15.97 19.4918 15.916 19.614C15.8619 19.7363 15.8341 19.8675 15.8341 20C15.8341 20.1325 15.8619 20.2637 15.916 20.386C15.97 20.5082 16.0492 20.6191 16.1489 20.7122C16.2486 20.8052 16.3669 20.8786 16.4968 20.928C16.6267 20.9774 16.7658 21.0019 16.9058 21H28.5284C28.6684 21.0019 28.8074 20.9774 28.9374 20.928C29.0673 20.8786 29.1856 20.8052 29.2853 20.7122C29.385 20.6191 29.4641 20.5082 29.5182 20.386C29.5722 20.2637 29.6001 20.1325 29.6001 20C29.6001 19.8675 29.5722 19.7363 29.5182 19.614C29.4641 19.4918 29.385 19.3809 29.2853 19.2878C29.1856 19.1948 29.0673 19.1214 28.9374 19.072C28.8074 19.0226 28.6684 18.9981 28.5284 19H16.9058ZM5.28313 23.5781L16.9161 32.2441C15.1948 33.5199 14.4214 34.0806 12.345 35.625C8.74327 38.304 6.45778 40.0089 5.28313 40.8848V23.5781ZM47.5473 23.5781V40.8887C46.0079 39.7468 40.6882 35.8017 35.9061 32.252L47.5473 23.5781ZM26.4152 29C27.0914 29 28.3083 29.1388 29.4529 30.0059C30.8857 31.0903 46.989 43.0162 47.5473 43.4297V45H5.28313V43.4277C5.57274 43.2119 9.3848 40.3707 13.6513 37.1973C18.0769 33.9055 22.7743 30.4252 23.3424 30.0312C24.5133 29.2178 25.8168 29 26.4152 29Z" fill="#2B3B6A"/>
</svg>
