<svg width="50" height="50" viewBox="0 0 50 50" fill="none" xmlns="http://www.w3.org/2000/svg">
<path d="M11.8391 2.98873C11.0695 2.92623 10.2141 3.14889 9.425 3.70357C8.72969 4.18795 7.22969 5.37935 5.82735 6.72701C5.12813 7.39889 4.46016 8.0981 3.94454 8.7856C3.425 9.4731 2.97188 10.102 2.99922 11.0161C3.02657 11.8364 3.1086 14.2622 4.85469 17.9809C6.60079 21.6958 9.9875 26.7934 16.593 33.4028C23.2023 40.0122 28.3 43.3989 32.0148 45.145C35.7297 46.8911 38.1594 46.9731 38.9797 47.0004C39.8899 47.0278 40.5188 46.5747 41.2063 46.0551C41.8938 45.5356 42.593 44.8715 43.2649 44.1723C44.6086 42.77 45.8 41.27 46.2844 40.5747C47.3899 39.0004 47.2063 37.1411 45.9758 36.2778C45.2024 35.7348 38.0891 31.0004 37.0188 30.3442C35.9328 29.6801 34.6828 29.9809 33.5656 30.5708C32.6867 31.0356 30.3078 32.3989 29.6281 32.7895C29.1164 32.4653 27.175 31.1723 22.9992 26.9965C18.8195 22.8208 17.5305 20.8794 17.2063 20.3676C17.5969 19.6879 18.9563 17.3208 19.425 16.4262C20.0109 15.3129 20.3391 14.0512 19.6398 12.9575C19.3469 12.4926 18.0148 10.4653 16.6711 8.43014C15.3234 6.39498 14.0461 4.46529 13.7141 4.00435V4.00045C13.2805 3.40279 12.6047 3.05123 11.8391 2.98873ZM11.6555 5.0317C11.9289 5.06685 12.093 5.17623 12.093 5.17623C12.2531 5.39889 13.6555 7.50045 14.9992 9.5317C16.343 11.5669 17.7141 13.6528 17.9523 14.0317C17.9914 14.0903 18.0461 14.7544 17.6555 15.4926V15.4965C17.2141 16.3364 15.1555 19.934 15.1555 19.934L14.8703 20.4379L15.1633 20.9379C15.1633 20.9379 16.6984 23.5278 21.5813 28.4106C26.468 33.2934 29.0578 34.8325 29.0578 34.8325L29.5578 35.1254L30.0617 34.8403C30.0617 34.8403 33.6516 32.7856 34.4992 32.3403C35.2375 31.9536 35.9016 32.0044 35.9797 32.0512C36.6711 32.477 44.3547 37.5825 44.8274 37.9145C44.843 37.9262 45.2609 38.559 44.6516 39.4262H44.6477C44.2805 39.9536 43.0774 41.4809 41.8234 42.7856C41.1945 43.4379 40.55 44.0473 40.0031 44.4575C39.4563 44.8676 38.968 44.9965 39.0461 45.0004C38.1945 44.9731 36.3156 44.9536 32.8664 43.3325C29.4172 41.7153 24.4953 38.477 18.007 31.9848C11.5227 25.5004 8.28438 20.5786 6.66329 17.1254C5.0461 13.6762 5.02657 11.7973 4.99922 10.9497C5.00313 11.0278 5.13204 10.5356 5.54219 9.98873C5.95235 9.44185 6.55782 8.79342 7.21016 8.16451C8.51875 6.9106 10.0422 5.70748 10.5695 5.34029V5.3442C11.0031 5.03951 11.382 5.00045 11.6555 5.0317Z" fill="#2B3B6A"/>
</svg>
