<svg width="214" height="214" viewBox="0 0 214 214" fill="none" xmlns="http://www.w3.org/2000/svg">
<path d="M59.6875 61.8594C59.6875 35.8364 80.977 14.5469 107 14.5469C133.023 14.5469 154.313 35.8364 154.313 61.8594C154.313 64.9777 151.915 67.375 148.797 67.375C145.679 67.375 143.281 64.9777 143.281 61.8594C143.281 41.9058 126.954 25.5781 107 25.5781C87.0465 25.5781 70.7188 41.9058 70.7188 61.8594V98.1406H167.188C175.823 98.1406 182.734 105.052 182.734 113.688C182.734 122.323 175.823 129.234 167.188 129.234H54V140.438C54 169.586 77.8511 193.438 107 193.438C113.956 193.438 120.582 192.111 126.878 189.626C126.879 189.626 126.879 189.626 126.879 189.626L127.063 190.091L59.6875 61.8594ZM59.6875 61.8594V98.1406M59.6875 61.8594V98.1406M59.6875 98.1406H46.8125C38.177 98.1406 31.2656 105.052 31.2656 113.688C31.2656 120.973 36.2525 127.098 42.9688 128.796L59.6875 98.1406ZM198.886 168.49L198.893 168.499C200.59 170.658 200.59 173.748 198.893 175.907L198.893 175.907L198.886 175.916C188.052 190.362 166.386 190.362 155.551 175.916L155.551 175.916L155.544 175.907C153.848 173.748 153.848 170.658 155.544 168.499L155.545 168.499L155.551 168.49C160.969 161.267 169.091 157.656 177.219 157.656C185.346 157.656 193.469 161.267 198.886 168.49L198.886 168.49ZM167.188 109.172C169.754 109.172 171.703 111.121 171.703 113.688C171.703 116.254 169.754 118.203 167.188 118.203H46.8125C44.2465 118.203 42.2969 116.254 42.2969 113.688C42.2969 111.121 44.2465 109.172 46.8125 109.172H167.188ZM177.134 138.351C168.439 138.351 159.744 141.659 153.126 148.277C139.89 161.513 139.89 183.06 153.126 196.296C166.362 209.532 187.909 209.532 201.145 196.296C214.547 182.894 214.55 161.512 201.143 148.275C194.525 141.658 185.828 138.351 177.134 138.351ZM107 151.641C103.882 151.641 101.484 154.038 101.484 157.156V168.859C101.484 171.978 103.882 174.375 107 174.375C110.118 174.375 112.516 171.978 112.516 168.859V157.156C112.516 154.038 110.118 151.641 107 151.641ZM177.238 163.344C174.958 163.344 172.696 164.229 171.009 166.003C167.475 169.542 167.476 175.037 171.014 178.575C174.553 182.114 180.051 182.114 183.59 178.575C187.129 175.036 187.129 169.537 183.59 165.998C181.823 164.23 179.52 163.344 177.238 163.344Z" fill="#FFF7D9" stroke="#FFF7D9"/>
<ellipse cx="177" cy="172.5" rx="11" ry="10.5" fill="#71C2FF"/>
</svg>
