<svg width="214" height="214" viewBox="0 0 214 214" fill="none" xmlns="http://www.w3.org/2000/svg">
<g clip-path="url(#clip0_141_3475)">
<path d="M1.17188 148.964C1.17188 152.082 3.56917 154.48 6.6875 154.48C9.80583 154.48 12.2031 152.082 12.2031 148.964V68.5469C12.2031 65.4285 9.80583 63.0312 6.6875 63.0312C3.56917 63.0312 1.17188 65.4285 1.17188 68.5469V148.964Z" fill="#FFF7D9" stroke="#FFF7D9"/>
<path d="M65.2031 212.828H190.594C202.907 212.828 212.828 202.907 212.828 190.594V23.4062C212.828 11.0926 202.907 1.17188 190.594 1.17188H23.4062C11.0926 1.17188 1.17188 11.0926 1.17188 23.4062V46.8125C1.17188 49.9308 3.56917 52.3281 6.6875 52.3281H185.578C188.696 52.3281 191.094 49.9308 191.094 46.8125C191.094 43.6942 188.696 41.2969 185.578 41.2969H12.2031V23.4062C12.2031 17.1621 17.1621 12.2031 23.4062 12.2031H190.594C196.838 12.2031 201.797 17.1621 201.797 23.4062V190.594C201.797 196.838 196.838 201.797 190.594 201.797H65.2031C62.0848 201.797 59.6875 204.194 59.6875 207.312C59.6875 210.431 62.0848 212.828 65.2031 212.828Z" fill="#FFF7D9" stroke="#FFF7D9"/>
<path d="M26.75 31.7656C29.5201 31.7656 31.7656 29.5201 31.7656 26.75C31.7656 23.9799 29.5201 21.7344 26.75 21.7344C23.9799 21.7344 21.7344 23.9799 21.7344 26.75C21.7344 29.5201 23.9799 31.7656 26.75 31.7656Z" fill="#FFF7D9"/>
<path d="M43.4688 31.7656C46.2388 31.7656 48.4844 29.5201 48.4844 26.75C48.4844 23.9799 46.2388 21.7344 43.4688 21.7344C40.6987 21.7344 38.4531 23.9799 38.4531 26.75C38.4531 29.5201 40.6987 31.7656 43.4688 31.7656Z" fill="#FFF7D9"/>
<path d="M60.1875 31.7656C62.9576 31.7656 65.2031 29.5201 65.2031 26.75C65.2031 23.9799 62.9576 21.7344 60.1875 21.7344C57.4174 21.7344 55.1719 23.9799 55.1719 26.75C55.1719 29.5201 57.4174 31.7656 60.1875 31.7656Z" fill="#FFF7D9"/>
<path d="M20.0633 198.953C19.0602 198.953 17.8899 198.618 17.0539 197.949C14.8805 196.278 14.3789 193.101 16.218 190.928L73.0617 117.365C73.8977 116.362 75.068 115.526 76.5727 115.526C77.9102 115.359 79.2477 115.86 80.418 116.696L128.902 157.657L162.841 84.9307C164.012 82.4229 167.021 81.4198 169.529 82.5901C172.037 83.7604 173.04 86.7698 171.87 89.2776L135.088 167.856C134.42 169.193 133.082 170.364 131.577 170.698C130.073 171.032 128.401 170.698 127.23 169.695L77.743 127.898L24.0758 197.281C23.0727 198.284 21.568 198.953 20.0633 198.953Z" fill="#71C2FF"/>
<path d="M20.0625 207.312C27.4493 207.312 33.4375 201.324 33.4375 193.938C33.4375 186.551 27.4493 180.562 20.0625 180.562C12.6757 180.562 6.6875 186.551 6.6875 193.938C6.6875 201.324 12.6757 207.312 20.0625 207.312Z" fill="#EFE8CD"/>
<path d="M20.0625 212.328C9.86406 212.328 1.67188 204.136 1.67188 193.938C1.67188 183.739 9.86406 175.547 20.0625 175.547C30.2609 175.547 38.4531 183.739 38.4531 193.938C38.4531 204.136 30.2609 212.328 20.0625 212.328ZM20.0625 185.578C15.3813 185.578 11.7031 189.256 11.7031 193.938C11.7031 198.619 15.3813 202.297 20.0625 202.297C24.7437 202.297 28.4219 198.619 28.4219 193.938C28.4219 189.256 24.7437 185.578 20.0625 185.578Z" fill="#71C2FF"/>
<path d="M76.9062 133.75C84.2931 133.75 90.2812 127.762 90.2812 120.375C90.2812 112.988 84.2931 107 76.9062 107C69.5194 107 63.5312 112.988 63.5312 120.375C63.5312 127.762 69.5194 133.75 76.9062 133.75Z" fill="#EFE8CD"/>
<path d="M76.9062 138.766C66.7078 138.766 58.5156 130.573 58.5156 120.375C58.5156 110.177 66.7078 101.984 76.9062 101.984C87.1047 101.984 95.2969 110.177 95.2969 120.375C95.2969 130.573 87.1047 138.766 76.9062 138.766ZM76.9062 112.016C72.225 112.016 68.5469 115.694 68.5469 120.375C68.5469 125.056 72.225 128.734 76.9062 128.734C81.5875 128.734 85.2656 125.056 85.2656 120.375C85.2656 115.694 81.5875 112.016 76.9062 112.016Z" fill="#71C2FF"/>
<path d="M130.406 178.891C137.793 178.891 143.781 172.902 143.781 165.516C143.781 158.129 137.793 152.141 130.406 152.141C123.019 152.141 117.031 158.129 117.031 165.516C117.031 172.902 123.019 178.891 130.406 178.891Z" fill="#EFE8CD"/>
<path d="M130.406 183.906C120.208 183.906 112.016 175.714 112.016 165.516C112.016 155.317 120.208 147.125 130.406 147.125C140.605 147.125 148.797 155.317 148.797 165.516C148.797 175.714 140.605 183.906 130.406 183.906ZM130.406 157.156C125.725 157.156 122.047 160.834 122.047 165.516C122.047 170.197 125.725 173.875 130.406 173.875C135.087 173.875 138.766 170.197 138.766 165.516C138.766 160.834 135.087 157.156 130.406 157.156Z" fill="#71C2FF"/>
<path d="M167.188 100.312C174.574 100.312 180.562 94.3243 180.562 86.9375C180.562 79.5507 174.574 73.5625 167.188 73.5625C159.801 73.5625 153.812 79.5507 153.812 86.9375C153.812 94.3243 159.801 100.312 167.188 100.312Z" fill="#EFE8CD"/>
<path d="M167.188 105.328C156.989 105.328 148.797 97.1359 148.797 86.9375C148.797 76.7391 156.989 68.5469 167.188 68.5469C177.386 68.5469 185.578 76.7391 185.578 86.9375C185.578 97.1359 177.386 105.328 167.188 105.328ZM167.188 78.5781C162.506 78.5781 158.828 82.2563 158.828 86.9375C158.828 91.6187 162.506 95.2969 167.188 95.2969C171.869 95.2969 175.547 91.6187 175.547 86.9375C175.547 82.2563 171.869 78.5781 167.188 78.5781Z" fill="#71C2FF"/>
</g>
<defs>
<clipPath id="clip0_141_3475">
<rect width="214" height="214" fill="white"/>
</clipPath>
</defs>
</svg>
