<svg width="380" height="364" viewBox="0 0 380 364" fill="none" xmlns="http://www.w3.org/2000/svg">
<path d="M364.611 227.728C364.611 345.081 296.463 349.061 199.988 349.061C103.513 349.061 15.2441 345.081 15.2441 227.728C15.2441 110.375 93.4526 15.2422 189.928 15.2422C286.403 15.2422 364.611 110.375 364.611 227.728Z" fill="#E2EAFF"/>
<path d="M378.353 231.697C378.353 263.557 373.738 287.583 365.277 305.719C356.832 323.821 344.523 336.123 328.981 344.514C313.403 352.925 294.523 357.435 272.918 359.832C251.314 362.228 227.093 362.5 200.864 362.5C148.339 362.5 98.4751 361.389 61.7244 344.472C43.4093 336.041 28.3913 323.696 17.9331 305.603C7.46455 287.491 1.5 263.506 1.5 231.697C1.5 104.27 86.1264 1.5 189.926 1.5C293.726 1.5 378.353 104.27 378.353 231.697Z" stroke="#1F42AB" stroke-width="3"/>
<path d="M143.995 225.91C144.311 225.91 144.62 225.816 144.883 225.641C145.146 225.465 145.351 225.215 145.472 224.923C145.593 224.631 145.625 224.31 145.563 224C145.501 223.689 145.349 223.405 145.125 223.181C144.902 222.957 144.617 222.805 144.307 222.743C143.997 222.682 143.675 222.714 143.383 222.834C143.091 222.956 142.842 223.16 142.666 223.423C142.49 223.686 142.396 223.995 142.396 224.311C142.396 224.521 142.438 224.729 142.518 224.923C142.598 225.117 142.716 225.293 142.865 225.442C143.013 225.59 143.189 225.708 143.383 225.788C143.577 225.869 143.785 225.91 143.995 225.91Z" fill="#B2B6BB"/>
<path opacity="0.15" d="M143.412 224.312C143.413 223.98 143.518 223.657 143.71 223.387C143.903 223.117 144.175 222.913 144.488 222.805C144.321 222.742 144.144 222.711 143.966 222.713C143.542 222.713 143.135 222.881 142.835 223.181C142.536 223.481 142.367 223.888 142.367 224.312C142.367 224.735 142.536 225.142 142.835 225.442C143.135 225.742 143.542 225.91 143.966 225.91C144.144 225.909 144.321 225.878 144.488 225.818C144.175 225.709 143.903 225.506 143.71 225.236C143.518 224.966 143.413 224.643 143.412 224.312Z" fill="black"/>
<path d="M143.995 250.32C144.311 250.32 144.62 250.226 144.883 250.051C145.146 249.875 145.351 249.625 145.472 249.333C145.593 249.041 145.625 248.72 145.563 248.41C145.501 248.1 145.349 247.815 145.125 247.591C144.902 247.368 144.617 247.215 144.307 247.154C143.997 247.092 143.675 247.124 143.383 247.245C143.091 247.366 142.842 247.571 142.666 247.834C142.49 248.096 142.396 248.405 142.396 248.722C142.396 249.146 142.565 249.552 142.865 249.852C143.164 250.152 143.571 250.32 143.995 250.32Z" fill="#B2B6BB"/>
<path opacity="0.15" d="M143.412 248.722C143.413 248.39 143.518 248.067 143.71 247.797C143.903 247.527 144.175 247.324 144.488 247.215C144.321 247.152 144.144 247.121 143.966 247.123C143.542 247.123 143.135 247.292 142.835 247.591C142.536 247.891 142.367 248.298 142.367 248.722C142.367 249.146 142.536 249.552 142.835 249.852C143.135 250.152 143.542 250.32 143.966 250.32C144.144 250.32 144.321 250.288 144.488 250.228C144.178 250.116 143.908 249.912 143.716 249.642C143.524 249.373 143.418 249.052 143.412 248.722Z" fill="black"/>
<path d="M143.995 275.035C144.311 275.035 144.62 274.941 144.883 274.766C145.146 274.59 145.351 274.34 145.472 274.048C145.593 273.756 145.625 273.435 145.563 273.125C145.501 272.815 145.349 272.53 145.125 272.306C144.902 272.083 144.617 271.93 144.307 271.869C143.997 271.807 143.675 271.839 143.383 271.96C143.091 272.081 142.842 272.286 142.666 272.548C142.49 272.811 142.396 273.12 142.396 273.436C142.396 273.86 142.565 274.267 142.865 274.567C143.164 274.867 143.571 275.035 143.995 275.035Z" fill="#B2B6BB"/>
<path opacity="0.15" d="M143.412 273.437C143.413 273.105 143.518 272.781 143.71 272.512C143.903 272.242 144.175 272.038 144.488 271.93C144.321 271.867 144.144 271.836 143.966 271.838C143.542 271.838 143.135 272.006 142.835 272.306C142.536 272.606 142.367 273.012 142.367 273.437C142.367 273.86 142.536 274.267 142.835 274.567C143.135 274.867 143.542 275.035 143.966 275.035C144.144 275.034 144.321 275.003 144.488 274.943C144.173 274.838 143.898 274.635 143.705 274.365C143.512 274.094 143.409 273.769 143.412 273.437Z" fill="black"/>
<path d="M160.841 180.106H180.608C180.715 180.111 180.817 180.154 180.896 180.227C180.975 180.3 181.025 180.399 181.038 180.505L181.069 181.182C181.072 181.232 181.064 181.283 181.047 181.33C181.03 181.378 181.003 181.422 180.969 181.459C180.934 181.496 180.893 181.526 180.847 181.547C180.801 181.568 180.751 181.58 180.7 181.581H160.934C160.826 181.576 160.725 181.533 160.646 181.459C160.567 181.386 160.517 181.288 160.503 181.182L160.473 180.505C160.467 180.454 160.473 180.403 160.489 180.354C160.505 180.305 160.532 180.26 160.567 180.222C160.602 180.184 160.644 180.154 160.692 180.134C160.739 180.114 160.79 180.104 160.841 180.106Z" fill="#21252B"/>
<path d="M171.97 180.106H216.699C216.806 180.111 216.908 180.154 216.987 180.227C217.065 180.3 217.116 180.399 217.129 180.505L217.16 181.182C217.162 181.232 217.155 181.283 217.138 181.33C217.12 181.378 217.094 181.422 217.059 181.459C217.025 181.496 216.984 181.526 216.938 181.547C216.892 181.568 216.842 181.58 216.791 181.581H172.063C171.956 181.576 171.854 181.533 171.775 181.459C171.696 181.386 171.646 181.288 171.632 181.182L171.601 180.505C171.596 180.454 171.602 180.403 171.618 180.354C171.635 180.305 171.661 180.26 171.696 180.222C171.731 180.184 171.773 180.154 171.821 180.134C171.868 180.114 171.919 180.104 171.97 180.106Z" fill="#3F4249"/>
<path d="M216.145 180.383H170.556C170.495 180.383 170.402 180.321 170.402 180.26C170.404 180.228 170.418 180.198 170.441 180.175C170.463 180.153 170.493 180.139 170.525 180.137H216.115C216.176 180.137 216.268 180.198 216.268 180.26C216.266 180.292 216.252 180.322 216.23 180.344C216.207 180.367 216.177 180.38 216.145 180.383Z" fill="#21252B"/>
<path d="M171.877 180.106H178.855C179.113 180.111 179.364 180.019 179.557 179.848C179.751 179.677 179.873 179.44 179.901 179.184L182.329 150.656C182.345 150.491 182.327 150.325 182.276 150.168C182.225 150.01 182.143 149.865 182.033 149.741C181.923 149.617 181.789 149.516 181.639 149.447C181.489 149.377 181.326 149.338 181.161 149.334H174.183C173.925 149.33 173.675 149.422 173.481 149.592C173.288 149.763 173.165 150 173.138 150.256L170.709 178.784C170.687 178.95 170.702 179.118 170.751 179.278C170.8 179.438 170.882 179.585 170.993 179.71C171.103 179.836 171.24 179.936 171.392 180.004C171.545 180.072 171.71 180.107 171.877 180.106Z" fill="#21252B"/>
<path d="M172.862 180.106H216.114C216.372 180.111 216.623 180.019 216.816 179.848C217.009 179.677 217.132 179.44 217.16 179.184L219.588 150.656C219.604 150.491 219.586 150.325 219.535 150.168C219.484 150.01 219.401 149.865 219.292 149.741C219.182 149.617 219.048 149.516 218.898 149.447C218.748 149.377 218.585 149.338 218.42 149.334H175.167C174.909 149.33 174.659 149.422 174.465 149.592C174.272 149.763 174.149 150 174.122 150.256L171.693 178.784C171.674 178.949 171.69 179.117 171.74 179.276C171.79 179.434 171.873 179.58 171.983 179.705C172.093 179.83 172.228 179.93 172.379 179.999C172.531 180.068 172.695 180.105 172.862 180.106Z" fill="#3F4249"/>
<path opacity="0.6" d="M197.394 162.708C197.328 162.832 197.297 162.971 197.302 163.111C197.307 163.251 197.349 163.387 197.424 163.505C197.499 163.624 197.604 163.721 197.728 163.786C197.852 163.851 197.992 163.882 198.131 163.876H198.224C197.899 164.285 197.489 164.619 197.021 164.852C196.554 165.086 196.041 165.214 195.518 165.228C194.197 165.198 193.52 164.122 194.012 162.8C194.504 161.478 195.98 160.433 197.301 160.464C198.162 160.494 198.746 160.925 198.9 161.601C198.571 161.627 198.256 161.745 197.99 161.941C197.724 162.136 197.518 162.401 197.394 162.708Z" fill="black"/>
<path d="M116.544 183.18C120.848 145.092 113.101 121.821 110.365 113.797L114.7 112.629L129.025 112.752L130.839 113.397C131.208 120.529 136.311 152.5 141.229 183.149H116.544V183.18Z" fill="white"/>
<path d="M137.265 309.712L157.216 310.204L149.254 304.517C148.599 304.047 148.059 303.435 147.676 302.728C147.292 302.018 147.075 301.233 147.04 300.428L146.764 294.188L135.912 294.218L137.265 309.712Z" fill="#956363"/>
<path opacity="0.15" d="M139.478 302.426V302.303C139.445 301.971 139.542 301.639 139.748 301.375C139.954 301.112 140.254 300.938 140.585 300.89L146.948 299.967L146.886 298.707H136.25L137.203 309.281L145.903 308.328L143.044 307.191C142.067 306.804 141.217 306.155 140.587 305.313C139.957 304.473 139.573 303.474 139.478 302.426Z" fill="black"/>
<path d="M101.328 309.342H110.305L111.965 294.156L101.359 294.187L101.328 309.342Z" fill="#956363"/>
<path opacity="0.15" d="M103.573 306.792L103.788 302.119C103.804 301.821 103.923 301.539 104.125 301.32C104.327 301.101 104.6 300.959 104.895 300.919L111.35 299.936L111.504 298.645L101.39 298.675L101.359 309.435L103.573 306.792Z" fill="black"/>
<path d="M100.742 174.541V298.705H112.393L122.538 197.474C122.569 197.157 122.717 196.863 122.952 196.65C123.188 196.436 123.495 196.318 123.813 196.318C124.132 196.318 124.439 196.436 124.675 196.65C124.91 196.863 125.058 197.157 125.089 197.474L135.879 298.705H147.53L143.319 174.541H100.742Z" fill="#4D61FC"/>
<path opacity="0.2" d="M100.742 174.541V298.705H112.393L122.538 197.474C122.569 197.157 122.717 196.863 122.952 196.65C123.188 196.436 123.495 196.318 123.813 196.318C124.132 196.318 124.439 196.436 124.675 196.65C124.91 196.863 125.058 197.157 125.089 197.474L135.879 298.705H147.53L143.319 174.541H100.742Z" fill="white"/>
<path d="M102.003 303.994L102.28 303.717C103.318 302.712 104.711 302.156 106.157 302.174C107.603 302.19 108.983 302.78 109.996 303.81L110.15 303.994C110.658 304.523 110.944 305.227 110.949 305.962V307.13C110.944 307.809 111.047 308.482 111.257 309.128L112.21 312.294C112.454 313.06 112.578 313.859 112.578 314.661V315.061C112.563 315.365 112.429 315.651 112.205 315.86C111.981 316.066 111.685 316.177 111.38 316.168H100.343C100.192 316.174 100.04 316.152 99.8971 316.1C99.7544 316.048 99.6235 315.968 99.5119 315.866C99.4003 315.762 99.3102 315.639 99.2472 315.501C99.1842 315.362 99.1491 315.212 99.1445 315.061V314.907C99.1451 313.976 99.301 313.051 99.6056 312.171L100.712 309.066C100.969 308.356 101.104 307.609 101.112 306.853L101.143 305.962C101.186 305.224 101.491 304.526 102.003 303.994Z" fill="#3F4249"/>
<path d="M100.436 298.706H112.855L113.101 296.154H100.466L100.436 298.706Z" fill="#4D61FC"/>
<path opacity="0.15" d="M100.436 298.706H105.631L105.754 296.154H100.466L100.436 298.706Z" fill="black"/>
<path opacity="0.5" d="M99.1445 314.908V315.062C99.1596 315.366 99.2936 315.652 99.5177 315.861C99.7421 316.067 100.038 316.178 100.343 316.169H111.38C111.531 316.175 111.683 316.153 111.826 316.101C111.969 316.049 112.1 315.969 112.211 315.867C112.323 315.763 112.413 315.64 112.476 315.502C112.539 315.363 112.574 315.213 112.578 315.062V314.662C112.583 314.509 112.573 314.355 112.548 314.201H99.1445V314.908Z" fill="black"/>
<path d="M135.881 306.176V313.953C135.88 314.251 135.938 314.549 136.052 314.823C136.166 315.1 136.334 315.352 136.545 315.564C136.757 315.776 137.008 315.942 137.284 316.056C137.561 316.17 137.857 316.228 138.156 316.228H164.593C164.845 316.225 165.087 316.126 165.265 315.948C165.443 315.77 165.545 315.527 165.546 315.275C165.542 314.371 165.256 313.489 164.727 312.757C164.198 312.023 163.452 311.475 162.595 311.186L156.631 309.219L149.069 303.347C148.689 303.049 148.218 302.895 147.736 302.905C147.254 302.917 146.791 303.095 146.425 303.409L143.074 306.268C142.833 306.474 142.542 306.618 142.23 306.683C141.918 306.747 141.595 306.732 141.291 306.637L137.049 305.315C136.914 305.278 136.773 305.272 136.636 305.296C136.498 305.321 136.368 305.379 136.256 305.459C136.143 305.542 136.051 305.65 135.986 305.776C135.921 305.899 135.885 306.034 135.881 306.176Z" fill="#3F4249"/>
<path d="M138.156 316.23H164.594C164.846 316.227 165.087 316.126 165.266 315.947C165.444 315.769 165.545 315.529 165.547 315.277C165.553 314.954 165.512 314.635 165.424 314.324H135.912C136.001 314.856 136.275 315.339 136.686 315.686C137.096 316.036 137.617 316.227 138.156 316.23Z" fill="black"/>
<path d="M148.915 306.453C148.858 306.453 148.803 306.432 148.761 306.392C148.716 306.346 148.691 306.287 148.691 306.223C148.691 306.158 148.716 306.1 148.761 306.054L150.36 304.332C150.406 304.292 150.465 304.271 150.525 304.274C150.585 304.277 150.643 304.301 150.686 304.344C150.728 304.387 150.753 304.446 150.756 304.504C150.758 304.566 150.737 304.624 150.698 304.67L149.099 306.392C149.043 306.426 148.98 306.447 148.915 306.453Z" fill="white"/>
<path d="M150.175 307.438C150.118 307.438 150.063 307.413 150.021 307.376C149.976 307.33 149.951 307.272 149.951 307.207C149.951 307.143 149.976 307.084 150.021 307.038L151.619 305.317C151.665 305.277 151.725 305.255 151.785 305.258C151.845 305.261 151.903 305.286 151.946 305.329C151.988 305.372 152.013 305.427 152.015 305.489C152.018 305.55 151.997 305.609 151.958 305.655L150.359 307.376C150.303 307.41 150.24 307.432 150.175 307.438Z" fill="white"/>
<path d="M151.434 308.422C151.377 308.422 151.323 308.397 151.281 308.36C151.236 308.314 151.211 308.253 151.211 308.191C151.211 308.127 151.236 308.065 151.281 308.022L152.879 306.301C152.901 306.276 152.927 306.254 152.957 306.239C152.987 306.227 153.019 306.218 153.052 306.218C153.085 306.215 153.118 306.221 153.149 306.233C153.179 306.245 153.207 306.264 153.231 306.288C153.254 306.31 153.272 306.337 153.284 306.368C153.296 306.399 153.302 306.433 153.3 306.467C153.299 306.497 153.291 306.531 153.277 306.562C153.263 306.59 153.242 306.617 153.217 306.639L151.619 308.36C151.568 308.403 151.501 308.425 151.434 308.422Z" fill="white"/>
<path d="M108.151 306.607C108.108 306.613 108.064 306.601 108.028 306.576C107.394 306.275 106.701 306.118 105.999 306.118C105.297 306.118 104.604 306.275 103.97 306.576C103.905 306.61 103.83 306.613 103.76 306.592C103.691 306.567 103.634 306.518 103.601 306.453C103.569 306.389 103.563 306.312 103.586 306.244C103.609 306.174 103.659 306.118 103.724 306.085C104.437 305.734 105.221 305.553 106.015 305.553C106.808 305.553 107.592 305.734 108.305 306.085C108.365 306.121 108.409 306.18 108.432 306.247C108.454 306.315 108.453 306.389 108.428 306.453C108.399 306.5 108.358 306.54 108.309 306.567C108.261 306.595 108.207 306.607 108.151 306.607Z" fill="white"/>
<path d="M108.151 308.021C108.108 308.024 108.064 308.015 108.028 307.99C107.395 307.686 106.701 307.529 105.999 307.529C105.297 307.529 104.604 307.686 103.97 307.99C103.905 308.021 103.83 308.027 103.76 308.006C103.691 307.981 103.634 307.932 103.601 307.868C103.569 307.803 103.563 307.726 103.586 307.658C103.609 307.588 103.659 307.529 103.724 307.499C104.437 307.148 105.221 306.967 106.015 306.967C106.808 306.967 107.592 307.148 108.305 307.499C108.365 307.536 108.409 307.594 108.432 307.662C108.454 307.729 108.453 307.8 108.428 307.868C108.399 307.914 108.358 307.954 108.309 307.981C108.261 308.006 108.207 308.021 108.151 308.021Z" fill="white"/>
<path d="M108.151 309.404C108.108 309.407 108.064 309.398 108.028 309.373C107.394 309.072 106.701 308.915 105.999 308.915C105.297 308.915 104.604 309.072 103.97 309.373C103.905 309.404 103.83 309.41 103.76 309.389C103.691 309.364 103.634 309.315 103.601 309.25C103.569 309.186 103.563 309.109 103.586 309.041C103.609 308.971 103.659 308.912 103.724 308.881C104.437 308.531 105.221 308.35 106.015 308.35C106.808 308.35 107.592 308.531 108.305 308.881C108.365 308.918 108.409 308.977 108.432 309.044C108.454 309.112 108.453 309.183 108.428 309.25C108.399 309.296 108.358 309.336 108.309 309.364C108.261 309.389 108.207 309.404 108.151 309.404Z" fill="white"/>
<path opacity="0.15" d="M142.828 297.292L131.331 201.718C131.153 200.236 130.439 198.87 129.323 197.879C128.207 196.888 126.767 196.34 125.275 196.338H123.83C124.148 196.339 124.454 196.46 124.688 196.676C124.921 196.892 125.065 197.189 125.09 197.506L135.819 298.184L142.828 297.292Z" fill="black"/>
<path d="M135.572 298.706H147.961L147.776 296.154H135.326L135.572 298.706Z" fill="#4D61FC"/>
<path opacity="0.15" d="M135.572 298.706H142.95L142.673 296.154H135.326L135.572 298.706Z" fill="black"/>
<g opacity="0.15">
<path opacity="0.15" d="M180.301 124.312H180.209C180.15 124.289 180.101 124.245 180.073 124.188C180.044 124.131 180.038 124.066 180.055 124.004C181.285 120.592 179.748 118.717 179.686 118.656C179.646 118.607 179.626 118.544 179.632 118.48C179.638 118.417 179.668 118.358 179.717 118.317C179.766 118.277 179.829 118.257 179.893 118.263C179.956 118.268 180.015 118.299 180.055 118.348C180.117 118.44 181.838 120.5 180.517 124.189C180.517 124.25 180.424 124.312 180.301 124.312Z" fill="black"/>
</g>
<path d="M146.641 122.158L156.478 145.583L174.277 123.173L180.333 128.891L162.227 159.693C161.572 160.806 160.63 161.723 159.499 162.348C158.369 162.973 157.091 163.283 155.8 163.245C154.509 163.207 153.252 162.824 152.16 162.134C151.068 161.444 150.181 160.474 149.592 159.324L139.109 138.881L146.641 122.158Z" fill="#21252B"/>
<path d="M128.779 95.9666C128.779 95.9666 116.236 88.0968 115.745 97.7189L115.56 100.209L114.699 112.813C114.694 113.161 114.813 113.5 115.038 113.766L122.293 118.715C122.399 118.783 122.524 118.817 122.651 118.812C122.778 118.806 122.899 118.762 123 118.684L128.379 114.104C128.56 113.951 128.699 113.756 128.785 113.536C128.871 113.316 128.9 113.078 128.871 112.844L128.072 105.373C128.24 104.648 128.322 103.905 128.318 103.16C128.441 99.3789 128.779 95.9666 128.779 95.9666Z" fill="#956363"/>
<path d="M129.885 96.5509C130.724 96.5509 131.544 96.3022 132.242 95.8361C132.939 95.3698 133.483 94.7073 133.804 93.932C134.125 93.157 134.209 92.304 134.046 91.481C133.882 90.6581 133.478 89.9021 132.885 89.3088C132.291 88.7155 131.535 88.3116 130.712 88.1481C129.889 87.9842 129.037 88.0681 128.261 88.3894C127.486 88.7103 126.824 89.2541 126.358 89.952C125.891 90.6495 125.643 91.4696 125.643 92.3086C125.643 93.4337 126.09 94.513 126.885 95.3086C127.681 96.1042 128.76 96.5509 129.885 96.5509Z" fill="#3F4249"/>
<path d="M130.194 89.1751C130.194 89.1751 134.652 107.866 125.06 109.126C116.76 110.233 115.838 97.2908 115.838 97.2908L116.238 88.8984L130.194 89.1751Z" fill="#956363"/>
<path d="M129.641 90.3414L121.157 90.9562C120.651 91.0033 120.183 91.2437 119.851 91.6276C119.519 92.0113 119.348 92.5087 119.374 93.0159C119.392 93.2683 119.361 93.5216 119.281 93.762C119.201 94.0021 119.075 94.224 118.909 94.4155C118.744 94.6068 118.542 94.7635 118.316 94.8767C118.09 94.9901 117.843 95.0577 117.591 95.0756C117.456 95.0928 117.331 95.1583 117.241 95.26C117.151 95.3618 117.1 95.4927 117.099 95.6289L117.222 97.5041C117.23 97.5613 117.225 97.6194 117.209 97.675C117.192 97.7304 117.164 97.7814 117.126 97.8251C117.089 97.8687 117.042 97.9038 116.99 97.928C116.937 97.9523 116.88 97.9649 116.822 97.9652C116.717 97.9751 116.612 97.9462 116.527 97.8838C116.442 97.8214 116.383 97.7301 116.361 97.6271L115.992 95.8441L115.623 95.26L113.625 96.4897C113.625 96.4897 110.397 91.5096 111.934 86.9599C112.826 84.3776 115.378 83.4554 116.607 83.3017C116.801 83.2743 116.987 83.2051 117.151 83.0988C117.316 82.9927 117.455 82.8522 117.56 82.6868C118.052 81.8568 119.251 80.412 121.925 80.5042C122.68 80.5076 123.422 80.7006 124.083 81.0659C124.744 81.4314 125.302 81.957 125.707 82.5946C125.878 82.8535 126.137 83.0422 126.436 83.1267C126.735 83.2113 127.054 83.1861 127.336 83.0557C127.908 82.7877 128.54 82.6724 129.17 82.7207C129.801 82.7692 130.408 82.9798 130.933 83.3324C133.699 85.0847 132.593 89.8803 129.641 90.3414Z" fill="#3F4249"/>
<path opacity="0.15" d="M115.56 100.824C115.56 100.824 116.36 100.885 116.79 100.547L115.438 102.637L115.56 100.824Z" fill="black"/>
<path d="M116.021 95.8454C116.021 95.8454 115.406 94.0932 113.562 94.8925C111.472 95.8147 111.902 100.549 115.437 100.826C117.282 100.979 116.913 99.9033 116.605 98.4584L116.021 95.8454Z" fill="#956363"/>
<path opacity="0.3" d="M113.468 96.1206C113.61 96.009 113.773 95.9273 113.948 95.8799C114.122 95.8323 114.304 95.82 114.483 95.844C114.655 95.8873 114.815 95.9675 114.953 96.0791C115.091 96.1904 115.203 96.3306 115.282 96.4895C115.509 96.8815 115.626 97.3275 115.62 97.7806L115.651 98.1803C115.651 98.2083 115.646 98.2362 115.634 98.2624C115.624 98.2885 115.608 98.3122 115.588 98.3325C115.568 98.3524 115.544 98.3681 115.518 98.3789C115.492 98.3896 115.464 98.3955 115.436 98.3955C115.408 98.3955 115.38 98.3896 115.354 98.3789C115.327 98.3681 115.304 98.3524 115.284 98.3325C115.264 98.3122 115.248 98.2885 115.237 98.2624C115.226 98.2362 115.221 98.2083 115.221 98.1803L115.19 97.7806C115.176 97.4062 115.082 97.0392 114.913 96.7047C114.871 96.5897 114.801 96.4874 114.709 96.4068C114.618 96.326 114.508 96.2691 114.389 96.2417C114.27 96.2141 114.146 96.2168 114.028 96.2494C113.91 96.282 113.802 96.3432 113.714 96.428C113.664 96.4563 113.606 96.4655 113.549 96.4545C113.493 96.4431 113.442 96.4117 113.407 96.3665C113.346 96.3358 113.376 96.2128 113.468 96.1206Z" fill="black"/>
<path d="M129.701 90.7411L128.717 90.8333C128.664 90.8367 128.612 90.8195 128.572 90.785C128.532 90.7506 128.507 90.7017 128.502 90.6489C128.502 90.5259 128.563 90.4337 128.686 90.4337L129.67 90.3414C129.795 90.3362 129.919 90.3153 130.039 90.28C130.442 90.1484 130.824 89.9621 131.176 89.7266C131.221 89.698 131.275 89.6885 131.327 89.7002C131.353 89.7057 131.377 89.7165 131.399 89.7315C131.421 89.7466 131.439 89.766 131.453 89.7881C131.467 89.8102 131.477 89.8351 131.481 89.861C131.486 89.8871 131.485 89.9135 131.48 89.9394C131.474 89.9649 131.463 89.9892 131.448 90.0107C131.433 90.0322 131.414 90.0506 131.392 90.0648C131.013 90.3187 130.598 90.5154 130.162 90.6489L129.701 90.7411Z" fill="#956363"/>
<path opacity="0.15" d="M128.686 110.632L128.378 107.619C127.579 108.449 125.273 109.648 122.66 109.033C121.35 108.709 120.177 107.977 119.31 106.943C119.294 106.923 119.274 106.906 119.251 106.894C119.228 106.881 119.203 106.873 119.178 106.87C119.152 106.867 119.126 106.87 119.101 106.877C119.076 106.884 119.053 106.896 119.033 106.912C119.013 106.928 118.996 106.948 118.983 106.971C118.971 106.994 118.963 107.019 118.96 107.044C118.957 107.07 118.96 107.096 118.967 107.121C118.974 107.146 118.986 107.169 119.002 107.189C120.13 108.503 121.709 109.348 123.429 109.556C124.188 110.079 125.045 110.443 125.948 110.628C126.851 110.813 127.782 110.814 128.686 110.632Z" fill="black"/>
<path opacity="0.3" d="M125.766 105.312C125.736 105.342 125.766 105.342 125.766 105.312L124.598 105.404C124.53 105.406 124.463 105.381 124.411 105.336C124.36 105.29 124.328 105.226 124.321 105.158C124.318 105.123 124.322 105.088 124.333 105.055C124.343 105.022 124.361 104.992 124.384 104.966C124.407 104.94 124.435 104.919 124.467 104.904C124.499 104.89 124.533 104.882 124.567 104.881L125.705 104.789C125.77 104.781 125.836 104.799 125.887 104.84C125.939 104.88 125.973 104.939 125.982 105.004C125.982 105.189 125.889 105.312 125.766 105.312Z" fill="black"/>
<path opacity="0.3" d="M126.197 104.207C124.106 104.515 123.153 103.377 122.815 102.824C122.789 102.767 122.786 102.704 122.805 102.645C122.825 102.586 122.865 102.536 122.919 102.506C122.972 102.475 123.035 102.465 123.096 102.479C123.156 102.492 123.21 102.527 123.245 102.578C123.553 103.131 124.598 104.33 127.119 103.5C127.18 103.48 127.247 103.484 127.304 103.513C127.362 103.542 127.406 103.593 127.426 103.654C127.446 103.715 127.442 103.782 127.413 103.84C127.384 103.897 127.334 103.941 127.272 103.961C126.922 104.077 126.562 104.159 126.197 104.207Z" fill="black"/>
<path d="M123.308 98.6717C123.46 98.6717 123.608 98.6268 123.735 98.5423C123.861 98.4577 123.96 98.3379 124.018 98.1974C124.076 98.0569 124.091 97.9026 124.061 97.7535C124.032 97.6044 123.959 97.4673 123.851 97.36C123.744 97.2524 123.607 97.1792 123.458 97.1494C123.309 97.1199 123.154 97.1352 123.014 97.1934C122.873 97.2515 122.753 97.3498 122.669 97.4765C122.584 97.6028 122.539 97.7513 122.539 97.9032C122.539 98.107 122.62 98.3025 122.764 98.4467C122.908 98.5908 123.104 98.6717 123.308 98.6717Z" fill="#21252B"/>
<path d="M123.645 97.8105C123.676 97.8105 123.706 97.8013 123.731 97.7845C123.756 97.7676 123.775 97.7437 123.787 97.7158C123.799 97.6879 123.802 97.657 123.796 97.6272C123.79 97.5975 123.775 97.5702 123.754 97.5488C123.732 97.5273 123.705 97.5126 123.675 97.5068C123.646 97.501 123.615 97.504 123.587 97.5157C123.559 97.527 123.535 97.5469 123.518 97.5721C123.501 97.5972 123.492 97.6269 123.492 97.6573C123.492 97.6977 123.508 97.7367 123.537 97.7655C123.566 97.7943 123.605 97.8105 123.645 97.8105Z" fill="white"/>
<path d="M129.394 98.703C129.546 98.703 129.694 98.6578 129.821 98.5736C129.947 98.4891 130.046 98.3692 130.104 98.2287C130.162 98.0882 130.177 97.9336 130.147 97.7845C130.118 97.6354 130.045 97.4986 129.937 97.391C129.829 97.2837 129.693 97.2102 129.544 97.1807C129.394 97.1512 129.24 97.1663 129.099 97.2244C128.959 97.2828 128.839 97.3812 128.755 97.5075C128.67 97.6338 128.625 97.7826 128.625 97.9345C128.625 98.1383 128.706 98.3338 128.85 98.478C128.994 98.6222 129.19 98.703 129.394 98.703Z" fill="#21252B"/>
<path d="M129.731 97.8415C129.762 97.8415 129.791 97.8327 129.817 97.8158C129.842 97.7989 129.861 97.775 129.873 97.7471C129.885 97.7189 129.887 97.6883 129.882 97.6586C129.876 97.6288 129.861 97.6016 129.84 97.5801C129.818 97.5586 129.791 97.5439 129.761 97.5381C129.731 97.5323 129.701 97.535 129.673 97.5467C129.645 97.5583 129.621 97.5779 129.604 97.6031C129.587 97.6285 129.578 97.6579 129.578 97.6883C129.578 97.7291 129.594 97.768 129.623 97.7968C129.652 97.8256 129.691 97.8415 129.731 97.8415Z" fill="white"/>
<path opacity="0.3" d="M126.749 102.33L125.735 102.392C125.674 102.396 125.613 102.375 125.567 102.335C125.521 102.294 125.493 102.238 125.489 102.176C125.485 102.115 125.505 102.055 125.545 102.009C125.586 101.963 125.643 101.934 125.704 101.93L126.718 101.869C126.841 101.861 126.955 101.804 127.035 101.712C127.116 101.62 127.157 101.499 127.149 101.377C127.141 101.255 127.084 101.141 126.992 101.06C126.9 100.979 126.779 100.938 126.657 100.947C126.598 100.944 126.541 100.921 126.496 100.882C126.451 100.843 126.422 100.79 126.411 100.731C126.38 100.609 126.503 100.516 126.626 100.486C126.865 100.474 127.099 100.553 127.281 100.707C127.464 100.861 127.581 101.078 127.61 101.316C127.625 101.563 127.545 101.807 127.384 101.996C127.224 102.185 126.996 102.305 126.749 102.33Z" fill="black"/>
<path d="M131.577 95.9355H121.032C120.887 95.9352 120.743 95.9635 120.609 96.0189C120.474 96.0745 120.352 96.156 120.249 96.2586C120.146 96.3616 120.065 96.4837 120.009 96.6183C119.954 96.7527 119.925 96.8968 119.926 97.0422V97.903C119.926 98.702 120.243 99.4683 120.808 100.033C121.373 100.598 122.139 100.916 122.938 100.916C123.738 100.916 124.504 100.598 125.069 100.033C125.634 99.4683 125.951 98.702 125.951 97.903V97.0422C125.95 96.7951 125.863 96.5562 125.705 96.3659H126.873C126.725 96.5596 126.649 96.7988 126.658 97.0422V97.903C126.658 98.702 126.976 99.4683 127.541 100.033C128.106 100.598 128.872 100.916 129.671 100.916C130.47 100.916 131.236 100.598 131.801 100.033C132.366 99.4683 132.683 98.702 132.683 97.903V97.0422C132.684 96.8968 132.655 96.7527 132.6 96.6183C132.545 96.4837 132.463 96.3616 132.36 96.2586C132.257 96.156 132.135 96.0745 132.001 96.0189C131.866 95.9635 131.722 95.9352 131.577 95.9355ZM125.521 97.0422V97.903C125.525 98.5839 125.258 99.2384 124.78 99.7226C124.301 100.207 123.65 100.481 122.969 100.485C122.289 100.489 121.634 100.223 121.15 99.7444C120.665 99.2658 120.391 98.6146 120.387 97.9337V97.073C120.389 96.8941 120.46 96.7231 120.587 96.5965C120.713 96.4701 120.884 96.3982 121.063 96.3967H124.875C125.046 96.3976 125.21 96.4658 125.331 96.5867C125.452 96.7075 125.52 96.8713 125.521 97.0422ZM132.253 97.903C132.255 98.2402 132.191 98.5744 132.064 98.8864C131.936 99.1987 131.749 99.4828 131.512 99.7226C131.275 99.9623 130.994 100.153 130.683 100.284C130.372 100.415 130.039 100.483 129.701 100.485C129.365 100.487 129.03 100.423 128.718 100.296C128.406 100.169 128.122 99.9811 127.882 99.7444C127.642 99.5074 127.452 99.2255 127.321 98.915C127.19 98.6042 127.121 98.271 127.119 97.9337V97.073C127.121 96.8941 127.193 96.7231 127.319 96.5965C127.446 96.4701 127.617 96.3982 127.796 96.3967H131.607C131.786 96.3982 131.958 96.4701 132.084 96.5965C132.211 96.7231 132.282 96.8941 132.284 97.073L132.253 97.903Z" fill="#21252B"/>
<g opacity="0.15">
<path opacity="0.15" d="M139.939 177.619H113.84C113.807 177.619 113.775 177.613 113.745 177.601C113.715 177.589 113.688 177.571 113.665 177.547C113.642 177.525 113.624 177.497 113.612 177.467C113.599 177.437 113.593 177.405 113.594 177.373C113.598 177.309 113.625 177.249 113.671 177.204C113.716 177.158 113.776 177.131 113.84 177.127H139.939C140.004 177.127 140.067 177.153 140.113 177.199C140.159 177.245 140.185 177.307 140.185 177.373C140.185 177.438 140.159 177.5 140.113 177.547C140.067 177.593 140.004 177.619 139.939 177.619Z" fill="black"/>
</g>
<path opacity="0.15" d="M129.887 113.121C129.887 113.121 130.993 151.363 133.914 177.186H137.664L129.887 113.121Z" fill="black"/>
<path opacity="0.15" d="M121.371 177.34L105.908 179.43C105.908 179.43 105.509 180.537 105.017 182.166L100.713 184.103V296.093L105.724 296.124L110.273 198.521C123.523 193.786 121.371 177.34 121.371 177.34Z" fill="black"/>
<path opacity="0.15" d="M143.565 194.403C143.596 194.403 143.627 194.372 143.658 194.372L141.413 177.188H133.943L135.296 189.638C135.397 190.562 135.714 191.45 136.223 192.228C136.731 193.007 137.416 193.655 138.221 194.119C139.027 194.583 139.931 194.851 140.86 194.9C141.788 194.949 142.715 194.779 143.565 194.403Z" fill="black"/>
<g opacity="0.15">
<path opacity="0.15" d="M135.817 117.916H123.921L123.029 118.685C122.924 118.776 122.79 118.829 122.65 118.835C122.51 118.84 122.373 118.798 122.261 118.715L121.092 117.916H108.027V119.269H135.817V117.916Z" fill="#4D61FC"/>
<path opacity="0.15" d="M135.817 123.727H108.027V125.079H135.817V123.727Z" fill="#4D61FC"/>
<path opacity="0.15" d="M135.817 129.566H108.027V130.919H135.817V129.566Z" fill="black"/>
<path opacity="0.15" d="M135.817 135.377H108.027V136.73H135.817V135.377Z" fill="black"/>
<path opacity="0.15" d="M135.817 141.219H108.027V142.571H135.817V141.219Z" fill="black"/>
<path opacity="0.15" d="M135.817 147.027H108.027V148.38H135.817V147.027Z" fill="black"/>
<path opacity="0.15" d="M135.817 152.869H108.027V154.222H135.817V152.869Z" fill="black"/>
<path opacity="0.15" d="M137.201 158.68H108.027V160.032H137.201V158.68Z" fill="black"/>
<path opacity="0.15" d="M138.123 164.52H108.027V165.872H138.123V164.52Z" fill="black"/>
<path opacity="0.15" d="M139.937 170.33H108.027V171.683H139.937V170.33Z" fill="black"/>
</g>
<path d="M99.328 191.51L100.004 150.532L89.7983 136.883L89.5523 125.632C89.5133 123.509 90.212 121.438 91.5296 119.773C92.8472 118.108 94.7015 116.952 96.7765 116.501L113.992 112.812C116.389 119.852 122.538 148.011 121.339 180.443C121.192 184.177 119.605 187.71 116.912 190.3C114.218 192.89 110.627 194.337 106.89 194.338H102.125C101.754 194.343 101.386 194.272 101.043 194.131C100.699 193.99 100.388 193.782 100.127 193.517C99.866 193.254 99.6607 192.94 99.5236 192.595C99.3861 192.25 99.3197 191.881 99.328 191.51Z" fill="#21252B"/>
<path opacity="0.4" d="M108.028 154.223L100.005 150.564L99.3287 191.543C99.321 191.915 99.3877 192.285 99.5249 192.632C99.662 192.978 99.8667 193.294 100.127 193.56C100.387 193.826 100.699 194.038 101.042 194.182C101.385 194.326 101.754 194.401 102.126 194.401H106.891C107.425 194.402 107.959 194.372 108.49 194.309C108.367 180.322 108.028 154.223 108.028 154.223Z" fill="black"/>
<path d="M147.655 127.047L144.242 193.817C144.228 193.964 144.161 194.101 144.054 194.203C143.946 194.304 143.806 194.364 143.658 194.371H143.105C142.092 194.363 141.114 193.998 140.344 193.34C139.573 192.682 139.06 191.773 138.893 190.774C134.221 160.402 130.194 119.977 129.855 113.152L140.83 116.657C144.396 117.764 147.87 122.19 147.655 127.047Z" fill="#21252B"/>
<path d="M143.288 165.258L144.364 151.578H134.619L135.449 165.258C135.464 165.427 135.542 165.584 135.667 165.698C135.793 165.812 135.956 165.874 136.125 165.873H142.612C142.78 165.869 142.94 165.805 143.065 165.691C143.189 165.579 143.268 165.425 143.288 165.258Z" fill="white"/>
<path d="M144.397 150.411H143.321L142.829 149.15C142.815 149.113 142.789 149.081 142.756 149.059C142.723 149.037 142.684 149.026 142.645 149.027H136.097C136.057 149.028 136.019 149.041 135.987 149.062C135.954 149.084 135.928 149.114 135.912 149.15L135.42 150.411H134.59C134.562 150.41 134.533 150.415 134.507 150.425C134.48 150.436 134.456 150.452 134.436 150.472C134.416 150.492 134.4 150.516 134.39 150.542C134.379 150.569 134.374 150.597 134.375 150.626V151.395C134.374 151.423 134.379 151.451 134.39 151.478C134.4 151.504 134.416 151.528 134.436 151.549C134.456 151.569 134.48 151.585 134.507 151.595C134.533 151.605 134.562 151.61 134.59 151.61H144.427C144.456 151.61 144.484 151.605 144.511 151.595C144.537 151.585 144.561 151.569 144.582 151.549C144.601 151.528 144.617 151.504 144.628 151.478C144.638 151.451 144.643 151.423 144.643 151.395V150.626C144.632 150.567 144.602 150.514 144.558 150.475C144.513 150.436 144.456 150.413 144.397 150.411Z" fill="#4D61FC"/>
<path opacity="0.2" d="M144.397 150.411H143.321L142.829 149.15C142.815 149.113 142.789 149.081 142.756 149.059C142.723 149.037 142.684 149.026 142.645 149.027H136.097C136.057 149.028 136.019 149.041 135.987 149.062C135.954 149.084 135.928 149.114 135.912 149.15L135.42 150.411H134.59C134.562 150.41 134.533 150.415 134.507 150.425C134.48 150.436 134.456 150.452 134.436 150.472C134.416 150.492 134.4 150.516 134.39 150.542C134.379 150.569 134.374 150.597 134.375 150.626V151.395C134.374 151.423 134.379 151.451 134.39 151.478C134.4 151.504 134.416 151.528 134.436 151.549C134.456 151.569 134.48 151.585 134.507 151.595C134.533 151.605 134.562 151.61 134.59 151.61H144.427C144.456 151.61 144.484 151.605 144.511 151.595C144.537 151.585 144.561 151.569 144.582 151.549C144.601 151.528 144.617 151.504 144.628 151.478C144.638 151.451 144.643 151.423 144.643 151.395V150.626C144.632 150.567 144.602 150.514 144.558 150.475C144.513 150.436 144.456 150.413 144.397 150.411Z" fill="white"/>
<path opacity="0.15" d="M143.229 150.165H137.818L138.218 149.027H136.097C136.057 149.029 136.019 149.041 135.987 149.062C135.954 149.084 135.928 149.115 135.912 149.15L135.42 150.411H134.59C134.562 150.41 134.533 150.415 134.507 150.425C134.48 150.436 134.456 150.452 134.436 150.472C134.416 150.492 134.4 150.516 134.39 150.543C134.379 150.569 134.374 150.598 134.375 150.626V151.394C134.374 151.423 134.379 151.451 134.39 151.478C134.4 151.504 134.416 151.528 134.436 151.548C134.456 151.569 134.48 151.584 134.507 151.595C134.533 151.606 134.562 151.611 134.59 151.61H136.343L136.681 150.657C136.699 150.599 136.737 150.55 136.787 150.516C136.837 150.483 136.897 150.467 136.957 150.472H143.321L143.229 150.165Z" fill="black"/>
<path opacity="0.15" d="M144.365 151.916L144.395 151.578H134.65L135.48 165.258C135.495 165.427 135.573 165.584 135.698 165.698C135.823 165.812 135.987 165.874 136.157 165.873H136.618L136.956 152.408L144.365 151.916Z" fill="black"/>
<path d="M139.478 161.785C140.178 161.761 140.856 161.532 141.427 161.126C141.998 160.719 142.437 160.154 142.689 159.5C142.941 158.846 142.994 158.132 142.843 157.447C142.692 156.763 142.342 156.138 141.839 155.652C141.335 155.164 140.699 154.836 140.01 154.708C139.321 154.58 138.609 154.658 137.964 154.932C137.319 155.206 136.768 155.663 136.382 156.248C135.995 156.832 135.789 157.518 135.789 158.219C135.797 158.695 135.899 159.165 136.088 159.602C136.278 160.039 136.552 160.435 136.895 160.766C137.237 161.097 137.642 161.357 138.085 161.532C138.528 161.707 139.002 161.793 139.478 161.785Z" fill="#4D61FC"/>
<path d="M131.729 156.097L134.803 154.652L134.834 155.329C134.848 155.579 134.958 155.815 135.141 155.987C135.324 156.158 135.566 156.253 135.818 156.251L143.687 156.189C143.825 156.188 143.961 156.214 144.089 156.267C144.216 156.319 144.332 156.395 144.429 156.493C144.526 156.59 144.603 156.706 144.655 156.833C144.707 156.96 144.734 157.097 144.733 157.235V157.265C144.73 157.553 144.617 157.829 144.417 158.035C144.216 158.241 143.944 158.362 143.657 158.372C142.642 158.372 141.259 158.403 141.259 158.403L143.657 158.372C143.938 158.368 144.209 158.476 144.411 158.672C144.613 158.868 144.728 159.136 144.733 159.417C144.737 159.699 144.629 159.97 144.433 160.172C144.237 160.374 143.969 160.489 143.687 160.493L141.197 160.524L143.78 160.493C144.043 160.494 144.296 160.597 144.485 160.78C144.674 160.964 144.785 161.213 144.794 161.477C144.792 161.73 144.696 161.973 144.526 162.16C144.356 162.347 144.123 162.465 143.872 162.491C142.827 162.584 141.259 162.707 141.259 162.707L144.056 162.983C144.257 163 144.444 163.091 144.58 163.24C144.717 163.387 144.793 163.581 144.794 163.782V163.813C144.794 163.922 144.773 164.031 144.732 164.131C144.69 164.232 144.629 164.324 144.552 164.401C144.475 164.478 144.383 164.539 144.282 164.581C144.181 164.622 144.073 164.644 143.964 164.643C140.705 164.643 124.443 165.074 124.443 165.074L127.763 156.466L129.27 156.558C130.112 156.575 130.949 156.418 131.729 156.097Z" fill="#956363"/>
<g opacity="0.15">
<path opacity="0.15" d="M143.505 158.59H141.783C141.751 158.59 141.719 158.584 141.689 158.572C141.659 158.559 141.631 158.541 141.608 158.519C141.585 158.495 141.567 158.468 141.555 158.438C141.543 158.408 141.537 158.376 141.537 158.344C141.541 158.28 141.569 158.22 141.614 158.175C141.659 158.129 141.719 158.102 141.783 158.098H143.505C143.537 158.097 143.569 158.104 143.599 158.116C143.629 158.128 143.656 158.146 143.679 158.169C143.703 158.192 143.72 158.219 143.733 158.249C143.745 158.279 143.751 158.311 143.75 158.344C143.746 158.408 143.719 158.467 143.674 158.513C143.628 158.558 143.569 158.585 143.505 158.59Z" fill="black"/>
</g>
<g opacity="0.15">
<path opacity="0.15" d="M143.629 160.738H141.877C141.845 160.739 141.812 160.732 141.782 160.72C141.752 160.708 141.725 160.69 141.702 160.667C141.679 160.644 141.661 160.617 141.649 160.587C141.637 160.557 141.631 160.525 141.631 160.492C141.635 160.428 141.663 160.368 141.708 160.323C141.753 160.278 141.813 160.25 141.877 160.246H143.629C143.661 160.246 143.694 160.252 143.724 160.264C143.754 160.276 143.781 160.294 143.804 160.317C143.827 160.34 143.845 160.368 143.857 160.398C143.869 160.427 143.875 160.46 143.875 160.492C143.871 160.556 143.843 160.616 143.798 160.661C143.753 160.706 143.693 160.734 143.629 160.738Z" fill="black"/>
</g>
<path d="M89.584 124.865V160.248C89.5849 161.134 89.7669 162.011 90.1186 162.823C90.4699 163.637 90.9839 164.369 91.6286 164.976C92.2735 165.584 93.0353 166.053 93.8678 166.355C94.7002 166.658 95.5859 166.787 96.47 166.735L129.363 164.89V156.498L104.032 154.93L104.709 124.281" fill="#21252B"/>
<path opacity="0.4" d="M97.6377 162.645C95.0862 162.738 92.8421 160.832 92.8421 157.665L93.3032 124.403C93.5184 120.899 94.5636 118.194 97.4532 116.318L96.8077 116.472C94.677 116.927 92.7787 118.128 91.4544 119.858C90.1301 121.588 89.4667 123.734 89.5835 125.91V160.217C89.5813 161.105 89.7621 161.984 90.115 162.799C90.4679 163.613 90.9853 164.347 91.6342 164.953C92.2835 165.559 93.0508 166.024 93.8879 166.32C94.7253 166.616 95.6146 166.736 96.5003 166.673L129.363 164.89V162.953L97.6377 162.645Z" fill="black"/>
<path opacity="0.4" d="M121.001 156.005L120.97 155.482L107.997 154.652L104.954 130.244C104.95 130.195 104.927 130.15 104.889 130.118C104.852 130.086 104.803 130.071 104.754 130.075C104.705 130.079 104.66 130.102 104.628 130.14C104.596 130.177 104.581 130.226 104.585 130.275L104.062 154.96L108.059 155.206L121.001 156.005Z" fill="black"/>
<path opacity="0.15" d="M174.275 123.174L181.131 127.969L180.639 128.461L180.331 128.892L174.275 123.174Z" fill="black"/>
<path opacity="0.15" d="M129.363 156.496L130.163 161.599C130.238 162.087 130.483 162.533 130.853 162.859C131.224 163.185 131.698 163.37 132.191 163.382L144.826 163.72C144.823 163.939 144.735 164.149 144.579 164.304C144.424 164.459 144.215 164.547 143.996 164.55L129.363 164.858V156.496Z" fill="black"/>
<path opacity="0.4" d="M152.233 156.435L147.192 146.967L147.561 137.437C147.563 137.403 147.558 137.369 147.547 137.336C147.535 137.304 147.518 137.274 147.495 137.248C147.472 137.222 147.444 137.201 147.413 137.186C147.382 137.171 147.349 137.163 147.315 137.161C147.28 137.159 147.246 137.163 147.214 137.175C147.181 137.186 147.151 137.203 147.125 137.226C147.1 137.249 147.079 137.277 147.064 137.308C147.049 137.339 147.04 137.372 147.038 137.406L146.669 146.936C146.669 146.967 146.638 146.998 146.638 147.028L146.27 152.839L149.59 159.325C152.172 164.397 159.335 164.582 162.224 159.694L162.47 159.264C161.624 159.793 160.676 160.142 159.688 160.286C158.699 160.43 157.692 160.367 156.73 160.102C155.767 159.836 154.87 159.372 154.096 158.741C153.322 158.11 152.688 157.325 152.233 156.435Z" fill="black"/>
<path opacity="0.4" d="M155.37 147.06L156.477 145.585L155.001 142.08L154.694 146.814C154.689 146.895 154.71 146.975 154.755 147.043C154.799 147.111 154.864 147.163 154.94 147.19C155.017 147.218 155.1 147.22 155.177 147.197C155.254 147.173 155.322 147.125 155.37 147.06Z" fill="black"/>
<path d="M90.5983 186.223H96.6543L78.4862 316.228H76.1191L90.5983 186.223Z" fill="#61656D"/>
<path d="M327.492 316.228H325.125L306.957 186.223H313.013L327.492 316.228Z" fill="#61656D"/>
<path opacity="0.5" d="M76.1191 316.228H77.1336L92.7194 189.881C92.7723 189.449 92.9721 189.048 93.2857 188.746C93.5992 188.444 94.0072 188.258 94.4409 188.221L96.4084 188.037L96.6543 186.254H90.5983L76.1191 316.228Z" fill="black"/>
<path opacity="0.5" d="M325.986 316.228L309.816 190.005C309.758 189.555 309.868 189.099 310.133 188.729C310.394 188.358 310.787 188.101 311.23 188.007L313.167 187.607L313.013 186.193H306.957L325.125 316.197H325.986V316.228Z" fill="black"/>
<path d="M308.893 316.228H306.525L288.357 186.223H294.413L308.893 316.228Z" fill="#61656D"/>
<path opacity="0.5" d="M307.386 316.228L301.483 270.517L303.605 269.041L294.382 186.193H288.326L306.494 316.197H307.386V316.228Z" fill="black"/>
<path d="M298.501 156.928C298.606 156.928 298.704 156.897 298.79 156.84C298.876 156.783 298.944 156.701 298.984 156.606C299.024 156.51 299.033 156.405 299.014 156.303C298.993 156.202 298.944 156.109 298.87 156.036C298.796 155.963 298.704 155.913 298.603 155.893C298.501 155.873 298.397 155.883 298.301 155.922C298.206 155.962 298.123 156.029 298.068 156.115C298.009 156.201 297.979 156.302 297.979 156.405C297.979 156.544 298.034 156.677 298.132 156.775C298.231 156.873 298.363 156.928 298.501 156.928Z" fill="white"/>
<path d="M246.702 122.189L236.373 142.878L222.294 142.602L221.033 149.303L236.896 152.439C238.154 152.668 239.452 152.535 240.638 152.056C241.824 151.578 242.85 150.772 243.597 149.734L251.406 138.79" fill="#4D61FC"/>
<path d="M205.11 139.834L201.39 139.342L196.963 140.633C196.88 140.651 196.804 140.69 196.739 140.745C196.675 140.8 196.625 140.871 196.595 140.95C196.564 141.029 196.554 141.115 196.565 141.199C196.575 141.283 196.606 141.363 196.656 141.432C196.737 141.538 196.847 141.618 196.972 141.662C197.098 141.706 197.234 141.711 197.363 141.678L201.605 140.879L197.916 141.924C197.849 141.94 197.787 141.97 197.733 142.014C197.68 142.057 197.637 142.111 197.607 142.173C197.578 142.235 197.563 142.303 197.563 142.372C197.563 142.44 197.579 142.508 197.609 142.57C197.676 142.674 197.775 142.754 197.891 142.798C198.007 142.843 198.135 142.849 198.255 142.816L201.974 142.109L199.33 143.184C199.289 143.203 199.251 143.231 199.222 143.266C199.192 143.301 199.171 143.342 199.159 143.386C199.147 143.43 199.145 143.476 199.154 143.521C199.162 143.566 199.18 143.609 199.207 143.646C199.262 143.711 199.336 143.759 199.418 143.781C199.501 143.803 199.588 143.798 199.668 143.769L202.742 143.031L206.37 143.922L205.11 139.834Z" fill="#956363"/>
<path opacity="0.15" d="M205.11 139.834L201.39 139.342L196.963 140.633C196.88 140.651 196.804 140.69 196.739 140.745C196.675 140.8 196.625 140.871 196.595 140.95C196.564 141.029 196.554 141.115 196.565 141.199C196.575 141.283 196.606 141.363 196.656 141.432C196.737 141.538 196.847 141.618 196.972 141.662C197.098 141.706 197.234 141.711 197.363 141.678L201.605 140.879L197.916 141.924C197.849 141.94 197.787 141.97 197.733 142.014C197.68 142.057 197.637 142.111 197.607 142.173C197.578 142.235 197.563 142.303 197.563 142.372C197.563 142.44 197.579 142.508 197.609 142.57C197.676 142.674 197.775 142.754 197.891 142.798C198.007 142.843 198.135 142.849 198.255 142.816L201.974 142.109L199.33 143.184C199.289 143.203 199.251 143.231 199.222 143.266C199.192 143.301 199.171 143.342 199.159 143.386C199.147 143.43 199.145 143.476 199.154 143.521C199.162 143.566 199.18 143.609 199.207 143.646C199.262 143.711 199.336 143.759 199.418 143.781C199.501 143.803 199.588 143.798 199.668 143.769L202.742 143.031L206.37 143.922L205.11 139.834Z" fill="black"/>
<path d="M204.863 138.638L210.335 141.804C210.656 141.984 211.014 142.089 211.381 142.111L222.294 142.603L221.033 149.305L212.303 147.583C212.009 147.522 211.705 147.522 211.411 147.583L210.919 147.676C210.023 147.93 209.085 148.001 208.161 147.885C207.236 147.769 206.345 147.467 205.54 146.999H205.509C205.283 146.867 205.032 146.783 204.771 146.753C203.818 146.661 201.513 146.415 201.513 146.415C201.48 146.415 201.448 146.409 201.418 146.397C201.388 146.385 201.361 146.367 201.338 146.344C201.315 146.321 201.297 146.294 201.285 146.264C201.273 146.234 201.266 146.202 201.267 146.169C201.287 145.858 201.42 145.565 201.641 145.344C201.861 145.123 202.154 144.99 202.466 144.97L204.095 144.755C204.956 144.632 205.448 143.833 205.079 143.157L203.449 140.298C203.397 140.205 203.327 140.125 203.242 140.061C203.158 139.998 203.061 139.953 202.957 139.929L197.178 138.422C197.122 138.414 197.067 138.395 197.018 138.366C196.969 138.337 196.926 138.299 196.891 138.253C196.857 138.207 196.832 138.155 196.818 138.1C196.804 138.045 196.801 137.987 196.809 137.931C196.842 137.79 196.927 137.667 197.047 137.587C197.167 137.507 197.313 137.476 197.455 137.5C198.93 137.685 203.419 138.33 204.464 138.515C204.607 138.508 204.749 138.551 204.863 138.638Z" fill="#956363"/>
<path opacity="0.15" d="M236.404 142.878L238.249 142.939C238.463 142.944 238.673 142.881 238.849 142.76C239.026 142.638 239.16 142.464 239.232 142.263L242.276 131.135L236.404 142.878Z" fill="black"/>
<path d="M279.565 298.212C279.236 299.234 279.101 300.308 279.165 301.379L279.135 310.233C279.199 311.776 279.63 313.285 280.395 314.629L280.58 314.936C280.804 315.324 281.127 315.646 281.514 315.868C281.905 316.089 282.344 316.203 282.793 316.197H285.344C285.913 316.197 286.463 316.006 286.909 315.652C287.355 315.302 287.672 314.81 287.804 314.26C288.136 312.953 288.179 311.588 287.927 310.264L285.775 300.764C285.624 299.875 285.366 299.008 285.006 298.182H279.565V298.212Z" fill="#4D61FC"/>
<path d="M242.459 259.727L238.002 293.972C237.816 295.069 237.452 296.128 236.926 297.108L229.609 310.88L231.331 313.216L238.032 309.865L243.996 299.106C243.969 297.271 244.239 295.444 244.796 293.696L254.018 259.727H242.459Z" fill="#956363"/>
<path opacity="0.15" d="M238.034 299.628C238.557 298.645 239.602 296.247 239.755 295.14L244.582 268.61C244.703 267.973 244.98 267.377 245.387 266.872C245.795 266.368 246.321 265.973 246.918 265.721L253.036 263.2L253.312 262.186L241.754 264.922L237.972 293.941C237.786 295.038 237.423 296.097 236.897 297.077L229.58 310.849L230.625 312.601L238.034 299.628Z" fill="black"/>
<path d="M224.876 313.032L229.611 310.88C230.863 311.089 232.148 310.963 233.336 310.514C234.524 310.068 235.572 309.312 236.374 308.328L243.998 299.105C245.384 302.045 245.865 305.331 245.381 308.544L244.274 316.198H243.413L243.168 308.328C243.168 308.199 243.127 308.073 243.051 307.969C242.976 307.864 242.869 307.784 242.747 307.744C242.625 307.704 242.492 307.701 242.369 307.741C242.246 307.778 242.138 307.855 242.061 307.96L237.419 313.647C236.764 314.446 235.938 315.092 235.002 315.534C234.066 315.974 233.043 316.201 232.008 316.198H223.555C223.424 316.195 223.295 316.161 223.181 316.1C223.066 316.035 222.968 315.946 222.896 315.839C222.823 315.728 222.778 315.605 222.764 315.473C222.75 315.344 222.769 315.211 222.817 315.092C223.244 314.188 223.972 313.459 224.876 313.032Z" fill="#4D61FC"/>
<path d="M279.195 294.219C279.573 297.411 279.739 300.626 279.687 303.84L279.625 307.683C279.653 308.494 279.997 309.263 280.581 309.825C281.168 310.388 281.949 310.698 282.761 310.695H283.283C283.732 310.695 284.172 310.597 284.581 310.409C284.986 310.225 285.349 309.954 285.644 309.616C285.936 309.278 286.155 308.881 286.284 308.454C286.413 308.024 286.45 307.572 286.388 307.129L285.497 302.58C285.042 300.273 284.876 297.919 285.005 295.571L287.464 251.365L275.506 254.778L279.195 294.219Z" fill="#956363"/>
<path d="M283.962 118.624L273.848 116.564L257.371 116.749L251.314 118.378C247.533 119.577 245.658 122.866 245.72 126.832L246.273 129.722L244.705 135.132C243.783 138.637 244.982 140.666 247.41 143.494C248.179 144.385 248.579 144.754 248.886 146.445C248.886 146.445 250.361 152.009 250.638 154.315C251.267 159.546 251.493 164.818 251.314 170.085L282.425 170.023C283.87 170.023 284.485 168.486 283.808 167.226C283.808 167.226 281.687 163.014 281.288 159.448C279.996 147.828 283.316 133.995 283.316 133.995L289.834 126.771C290.018 122.989 287.559 119.454 283.962 118.624Z" fill="#4D61FC"/>
<path d="M252.083 170.054L241.754 265.198L287.374 253.516L287.835 214.383C288.014 199.72 286.277 185.097 282.671 170.884L282.456 169.992L252.083 170.054Z" fill="#3F4249"/>
<g opacity="0.15">
<path opacity="0.15" d="M267.359 157.913C267.313 157.916 267.27 157.902 267.236 157.873C267.202 157.845 267.181 157.803 267.175 157.759C267.168 157.735 267.168 157.71 267.175 157.685C267.181 157.661 267.19 157.638 267.205 157.618C267.221 157.598 267.239 157.581 267.258 157.568C267.279 157.555 267.304 157.547 267.328 157.544L280.332 155.023C280.356 155.017 280.384 155.016 280.409 155.02C280.433 155.025 280.458 155.034 280.479 155.048C280.501 155.063 280.519 155.081 280.535 155.103C280.547 155.124 280.556 155.149 280.562 155.174C280.565 155.2 280.565 155.226 280.559 155.251C280.553 155.276 280.541 155.299 280.525 155.32C280.51 155.34 280.489 155.357 280.467 155.369C280.442 155.382 280.418 155.39 280.393 155.392L267.39 157.913H267.359Z" fill="black"/>
</g>
<path d="M262.164 158.464L258.414 157.727L257.584 158.526L258.568 159.694L262.164 158.464Z" fill="#956363"/>
<path opacity="0.15" d="M262.164 158.464L258.414 157.727L257.584 158.526L258.568 159.694L262.164 158.464Z" fill="black"/>
<path opacity="0.15" d="M275.691 256.438L279.196 294.25C279.35 295.572 279.473 296.893 279.534 298.185V298.215C279.657 300.091 279.688 301.965 279.657 303.84L279.596 307.683C279.623 308.464 279.943 309.202 280.49 309.761C281.034 310.318 281.769 310.65 282.547 310.696C281.102 309.558 281.194 307.714 281.163 306.33L278.55 260.527C278.507 259.836 278.673 259.148 279.03 258.555C279.39 257.962 279.918 257.491 280.549 257.207L287.281 254.102L287.312 253.518L275.691 256.438Z" fill="black"/>
<path opacity="0.15" d="M222.262 142.725L220.817 145.799C220.573 146.323 220.166 146.753 219.655 147.025C219.145 147.297 218.56 147.395 217.989 147.305L212.609 146.444C212.181 146.356 211.737 146.378 211.318 146.506C210.212 146.875 207.752 147.52 205.416 146.905C205.428 146.917 205.443 146.926 205.459 146.931C205.475 146.936 205.492 146.938 205.508 146.936H205.539C206.344 147.405 207.236 147.706 208.16 147.822C209.084 147.938 210.023 147.867 210.919 147.612L211.411 147.52C211.704 147.459 212.008 147.459 212.302 147.52L221.033 149.242L222.262 142.725Z" fill="black"/>
<path opacity="0.15" d="M261.488 164.857L266.683 163.751L281.808 162.49L281.961 162.552C282.699 164.673 282.976 165.38 283.56 166.733L281.347 166.825C277.897 166.881 274.445 166.706 271.018 166.302C267.839 165.928 264.626 165.97 261.457 166.425V164.857H261.488Z" fill="black"/>
<path d="M289.433 123.879L286.266 124.094C283.745 128.275 282.239 131.626 282.393 136.483L282.178 138.42L288.295 153.944L273.324 156.803L275.722 162.951L295.273 161.66C298.132 161.475 300.161 158.401 299.116 155.512L289.433 123.879Z" fill="#4D61FC"/>
<path d="M250.668 173.435L251.006 170.053L282.393 169.961L283.254 173.435H250.668Z" fill="#21252B"/>
<path opacity="0.2" d="M271.942 173.436C269.237 173.436 266.627 174.419 264.592 176.2C262.557 177.98 261.235 180.439 260.875 183.119L250.116 263.046L241.754 265.198L251.683 173.436H271.942Z" fill="black"/>
<path d="M266.409 171.436L254.973 151.669C254.847 151.454 254.647 151.289 254.411 151.205C254.175 151.121 253.917 151.122 253.682 151.208L237.543 156.649C237.401 156.694 237.27 156.769 237.16 156.87C237.051 156.972 236.965 157.096 236.909 157.234C236.854 157.372 236.829 157.521 236.838 157.669C236.846 157.818 236.887 157.963 236.959 158.094L247.749 176.846C247.875 177.048 248.062 177.205 248.283 177.293C248.505 177.382 248.748 177.397 248.979 177.338L265.764 172.912C265.917 172.879 266.062 172.81 266.185 172.711C266.305 172.611 266.403 172.484 266.464 172.34C266.529 172.196 266.557 172.038 266.547 171.881C266.538 171.724 266.489 171.571 266.409 171.436Z" fill="#3F4249"/>
<path opacity="0.8" d="M266.409 171.436L254.973 151.669C254.847 151.454 254.647 151.289 254.411 151.205C254.175 151.121 253.917 151.122 253.682 151.208L237.543 156.649C237.401 156.694 237.27 156.769 237.16 156.87C237.051 156.972 236.965 157.096 236.909 157.234C236.854 157.372 236.829 157.521 236.838 157.669C236.846 157.818 236.887 157.963 236.959 158.094L247.749 176.846C247.875 177.048 248.062 177.205 248.283 177.293C248.505 177.382 248.748 177.397 248.979 177.338L265.764 172.912C265.917 172.879 266.062 172.81 266.185 172.711C266.305 172.611 266.403 172.484 266.464 172.34C266.529 172.196 266.557 172.038 266.547 171.881C266.538 171.724 266.489 171.571 266.409 171.436Z" fill="black"/>
<path d="M265.854 171.653L254.418 151.886C254.291 151.67 254.093 151.506 253.856 151.422C253.621 151.337 253.362 151.339 253.127 151.425L236.988 156.897C236.846 156.942 236.715 157.017 236.606 157.118C236.496 157.219 236.411 157.343 236.355 157.481C236.299 157.619 236.274 157.769 236.283 157.917C236.292 158.066 236.333 158.211 236.404 158.342L247.194 177.094C247.321 177.296 247.508 177.452 247.729 177.541C247.95 177.629 248.193 177.645 248.424 177.586L265.209 173.159C265.359 173.116 265.498 173.04 265.617 172.936C265.734 172.832 265.826 172.704 265.888 172.559C265.949 172.415 265.98 172.259 265.974 172.102C265.968 171.945 265.928 171.792 265.854 171.653Z" fill="#21252B"/>
<path d="M249.16 161.354C249.061 161.269 248.988 161.157 248.949 161.032C248.911 160.907 248.91 160.773 248.945 160.647C248.474 160.459 247.954 160.437 247.47 160.585C246.732 160.831 246.578 161.507 247.131 162.061C247.437 162.341 247.809 162.54 248.212 162.637C248.616 162.733 249.037 162.726 249.437 162.614C249.619 162.569 249.783 162.467 249.904 162.324C250.026 162.18 250.099 162.002 250.113 161.815C249.76 161.75 249.43 161.591 249.16 161.354Z" fill="#3F4249"/>
<path opacity="0.4" d="M239.386 159.025C239.543 158.742 239.331 158.327 238.916 158.103C238.501 157.878 238.037 157.915 237.88 158.198C237.723 158.481 237.935 158.896 238.35 159.12C238.765 159.345 239.223 159.308 239.386 159.025Z" fill="black"/>
<path d="M239.249 159.086C239.406 158.803 239.194 158.388 238.779 158.163C238.364 157.939 237.9 157.976 237.743 158.259C237.586 158.541 237.798 158.956 238.213 159.181C238.628 159.405 239.08 159.368 239.249 159.086Z" fill="#3F4249"/>
<path opacity="0.5" d="M238.98 158.977C239.087 158.787 238.946 158.501 238.672 158.347C238.399 158.193 238.073 158.221 237.968 158.415C237.864 158.608 238.002 158.888 238.276 159.029C238.549 159.171 238.875 159.171 238.98 158.977Z" fill="black"/>
<path opacity="0.4" d="M238.157 158.678C238.137 158.634 238.128 158.586 238.13 158.538C238.133 158.49 238.146 158.443 238.17 158.401C238.194 158.359 238.228 158.323 238.268 158.297C238.308 158.27 238.355 158.254 238.402 158.248H238.31C238.034 158.248 237.88 158.433 237.972 158.678C238.033 158.806 238.129 158.915 238.248 158.991C238.368 159.067 238.507 159.108 238.648 159.109H238.741C238.614 159.094 238.493 159.047 238.391 158.972C238.289 158.896 238.208 158.795 238.157 158.678Z" fill="black"/>
<path d="M273.294 156.805L264.595 158.465C264.493 158.49 264.392 158.5 264.287 158.495L258.784 158.403C258.21 158.403 257.638 158.496 257.094 158.68L250.73 161.016C250.596 161.062 250.486 161.158 250.422 161.285C250.359 161.412 250.348 161.558 250.392 161.693C250.409 161.764 250.441 161.83 250.485 161.889C250.528 161.948 250.583 161.997 250.646 162.034C250.709 162.072 250.779 162.096 250.851 162.106C250.924 162.116 250.997 162.111 251.068 162.092L257.155 160.494L251.375 163.66C251.244 163.736 251.146 163.858 251.101 164.003C251.056 164.149 251.068 164.306 251.134 164.442C251.201 164.579 251.316 164.685 251.458 164.74C251.6 164.794 251.757 164.793 251.898 164.736L257.801 162.4L252.482 164.49C252.346 164.551 252.236 164.659 252.174 164.795C252.112 164.931 252.101 165.085 252.144 165.228C252.164 165.301 252.197 165.369 252.244 165.429C252.29 165.489 252.348 165.539 252.414 165.576C252.48 165.613 252.552 165.637 252.627 165.646C252.702 165.655 252.779 165.648 252.851 165.627L258.262 164.152L253.589 165.443C253.462 165.476 253.354 165.557 253.288 165.67C253.222 165.782 253.203 165.916 253.235 166.042C253.268 166.169 253.349 166.277 253.462 166.343C253.574 166.41 253.708 166.429 253.835 166.396L266.285 163.752L275.754 162.953L273.294 156.805Z" fill="#956363"/>
<g opacity="0.15">
<path opacity="0.15" d="M252.45 164.706C252.41 164.704 252.372 164.693 252.339 164.671C252.307 164.649 252.281 164.618 252.265 164.583C252.256 164.558 252.251 164.533 252.252 164.507C252.253 164.481 252.26 164.456 252.272 164.432C252.283 164.409 252.3 164.388 252.319 164.372C252.339 164.356 252.363 164.344 252.388 164.337L257.337 162.369C257.362 162.361 257.387 162.358 257.411 162.36C257.439 162.362 257.463 162.368 257.485 162.38C257.51 162.391 257.528 162.407 257.546 162.426C257.562 162.446 257.574 162.468 257.583 162.492C257.593 162.517 257.596 162.542 257.593 162.568C257.589 162.593 257.583 162.618 257.574 162.641C257.562 162.664 257.546 162.684 257.525 162.701C257.506 162.717 257.485 162.73 257.46 162.738L252.511 164.706H252.45Z" fill="black"/>
</g>
<g opacity="0.15">
<path opacity="0.15" d="M253.558 165.628C253.515 165.627 253.473 165.611 253.44 165.584C253.406 165.556 253.383 165.517 253.374 165.475C253.361 165.426 253.367 165.374 253.389 165.329C253.412 165.283 253.45 165.248 253.497 165.229L258.169 163.938C258.219 163.921 258.271 163.925 258.317 163.948C258.363 163.971 258.4 164.012 258.415 164.061C258.431 164.11 258.428 164.163 258.406 164.209C258.382 164.255 258.342 164.29 258.292 164.307L253.62 165.598C253.589 165.628 253.589 165.628 253.558 165.628Z" fill="black"/>
</g>
<path opacity="0.15" d="M253.219 166.027C253.249 166.152 253.327 166.261 253.436 166.33C253.545 166.399 253.676 166.423 253.803 166.396L266.253 163.752L275.721 162.953L273.324 156.805L273.662 160.371C273.689 160.706 273.594 161.041 273.388 161.308C273.185 161.575 272.887 161.756 272.555 161.816L265.423 162.984L253.219 166.027Z" fill="black"/>
<path opacity="0.6" d="M273.293 156.804L274.646 156.496L277.197 162.829L275.691 162.952L273.293 156.804Z" fill="black"/>
<path d="M278.55 123.051C278.654 123.051 278.753 123.02 278.839 122.963C278.925 122.905 278.993 122.824 279.033 122.728C279.073 122.633 279.082 122.528 279.063 122.426C279.042 122.325 278.993 122.232 278.919 122.159C278.845 122.086 278.753 122.036 278.651 122.016C278.55 121.996 278.445 122.006 278.35 122.046C278.255 122.085 278.172 122.152 278.117 122.238C278.058 122.324 278.027 122.425 278.027 122.529C278.027 122.667 278.083 122.8 278.181 122.898C278.279 122.996 278.412 123.051 278.55 123.051Z" fill="white"/>
<path d="M266.009 124.803C266.113 124.803 266.215 124.772 266.298 124.715C266.384 124.658 266.452 124.576 266.492 124.481C266.532 124.385 266.541 124.28 266.522 124.178C266.501 124.077 266.452 123.984 266.378 123.911C266.304 123.838 266.212 123.788 266.11 123.768C266.009 123.748 265.904 123.758 265.809 123.797C265.714 123.837 265.631 123.904 265.575 123.99C265.517 124.076 265.486 124.177 265.486 124.28C265.486 124.419 265.542 124.552 265.64 124.65C265.738 124.748 265.871 124.803 266.009 124.803Z" fill="white"/>
<path d="M283.775 159.633C283.879 159.633 283.977 159.602 284.064 159.545C284.15 159.488 284.217 159.406 284.257 159.31C284.297 159.215 284.306 159.11 284.288 159.008C284.266 158.907 284.217 158.814 284.143 158.741C284.07 158.668 283.977 158.618 283.876 158.598C283.775 158.578 283.67 158.588 283.575 158.628C283.479 158.667 283.396 158.734 283.341 158.82C283.283 158.906 283.252 159.007 283.252 159.111C283.252 159.249 283.307 159.382 283.406 159.48C283.504 159.578 283.636 159.633 283.775 159.633Z" fill="white"/>
<path d="M279.042 135.44C279.147 135.44 279.248 135.409 279.334 135.352C279.417 135.294 279.485 135.213 279.525 135.117C279.565 135.021 279.574 134.917 279.556 134.815C279.534 134.714 279.485 134.621 279.411 134.547C279.34 134.475 279.245 134.425 279.144 134.404C279.042 134.385 278.938 134.395 278.842 134.434C278.747 134.474 278.664 134.541 278.609 134.627C278.55 134.713 278.52 134.814 278.52 134.917C278.52 135.056 278.575 135.189 278.673 135.287C278.772 135.385 278.904 135.44 279.042 135.44Z" fill="white"/>
<path d="M291.216 135.776C291.32 135.776 291.422 135.745 291.505 135.688C291.591 135.63 291.659 135.548 291.699 135.453C291.739 135.358 291.748 135.252 291.729 135.151C291.708 135.05 291.659 134.957 291.585 134.884C291.511 134.81 291.419 134.761 291.317 134.741C291.216 134.72 291.111 134.731 291.016 134.77C290.921 134.81 290.838 134.877 290.782 134.963C290.724 135.049 290.693 135.15 290.693 135.253C290.693 135.392 290.749 135.524 290.847 135.623C290.945 135.721 291.078 135.776 291.216 135.776Z" fill="white"/>
<path d="M259.583 132.918C259.688 132.918 259.786 132.888 259.872 132.83C259.958 132.773 260.026 132.691 260.066 132.596C260.106 132.5 260.115 132.395 260.097 132.294C260.075 132.192 260.026 132.099 259.952 132.026C259.878 131.953 259.786 131.903 259.685 131.883C259.583 131.863 259.479 131.873 259.383 131.913C259.288 131.952 259.205 132.019 259.15 132.105C259.091 132.191 259.061 132.292 259.061 132.395C259.061 132.534 259.116 132.667 259.214 132.765C259.313 132.863 259.445 132.918 259.583 132.918Z" fill="white"/>
<path d="M248.946 136.453C249.05 136.453 249.151 136.423 249.237 136.365C249.323 136.308 249.39 136.226 249.429 136.131C249.469 136.035 249.479 135.93 249.459 135.829C249.439 135.727 249.389 135.634 249.316 135.561C249.243 135.488 249.15 135.438 249.048 135.418C248.947 135.398 248.842 135.408 248.747 135.448C248.651 135.488 248.57 135.554 248.512 135.64C248.455 135.726 248.424 135.827 248.424 135.931C248.424 136.069 248.479 136.202 248.577 136.3C248.675 136.398 248.808 136.453 248.946 136.453Z" fill="white"/>
<path d="M244.396 130.522C244.499 130.522 244.6 130.491 244.686 130.434C244.772 130.376 244.839 130.295 244.878 130.199C244.918 130.104 244.928 129.999 244.908 129.897C244.888 129.796 244.838 129.703 244.765 129.629C244.692 129.557 244.599 129.507 244.497 129.487C244.396 129.467 244.291 129.477 244.196 129.516C244.1 129.556 244.018 129.623 243.961 129.709C243.903 129.795 243.873 129.896 243.873 129.999C243.873 130.138 243.928 130.271 244.026 130.369C244.124 130.467 244.257 130.522 244.396 130.522Z" fill="white"/>
<path d="M242.829 146.137C242.933 146.137 243.034 146.106 243.119 146.049C243.206 145.991 243.273 145.91 243.312 145.814C243.352 145.719 243.362 145.614 243.342 145.512C243.322 145.411 243.272 145.318 243.199 145.245C243.126 145.172 243.032 145.122 242.931 145.102C242.83 145.082 242.725 145.092 242.629 145.132C242.534 145.171 242.452 145.238 242.395 145.324C242.337 145.41 242.307 145.511 242.307 145.614C242.307 145.753 242.362 145.886 242.46 145.984C242.558 146.082 242.691 146.137 242.829 146.137Z" fill="white"/>
<path d="M233.575 150.104C233.679 150.104 233.78 150.073 233.866 150.016C233.952 149.958 234.019 149.877 234.058 149.781C234.098 149.686 234.108 149.581 234.088 149.479C234.068 149.378 234.018 149.285 233.945 149.212C233.872 149.139 233.779 149.089 233.677 149.068C233.576 149.049 233.471 149.059 233.376 149.098C233.28 149.138 233.198 149.205 233.141 149.291C233.083 149.377 233.053 149.478 233.053 149.581C233.053 149.72 233.108 149.853 233.206 149.951C233.304 150.049 233.437 150.104 233.575 150.104Z" fill="white"/>
<path d="M227.212 144.445C227.315 144.445 227.416 144.415 227.503 144.357C227.588 144.3 227.655 144.219 227.695 144.123C227.734 144.027 227.745 143.923 227.725 143.821C227.705 143.72 227.655 143.626 227.582 143.553C227.509 143.48 227.416 143.431 227.314 143.41C227.213 143.39 227.108 143.401 227.012 143.44C226.917 143.48 226.835 143.547 226.778 143.633C226.72 143.719 226.689 143.82 226.689 143.923C226.689 144.061 226.744 144.195 226.843 144.293C226.941 144.39 227.073 144.445 227.212 144.445Z" fill="white"/>
<path d="M254.757 121.145C254.861 121.145 254.963 121.114 255.049 121.057C255.132 120.999 255.199 120.918 255.239 120.822C255.279 120.727 255.288 120.622 255.27 120.52C255.249 120.419 255.199 120.326 255.126 120.253C255.055 120.18 254.96 120.13 254.858 120.11C254.757 120.09 254.652 120.1 254.557 120.139C254.462 120.179 254.38 120.246 254.322 120.332C254.265 120.418 254.234 120.519 254.234 120.622C254.234 120.761 254.289 120.894 254.387 120.992C254.486 121.09 254.618 121.145 254.757 121.145Z" fill="white"/>
<path d="M267.79 139.527C267.895 139.527 267.993 139.497 268.079 139.44C268.165 139.382 268.233 139.301 268.273 139.205C268.313 139.109 268.322 139.005 268.304 138.903C268.282 138.802 268.233 138.708 268.159 138.635C268.085 138.562 267.993 138.513 267.892 138.492C267.79 138.472 267.686 138.483 267.59 138.522C267.495 138.562 267.412 138.629 267.357 138.715C267.298 138.801 267.268 138.902 267.268 139.005C267.268 139.143 267.323 139.277 267.421 139.375C267.52 139.472 267.652 139.527 267.79 139.527Z" fill="white"/>
<path d="M263.825 154.961C263.93 154.961 264.031 154.931 264.117 154.873C264.2 154.816 264.268 154.734 264.308 154.639C264.348 154.543 264.357 154.438 264.339 154.337C264.317 154.235 264.268 154.142 264.194 154.069C264.123 153.996 264.028 153.946 263.927 153.926C263.825 153.906 263.721 153.916 263.625 153.956C263.53 153.995 263.447 154.062 263.392 154.148C263.333 154.234 263.303 154.335 263.303 154.439C263.303 154.577 263.358 154.71 263.456 154.808C263.555 154.906 263.687 154.961 263.825 154.961Z" fill="white"/>
<path d="M272.064 165.965C272.168 165.965 272.267 165.935 272.353 165.877C272.439 165.82 272.506 165.738 272.546 165.642C272.586 165.547 272.595 165.442 272.577 165.341C272.555 165.239 272.506 165.146 272.433 165.073C272.359 165 272.267 164.95 272.165 164.93C272.064 164.91 271.959 164.92 271.864 164.96C271.769 164.999 271.686 165.066 271.63 165.152C271.572 165.238 271.541 165.339 271.541 165.442C271.541 165.581 271.596 165.714 271.695 165.812C271.793 165.91 271.925 165.965 272.064 165.965Z" fill="white"/>
<path d="M257.585 146.535C257.69 146.535 257.788 146.505 257.874 146.447C257.96 146.39 258.028 146.308 258.068 146.213C258.108 146.117 258.117 146.012 258.098 145.911C258.077 145.81 258.028 145.716 257.954 145.643C257.88 145.57 257.788 145.52 257.687 145.5C257.585 145.48 257.481 145.49 257.385 145.53C257.29 145.57 257.207 145.637 257.152 145.723C257.093 145.808 257.062 145.909 257.062 146.013C257.062 146.151 257.118 146.284 257.216 146.382C257.315 146.48 257.447 146.535 257.585 146.535Z" fill="white"/>
<path d="M254.234 158.772C254.337 158.772 254.438 158.741 254.524 158.684C254.61 158.626 254.677 158.545 254.716 158.449C254.756 158.354 254.765 158.249 254.746 158.147C254.726 158.046 254.676 157.953 254.603 157.88C254.53 157.806 254.437 157.757 254.335 157.737C254.234 157.716 254.129 157.727 254.033 157.766C253.938 157.806 253.856 157.873 253.799 157.959C253.741 158.045 253.711 158.146 253.711 158.249C253.711 158.388 253.766 158.521 253.864 158.619C253.962 158.717 254.095 158.772 254.234 158.772Z" fill="white"/>
<path d="M288.448 147.551C288.553 147.551 288.654 147.52 288.737 147.463C288.823 147.406 288.891 147.324 288.931 147.229C288.971 147.133 288.98 147.028 288.962 146.926C288.94 146.825 288.891 146.732 288.817 146.659C288.744 146.586 288.651 146.536 288.55 146.516C288.448 146.496 288.344 146.506 288.249 146.545C288.153 146.585 288.07 146.652 288.015 146.738C287.956 146.824 287.926 146.925 287.926 147.028C287.926 147.167 287.981 147.3 288.079 147.398C288.178 147.496 288.31 147.551 288.448 147.551Z" fill="white"/>
<path d="M275.292 149.824C275.397 149.824 275.495 149.794 275.581 149.736C275.667 149.679 275.735 149.597 275.775 149.502C275.815 149.406 275.824 149.301 275.806 149.2C275.784 149.099 275.735 149.005 275.661 148.932C275.587 148.859 275.495 148.81 275.394 148.789C275.292 148.769 275.188 148.779 275.092 148.819C274.997 148.859 274.914 148.925 274.859 149.012C274.8 149.098 274.77 149.198 274.77 149.302C274.77 149.44 274.825 149.573 274.923 149.672C275.022 149.769 275.154 149.824 275.292 149.824Z" fill="white"/>
<path opacity="0.6" d="M272.219 119.454L276.215 117.025L273.879 116.533L257.401 116.718L255.803 117.148L259.738 119.484C261.625 120.611 263.783 121.204 265.981 121.198C268.182 121.193 270.337 120.59 272.219 119.454Z" fill="black"/>
<path d="M273.816 91.0801C274.819 91.0801 275.799 90.7828 276.635 90.2252C277.469 89.6678 278.12 88.8756 278.501 87.9491C278.886 87.0223 278.987 86.0023 278.79 85.0182C278.597 84.0345 278.111 83.1307 277.404 82.4212C276.694 81.7117 275.79 81.2288 274.806 81.0329C273.823 80.8374 272.802 80.9376 271.877 81.3216C270.948 81.7055 270.155 82.3557 269.599 83.1897C269.042 84.0241 268.744 85.0047 268.744 86.0078C268.744 87.353 269.279 88.6432 270.229 89.5944C271.182 90.5458 272.47 91.0801 273.816 91.0801Z" fill="#21252B"/>
<path d="M276.705 90.1878C275.845 90.7836 274.818 91.0975 273.77 91.0864C272.724 91.0756 271.704 90.7405 270.855 90.127C270.007 89.5137 269.367 88.6523 269.029 87.6612C268.688 86.6704 268.663 85.5985 268.959 84.5929C269.02 84.4085 269.082 84.2548 269.143 84.0703C271.418 84.4085 275.383 86.4374 276.705 90.1878Z" fill="#4D61FC"/>
<path d="M271.325 107.095C271.079 112.567 269.45 115.61 272.493 115.733C277.35 115.948 281.501 111.675 281.746 106.203C281.992 100.731 278.242 96.12 273.354 95.9355C272.063 100.608 271.54 101.623 271.325 107.095Z" fill="#21252B"/>
<path d="M269.175 107.389C269.59 102.655 265.993 98.474 261.139 98.0436C256.285 97.6132 252.012 101.118 251.609 105.849C251.206 110.58 254.794 114.764 259.648 115.194C264.502 115.624 268.76 112.126 269.175 107.389Z" fill="#21252B"/>
<path d="M271.541 103.376L271.849 114.442C271.867 114.878 272.021 115.297 272.291 115.64C272.562 115.982 272.934 116.23 273.355 116.348L274.615 116.687L271.726 118.47C270.047 119.51 268.117 120.068 266.143 120.085C264.17 120.101 262.23 119.574 260.536 118.562L257.4 116.687L258.814 116.287C259.202 116.178 259.549 115.956 259.814 115.65C260.075 115.344 260.241 114.966 260.29 114.565L261.735 101.408L271.541 103.376Z" fill="#956363"/>
<path d="M263.825 111.553L264.348 111.583C265.242 111.623 266.137 111.485 266.976 111.178C267.819 110.872 268.59 110.403 269.251 109.798C269.909 109.192 270.444 108.462 270.822 107.651C271.197 106.839 271.412 105.961 271.449 105.066L271.849 95.5056C271.861 95.2068 271.815 94.9083 271.714 94.6273C271.609 94.3463 271.452 94.0887 271.249 93.8686C271.046 93.6488 270.804 93.4711 270.53 93.3457C270.259 93.2203 269.964 93.1499 269.666 93.1385L260.72 92.7389C259.937 92.7063 259.174 92.986 258.599 93.5166C258.021 94.0469 257.68 94.7844 257.646 95.5671L257.277 104.451C257.216 106.258 257.868 108.017 259.094 109.346C260.321 110.675 262.021 111.468 263.825 111.553Z" fill="#956363"/>
<path d="M264.564 101.837C264.708 101.837 264.853 101.794 264.973 101.713C265.096 101.631 265.191 101.516 265.246 101.381C265.302 101.247 265.317 101.098 265.286 100.955C265.259 100.812 265.188 100.681 265.087 100.577C264.982 100.474 264.85 100.404 264.708 100.376C264.564 100.347 264.416 100.361 264.281 100.417C264.146 100.473 264.032 100.568 263.949 100.689C263.869 100.811 263.826 100.953 263.826 101.099C263.826 101.295 263.903 101.482 264.041 101.621C264.18 101.759 264.367 101.837 264.564 101.837Z" fill="#21252B"/>
<path d="M264.255 101.102C264.285 101.102 264.316 101.092 264.341 101.076C264.365 101.059 264.384 101.035 264.396 101.007C264.408 100.979 264.411 100.948 264.405 100.918C264.399 100.889 264.384 100.861 264.362 100.84C264.341 100.818 264.313 100.804 264.285 100.798C264.255 100.792 264.224 100.795 264.197 100.807C264.169 100.818 264.144 100.838 264.126 100.863C264.111 100.888 264.102 100.918 264.102 100.948C264.102 100.989 264.117 101.028 264.148 101.056C264.175 101.085 264.215 101.102 264.255 101.102Z" fill="white"/>
<path d="M258.814 101.837C258.962 101.837 259.103 101.794 259.223 101.713C259.346 101.631 259.441 101.516 259.496 101.381C259.552 101.247 259.567 101.098 259.536 100.955C259.509 100.812 259.438 100.681 259.337 100.577C259.232 100.474 259.1 100.404 258.958 100.376C258.814 100.347 258.666 100.361 258.531 100.417C258.396 100.473 258.282 100.568 258.202 100.689C258.119 100.811 258.076 100.953 258.076 101.099C258.076 101.295 258.153 101.482 258.291 101.621C258.43 101.759 258.617 101.837 258.814 101.837Z" fill="#21252B"/>
<path d="M258.505 101.07C258.535 101.07 258.563 101.061 258.591 101.044C258.615 101.027 258.634 101.004 258.646 100.976C258.658 100.947 258.661 100.917 258.655 100.887C258.649 100.857 258.634 100.83 258.612 100.809C258.591 100.787 258.563 100.772 258.535 100.767C258.505 100.761 258.474 100.764 258.447 100.775C258.419 100.787 258.394 100.806 258.376 100.832C258.361 100.857 258.352 100.886 258.352 100.917C258.352 100.958 258.367 100.997 258.398 101.025C258.425 101.054 258.465 101.07 258.505 101.07Z" fill="white"/>
<g opacity="0.3">
<path opacity="0.3" d="M261.49 105.403L262.474 105.495C262.529 105.498 262.581 105.48 262.624 105.445C262.664 105.411 262.692 105.362 262.701 105.308C262.707 105.254 262.695 105.199 262.664 105.154C262.634 105.109 262.587 105.077 262.535 105.064L261.551 104.972C261.435 104.96 261.324 104.901 261.25 104.809C261.176 104.717 261.14 104.599 261.152 104.48C261.167 104.361 261.226 104.252 261.318 104.173C261.407 104.094 261.524 104.05 261.644 104.05C261.674 104.057 261.705 104.058 261.733 104.052C261.764 104.047 261.791 104.035 261.816 104.018C261.84 104.001 261.862 103.979 261.88 103.953C261.896 103.927 261.905 103.898 261.911 103.869C261.914 103.839 261.911 103.808 261.905 103.779C261.896 103.75 261.88 103.722 261.862 103.699C261.843 103.676 261.819 103.657 261.791 103.643C261.764 103.629 261.736 103.621 261.705 103.62C261.475 103.602 261.244 103.677 261.066 103.826C260.887 103.975 260.777 104.188 260.752 104.419C260.721 104.533 260.718 104.653 260.743 104.769C260.764 104.885 260.814 104.994 260.884 105.088C260.955 105.183 261.047 105.26 261.152 105.314C261.256 105.369 261.373 105.399 261.49 105.403Z" fill="black"/>
</g>
<path d="M254.756 99.9643C255.863 99.2265 255.432 97.7509 255.432 97.7509C255.22 97.1056 255.106 96.4321 255.094 95.7527C255.063 93.4779 256.293 92.5864 256.938 92.279C257.052 92.2292 257.151 92.148 257.221 92.0447C257.292 91.9411 257.332 91.82 257.338 91.6949C257.83 84.5937 267.575 82.9029 272.678 87.1452C275.752 89.7274 276.459 92.5864 276.213 95.2609C276.167 95.6129 276.229 95.9704 276.388 96.2876C276.548 96.6052 276.797 96.8683 277.105 97.0439L275.783 97.5972C275.26 99.5646 274.4 101.378 273.908 102.792C273.692 103.407 272.586 100.887 272.063 100.61C272.002 100.579 271.51 101.255 271.202 101.686C271.159 101.751 271.101 101.804 271.03 101.837C270.96 101.87 270.883 101.882 270.806 101.872C270.726 101.863 270.655 101.831 270.594 101.782C270.535 101.733 270.489 101.667 270.465 101.594C270.096 100.39 269.939 99.1312 270.004 97.8739L270.065 96.7364C267.575 96.3675 266.622 94.0005 266.622 94.0005C264.163 96.7364 260.043 96.429 258.383 96.1831C258.291 96.1705 258.196 96.1779 258.104 96.2043C258.014 96.2308 257.928 96.2756 257.858 96.3362C257.784 96.3971 257.725 96.4724 257.682 96.5569C257.642 96.6418 257.618 96.7343 257.615 96.8287L257.43 101.102C256.942 100.603 256.517 100.046 256.17 99.4417L255.033 100.241L254.756 99.9643Z" fill="#21252B"/>
<path d="M270.957 105.434C270.957 105.434 274.185 105.957 275.138 102.821C276.091 99.6857 272.156 98.7327 271.326 101.93L270.588 105.434H270.957Z" fill="#956363"/>
<path opacity="0.3" d="M274.276 101.039C274.15 100.919 274 100.828 273.837 100.77C273.671 100.712 273.499 100.688 273.323 100.701C273.154 100.727 272.991 100.79 272.847 100.886C272.706 100.982 272.583 101.107 272.493 101.254C272.229 101.613 272.069 102.039 272.032 102.484L272.002 102.822C271.971 103.068 272.401 103.191 272.432 102.883L272.493 102.514C272.533 102.151 272.659 101.803 272.862 101.5C272.915 101.392 272.995 101.299 273.09 101.229C273.188 101.159 273.302 101.114 273.422 101.099C273.539 101.084 273.662 101.098 273.772 101.141C273.883 101.185 273.984 101.255 274.061 101.346C274.107 101.379 274.166 101.393 274.221 101.388C274.276 101.382 274.329 101.357 274.369 101.315C274.384 101.265 274.384 101.212 274.369 101.162C274.35 101.112 274.319 101.069 274.276 101.039Z" fill="black"/>
<path d="M255.4 101.686C255.363 102.143 255.434 102.603 255.606 103.028C255.778 103.454 256.046 103.834 256.39 104.139C256.731 104.444 257.14 104.665 257.583 104.786C258.025 104.907 258.49 104.924 258.942 104.835C259.39 104.747 259.815 104.555 260.18 104.276C260.543 103.996 260.838 103.636 261.038 103.224C261.241 102.812 261.346 102.359 261.342 101.9C261.339 101.441 261.232 100.989 261.026 100.579C261.508 100.443 262.022 100.454 262.501 100.61C262.372 100.913 262.289 101.235 262.255 101.563C262.209 102.15 262.338 102.737 262.627 103.25C262.916 103.763 263.35 104.179 263.872 104.446C264.398 104.713 264.991 104.818 265.575 104.748C266.16 104.679 266.71 104.437 267.156 104.054C267.604 103.672 267.927 103.165 268.087 102.598C268.247 102.032 268.235 101.431 268.05 100.871C267.869 100.312 267.525 99.8185 267.06 99.4548C266.599 99.0908 266.04 98.8723 265.453 98.8268C264.905 98.7807 264.355 98.8889 263.866 99.1388C263.378 99.3887 262.969 99.7705 262.686 100.241C262.093 100.018 261.441 100.007 260.841 100.21C260.491 99.6986 259.99 99.3088 259.409 99.0945C258.828 98.8803 258.195 98.8523 257.595 99.0146C256.999 99.1769 256.467 99.5209 256.073 99.9996C255.677 100.478 255.443 101.068 255.4 101.686ZM262.594 101.593C262.634 101.085 262.821 100.6 263.138 100.2C263.451 99.7991 263.879 99.5009 264.364 99.3429C264.847 99.1846 265.366 99.1739 265.858 99.3119C266.35 99.4496 266.787 99.73 267.119 100.117C267.451 100.504 267.66 100.981 267.721 101.487C267.78 101.993 267.687 102.506 267.457 102.96C267.226 103.414 266.867 103.79 266.421 104.039C265.978 104.288 265.468 104.4 264.961 104.36C264.281 104.306 263.648 103.984 263.205 103.466C262.763 102.947 262.541 102.274 262.594 101.593ZM255.8 101.716C255.84 101.208 256.027 100.723 256.344 100.323C256.657 99.9221 257.085 99.6239 257.57 99.4659C258.053 99.3076 258.573 99.2968 259.065 99.4348C259.556 99.5726 259.993 99.8529 260.325 100.24C260.657 100.627 260.866 101.104 260.927 101.61C260.986 102.116 260.894 102.629 260.663 103.083C260.432 103.537 260.073 103.913 259.627 104.162C259.184 104.411 258.674 104.523 258.167 104.483C257.487 104.429 256.854 104.108 256.412 103.589C255.969 103.07 255.748 102.397 255.8 101.716Z" fill="white"/>
<path d="M271.942 105.004C272.072 105.004 272.194 104.966 272.302 104.895C272.407 104.824 272.49 104.723 272.539 104.605C272.588 104.488 272.6 104.358 272.576 104.232C272.551 104.107 272.49 103.992 272.4 103.902C272.308 103.812 272.195 103.75 272.068 103.725C271.942 103.7 271.813 103.713 271.696 103.762C271.577 103.811 271.478 103.894 271.404 104C271.334 104.106 271.297 104.231 271.297 104.359C271.297 104.53 271.365 104.694 271.487 104.815C271.607 104.936 271.77 105.004 271.942 105.004Z" fill="#4D61FC"/>
<path opacity="0.15" d="M271.665 104.913C271.758 104.923 271.853 104.914 271.942 104.886C272.031 104.859 272.114 104.814 272.188 104.753C272.259 104.693 272.317 104.619 272.36 104.535C272.403 104.452 272.428 104.361 272.434 104.267C272.437 104.139 272.403 104.011 272.342 103.898C272.422 103.967 272.483 104.052 272.526 104.148C272.569 104.244 272.591 104.347 272.588 104.452C272.582 104.538 272.557 104.621 272.52 104.697C272.48 104.773 272.425 104.841 272.36 104.895C272.293 104.95 272.216 104.991 272.136 105.015C272.053 105.039 271.967 105.046 271.881 105.036C271.742 105.031 271.613 104.977 271.512 104.882C271.564 104.874 271.619 104.885 271.665 104.913Z" fill="black"/>
<path d="M259.122 97.4733C262.012 97.5656 263.979 96.6741 265.116 95.8748C265.845 95.4241 266.472 94.8274 266.961 94.1225C266.989 94.0777 266.998 94.0233 266.989 93.9713C266.976 93.9193 266.946 93.8742 266.899 93.8459C266.853 93.8173 266.801 93.8078 266.749 93.8191C266.697 93.8308 266.65 93.8625 266.623 93.9074C266.592 93.9381 264.409 97.2274 259.122 97.0737C259.073 97.0771 259.03 97.0977 258.996 97.1315C258.962 97.1653 258.941 97.2102 258.938 97.2581C258.944 97.3076 258.965 97.3544 258.999 97.3925C259.03 97.4306 259.073 97.4586 259.122 97.4733Z" fill="#21252B"/>
<path opacity="0.15" d="M271.602 105.467H270.557L271.663 107.68L271.602 105.467Z" fill="black"/>
<path opacity="0.15" d="M260.445 110.416C261.518 111.013 262.72 111.341 263.949 111.368H264.779C264.884 111.374 264.985 111.363 265.087 111.338H265.148C265.302 111.307 265.455 111.307 265.64 111.276C265.701 111.276 265.763 111.246 265.824 111.246C266.67 111.106 267.481 110.815 268.222 110.385C268.268 110.356 268.321 110.347 268.373 110.358C268.425 110.37 268.471 110.402 268.499 110.446C268.527 110.491 268.536 110.546 268.527 110.597C268.514 110.649 268.483 110.695 268.437 110.723C267.475 111.281 266.408 111.627 265.302 111.737C264.266 112.522 263.005 112.953 261.705 112.967C261.186 112.968 260.672 112.906 260.168 112.783L260.445 110.416Z" fill="black"/>
<path d="M260.936 106.572C260.915 106.573 260.893 106.578 260.875 106.589C260.856 106.599 260.838 106.614 260.825 106.632C260.813 106.65 260.807 106.671 260.804 106.693C260.801 106.714 260.804 106.736 260.813 106.757C260.985 107.115 261.256 107.418 261.594 107.63C261.932 107.842 262.319 107.955 262.719 107.955C263.119 107.955 263.506 107.842 263.844 107.63C264.182 107.418 264.453 107.115 264.625 106.757C264.656 106.664 264.625 106.572 264.502 106.572H260.936Z" fill="white"/>
<path opacity="0.6" d="M222.294 142.57L223.769 142.601L222.417 149.579L221.033 149.303L222.294 142.57Z" fill="black"/>
<path opacity="0.15" d="M289.617 153.669L288.265 153.915L282.762 139.958L282.301 138.79C282.731 136.792 283.285 134.179 283.653 132.611C283.672 132.532 283.712 132.461 283.776 132.409C283.838 132.356 283.915 132.326 283.995 132.323C284.075 132.319 284.154 132.343 284.222 132.389C284.287 132.436 284.336 132.503 284.36 132.58L290.509 152.132C290.567 152.291 290.592 152.461 290.576 152.63C290.561 152.799 290.509 152.963 290.426 153.11C290.34 153.257 290.223 153.383 290.084 153.48C289.943 153.576 289.783 153.641 289.617 153.669Z" fill="black"/>
<path opacity="0.15" d="M247.409 143.463C244.98 140.634 244.58 137.837 245.503 134.333L246.486 130.705L247.316 126.801V126.739C247.316 126.678 247.255 126.616 247.163 126.586C247.137 126.58 247.109 126.578 247.083 126.583C247.056 126.587 247.031 126.596 247.008 126.611C246.985 126.625 246.965 126.644 246.949 126.666C246.934 126.688 246.923 126.713 246.917 126.739L245.902 131.351L245.411 132.918C245.411 132.918 241.445 138.575 242.675 142.879C243.136 144.446 243.412 145.492 242.459 146.813L240.707 149.365C239.139 150.81 236.803 150.441 236.803 150.441L221.279 147.92L221.002 149.365L235.389 152.193H235.327L236.864 152.47C237.948 152.664 239.063 152.592 240.112 152.26C241.162 151.928 242.115 151.346 242.89 150.564C243.139 150.319 243.365 150.051 243.566 149.765L247.716 143.924C247.639 143.755 247.535 143.599 247.409 143.463Z" fill="black"/>
<path d="M305.572 183.917C305.572 184.22 305.514 184.52 305.397 184.8C305.283 185.08 305.111 185.334 304.899 185.548C304.684 185.762 304.429 185.932 304.149 186.048C303.869 186.163 303.568 186.223 303.267 186.223H62.04C61.4282 186.223 60.842 185.98 60.4094 185.547C59.9772 185.115 59.7344 184.528 59.7344 183.917C59.7344 183.305 59.9772 182.719 60.4094 182.287C60.842 181.854 61.4282 181.611 62.04 181.611H303.297C303.903 181.617 304.484 181.863 304.911 182.295C305.335 182.727 305.575 183.31 305.572 183.917Z" fill="#61656D"/>
<path opacity="0.5" d="M305.572 183.917C305.572 184.22 305.514 184.52 305.397 184.8C305.283 185.08 305.111 185.334 304.899 185.548C304.684 185.762 304.429 185.932 304.149 186.048C303.869 186.163 303.568 186.223 303.267 186.223H62.04C61.4282 186.223 60.842 185.98 60.4094 185.547C59.9772 185.115 59.7344 184.528 59.7344 183.917C59.7344 183.305 59.9772 182.719 60.4094 182.287C60.842 181.854 61.4282 181.611 62.04 181.611H303.297C303.903 181.617 304.484 181.863 304.911 182.295C305.335 182.727 305.575 183.31 305.572 183.917Z" fill="black"/>
<path d="M323.678 183.917C323.678 184.22 323.619 184.52 323.502 184.8C323.389 185.08 323.217 185.334 323.004 185.548C322.789 185.762 322.534 185.932 322.254 186.048C321.975 186.163 321.673 186.223 321.372 186.223H105.999C105.387 186.223 104.801 185.98 104.368 185.547C103.936 185.115 103.693 184.528 103.693 183.917C103.693 183.305 103.936 182.719 104.368 182.287C104.801 181.854 105.387 181.611 105.999 181.611H321.372C321.981 181.615 322.565 181.86 322.998 182.291C323.429 182.723 323.675 183.307 323.678 183.917Z" fill="#61656D"/>
<path d="M242.431 180.996L243.507 167.316H233.762L234.592 180.996C234.606 181.165 234.684 181.322 234.81 181.436C234.935 181.55 235.099 181.613 235.268 181.611H241.754C241.923 181.608 242.084 181.544 242.208 181.431C242.332 181.318 242.411 181.163 242.431 180.996Z" fill="white"/>
<path d="M243.505 166.149H242.429L241.937 164.889C241.923 164.851 241.897 164.82 241.864 164.798C241.831 164.776 241.792 164.764 241.752 164.766H235.235C235.196 164.767 235.158 164.779 235.125 164.801C235.093 164.822 235.067 164.853 235.051 164.889L234.559 166.149H233.729C233.7 166.148 233.672 166.153 233.646 166.164C233.619 166.174 233.595 166.19 233.575 166.21C233.555 166.23 233.539 166.254 233.528 166.281C233.518 166.307 233.513 166.336 233.514 166.364V167.133C233.513 167.161 233.518 167.19 233.528 167.216C233.539 167.243 233.555 167.267 233.575 167.287C233.595 167.307 233.619 167.323 233.646 167.333C233.672 167.344 233.7 167.349 233.729 167.348H243.566C243.594 167.349 243.623 167.344 243.649 167.333C243.676 167.323 243.7 167.307 243.72 167.287C243.74 167.267 243.756 167.243 243.767 167.216C243.777 167.19 243.782 167.161 243.781 167.133V166.364C243.76 166.306 243.723 166.255 243.674 166.217C243.625 166.179 243.566 166.155 243.505 166.149Z" fill="#4D61FC"/>
<path opacity="0.2" d="M243.505 166.149H242.429L241.937 164.889C241.923 164.851 241.897 164.82 241.864 164.798C241.831 164.776 241.792 164.764 241.752 164.766H235.235C235.196 164.767 235.158 164.779 235.125 164.801C235.093 164.822 235.067 164.853 235.051 164.889L234.559 166.149H233.729C233.7 166.148 233.672 166.153 233.646 166.164C233.619 166.174 233.595 166.19 233.575 166.21C233.555 166.23 233.539 166.254 233.528 166.281C233.518 166.307 233.513 166.336 233.514 166.364V167.133C233.513 167.161 233.518 167.19 233.528 167.216C233.539 167.243 233.555 167.267 233.575 167.287C233.595 167.307 233.619 167.323 233.646 167.333C233.672 167.344 233.7 167.349 233.729 167.348H243.566C243.594 167.349 243.623 167.344 243.649 167.333C243.676 167.323 243.7 167.307 243.72 167.287C243.74 167.267 243.756 167.243 243.767 167.216C243.777 167.19 243.782 167.161 243.781 167.133V166.364C243.76 166.306 243.723 166.255 243.674 166.217C243.625 166.179 243.566 166.155 243.505 166.149Z" fill="white"/>
<path opacity="0.15" d="M242.337 165.903H236.926L237.326 164.766H235.235C235.196 164.767 235.158 164.779 235.125 164.801C235.093 164.823 235.067 164.853 235.051 164.889L234.559 166.149H233.729C233.7 166.148 233.672 166.153 233.646 166.164C233.619 166.174 233.595 166.19 233.575 166.21C233.555 166.23 233.539 166.254 233.528 166.281C233.518 166.307 233.513 166.336 233.514 166.364V167.133C233.513 167.161 233.518 167.19 233.528 167.216C233.539 167.243 233.555 167.267 233.575 167.287C233.595 167.307 233.619 167.323 233.646 167.333C233.672 167.344 233.7 167.349 233.729 167.348H235.481L235.819 166.395C235.838 166.338 235.875 166.288 235.925 166.255C235.976 166.221 236.036 166.206 236.096 166.21H242.459L242.337 165.903Z" fill="black"/>
<path opacity="0.15" d="M243.476 167.655L243.507 167.316H233.762L234.592 180.996C234.606 181.165 234.684 181.322 234.81 181.436C234.935 181.55 235.099 181.613 235.268 181.611H235.729L236.067 168.146L243.476 167.655Z" fill="black"/>
<path d="M235.697 173.712C235.697 172.978 235.989 172.275 236.508 171.756C237.027 171.237 237.73 170.945 238.464 170.945C239.198 170.945 239.901 171.237 240.42 171.756C240.939 172.275 241.231 172.978 241.231 173.712" fill="#4D61FC"/>
<path d="M242.922 174.48H234.191L234.345 177.155H242.707L242.922 174.48Z" fill="#4D61FC"/>
<path d="M358.723 316.629H21.2459C21.2136 316.629 21.1817 316.622 21.1516 316.61C21.1217 316.598 21.0947 316.579 21.0719 316.558C21.0492 316.533 21.031 316.506 21.0184 316.478C21.0061 316.447 21 316.416 21 316.383C21 316.352 21.0061 316.318 21.0184 316.287C21.031 316.26 21.0492 316.232 21.0719 316.21C21.0947 316.186 21.1217 316.167 21.1516 316.155C21.1817 316.143 21.2136 316.137 21.2459 316.137H358.754C358.788 316.137 358.819 316.143 358.849 316.155C358.88 316.167 358.905 316.186 358.929 316.207C358.951 316.232 358.969 316.26 358.982 316.287C358.994 316.318 359 316.352 359 316.383C359 316.416 358.991 316.453 358.975 316.484C358.963 316.515 358.942 316.542 358.914 316.567C358.889 316.589 358.859 316.607 358.825 316.616C358.794 316.629 358.757 316.632 358.723 316.629Z" fill="#B2B6BB"/>
<path d="M156.269 179.689L155.595 179.346C155.505 179.301 155.397 179.336 155.351 179.424C155.307 179.513 155.342 179.621 155.432 179.667L156.105 180.01C156.195 180.055 156.304 180.02 156.349 179.931C156.394 179.843 156.358 179.734 156.269 179.689Z" fill="black"/>
<path d="M146.27 181.486V180.761C146.269 180.604 146.311 180.45 146.392 180.315C146.473 180.181 146.589 180.071 146.728 179.998C148.139 179.263 152.568 177.394 156.912 180.29C157.032 180.369 157.131 180.476 157.2 180.602C157.269 180.728 157.305 180.869 157.306 181.013V181.486H146.27Z" fill="#61656D"/>
<path opacity="0.3" d="M153.162 178.828V180.414L156.999 180.565" stroke="black" stroke-width="0.5" stroke-miterlimit="10"/>
<path opacity="0.3" d="M146.27 180.713H157.306" stroke="black" stroke-width="0.5" stroke-miterlimit="10"/>
<path d="M157.307 181.266H160.676" stroke="#21252B" stroke-miterlimit="10"/>
</svg>
