<svg width="392" height="376" viewBox="0 0 392 376" fill="none" xmlns="http://www.w3.org/2000/svg">
<path d="M376.272 235.011C376.272 356.117 305.944 360.225 206.384 360.225C106.824 360.225 15.7324 356.117 15.7324 235.011C15.7324 113.906 96.4419 15.7305 196.002 15.7305C295.562 15.7305 376.272 113.906 376.272 235.011Z" fill="#E2EAFF"/>
<path d="M390.5 239.106C390.5 271.99 385.738 296.792 377.002 315.516C368.282 334.206 355.572 346.909 339.524 355.574C323.441 364.258 303.949 368.913 281.651 371.386C259.353 373.859 234.355 374.14 207.288 374.14C153.085 374.14 101.615 372.995 63.6783 355.531C44.7698 346.827 29.2634 334.082 18.4651 315.4C7.65636 296.7 1.5 271.939 1.5 239.106C1.5 107.587 88.8457 1.5 196 1.5C303.154 1.5 390.5 107.587 390.5 239.106Z" stroke="#1F42AB" stroke-width="3"/>
<path d="M291.094 140.985L271.839 146.112L249.805 133.535L250.486 143.072L271.498 157.664L295.444 145.034L291.094 140.985Z" fill="#3F4249"/>
<path opacity="0.3" d="M291.094 140.985L271.839 146.112L249.805 133.535L250.486 143.072L271.498 157.664L295.444 145.034L291.094 140.985Z" fill="black"/>
<path d="M189.924 166.28C192.093 166.285 194.177 167.13 195.734 168.639L195.88 168.789L195.974 144.717H193.62C186.698 144.94 166.007 147.416 152.117 168.245C143.51 181.151 142.836 194.157 144.695 204.416H147.203L166.222 204.493L166.072 204.643C164.907 205.826 164.117 207.326 163.803 208.955C163.489 210.585 163.664 212.27 164.306 213.8C164.948 215.331 166.028 216.638 167.411 217.556C168.794 218.476 170.418 218.966 172.079 218.966C173.74 218.966 175.364 218.476 176.748 217.556C178.131 216.638 179.211 215.331 179.853 213.8C180.495 212.27 180.67 210.585 180.356 208.955C180.041 207.326 179.252 205.826 178.087 204.643L177.993 204.558H178.533L195.747 204.623L195.836 180.567L195.755 180.66C194.771 181.626 193.565 182.334 192.241 182.723C190.919 183.112 189.52 183.169 188.17 182.889C186.819 182.61 185.559 182.002 184.5 181.12C183.44 180.238 182.615 179.109 182.097 177.832C181.579 176.556 181.383 175.171 181.528 173.802C181.673 172.432 182.154 171.119 182.927 169.979C183.701 168.838 184.744 167.906 185.965 167.265C187.185 166.623 188.545 166.292 189.924 166.3V166.28Z" fill="#DADDDF"/>
<path d="M226.294 204.85L226.44 204.7C227.599 203.512 228.381 202.007 228.686 200.376C228.992 198.745 228.808 197.06 228.159 195.533C227.509 194.006 226.421 192.704 225.033 191.793C223.645 190.881 222.018 190.399 220.357 190.408C218.696 190.417 217.074 190.917 215.696 191.843C214.317 192.77 213.244 194.083 212.611 195.617C211.977 197.151 211.812 198.838 212.136 200.465C212.459 202.093 213.257 203.589 214.429 204.765L214.522 204.85H195.008V227.28L195.093 227.187C195.865 226.415 196.782 225.803 197.792 225.385C198.802 224.968 199.884 224.754 200.977 224.755C202.352 224.755 203.705 225.092 204.92 225.736C206.134 226.38 207.171 227.312 207.941 228.45C208.711 229.588 209.189 230.897 209.334 232.262C209.48 233.628 209.287 235.008 208.774 236.282C208.262 237.556 207.444 238.685 206.392 239.57C205.34 240.455 204.088 241.068 202.744 241.356C201.399 241.645 200.005 241.6 198.683 241.225C197.36 240.85 196.15 240.156 195.158 239.205L195.008 239.059V264.756H218.085C218.085 264.756 219.111 256.176 220.138 249.654C221.165 243.132 235.769 229.826 239.965 224.281C241.653 222.044 245.824 214.724 247.65 204.85H226.294Z" fill="#DADDDF"/>
<path d="M218.129 270.289H177.433C176.196 270.289 175.193 271.291 175.193 272.526V273.921C175.193 275.156 176.196 276.158 177.433 276.158H218.129C219.367 276.158 220.369 275.156 220.369 273.921V272.526C220.369 271.291 219.367 270.289 218.129 270.289Z" fill="#3F4249"/>
<path d="M186.027 279.668H210.374C210.374 279.668 207.128 286.153 197.702 286.153C187.857 286.133 186.027 279.668 186.027 279.668Z" fill="#3F4249"/>
<g opacity="0.3">
<path opacity="0.3" d="M226.294 204.85L226.44 204.7C227.599 203.512 228.381 202.007 228.686 200.376C228.992 198.745 228.808 197.06 228.159 195.533C227.509 194.006 226.421 192.704 225.033 191.793C223.645 190.881 222.018 190.399 220.357 190.408C218.696 190.417 217.074 190.917 215.696 191.843C214.317 192.77 213.244 194.083 212.611 195.617C211.977 197.151 211.812 198.838 212.136 200.465C212.459 202.093 213.257 203.589 214.429 204.765L214.522 204.85H195.008V227.28L195.093 227.593C196.611 226.085 198.668 224.755 200.977 224.755C203.206 224.755 205.343 225.64 206.919 227.214C208.495 228.788 209.381 230.923 209.381 233.149C209.381 235.376 208.495 237.511 206.919 239.085C205.343 240.66 203.206 241.544 200.977 241.544C198.717 241.544 196.667 240.251 195.158 238.8L195.008 239.059V264.756H218.085C218.085 264.756 219.111 256.176 220.138 249.654C221.165 243.132 235.769 229.826 239.965 224.281C241.653 222.044 245.824 214.724 247.65 204.85H226.294Z" stroke="black" stroke-width="2.52" stroke-miterlimit="10" stroke-dasharray="15.13 12.61"/>
</g>
<path opacity="0.3" d="M189.924 166.28C192.093 166.285 194.177 167.13 195.734 168.639L195.88 168.789L195.974 144.717H193.62C186.698 144.94 166.007 147.416 152.117 168.245C143.51 181.151 142.836 194.563 144.695 204.821H147.203L165.41 204.898L165.26 205.048C163.803 206.548 163.312 208.19 163.304 210.447C163.304 215.08 167.439 218.853 172.081 218.874C174.311 218.881 176.451 218.004 178.034 216.435C179.615 214.867 180.509 212.735 180.517 210.508C180.517 208.206 179.994 206.143 178.489 204.623L178.395 204.538H178.935L195.743 204.602L195.832 180.547L195.751 180.64C194.767 181.606 193.561 182.314 192.237 182.703C190.914 183.091 189.516 183.149 188.166 182.869C186.815 182.589 185.555 181.982 184.496 181.1C183.436 180.218 182.611 179.089 182.093 177.812C181.575 176.535 181.379 175.151 181.524 173.781C181.669 172.411 182.15 171.099 182.923 169.958C183.697 168.818 184.74 167.886 185.961 167.244C187.181 166.603 188.541 166.272 189.919 166.28H189.924Z" stroke="black" stroke-width="2.52" stroke-miterlimit="10" stroke-dasharray="15.13 12.61"/>
<path d="M195.007 167.634C193.424 166.089 191.304 165.218 189.091 165.202C184.339 165.169 180.476 169.778 180.44 174.492C180.403 179.205 184.209 184.292 188.941 184.329C190.055 184.339 191.16 184.129 192.192 183.712C193.225 183.294 194.165 182.678 194.959 181.897L195.044 181.804L194.857 205.409L215.67 205.555L215.573 205.47C213.999 203.866 213.124 201.705 213.138 199.459C213.174 194.733 215.82 190.947 220.552 190.947C225.283 190.947 227.856 194.843 227.856 199.569C227.842 201.778 226.969 203.896 225.421 205.474L225.267 205.628L247.228 205.381C249.257 194.944 248.705 182.809 240.086 169.555C226.172 148.162 205.116 145.398 198.063 145.09H195.36L195.174 167.788L195.007 167.634Z" fill="#DADDDF"/>
<path opacity="0.3" d="M195.819 168.445C194.816 167.467 193.588 166.751 192.243 166.358C190.898 165.964 189.477 165.907 188.104 166.19C186.732 166.474 185.45 167.089 184.371 167.982C183.292 168.876 182.449 170.02 181.916 171.315C181.382 172.609 181.175 174.014 181.313 175.408C181.45 176.801 181.927 178.139 182.703 179.305C183.479 180.471 184.529 181.429 185.762 182.095C186.994 182.761 188.372 183.115 189.773 183.126C190.887 183.136 191.992 182.926 193.025 182.509C194.057 182.092 194.997 181.475 195.791 180.694L195.876 180.6L195.69 204.612L214.473 204.757L214.376 204.672C213.207 203.468 212.421 201.945 212.113 200.296C211.806 198.647 211.992 196.945 212.649 195.401C213.306 193.857 214.403 192.54 215.804 191.616C217.206 190.692 218.849 190.201 220.528 190.204C222.207 190.207 223.848 190.705 225.246 191.635C226.644 192.565 227.736 193.885 228.386 195.432C229.037 196.978 229.216 198.682 228.902 200.33C228.589 201.978 227.796 203.496 226.623 204.697L226.468 204.851L247.212 205.009C249.241 194.572 248.689 182.842 240.07 169.588C226.156 148.195 205.1 145.431 198.047 145.123H196.156L195.97 168.631L195.819 168.445Z" stroke="black" stroke-width="2.52" stroke-miterlimit="10" stroke-dasharray="15.13 12.61"/>
<path d="M210.084 123.093C209.331 121.579 208.148 120.321 206.683 119.477C205.217 118.633 203.534 118.24 201.846 118.348C200.157 118.455 198.538 119.059 197.192 120.083C195.846 121.106 194.832 122.505 194.279 124.101C193.725 125.699 193.657 127.423 194.082 129.059C194.506 130.696 195.405 132.169 196.666 133.297C197.927 134.424 199.493 135.154 201.167 135.395C202.842 135.636 204.551 135.378 206.079 134.653L206.192 134.588L198.198 157.233L215.915 163.471L215.85 163.361C215.136 161.842 214.886 160.146 215.133 158.485C215.378 156.825 216.109 155.274 217.233 154.026C218.357 152.778 219.824 151.889 221.451 151.469C223.078 151.05 224.793 151.119 226.381 151.668C227.969 152.217 229.36 153.222 230.38 154.556C231.399 155.89 232.002 157.495 232.113 159.17C232.225 160.844 231.839 162.515 231.005 163.972C230.171 165.429 228.925 166.608 227.423 167.362L227.228 167.455L246.791 174.345C252.095 165.129 255.406 153.861 251.567 138.528C245.375 113.783 226.36 104.331 219.79 101.749L218.009 101.129L210.181 123.3L210.084 123.093Z" fill="#4D61FC"/>
<path d="M195.583 264.822H173.752C173.752 264.822 172.725 256.241 171.695 249.72C170.664 243.198 156.052 229.892 151.872 224.347C150.184 222.114 146.012 213.983 144.162 204.105H166.399L166.249 204.255C164.893 205.664 164.074 207.502 163.932 209.452C163.526 215.033 169.021 219.341 174.377 217.704C177.57 216.727 179.502 213.817 179.502 210.068C179.5 208.975 179.282 207.893 178.86 206.885C178.439 205.876 177.823 204.961 177.047 204.191L176.954 204.105L195.392 204.243V226.674C195.392 226.674 197.547 224.416 201.767 224.533C205.988 224.651 208.775 228.048 209.453 231.071C210.131 234.095 209.794 240.446 203.877 241.751C198.233 242.996 195.328 239.283 195.328 239.283L195.413 264.96" fill="#4D61FC"/>
<path d="M92.3444 109.475L34.8008 110.488L35.6119 156.44L93.1555 155.426L92.3444 109.475Z" fill="white"/>
<path d="M90.8545 111.912L37.3477 112.981L38.1519 153.152L91.6587 152.083L90.8545 111.912Z" fill="#F4F4F4"/>
<path d="M37.5391 153.513L55.7832 128.217L67.6361 143.635L75.3379 135.148L91.0378 152.572L37.5391 153.513Z" fill="#4D61FC"/>
<path d="M72.2184 124.87C72.2334 125.701 72.0013 126.519 71.5509 127.22C71.1004 127.92 70.4524 128.471 69.6887 128.803C68.9246 129.135 68.0794 129.234 67.2593 129.086C66.4396 128.938 65.6816 128.551 65.0822 127.973C64.4825 127.395 64.0682 126.653 63.8913 125.839C63.7139 125.026 63.7825 124.179 64.0877 123.405C64.3928 122.63 64.9212 121.964 65.6057 121.489C66.2903 121.015 67.1002 120.754 67.9333 120.739C69.0496 120.719 70.1282 121.144 70.9316 121.918C71.7355 122.693 72.1981 123.754 72.2184 124.87Z" fill="#4D61FC"/>
<g opacity="0.5">
<path opacity="0.5" d="M37.5391 153.513L55.7832 128.217L67.6361 143.635L75.3379 135.148L91.0378 152.572L37.5391 153.513Z" fill="white"/>
</g>
<g opacity="0.5">
<path opacity="0.5" d="M72.2184 124.87C72.2334 125.701 72.0013 126.519 71.5509 127.22C71.1004 127.92 70.4524 128.471 69.6887 128.803C68.9246 129.135 68.0794 129.234 67.2593 129.086C66.4396 128.938 65.6816 128.551 65.0822 127.973C64.4825 127.395 64.0682 126.653 63.8913 125.839C63.7139 125.026 63.7825 124.179 64.0877 123.405C64.3928 122.63 64.9212 121.964 65.6057 121.489C66.2903 121.015 67.1002 120.754 67.9333 120.739C69.0496 120.719 70.1282 121.144 70.9316 121.918C71.7355 122.693 72.1981 123.754 72.2184 124.87Z" fill="white"/>
</g>
<path d="M72.7317 71.4629L61.1973 139.944L146.956 154.355L158.49 85.8744L72.7317 71.4629Z" fill="white"/>
<path d="M74.9614 76.2676L64.8789 136.127L144.611 149.525L154.694 89.6662L74.9614 76.2676Z" fill="#F4F4F4"/>
<path d="M64.873 136.124L98.9874 103.598L112.317 129.773L126.114 119.296L144.606 149.52L64.873 136.124Z" fill="#4D61FC"/>
<path d="M124.329 103.155C124.125 104.399 123.556 105.554 122.694 106.473C121.832 107.393 120.716 108.036 119.487 108.322C118.258 108.607 116.972 108.521 115.793 108.074C114.613 107.629 113.592 106.843 112.861 105.816C112.129 104.79 111.719 103.57 111.682 102.31C111.646 101.051 111.985 99.8087 112.656 98.7423C113.328 97.6755 114.301 96.8321 115.453 96.3189C116.605 95.8058 117.884 95.6461 119.127 95.8597C120.782 96.1447 122.258 97.0712 123.232 98.4375C124.207 99.8043 124.601 101.5 124.329 103.155Z" fill="#4D61FC"/>
<g opacity="0.5">
<path opacity="0.5" d="M64.873 136.124L98.9874 103.598L112.317 129.773L126.114 119.296L144.606 149.52L64.873 136.124Z" fill="white"/>
</g>
<g opacity="0.5">
<path opacity="0.5" d="M124.329 103.155C124.125 104.399 123.556 105.554 122.694 106.473C121.832 107.393 120.716 108.036 119.487 108.322C118.258 108.607 116.972 108.521 115.793 108.074C114.613 107.629 113.592 106.843 112.861 105.816C112.129 104.79 111.719 103.57 111.682 102.31C111.646 101.051 111.985 99.8087 112.656 98.7423C113.328 97.6755 114.301 96.8321 115.453 96.3189C116.605 95.8058 117.884 95.6461 119.127 95.8597C120.782 96.1447 122.258 97.0712 123.232 98.4375C124.207 99.8043 124.601 101.5 124.329 103.155Z" fill="white"/>
</g>
<g opacity="0.6">
<path opacity="0.6" d="M376.348 180.61L372.696 181.202L372.578 180.468L376.251 179.877L376.348 180.61ZM369.007 181.79L365.355 182.381L365.238 181.648L368.89 181.056L369.007 181.79ZM361.663 182.973L358.011 183.565L357.893 182.831L361.545 182.24L361.663 182.973ZM354.322 184.157L350.67 184.744L350.552 184.015L354.225 183.423L354.322 184.157ZM376.588 179.743L375.853 179.86L375.261 176.213L375.995 176.095L376.588 179.743ZM347.963 183.974L347.229 184.092L346.637 180.444L347.371 180.322L347.963 183.974ZM375.403 172.407L374.668 172.528L374.076 168.88L374.81 168.763L375.403 172.407ZM346.779 176.642L346.044 176.76L345.456 173.092L346.19 172.974L346.779 176.642ZM374.218 165.062L373.483 165.18L372.891 161.512L373.625 161.394L374.218 165.062ZM345.598 169.294L344.863 169.411L344.271 165.763L345.005 165.646L345.598 169.294ZM373.037 157.73L372.302 157.848L371.71 154.179L372.444 154.062L373.037 157.73ZM344.413 161.962L343.678 162.079L343.086 158.431L343.82 158.314L344.413 161.962ZM370.48 152.279L366.828 152.87L366.711 152.137L370.363 151.545L370.48 152.279ZM363.136 153.462L359.484 154.054L359.366 153.32L363.018 152.728L363.136 153.462ZM355.795 154.646L352.143 155.237L352.025 154.504L355.677 153.912L355.795 154.646ZM348.454 155.825L344.802 156.417L344.685 155.683L348.337 155.091L348.454 155.825Z" fill="#4D61FC"/>
</g>
<g opacity="0.6">
<path opacity="0.6" d="M343.861 159.335C343.325 159.422 342.777 159.347 342.282 159.122C341.791 158.897 341.377 158.53 341.093 158.07C340.809 157.609 340.667 157.075 340.687 156.533C340.708 155.993 340.886 155.47 341.203 155.031C341.523 154.592 341.962 154.258 342.469 154.07C342.98 153.881 343.532 153.847 344.06 153.973C344.587 154.098 345.062 154.377 345.431 154.774C345.8 155.171 346.044 155.668 346.129 156.202C346.243 156.918 346.068 157.65 345.642 158.237C345.22 158.825 344.579 159.22 343.861 159.335ZM343.11 154.67C342.72 154.733 342.359 154.909 342.071 155.177C341.783 155.445 341.58 155.793 341.487 156.175C341.398 156.558 341.422 156.959 341.56 157.328C341.698 157.697 341.941 158.017 342.258 158.248C342.578 158.478 342.96 158.609 343.353 158.624C343.747 158.638 344.137 158.536 344.473 158.329C344.806 158.123 345.074 157.822 345.236 157.464C345.403 157.107 345.455 156.708 345.395 156.32C345.309 155.799 345.021 155.332 344.595 155.023C344.165 154.714 343.633 154.587 343.11 154.67Z" fill="#4D61FC"/>
</g>
<g opacity="0.6">
<path opacity="0.6" d="M372.031 154.8C371.495 154.886 370.947 154.812 370.456 154.587C369.961 154.362 369.547 153.995 369.263 153.535C368.979 153.074 368.837 152.539 368.857 151.998C368.878 151.457 369.056 150.934 369.373 150.496C369.693 150.057 370.132 149.723 370.639 149.534C371.15 149.346 371.702 149.312 372.229 149.438C372.757 149.563 373.232 149.842 373.601 150.238C373.97 150.635 374.214 151.133 374.299 151.667C374.413 152.383 374.238 153.114 373.812 153.702C373.386 154.288 372.745 154.684 372.031 154.8ZM371.292 150.135C370.903 150.198 370.541 150.374 370.253 150.642C369.965 150.91 369.762 151.257 369.669 151.64C369.58 152.023 369.604 152.424 369.742 152.793C369.88 153.162 370.123 153.482 370.44 153.712C370.761 153.943 371.142 154.074 371.536 154.088C371.929 154.103 372.319 154.001 372.656 153.794C372.988 153.588 373.256 153.287 373.418 152.929C373.585 152.571 373.638 152.173 373.577 151.784C373.491 151.264 373.203 150.797 372.777 150.488C372.347 150.179 371.816 150.052 371.292 150.135Z" fill="#4D61FC"/>
</g>
<g opacity="0.6">
<path opacity="0.6" d="M348.53 188.266C347.995 188.353 347.447 188.279 346.956 188.054C346.465 187.829 346.051 187.464 345.767 187.004C345.483 186.544 345.341 186.01 345.361 185.471C345.382 184.931 345.56 184.409 345.877 183.971C346.193 183.533 346.631 183.198 347.139 183.01C347.646 182.821 348.198 182.787 348.725 182.911C349.253 183.036 349.728 183.314 350.097 183.709C350.466 184.104 350.71 184.6 350.795 185.133C350.908 185.849 350.734 186.58 350.312 187.168C349.886 187.755 349.245 188.15 348.53 188.266ZM347.78 183.605C347.39 183.668 347.029 183.845 346.741 184.113C346.453 184.382 346.25 184.729 346.157 185.112C346.067 185.495 346.092 185.897 346.23 186.265C346.368 186.634 346.611 186.954 346.932 187.184C347.252 187.414 347.634 187.545 348.027 187.559C348.421 187.573 348.81 187.47 349.143 187.263C349.48 187.056 349.748 186.755 349.91 186.396C350.072 186.038 350.125 185.64 350.064 185.251C349.979 184.731 349.691 184.266 349.261 183.957C348.835 183.649 348.299 183.522 347.78 183.605Z" fill="#4D61FC"/>
</g>
<g opacity="0.6">
<path opacity="0.6" d="M376.7 183.732C376.165 183.818 375.617 183.744 375.126 183.519C374.635 183.294 374.221 182.929 373.937 182.469C373.653 182.009 373.511 181.476 373.531 180.936C373.551 180.396 373.73 179.874 374.047 179.436C374.363 178.997 374.801 178.663 375.309 178.475C375.816 178.286 376.368 178.252 376.895 178.376C377.423 178.501 377.897 178.778 378.267 179.174C378.636 179.569 378.879 180.065 378.965 180.598C379.078 181.314 378.904 182.045 378.482 182.633C378.056 183.22 377.415 183.615 376.7 183.732ZM375.95 179.07C375.56 179.132 375.199 179.309 374.907 179.576C374.619 179.844 374.416 180.192 374.327 180.575C374.233 180.958 374.258 181.36 374.396 181.729C374.533 182.098 374.777 182.418 375.098 182.649C375.418 182.88 375.795 183.01 376.193 183.024C376.587 183.039 376.976 182.936 377.309 182.729C377.646 182.522 377.914 182.22 378.076 181.862C378.238 181.504 378.295 181.105 378.23 180.716C378.145 180.196 377.857 179.731 377.431 179.423C377.001 179.114 376.469 178.987 375.95 179.07Z" fill="#4D61FC"/>
</g>
<path d="M358.271 163.16L352.996 164.011L352.59 161.507L366.119 159.33L366.524 161.835L361.249 162.682L363.416 176.106L360.454 176.584L358.271 163.16Z" fill="#B2B6BB"/>
<path d="M106.546 221.915C106.703 222.744 106.63 223.6 106.335 224.391C106.031 225.222 105.479 225.94 104.753 226.448C104.027 226.955 103.163 227.227 102.277 227.228C101.825 227.222 101.376 227.147 100.946 227.006C100.455 226.852 99.9289 226.85 99.4359 226.998C98.9433 227.148 98.5066 227.441 98.1828 227.84C97.5539 228.597 96.7305 229.168 95.8017 229.494C94.8724 229.82 93.8722 229.887 92.9076 229.688C92.1318 229.509 91.4022 229.17 90.7647 228.693C90.1272 228.216 89.596 227.612 89.2052 226.919C88.8145 226.225 88.5722 225.459 88.4943 224.667C88.4164 223.875 88.5044 223.076 88.7524 222.32C89.1135 221.148 89.8529 220.129 90.8548 219.422C91.8571 218.714 93.0655 218.358 94.2914 218.408C95.1147 218.455 95.9169 218.688 96.638 219.088C97.3587 219.488 97.9799 220.046 98.4547 220.719C98.7984 220.033 99.3146 219.448 99.9521 219.02C99.2931 218.341 98.8102 217.511 98.5452 216.603C98.2798 215.694 98.2405 214.735 98.4304 213.809C98.5647 213.067 98.8491 212.36 99.2667 211.733C99.6842 211.105 100.226 210.57 100.858 210.159C101.491 209.748 102.201 209.471 102.944 209.344C103.688 209.217 104.45 209.244 105.183 209.423C106.179 209.706 107.081 210.251 107.795 211.001C108.508 211.751 109.007 212.678 109.239 213.687C109.471 214.695 109.428 215.747 109.114 216.733C108.801 217.719 108.228 218.603 107.455 219.292C107.087 219.611 106.809 220.022 106.65 220.482C106.49 220.943 106.454 221.436 106.546 221.915Z" fill="#FBE7A1"/>
<path d="M107.281 266.819L111.416 265.656C111.925 265.514 112.467 265.558 112.946 265.781L117.182 267.763C117.641 267.979 118.012 268.345 118.233 268.801L120.96 274.475C121.019 274.591 121.054 274.717 121.063 274.847C121.071 274.976 121.054 275.106 121.013 275.228C120.971 275.351 120.905 275.464 120.818 275.561C120.732 275.658 120.627 275.737 120.51 275.793C120.431 275.84 120.338 275.86 120.247 275.848C120.155 275.836 120.07 275.794 120.007 275.728L119.528 275.266L108.085 271.549L107.281 266.819Z" fill="#956363"/>
<path d="M93.4408 234.329L92.191 215.008H81.0806L80.2853 218.887L79.4453 231.216L93.4408 234.329Z" fill="#956363"/>
<path opacity="0.15" d="M92.8843 225.854C92.33 225.994 91.7603 226.065 91.1881 226.065C89.722 226.045 88.3034 225.544 87.1506 224.638C85.9032 224.508 84.6996 224.107 83.6243 223.463C83.5736 223.429 83.5378 223.376 83.5249 223.317C83.5119 223.257 83.5228 223.194 83.5553 223.142C83.5707 223.117 83.591 223.095 83.6153 223.077C83.6397 223.059 83.6673 223.047 83.6965 223.04C83.7257 223.034 83.7562 223.033 83.7858 223.039C83.815 223.045 83.843 223.056 83.8677 223.074C84.6964 223.57 85.6102 223.908 86.5622 224.071C86.6311 224.071 86.6961 224.107 86.765 224.107C86.972 224.139 87.1465 224.14 87.3169 224.176H87.3859C87.4991 224.21 87.6172 224.223 87.7349 224.217H88.6641C90.0373 224.178 91.3792 223.798 92.5678 223.11L92.8843 225.854Z" fill="black"/>
<path d="M99.069 222.231L91.4199 218.291L92.4425 199.748L99.0122 200.595L102.112 203.201C102.112 203.201 101.938 204.247 101.893 204.859C101.723 207.206 103.667 208.43 105.882 209.666L99.069 222.231Z" fill="#FBE7A1"/>
<path d="M97.491 214.733L97.1055 203.028C97.0974 202.525 96.9903 202.028 96.7898 201.567C96.5893 201.106 96.2996 200.689 95.9372 200.34C95.5749 199.991 95.1472 199.716 94.6785 199.533C94.2098 199.349 93.7091 199.26 93.2059 199.27L81.7709 199.704C81.3821 199.722 81.0011 199.817 80.6489 199.982C80.2971 200.148 79.9814 200.381 79.7196 200.669C79.4579 200.956 79.2558 201.293 79.1248 201.658C78.9933 202.024 78.9357 202.412 78.9547 202.801L79.3605 215.398C79.5228 220.339 83.5401 224.218 88.373 224.055L89.0426 224.023C93.8511 223.853 97.6209 219.678 97.491 214.733Z" fill="#956363"/>
<path d="M110.69 337.872L129.491 338.342L121.967 332.972C120.705 332.072 120.255 330.665 120.182 329.117L120.543 323.244L110.297 323.277L110.69 337.872Z" fill="#956363"/>
<path opacity="0.15" d="M112.783 332.194V332.105C112.776 331.963 112.798 331.821 112.847 331.691C112.897 331.558 112.973 331.436 113.071 331.335C113.169 331.233 113.287 331.152 113.417 331.095C113.548 331.043 113.688 331.014 113.83 331.014L120.432 330.305L120.343 329.324H110.328L110.62 337.471L118.809 336.729L116.102 335.846C114.256 335.234 112.929 333.819 112.783 332.194Z" fill="black"/>
<path d="M109.387 334.556V341.852C109.385 342.132 109.438 342.411 109.544 342.671C109.65 342.93 109.807 343.165 110.006 343.364C110.204 343.562 110.44 343.716 110.699 343.822C110.959 343.931 111.237 343.984 111.518 343.98H136.453C136.572 343.98 136.69 343.96 136.799 343.915C136.909 343.871 137.009 343.802 137.093 343.721C137.176 343.635 137.243 343.534 137.288 343.425C137.333 343.315 137.355 343.198 137.354 343.08C137.353 342.229 137.084 341.398 136.586 340.705C136.087 340.012 135.384 339.493 134.575 339.222L128.946 337.385L121.805 331.869C121.445 331.593 121 331.448 120.546 331.46C120.091 331.472 119.656 331.642 119.313 331.942L116.14 334.645C115.906 334.836 115.63 334.966 115.335 335.031C115.04 335.091 114.735 335.083 114.444 335.006L110.438 333.746C110.314 333.709 110.182 333.701 110.054 333.721C109.926 333.746 109.805 333.798 109.702 333.879C109.599 333.956 109.517 334.062 109.462 334.179C109.407 334.297 109.382 334.427 109.387 334.556Z" fill="#4D61FC"/>
<path opacity="0.5" d="M111.522 343.999H136.453C136.572 343.999 136.689 343.979 136.799 343.934C136.909 343.89 137.009 343.821 137.092 343.74C137.176 343.654 137.242 343.553 137.287 343.444C137.332 343.334 137.355 343.217 137.354 343.099C137.355 342.795 137.319 342.491 137.244 342.195H109.428C109.494 342.702 109.744 343.164 110.131 343.496C110.516 343.829 111.012 344.007 111.522 343.999Z" fill="black"/>
<path d="M121.66 334.81C121.632 334.81 121.605 334.802 121.58 334.79C121.555 334.778 121.534 334.757 121.518 334.737C121.482 334.692 121.463 334.632 121.463 334.575C121.463 334.518 121.482 334.457 121.518 334.413L123.031 332.791C123.076 332.755 123.131 332.739 123.187 332.743C123.244 332.747 123.297 332.771 123.337 332.812C123.377 332.848 123.401 332.905 123.404 332.958C123.408 333.014 123.39 333.071 123.356 333.116L121.842 334.737C121.792 334.782 121.727 334.81 121.66 334.81Z" fill="white"/>
<path d="M122.851 335.747C122.823 335.747 122.795 335.739 122.77 335.727C122.745 335.715 122.722 335.694 122.705 335.674C122.669 335.626 122.65 335.569 122.65 335.512C122.65 335.451 122.669 335.394 122.705 335.35L124.223 333.729C124.269 333.692 124.326 333.672 124.385 333.672C124.444 333.672 124.501 333.692 124.547 333.729C124.581 333.777 124.599 333.834 124.599 333.891C124.599 333.948 124.581 334.004 124.547 334.053L123.03 335.674C122.981 335.719 122.917 335.743 122.851 335.747Z" fill="white"/>
<path d="M124.078 336.663C124.05 336.663 124.022 336.655 123.997 336.643C123.971 336.631 123.949 336.61 123.932 336.59C123.896 336.541 123.877 336.485 123.877 336.428C123.877 336.367 123.896 336.31 123.932 336.266L125.445 334.644C125.493 334.612 125.551 334.592 125.61 334.592C125.668 334.592 125.726 334.612 125.774 334.644C125.808 334.693 125.826 334.75 125.826 334.807C125.826 334.863 125.808 334.92 125.774 334.969L124.256 336.59C124.208 336.635 124.144 336.659 124.078 336.663Z" fill="white"/>
<path d="M58.3672 324.629L63.7073 342.637L66.5113 333.854C66.982 332.375 68.1791 331.516 69.6358 330.968L75.3412 329.501L72.1517 319.773L58.3672 324.629Z" fill="#956363"/>
<path opacity="0.15" d="M64.422 324.865L64.5072 324.836C64.6391 324.788 64.7803 324.763 64.9215 324.767C65.0631 324.775 65.2019 324.808 65.3293 324.869C65.4567 324.933 65.5699 325.019 65.6625 325.128C65.755 325.233 65.8244 325.359 65.8666 325.493L68.5732 331.548L69.4781 331.179L66.3941 321.65L58.7207 324.459L61.9467 332.014V329.177C61.9792 327.211 62.9206 325.509 64.422 324.865Z" fill="black"/>
<path d="M61.1268 322.375L54.1554 324.629C53.8896 324.714 53.6433 324.852 53.4303 325.03C53.2176 325.213 53.0428 325.436 52.9158 325.683C52.7887 325.93 52.712 326.202 52.6901 326.481C52.6682 326.757 52.7015 327.037 52.7879 327.304L58.1768 343.922L64.5557 343.963C65.6716 343.922 66.9498 344.076 67.4286 343.922C68.6095 343.541 68.646 342.957 68.5811 342.013C68.5551 341.644 68.4054 341.296 68.1554 341.02C67.9059 340.748 67.5715 340.566 67.2055 340.505L65.0183 339.768L67.4855 333.327C67.6405 332.902 67.6417 332.431 67.4891 332.006C67.3365 331.576 67.0399 331.215 66.6495 330.984L63.0989 328.8C62.8453 328.638 62.6343 328.415 62.4842 328.155C62.3336 327.892 62.248 327.6 62.2346 327.3L62.2021 323.105C62.1965 322.979 62.1616 322.858 62.0999 322.744C62.0382 322.635 61.9518 322.542 61.8475 322.473C61.7432 322.4 61.6239 322.355 61.4985 322.339C61.3735 322.323 61.2461 322.335 61.1268 322.375Z" fill="#4D61FC"/>
<path opacity="0.5" d="M65.38 343.943H58.1774L52.7885 327.325C52.6226 326.842 52.6404 326.319 52.838 325.849C53.0357 325.379 53.3997 325.002 53.8598 324.783L59.4759 342.479L68.5858 343.063C68.5858 343.063 68.3058 344.234 65.38 343.943Z" fill="black"/>
<path d="M64.6614 334.109C64.6525 334.081 64.6501 334.053 64.6545 334.028C64.6586 334 64.6695 333.972 64.6858 333.951C64.7199 333.903 64.7681 333.87 64.8237 333.85C64.8789 333.834 64.9386 333.834 64.9942 333.85L67.0231 334.79C67.0706 334.827 67.1055 334.875 67.1233 334.928C67.1408 334.985 67.14 335.046 67.1205 335.102C67.0868 335.151 67.0385 335.184 66.9825 335.204C66.9269 335.22 66.8673 335.22 66.8121 335.2L64.7832 334.259C64.7255 334.227 64.6821 334.174 64.6614 334.109Z" fill="white"/>
<path d="M64.1347 335.533C64.127 335.505 64.1249 335.476 64.129 335.448C64.1335 335.424 64.1436 335.395 64.159 335.371C64.1931 335.322 64.2414 335.29 64.297 335.27C64.3526 335.253 64.4126 335.253 64.4674 335.274L66.4963 336.214C66.5438 336.246 66.5791 336.295 66.5974 336.352C66.6157 336.408 66.6156 336.465 66.5978 336.522C66.5629 336.571 66.5138 336.603 66.4578 336.623C66.4018 336.639 66.3417 336.639 66.2853 336.623L64.2767 335.679C64.2122 335.651 64.1611 335.598 64.1347 335.533Z" fill="white"/>
<path d="M63.6401 336.98C63.6311 336.952 63.6287 336.924 63.6328 336.895C63.6372 336.867 63.6478 336.842 63.6644 336.818C63.6981 336.769 63.7464 336.733 63.802 336.717C63.858 336.701 63.9176 336.701 63.9728 336.721L65.9814 337.661C66.0301 337.694 66.0667 337.742 66.0853 337.799C66.1036 337.852 66.1028 337.912 66.0829 337.969C66.0488 338.018 66.0005 338.05 65.9449 338.071C65.8897 338.087 65.8301 338.087 65.7745 338.071L63.7456 337.126C63.6932 337.094 63.6555 337.041 63.6401 336.98Z" fill="white"/>
<path d="M86.3263 211.315C86.3319 211.129 86.392 210.949 86.4991 210.798C86.6067 210.646 86.756 210.529 86.9293 210.463C87.1025 210.395 87.2916 210.381 87.473 210.42C87.6544 210.46 87.8204 210.552 87.9498 210.685C88.0793 210.818 88.1665 210.986 88.2006 211.169C88.2351 211.351 88.2144 211.539 88.1422 211.711C88.0699 211.882 87.949 212.027 87.794 212.13C87.6394 212.233 87.4576 212.287 87.2717 212.287C87.0173 212.283 86.7751 212.178 86.5977 211.996C86.4208 211.813 86.323 211.569 86.3263 211.315Z" fill="#21252B"/>
<path d="M87.4746 211.485C87.4754 211.447 87.4876 211.41 87.5095 211.378C87.5314 211.347 87.5618 211.323 87.5976 211.309C87.6333 211.295 87.6722 211.291 87.71 211.299C87.7473 211.307 87.7818 211.326 87.8086 211.353C87.8354 211.38 87.8536 211.415 87.8605 211.453C87.8678 211.491 87.8638 211.53 87.8487 211.565C87.8341 211.6 87.809 211.63 87.7773 211.652C87.7453 211.673 87.7075 211.684 87.6694 211.684C87.6174 211.683 87.5679 211.661 87.5314 211.624C87.4949 211.587 87.4746 211.537 87.4746 211.485Z" fill="white"/>
<path d="M93.6759 211.377C93.6815 211.191 93.742 211.011 93.8491 210.86C93.9567 210.708 94.1064 210.592 94.2801 210.524C94.4533 210.458 94.6429 210.443 94.8242 210.483C95.006 210.523 95.1716 210.615 95.301 210.749C95.4301 210.882 95.5169 211.051 95.551 211.234C95.5847 211.417 95.5636 211.605 95.4909 211.776C95.4179 211.947 95.2962 212.092 95.1407 212.194C94.9853 212.297 94.8035 212.35 94.6173 212.35C94.3637 212.344 94.1226 212.239 93.9461 212.057C93.77 211.875 93.6726 211.63 93.6759 211.377Z" fill="#21252B"/>
<path d="M94.8164 211.506C94.816 211.479 94.8205 211.453 94.8298 211.429C94.8395 211.405 94.8538 211.383 94.8716 211.364C94.8899 211.345 94.9114 211.33 94.9353 211.32C94.9593 211.309 94.9852 211.303 95.0112 211.303C95.0518 211.301 95.0916 211.312 95.126 211.333C95.1605 211.354 95.1877 211.385 95.2044 211.422C95.221 211.459 95.2263 211.5 95.2194 211.54C95.2125 211.58 95.1938 211.617 95.1658 211.646C95.1378 211.675 95.1017 211.695 95.0619 211.703C95.0226 211.712 94.9812 211.708 94.9434 211.693C94.9061 211.678 94.8741 211.652 94.8513 211.619C94.8286 211.585 94.8164 211.546 94.8164 211.506Z" fill="white"/>
<path opacity="0.2" d="M91.2333 214.652C91.2101 214.351 91.0697 214.071 90.8417 213.874C90.614 213.675 90.317 213.575 90.0159 213.594C89.9473 213.616 89.8877 213.659 89.8447 213.716C89.8021 213.774 89.7781 213.843 89.7761 213.914C89.796 213.983 89.8365 214.044 89.8925 214.089C89.9485 214.133 90.0171 214.158 90.0889 214.161C90.2448 214.165 90.3941 214.224 90.5093 214.33C90.6242 214.435 90.6968 214.578 90.7135 214.733C90.7297 214.887 90.6846 215.04 90.5881 215.161C90.4919 215.281 90.3519 215.359 90.1985 215.377L88.9402 215.491C88.872 215.513 88.8123 215.556 88.7693 215.613C88.7263 215.67 88.7028 215.74 88.7012 215.811C88.7206 215.88 88.7612 215.941 88.8172 215.985C88.8732 216.03 88.9418 216.055 89.0132 216.058L90.2716 215.945C90.4262 215.939 90.5771 215.899 90.7143 215.827C90.851 215.754 90.9699 215.653 91.0624 215.529C91.1545 215.405 91.2178 215.261 91.2475 215.11C91.2767 214.958 91.2718 214.802 91.2333 214.652Z" fill="black"/>
<path d="M66.2647 321.303L95.116 308.304L65.6722 309.751L65.0879 289.295L114.07 295.302L121.309 305.71L119.402 318.77L69.4623 331.452L66.2647 321.303Z" fill="#21252B"/>
<path opacity="0.3" d="M75.1596 309.347L103.439 294.135L96.6662 293.547L67.4902 309.464L75.1596 309.347Z" fill="black"/>
<path opacity="0.3" d="M69.4629 331.451L119.403 318.785L121.31 305.726L114.071 295.318L104.563 294.15L105.192 310.363C105.27 312.372 104.68 314.35 103.514 315.988C102.349 317.63 100.673 318.838 98.7484 319.426L68.5742 328.647L69.4629 331.451Z" fill="black"/>
<path d="M121.208 329.922L123.31 283.457C123.176 279.209 120.644 275.33 116.619 273.198C113.242 271.437 109.307 271.07 105.663 272.177L72.3883 282.31L54.1279 286.602C52.8246 289.903 52.0365 293.385 51.7906 296.925C51.3037 304.833 57.9951 311.959 66.6505 309.782C74.6566 307.755 105.744 292.507 105.744 292.507L109.546 330.202L121.208 329.922Z" fill="#21252B"/>
<g opacity="0.3">
<path opacity="0.3" d="M101.374 304.923C101.374 304.85 99.7267 305.142 97.9575 306.139C96.1883 307.136 95.0643 308.348 95.117 308.392C95.1698 308.437 96.3709 307.359 98.1036 306.41C99.8363 305.462 101.399 305.004 101.374 304.923Z" fill="black"/>
</g>
<g opacity="0.3">
<path opacity="0.3" d="M110.495 288.021C110.54 288.115 109.002 288.67 107.655 290.076C106.308 291.483 105.744 293.011 105.65 292.966C105.68 292.61 105.786 292.264 105.963 291.953C106.324 291.173 106.817 290.461 107.42 289.849C108.021 289.233 108.725 288.727 109.501 288.354C109.805 288.173 110.144 288.06 110.495 288.021Z" fill="black"/>
</g>
<path d="M87.3135 217.695C87.1553 217.695 87.1066 217.797 87.1309 217.922C87.2884 218.417 87.5866 218.856 87.9896 219.184C88.3925 219.512 88.8827 219.715 89.3997 219.769C89.9166 219.822 90.4381 219.724 90.9003 219.486C91.362 219.248 91.7447 218.881 92.0003 218.429C92.0129 218.404 92.0194 218.376 92.019 218.348C92.0186 218.319 92.0117 218.292 91.9987 218.267C91.9853 218.242 91.9667 218.221 91.944 218.204C91.9208 218.188 91.8944 218.178 91.8664 218.174L87.3135 217.695Z" fill="white"/>
<path d="M100.328 202.954C99.9461 203.725 99.339 204.362 98.5867 204.781C97.8344 205.199 96.9725 205.379 96.1155 205.297C94.6737 205.184 93.3228 204.55 92.3161 203.514C91.3089 202.477 90.7148 201.109 90.6455 199.667H90.5927C90.0194 200.426 89.267 201.032 88.4023 201.431C87.538 201.829 86.5884 202.009 85.6381 201.953C85.0826 201.917 84.5356 201.799 84.0149 201.604C83.3413 207.927 79.4296 208.422 79.4296 208.422C79.3931 209.025 79.3241 210.241 79.2388 211.664C79.178 212.641 80.3385 213.111 79.7785 213.82H80.0829C79.9165 214.055 80.3548 214.359 80.2371 214.631C80.0443 215.078 79.9315 215.556 79.9043 216.041C79.8548 216.732 79.9871 217.424 80.2874 218.048C80.5877 218.672 81.0458 219.207 81.6167 219.6C82.7854 220.451 84.0515 221.598 84.2422 223.086C84.4654 224.93 83.1019 228.315 78.5084 228.221C77.1856 228.197 66.5743 227.913 67.8485 218.465C68.0404 217.685 68.3508 216.938 68.7696 216.252C69.0252 215.771 69.1746 215.24 69.2078 214.696C69.289 213.399 68.4855 212.471 67.6496 211.632C67.1777 211.204 66.808 210.676 66.5678 210.087C66.3276 209.498 66.2229 208.862 66.2618 208.227C66.3073 207.358 66.6246 206.526 67.1692 205.848C67.7137 205.169 68.458 204.679 69.2971 204.445C69.5325 204.382 69.7447 204.252 69.9074 204.071C70.0701 203.889 70.1769 203.665 70.2142 203.424C70.5713 201.357 72.9735 196.076 80.3872 196.911C80.2533 194.734 82.4405 191.544 85.6624 191.455C88.4258 191.382 90.6861 193.546 92.1306 195.391C92.5385 195.924 93.0725 196.349 93.6852 196.626C94.2979 196.902 94.9699 197.022 95.6407 196.975C96.2372 196.927 97.1056 196.639 97.9415 196.684C101.167 196.858 102.612 199.667 102.089 203.193L100.328 202.954Z" fill="#FBE7A1"/>
<path d="M151.021 219.301L152.105 220.257C152.105 220.257 153.943 222.146 153.906 222.191C153.87 222.235 153.841 224.217 153.841 224.217L153.756 225.514C153.746 225.584 153.718 225.65 153.675 225.706C153.632 225.761 153.575 225.805 153.51 225.832C153.445 225.859 153.374 225.869 153.304 225.86C153.234 225.851 153.167 225.824 153.111 225.782C152.898 225.59 152.755 225.334 152.705 225.052L152.62 225.458C152.603 225.518 152.572 225.574 152.53 225.62C152.488 225.667 152.435 225.703 152.376 225.726C152.318 225.749 152.255 225.757 152.192 225.752C152.129 225.746 152.069 225.726 152.015 225.693C151.774 225.513 151.586 225.272 151.471 224.994C151.355 224.717 151.318 224.413 151.362 224.116C151.414 223.462 151.431 222.806 151.411 222.15L151.058 221.834C150.968 221.891 147.97 222.872 147.974 222.799C147.978 222.726 147.633 220.655 147.633 220.655L151.021 219.301Z" fill="#956363"/>
<g opacity="0.15">
<path opacity="0.15" d="M151.021 219.301L152.105 220.257C152.105 220.257 153.943 222.146 153.906 222.191C153.87 222.235 153.841 224.217 153.841 224.217L153.756 225.514C153.746 225.584 153.718 225.65 153.675 225.706C153.632 225.761 153.575 225.805 153.51 225.832C153.445 225.859 153.374 225.869 153.304 225.86C153.234 225.851 153.167 225.824 153.111 225.782C152.898 225.59 152.755 225.334 152.705 225.052L152.62 225.458C152.603 225.518 152.572 225.574 152.53 225.62C152.488 225.667 152.435 225.703 152.376 225.726C152.318 225.749 152.255 225.757 152.192 225.752C152.129 225.746 152.069 225.726 152.015 225.693C151.774 225.513 151.586 225.272 151.471 224.994C151.355 224.717 151.318 224.413 151.362 224.116C151.414 223.462 151.431 222.806 151.411 222.15L151.058 221.834C150.968 221.891 147.97 222.872 147.974 222.799C147.978 222.726 147.633 220.655 147.633 220.655L151.021 219.301Z" fill="black"/>
</g>
<path d="M141.238 226L145.122 220.135C145.46 219.621 145.988 219.261 146.591 219.134L150.51 218.299C150.86 218.223 151.221 218.229 151.568 218.315C151.915 218.401 152.238 218.564 152.511 218.793L155.051 220.921L155.542 222.388C155.571 222.473 155.575 222.564 155.553 222.652C155.531 222.738 155.484 222.817 155.419 222.878C155.353 222.939 155.272 222.98 155.184 222.996C155.095 223.012 155.004 223.002 154.921 222.968C154.305 222.677 153.771 222.237 153.367 221.687C152.761 220.963 152.012 220.37 151.168 219.944L148.011 221.327L148.177 223L142.452 228.29L141.238 226Z" fill="#956363"/>
<path d="M156.999 224.577L145.369 215.972C145.299 215.92 145.22 215.883 145.136 215.861C145.052 215.84 144.964 215.836 144.878 215.849C144.792 215.862 144.71 215.891 144.635 215.936C144.561 215.981 144.496 216.04 144.444 216.11C144.393 216.179 144.355 216.258 144.334 216.343C144.313 216.426 144.309 216.514 144.322 216.6C144.335 216.686 144.364 216.768 144.409 216.843C144.453 216.917 144.512 216.982 144.582 217.034L156.212 225.639L157.746 225.951L156.999 224.577Z" fill="black"/>
<path d="M143.566 230.393L146.906 228.367C147.331 228.109 147.696 227.762 147.973 227.349C148.695 226.267 150.172 224.107 150.692 223.746C151.394 223.256 153.905 221.679 153.658 220.994C153.41 220.309 152.818 219.697 151.377 220.645C149.937 221.594 146.386 223.329 146.386 223.329L141.85 227.139L143.566 230.393Z" fill="#956363"/>
<g opacity="0.15">
<path opacity="0.15" d="M146.748 223.13C147.299 222.924 147.832 222.674 148.343 222.384C149.3 221.902 150.66 221.168 152.084 220.435C152.245 220.358 152.423 220.323 152.601 220.334C152.78 220.344 152.952 220.4 153.103 220.495C153.23 220.594 153.323 220.729 153.37 220.883C153.417 221.037 153.414 221.202 153.362 221.355C153.226 221.644 153.025 221.897 152.774 222.096C152.543 222.311 152.319 222.502 152.108 222.668C151.264 223.337 150.664 223.645 150.688 223.685C150.844 223.652 150.992 223.592 151.126 223.507C151.511 223.308 151.88 223.08 152.23 222.826C152.449 222.668 152.689 222.481 152.932 222.271C153.217 222.057 153.448 221.779 153.606 221.46C153.678 221.255 153.686 221.034 153.626 220.825C153.566 220.617 153.443 220.432 153.273 220.297C153.085 220.171 152.868 220.095 152.642 220.077C152.416 220.058 152.189 220.098 151.983 220.191C150.473 220.974 149.203 221.695 148.249 222.218C147.725 222.479 147.222 222.785 146.748 223.13Z" fill="black"/>
</g>
<path d="M94.8435 215.591C94.0457 215.587 93.267 215.347 92.606 214.902C91.9446 214.456 91.4301 213.825 91.1277 213.087C90.825 212.35 90.7483 211.54 90.9062 210.759C91.0644 209.978 91.4504 209.261 92.016 208.699C92.5813 208.137 93.3007 207.755 94.0835 207.601C94.8662 207.447 95.677 207.529 96.4135 207.834C97.15 208.14 97.7794 208.657 98.2221 209.32C98.6648 209.982 98.9014 210.761 98.9014 211.558C98.8961 212.629 98.466 213.655 97.7055 214.411C96.9451 215.167 95.916 215.591 94.8435 215.591ZM94.8435 207.821C94.1025 207.821 93.3782 208.04 92.7622 208.452C92.1463 208.863 91.6662 209.448 91.3826 210.131C91.0993 210.815 91.0255 211.568 91.1703 212.293C91.3152 213.019 91.6723 213.686 92.1966 214.209C92.7209 214.732 93.3884 215.088 94.1151 215.232C94.8419 215.376 95.595 215.301 96.2796 215.017C96.9637 214.733 97.5485 214.254 97.9595 213.638C98.3706 213.022 98.5897 212.298 98.5889 211.558C98.5865 210.567 98.1912 209.617 97.4892 208.917C96.7872 208.216 95.8357 207.822 94.8435 207.821Z" fill="#21252B"/>
<path d="M85.6762 215.591C84.8776 215.592 84.0965 215.356 83.4322 214.914C82.7675 214.471 82.2493 213.841 81.9434 213.105C81.637 212.368 81.5567 211.557 81.7117 210.774C81.8671 209.991 82.2514 209.272 82.8158 208.708C83.3803 208.144 84.0997 207.759 84.8833 207.603C85.6664 207.447 86.4784 207.527 87.2165 207.832C87.9543 208.137 88.5852 208.654 89.0292 209.317C89.4731 209.981 89.7097 210.761 89.7097 211.558C89.7044 212.626 89.2779 213.648 88.5228 214.403C87.7676 215.158 86.7446 215.585 85.6762 215.591ZM85.6762 207.821C84.9352 207.82 84.2105 208.039 83.5941 208.45C82.9773 208.861 82.4969 209.445 82.2128 210.129C81.9288 210.813 81.8541 211.565 81.9986 212.291C82.143 213.017 82.4997 213.684 83.024 214.208C83.5479 214.731 84.2158 215.087 84.9425 215.232C85.6697 215.376 86.4228 215.301 87.1074 215.018C87.792 214.734 88.3771 214.254 88.7881 213.638C89.1992 213.022 89.4183 212.298 89.4175 211.558C89.4155 210.568 89.0207 209.618 88.3195 208.918C87.6183 208.218 86.6679 207.823 85.6762 207.821Z" fill="#21252B"/>
<path d="M91.0058 210.671C90.7802 210.55 90.5278 210.487 90.2713 210.487C90.0149 210.487 89.7625 210.55 89.5369 210.671L89.3867 210.424C89.6566 210.277 89.9593 210.199 90.2673 210.199C90.5749 210.199 90.878 210.277 91.1478 210.424L91.0058 210.671Z" fill="#21252B"/>
<path d="M81.7008 210.829L78.7832 209.147L78.9536 208.912L81.8753 210.594L81.7008 210.829Z" fill="#21252B"/>
<path d="M92.1855 249.07L93.4516 235.395L118.334 237.279L141.095 224.074L145.838 230.924L121.288 248.758C120.323 249.462 119.152 249.825 117.957 249.792L92.1855 249.07Z" fill="#4D61FC"/>
<path opacity="0.15" d="M121.288 248.759L145.838 230.925L145.027 229.811L119.941 246.704C119.178 247.259 118.233 247.507 117.296 247.397L106.141 246.084C104.504 245.888 102.94 245.294 101.588 244.352C100.236 243.411 99.1362 242.151 98.3859 240.685L95.7686 235.566L93.4354 235.392L92.1855 249.071L117.957 249.797C119.152 249.83 120.324 249.464 121.288 248.759Z" fill="black"/>
<path d="M93.4689 232.894C93.4446 233.498 98.2247 247.486 98.1558 253.205C98.0705 260.723 90.1618 266.528 90.1618 266.528L82.1354 279.332C69.9415 287.588 51.8273 293.076 52.5131 284.349L61.911 259.872L67.7381 246.314C69.414 240.75 72.4643 235.696 76.6086 231.618L81.3887 228.428L93.4689 232.894Z" fill="#4D61FC"/>
<path d="M80.1702 279.023L108.117 272.943L106.944 264.176L82.1992 266.442L86.6628 245.945C86.9444 244.359 86.6462 242.725 85.8224 241.34C84.9987 239.955 83.7038 238.913 82.1748 238.402C78.6648 237.23 74.1281 239.091 72.8174 242.487C72.6965 242.816 72.6056 243.155 72.5455 243.501L67.9034 268.805C67.9034 268.805 64.5029 282.731 80.1702 279.023Z" fill="#4D61FC"/>
<g opacity="0.15">
<path opacity="0.15" d="M76.8103 240.629C76.8469 240.718 78.2062 239.956 80.0566 239.843C81.907 239.729 83.3678 240.276 83.3962 240.183C83.4246 240.09 81.9841 239.397 80.0363 239.539C78.0886 239.68 76.7535 240.56 76.8103 240.629Z" fill="black"/>
</g>
<path d="M57.8519 287.653C57.8073 287.726 57.0201 287.341 56.1923 286.656C55.3645 285.971 54.8369 285.273 54.9019 285.217C54.9668 285.16 55.5917 285.744 56.3992 286.408C57.2067 287.073 57.9006 287.576 57.8519 287.653Z" fill="#FAFAFA"/>
<path d="M77.6309 230.936L78.3085 228.549C78.354 228.387 78.4327 228.235 78.5402 228.105C78.6473 227.974 78.7805 227.867 78.9314 227.791C79.082 227.715 79.2471 227.671 79.4159 227.662C79.5847 227.653 79.7535 227.679 79.9114 227.738L93.0263 232.602C93.3441 232.686 93.6383 232.841 93.8866 233.056C94.1345 233.271 94.3305 233.54 94.4584 233.842C94.5866 234.144 94.6438 234.471 94.6255 234.799C94.6073 235.127 94.5144 235.446 94.3533 235.731C94.0903 236.203 93.659 236.558 93.1453 236.726C92.6315 236.895 92.0736 236.864 91.5818 236.639L77.6309 230.936Z" fill="#4D61FC"/>
<path d="M80.8133 250.054C80.7362 250.095 80.2777 249.308 80.0018 248.23C79.7258 247.152 79.7745 246.24 79.8597 246.24C79.945 246.24 80.0545 247.108 80.3142 248.153C80.5739 249.199 80.8985 250.014 80.8133 250.054Z" fill="#FAFAFA"/>
<path d="M76.0596 252.84C76.1246 252.897 75.6538 253.573 74.9031 254.238C74.1524 254.903 73.418 255.288 73.3733 255.215C73.3287 255.142 73.9577 254.648 74.6881 253.999C75.4185 253.351 75.9866 252.783 76.0596 252.84Z" fill="#FAFAFA"/>
<path d="M81.0108 259.24C80.9418 259.293 80.4711 258.815 80.1221 258.077C79.7731 257.339 79.7163 256.675 79.7812 256.659C79.8461 256.642 80.0774 257.238 80.4142 257.939C80.751 258.641 81.0838 259.204 81.0108 259.24Z" fill="#FAFAFA"/>
<path d="M75.1307 263.772C75.0454 263.772 75.1834 262.961 75.4391 261.981C75.6947 261 75.9747 260.246 76.0599 260.266C76.1451 260.286 76.0072 261.077 75.7515 262.062C75.4959 263.046 75.2159 263.796 75.1307 263.772Z" fill="#FAFAFA"/>
<path d="M72.1081 269.337C72.0228 269.369 71.7266 268.822 71.4426 268.121C71.1585 267.419 70.9921 266.803 71.0733 266.771C71.1545 266.738 71.4548 267.29 71.7429 267.987C72.031 268.684 72.1892 269.337 72.1081 269.337Z" fill="#FAFAFA"/>
<path d="M81.1326 265.442C81.1813 265.523 80.5239 266.03 79.757 266.698C78.9901 267.367 78.3976 267.955 78.3287 267.914C78.2597 267.874 78.7547 267.164 79.546 266.475C80.3373 265.786 81.088 265.369 81.1326 265.442Z" fill="#FAFAFA"/>
<path d="M73.2004 278.509C73.1152 278.545 72.6647 277.698 72.0601 276.733C71.4555 275.769 70.9239 274.97 70.997 274.913C71.07 274.857 71.7193 275.558 72.3361 276.567C72.9529 277.576 73.2734 278.472 73.2004 278.509Z" fill="#FAFAFA"/>
<path d="M79.1682 275.72C79.1113 275.793 78.4377 275.351 77.545 274.909C76.6523 274.468 75.9219 274.188 75.9219 274.099C75.9219 274.01 76.7619 274.159 77.6749 274.626C78.5879 275.092 79.225 275.655 79.1682 275.72Z" fill="#FAFAFA"/>
<path d="M84.2298 274.715C84.2988 274.779 83.9174 275.282 83.6009 275.979C83.2844 276.676 83.1383 277.288 83.0449 277.276C82.9516 277.264 82.9597 276.591 83.3046 275.845C83.6495 275.1 84.169 274.654 84.2298 274.715Z" fill="#FAFAFA"/>
<path d="M87.7258 270.681C87.673 270.758 87.0603 270.394 86.269 270.033C85.4777 269.672 84.8122 269.433 84.8366 269.34C84.8609 269.247 85.5873 269.34 86.407 269.745C87.2267 270.15 87.7785 270.613 87.7258 270.681Z" fill="#FAFAFA"/>
<path d="M90.515 273.26C90.584 273.317 90.2918 273.778 89.8657 274.293C89.4397 274.808 89.0538 275.172 88.9645 275.104C88.8752 275.035 89.1881 274.585 89.6182 274.074C90.0484 273.564 90.446 273.203 90.515 273.26Z" fill="#FAFAFA"/>
<path d="M93.5043 269.24C93.4109 269.264 93.204 268.685 92.782 268.069C92.36 267.453 91.9095 267.039 91.9704 266.962C92.0313 266.885 92.6034 267.213 93.0579 267.886C93.5124 268.559 93.5854 269.228 93.5043 269.24Z" fill="#FAFAFA"/>
<path d="M96.6951 271.605C96.6099 271.585 96.7479 270.714 97.0035 269.66C97.2592 268.606 97.5392 267.771 97.6244 267.791C97.7096 267.812 97.5757 268.683 97.316 269.737C97.0563 270.791 96.7803 271.626 96.6951 271.605Z" fill="#FAFAFA"/>
<path d="M103.435 272.931C103.386 273.003 102.761 272.651 102.047 272.12C101.333 271.589 100.793 271.143 100.83 271.07C100.866 270.997 101.503 271.35 102.222 271.856C102.94 272.363 103.488 272.858 103.435 272.931Z" fill="#FAFAFA"/>
<path d="M105.381 265.628C105.459 265.668 105.256 266.219 104.777 266.754C104.298 267.289 103.775 267.565 103.73 267.484C103.685 267.403 104.091 267.042 104.542 266.54C104.992 266.037 105.3 265.587 105.381 265.628Z" fill="#FAFAFA"/>
<path d="M77.5241 242.552C77.5891 242.617 77.1508 243.127 76.5503 243.699C75.9497 244.27 75.4181 244.676 75.3573 244.611C75.2964 244.546 75.7306 244.031 76.3311 243.464C76.9317 242.896 77.4633 242.487 77.5241 242.552Z" fill="#FAFAFA"/>
<path d="M83.7432 245.095C83.658 245.119 83.4186 244.442 83.2076 243.591C82.9965 242.74 82.9032 242.03 82.9884 242.01C83.0736 241.99 83.3171 242.663 83.5241 243.514C83.731 244.365 83.8244 245.074 83.7432 245.095Z" fill="#FAFAFA"/>
<path d="M82.6668 235.002C82.6668 235.087 82.05 235.091 81.3074 235.002C80.5648 234.913 79.9724 234.775 79.9846 234.686C79.9967 234.597 80.6014 234.597 81.344 234.686C82.0865 234.775 82.679 234.913 82.6668 235.002Z" fill="#FAFAFA"/>
<path d="M87.3127 242.013C87.2316 242.013 87.0449 241.58 87.0449 240.98C87.0449 240.38 87.2316 239.926 87.3127 239.95C87.3939 239.974 87.3655 240.428 87.3695 240.98C87.3736 241.531 87.402 241.993 87.3127 242.013Z" fill="#FAFAFA"/>
<path d="M93.006 243.853C92.9452 243.918 92.2959 243.419 91.5534 242.738C90.8108 242.057 90.2548 241.449 90.336 241.385C90.4172 241.32 91.0502 241.818 91.7928 242.499C92.5353 243.18 93.0669 243.8 93.006 243.853Z" fill="#FAFAFA"/>
<path d="M91.035 247.793C91.0837 247.866 90.7306 248.199 90.2437 248.495C89.7568 248.79 89.3266 249.001 89.2779 248.924C89.2292 248.847 89.5823 248.519 90.0692 248.223C90.5562 247.927 90.9863 247.716 91.035 247.793Z" fill="#FAFAFA"/>
<path d="M94.5523 253.253C94.4671 253.253 94.3616 252.495 94.5523 251.579C94.743 250.663 95.1565 250.006 95.2296 250.042C95.3026 250.079 95.0551 250.772 94.8684 251.664C94.6818 252.555 94.6457 253.253 94.5523 253.253Z" fill="#FAFAFA"/>
<path d="M91.3377 255.936C91.2606 255.976 90.9319 255.453 90.5748 254.768C90.2178 254.083 90.0189 253.5 90.1001 253.459C90.1812 253.419 90.5058 253.942 90.8629 254.627C91.22 255.312 91.4189 255.895 91.3377 255.936Z" fill="#FAFAFA"/>
<path d="M86.6143 257.388C86.6954 257.429 86.4601 258.126 86.0908 258.953C85.7215 259.78 85.3523 260.416 85.2792 260.379C85.2062 260.343 85.4334 259.646 85.8068 258.819C86.1801 257.992 86.5331 257.352 86.6143 257.388Z" fill="#FAFAFA"/>
<path d="M90.9289 261.716C90.9289 261.809 90.1174 261.846 89.1232 261.983C88.129 262.121 87.3378 262.3 87.3094 262.21C87.2809 262.121 88.056 261.805 89.0786 261.663C90.1011 261.521 90.933 261.635 90.9289 261.716Z" fill="#FAFAFA"/>
<path d="M67.2548 256.662C67.1656 256.662 66.9343 255.985 66.7354 255.102C66.5366 254.218 66.4473 253.48 66.5366 253.48C66.6259 253.48 66.8531 254.161 67.0519 255.045C67.2508 255.929 67.3401 256.646 67.2548 256.662Z" fill="#FAFAFA"/>
<path d="M71.2106 247.587C71.2512 247.664 70.8048 247.964 70.1677 248.049C69.5306 248.134 69.0194 247.972 69.0396 247.891C69.0599 247.81 69.5428 247.814 70.1231 247.729C70.7034 247.644 71.17 247.502 71.2106 247.587Z" fill="#FAFAFA"/>
<path d="M63.7723 264.594C63.7439 264.509 64.4621 264.209 65.3954 263.921C66.3287 263.633 67.0673 263.475 67.0957 263.56C67.1241 263.645 66.4018 263.965 65.4725 264.233C64.5433 264.5 63.7966 264.679 63.7723 264.594Z" fill="#FAFAFA"/>
<path d="M61.1714 271.201C61.0822 271.201 60.9401 270.431 60.8549 269.463C60.7697 268.494 60.7697 267.703 60.8549 267.695C60.9401 267.687 61.0862 268.465 61.1714 269.434C61.2567 270.403 61.2607 271.193 61.1714 271.201Z" fill="#FAFAFA"/>
<path d="M63.1853 278.849C63.1082 278.805 63.5059 277.937 64.0781 276.912C64.6502 275.886 65.1777 275.092 65.2548 275.137C65.3319 275.181 64.9343 276.044 64.3621 277.07C63.79 278.095 63.2624 278.89 63.1853 278.849Z" fill="#FAFAFA"/>
<path d="M59.1913 281.11C59.1061 281.134 58.7855 280.348 58.5055 279.355C58.2255 278.362 58.0429 277.535 58.1322 277.507C58.2215 277.478 58.538 278.269 58.818 279.262C59.098 280.255 59.2765 281.09 59.1913 281.11Z" fill="#FAFAFA"/>
<path d="M67.489 283.574C67.5214 283.659 66.8478 283.979 66.0606 284.425C65.2734 284.871 64.6566 285.292 64.5998 285.236C64.543 285.179 65.0827 284.624 65.8983 284.158C66.7139 283.692 67.4606 283.493 67.489 283.574Z" fill="#FAFAFA"/>
<path d="M73.3864 241.293C73.2972 241.293 73.289 240.515 73.3864 239.575C73.4838 238.635 73.6056 237.881 73.6948 237.889C73.7841 237.897 73.7922 238.663 73.6948 239.603C73.5974 240.544 73.4757 241.302 73.3864 241.293Z" fill="#FAFAFA"/>
<path d="M81.5304 231.288C81.4452 231.313 81.2829 231.009 81.1693 230.607C81.0557 230.206 81.0313 229.866 81.1206 229.841C81.2099 229.817 81.3681 230.121 81.4817 230.518C81.5954 230.915 81.6197 231.26 81.5304 231.288Z" fill="#FAFAFA"/>
<path d="M87.9341 232.727C87.9341 232.812 87.2158 232.792 86.4164 232.468C85.617 232.143 85.0895 231.657 85.1423 231.6C85.1951 231.544 85.7794 231.864 86.5382 232.168C87.297 232.472 87.9463 232.634 87.9341 232.727Z" fill="#FAFAFA"/>
<path d="M93.2046 234.074C93.2533 234.143 92.8678 234.508 92.2713 234.739C91.6748 234.97 91.1433 234.974 91.1311 234.884C91.1189 234.795 91.5937 234.662 92.1537 234.439C92.7137 234.216 93.1559 234.005 93.2046 234.074Z" fill="#FAFAFA"/>
<path d="M99.1855 240.558C99.1368 240.485 99.5548 240.12 99.9971 239.618C100.439 239.115 100.756 238.661 100.837 238.702C100.918 238.742 100.719 239.298 100.241 239.833C99.7617 240.368 99.2423 240.643 99.1855 240.558Z" fill="#FAFAFA"/>
<path d="M103.824 247.076C103.759 247.141 103.085 246.566 102.318 245.796C101.551 245.025 100.979 244.345 101.044 244.284C101.109 244.223 101.783 244.794 102.55 245.565C103.316 246.335 103.885 247.012 103.824 247.076Z" fill="#FAFAFA"/>
<path d="M107.245 240.469C107.322 240.518 106.961 241.223 106.434 242.042C105.906 242.861 105.431 243.493 105.354 243.444C105.277 243.396 105.638 242.691 106.166 241.872C106.693 241.053 107.172 240.421 107.245 240.469Z" fill="#FAFAFA"/>
<path d="M112.71 246.638C112.629 246.683 112.332 246.306 112.044 245.795C111.756 245.284 111.582 244.835 111.659 244.794C111.736 244.753 112.036 245.126 112.324 245.637C112.612 246.148 112.787 246.61 112.71 246.638Z" fill="#FAFAFA"/>
<path d="M113.532 239.234C113.454 239.286 113.162 238.978 112.878 238.553C112.594 238.127 112.42 237.742 112.497 237.689C112.574 237.637 112.862 237.945 113.146 238.374C113.43 238.804 113.605 239.185 113.532 239.234Z" fill="#FAFAFA"/>
<path d="M119.061 244.54C119.126 244.605 118.777 245.059 118.278 245.561C117.779 246.064 117.328 246.416 117.264 246.372C117.199 246.327 117.552 245.849 118.051 245.35C118.55 244.852 119 244.479 119.061 244.54Z" fill="#FAFAFA"/>
<path d="M119.009 241.581C119.009 241.67 118.522 241.812 117.893 241.897C117.264 241.982 116.749 241.978 116.737 241.897C116.724 241.816 117.223 241.67 117.852 241.585C118.481 241.5 118.997 241.492 119.009 241.581Z" fill="#FAFAFA"/>
<path d="M121.816 238.496C121.767 238.537 121.475 238.091 121.162 237.524C120.939 237.181 120.777 236.803 120.684 236.405C120.732 236.364 121.024 236.81 121.337 237.378C121.561 237.72 121.723 238.098 121.816 238.496Z" fill="#FAFAFA"/>
<path d="M124.486 242.634C124.551 242.695 124.275 243.108 123.87 243.558C123.464 244.008 123.082 244.324 123.017 244.263C122.952 244.203 123.224 243.789 123.63 243.339C124.036 242.889 124.401 242.585 124.486 242.634Z" fill="#FAFAFA"/>
<path d="M127.478 236.961C127.401 237.013 127.036 236.58 126.476 236.195C125.916 235.81 125.392 235.607 125.413 235.514C125.433 235.42 126.05 235.514 126.663 235.919C127.275 236.324 127.551 236.912 127.478 236.961Z" fill="#FAFAFA"/>
<path d="M132.517 236.632C132.586 236.684 132.322 237.167 131.925 237.71C131.527 238.253 131.146 238.646 131.073 238.593C131 238.541 131.267 238.058 131.665 237.519C132.063 236.98 132.44 236.579 132.517 236.632Z" fill="#FAFAFA"/>
<path d="M132.988 233.952C132.907 233.984 132.582 233.328 132.233 232.481C131.884 231.634 131.693 230.924 131.774 230.892C131.856 230.859 132.18 231.516 132.533 232.363C132.886 233.21 133.073 233.919 132.988 233.952Z" fill="#FAFAFA"/>
<path d="M136.888 230.056C136.815 230.004 137.127 229.457 137.585 228.84C138.044 228.224 138.474 227.75 138.543 227.803C138.612 227.856 138.304 228.407 137.845 229.019C137.387 229.631 136.957 230.109 136.888 230.056Z" fill="#FAFAFA"/>
<path d="M141.117 231.665C141.088 231.754 140.5 231.641 139.769 231.624C139.039 231.608 138.447 231.693 138.426 231.604C138.406 231.515 138.998 231.28 139.778 231.3C140.557 231.32 141.145 231.588 141.117 231.665Z" fill="#FAFAFA"/>
<path d="M80.5774 216.241L80.1716 211.543C79.5954 207.234 74.4662 207.838 75.2007 212.127C75.9352 216.415 80.1188 216.18 80.1188 216.18L80.5774 216.241Z" fill="#956363"/>
<path opacity="0.2" d="M79.1367 270.524C79.1367 270.524 80.5975 267.723 82.7888 266.527L79.1367 270.524Z" fill="black"/>
<path opacity="0.2" d="M76.3737 210.27C76.4163 210.329 76.4788 210.37 76.5494 210.386C76.6204 210.403 76.6951 210.393 76.7592 210.359C76.8801 210.267 77.0177 210.2 77.165 210.162C77.3119 210.123 77.4649 210.115 77.6154 210.136C77.9023 210.246 78.134 210.464 78.2606 210.744C78.4724 211.174 78.5808 211.647 78.5771 212.126L78.6015 212.617C78.6015 213.022 79.1574 212.933 79.1533 212.617V212.171C79.1761 211.585 79.0356 211.004 78.7475 210.493C78.6579 210.288 78.5248 210.106 78.3572 209.958C78.1896 209.81 77.992 209.701 77.7777 209.637C77.5582 209.596 77.3326 209.601 77.1151 209.652C76.8976 209.702 76.6935 209.798 76.5157 209.933C76.4609 209.969 76.4179 210.02 76.3928 210.08C76.3672 210.14 76.3607 210.206 76.3737 210.27Z" fill="black"/>
<path d="M78.1779 214.618C78.1868 214.459 78.2416 214.307 78.3358 214.18C78.4303 214.053 78.5598 213.956 78.7087 213.901C78.8576 213.847 79.0191 213.837 79.1737 213.873C79.3279 213.909 79.4683 213.99 79.5775 214.105C79.6866 214.219 79.7593 214.364 79.7873 214.52C79.8153 214.676 79.7966 214.836 79.7341 214.982C79.6716 215.127 79.5677 215.251 79.4354 215.339C79.3032 215.426 79.1482 215.473 78.9895 215.473C78.7691 215.465 78.5602 215.371 78.4084 215.212C78.2562 215.052 78.1734 214.838 78.1779 214.618Z" fill="#4D61FC"/>
<path opacity="0.15" d="M79.4692 215.377C79.3304 215.488 79.1547 215.54 78.9782 215.523C78.8658 215.524 78.755 215.501 78.652 215.456C78.5489 215.412 78.4564 215.346 78.3801 215.264C78.3038 215.181 78.2454 215.084 78.2089 214.978C78.1719 214.872 78.1577 214.76 78.1666 214.648C78.1809 214.511 78.2247 214.379 78.2945 214.261C78.3647 214.143 78.4592 214.041 78.5724 213.963C78.4783 214.104 78.4199 214.265 78.402 214.433C78.3951 214.554 78.4122 214.675 78.4527 214.789C78.4929 214.903 78.5558 215.008 78.6378 215.098C78.7193 215.187 78.8179 215.26 78.9283 215.311C79.0383 215.361 79.1576 215.39 79.2785 215.394C79.311 215.357 79.3921 215.365 79.4692 215.377Z" fill="black"/>
<path opacity="0.15" d="M86.9347 246.692L84.2281 264.619H92.3438L91.3537 265.43L82.1992 266.443L86.6629 246.64C86.6758 246.61 86.6986 246.586 86.727 246.571C86.7554 246.556 86.7883 246.551 86.8199 246.557C86.8516 246.564 86.8799 246.58 86.901 246.605C86.9217 246.629 86.9335 246.66 86.9347 246.692Z" fill="black"/>
<path opacity="0.15" d="M80.1708 279.023L108.117 272.943L107.821 270.734L77.5819 274.925C67.8187 274.856 68.334 266.543 68.334 266.543L67.9283 268.821C67.9283 268.821 64.5034 282.731 80.1708 279.023Z" fill="black"/>
<path opacity="0.15" d="M57.8087 277.163L68.5741 243.887C68.2658 244.697 67.9857 245.508 67.7382 246.319L61.9112 259.872L52.5213 284.333C52.2129 288.212 55.6255 289.278 60.5802 288.545L61.3633 288.395C54.7085 287.527 57.8087 277.163 57.8087 277.163Z" fill="black"/>
<path opacity="0.15" d="M72.5516 245.312L68.7656 264.079" stroke="black" stroke-width="0.72" stroke-miterlimit="10"/>
<path d="M267.438 341.994V343.616H299.389V341.828L267.438 341.994Z" fill="black"/>
<path d="M298.675 338.199L275.703 338.779L284.866 332.261C285.609 331.742 286.217 331.053 286.643 330.255C287.07 329.456 287.305 328.569 287.325 327.665L287.731 320.369L300.197 320.414L298.675 338.199Z" fill="#956363"/>
<path opacity="0.15" d="M287.502 325.57L286.832 330.616L288.666 333.916L291.008 329.186C291.198 328.801 291.482 328.468 291.839 328.221C292.192 327.978 292.606 327.824 293.036 327.783L299.529 327.139L299.87 325.57H287.502Z" fill="black"/>
<path d="M267.438 341.994V341.504C267.437 341.119 267.513 340.733 267.661 340.377C267.809 340.016 268.026 339.692 268.301 339.42C268.575 339.145 268.9 338.93 269.258 338.78C269.616 338.634 270 338.557 270.388 338.557H274.498C275.367 338.565 276.203 338.229 276.823 337.621L287.325 327.666L290.571 331.95C290.827 332.287 291.156 332.558 291.529 332.749C291.906 332.939 292.32 333.04 292.742 333.053C293.164 333.061 293.578 332.972 293.964 332.797C294.345 332.623 294.686 332.364 294.954 332.039C295.218 331.727 295.546 331.476 295.916 331.298C296.285 331.119 296.686 331.022 297.096 331.014H299.288V341.816L267.438 341.994Z" fill="#3F4249"/>
<path d="M289.423 330.345L282.318 336.104C281.936 336.408 281.462 336.562 280.975 336.538C280.488 336.513 280.025 336.311 279.68 335.97L279.145 335.431L287.325 327.665C287.536 327.605 287.763 327.609 287.97 327.682C288.177 327.755 288.36 327.892 288.486 328.071L289.334 329.287C289.443 329.424 289.512 329.587 289.537 329.757C289.561 329.931 289.537 330.105 289.468 330.268L289.423 330.345Z" fill="black"/>
<path d="M281.291 332.4L284.464 335.388" stroke="white" stroke-width="1.45" stroke-linecap="round" stroke-linejoin="round"/>
<path d="M282.986 330.836L286.233 333.916" stroke="white" stroke-width="1.45" stroke-linecap="round" stroke-linejoin="round"/>
<path d="M284.73 329.363L287.948 332.399" stroke="white" stroke-width="1.45" stroke-linecap="round" stroke-linejoin="round"/>
<path opacity="0.3" d="M274.801 338.545L273.989 343.603H270.252L271.206 338.557L274.801 338.545Z" fill="black"/>
<path d="M271.032 338.199L248.064 338.779L257.223 332.261C257.966 331.742 258.575 331.053 259.002 330.255C259.43 329.456 259.663 328.569 259.682 327.665L260.088 320.369L272.554 320.414L271.032 338.199Z" fill="#956363"/>
<path opacity="0.15" d="M272.237 325.57H259.86L259.316 330.839L262.283 335.671L262.656 330.215C262.803 329.619 263.124 329.084 263.579 328.675C264.034 328.262 264.602 327.998 265.208 327.913L272.05 327.346L272.237 325.57Z" fill="black"/>
<path d="M239.795 341.994V341.504C239.795 340.721 240.106 339.971 240.659 339.42C241.212 338.869 241.963 338.557 242.745 338.557H246.856C247.724 338.565 248.561 338.229 249.181 337.621L259.682 327.666L262.929 331.95C263.184 332.287 263.511 332.558 263.886 332.749C264.262 332.939 264.676 333.04 265.096 333.053C265.517 333.061 265.935 332.972 266.318 332.797C266.701 332.623 267.039 332.364 267.307 332.039C267.572 331.727 267.9 331.472 268.27 331.298C268.64 331.119 269.044 331.022 269.454 331.014H271.641V341.816L239.795 341.994Z" fill="#3F4249"/>
<path d="M239.795 341.994V343.616H271.746V341.828L239.795 341.994Z" fill="black"/>
<path d="M261.779 330.345L254.657 336.104C254.279 336.408 253.801 336.562 253.316 336.538C252.83 336.513 252.37 336.311 252.024 335.97L251.488 335.431L259.665 327.665C259.877 327.605 260.102 327.609 260.31 327.682C260.518 327.755 260.698 327.892 260.825 328.071L261.673 329.287C261.784 329.42 261.854 329.587 261.878 329.757C261.902 329.931 261.878 330.109 261.807 330.268L261.779 330.345Z" fill="black"/>
<path d="M253.648 332.4L256.822 335.388" stroke="white" stroke-width="1.45" stroke-linecap="round" stroke-linejoin="round"/>
<path d="M255.348 330.836L258.594 333.916" stroke="white" stroke-width="1.45" stroke-linecap="round" stroke-linejoin="round"/>
<path d="M257.094 329.363L260.312 332.399" stroke="white" stroke-width="1.45" stroke-linecap="round" stroke-linejoin="round"/>
<path d="M308.664 205.494L300.085 325.691H286.398L284.99 244.307L298.892 206.329L308.664 205.494Z" fill="#4D61FC"/>
<path opacity="0.2" d="M298.889 206.329L284.986 244.307L286.394 325.691H289.486L291.069 248.997L303.648 224.734C306.44 219.992 308.169 212.575 308.169 212.575L308.676 205.498L298.889 206.329Z" fill="black"/>
<path d="M275.2 205.056L255.362 258.36C254.778 259.822 254.545 261.399 254.68 262.968L258.661 325.642H272.413L272.62 263.872L299.778 224.937C299.778 224.937 309.517 214.342 307.699 202.803L275.2 205.056Z" fill="#4D61FC"/>
<path opacity="0.2" d="M280.585 207.529L274.811 206.037L255.362 258.36C254.778 259.822 254.545 261.4 254.68 262.968L258.661 325.642H262.662L258.839 262.794C258.739 261.609 258.936 260.418 259.411 259.328L280.585 207.529Z" fill="black"/>
<path d="M304.53 110.238L304.124 118.826L305.605 132.425L291.768 134.857L291.18 126.373L287.771 126.961C287.657 126.985 287.54 127.01 287.422 127.026C285.207 127.346 283.896 127.229 283.17 123.723L282.553 119.459L281.165 118.916L281.088 118.879C280.905 118.776 280.771 118.607 280.71 118.407C280.65 118.207 280.67 117.991 280.763 117.805L282.666 114.303V114.1L282.504 113.606C281.834 111.525 281.757 109.3 282.277 107.178C283.088 104.166 285.523 101.033 288.542 100.287L290.916 99.7076C292.742 99.2617 296.013 99.1888 297.684 100.044L299.441 100.944C302.055 102.281 304.197 106.055 304.498 108.933C304.542 109.366 304.554 109.802 304.53 110.238Z" fill="#956363"/>
<path d="M304.112 118.825L304.518 110.236C304.542 109.801 304.534 109.365 304.493 108.931C304.193 106.053 302.059 102.28 299.437 100.942L297.847 100.131C296.081 99.2316 292.657 99.2843 290.729 99.7544L288.538 100.289C286.123 100.881 284.119 103.281 282.979 105.421L288.388 105.826C288.668 105.89 288.927 106.033 289.126 106.238C289.329 106.444 289.467 106.703 289.528 106.985L289.763 108.051C290.035 109.462 291.054 110.078 292.49 110.248L293.923 110.341L294.227 114.917C294.251 115.096 294.341 115.261 294.474 115.381C294.608 115.502 294.779 115.572 294.961 115.578C295.059 115.578 295.152 115.56 295.241 115.524C295.331 115.487 295.412 115.434 295.481 115.366C295.55 115.298 295.607 115.218 295.643 115.129C295.68 115.04 295.7 114.945 295.7 114.848V113.868L299.092 114.273L299.563 117.021C300.695 119.238 304.091 119.502 304.193 119.51L304.112 118.825Z" fill="#868A91"/>
<path opacity="0.15" d="M291.309 129.327L294.227 126.417C294.283 126.349 294.32 126.268 294.336 126.182C294.352 126.095 294.348 126.006 294.32 125.923C294.3 125.857 294.263 125.797 294.218 125.745C294.174 125.694 294.121 125.651 294.06 125.621C293.999 125.59 293.93 125.572 293.865 125.568C293.796 125.563 293.727 125.572 293.662 125.594L291.195 126.336L291.309 129.327Z" fill="black"/>
<path opacity="0.15" d="M301.552 118.936L298.439 118.502C298.874 118.063 299.251 117.57 299.559 117.035C299.746 117.47 300.018 117.863 300.359 118.19C300.704 118.517 301.11 118.771 301.552 118.936Z" fill="black"/>
<path d="M285.069 114.501C285.073 114.002 284.708 113.594 284.258 113.59C283.803 113.586 283.434 113.987 283.43 114.486C283.426 114.985 283.787 115.394 284.241 115.398C284.692 115.402 285.065 115 285.069 114.501Z" fill="#21252B"/>
<path d="M283.77 114.23C283.839 114.23 283.892 114.175 283.892 114.108C283.892 114.041 283.839 113.986 283.77 113.986C283.701 113.986 283.648 114.041 283.648 114.108C283.648 114.175 283.701 114.23 283.77 114.23Z" fill="white"/>
<path d="M295.643 119.458L295.691 114.051C295.699 113.476 295.935 112.928 296.345 112.524C296.754 112.121 297.306 111.896 297.883 111.898C298.459 111.906 299.007 112.14 299.412 112.55C299.814 112.96 300.041 113.512 300.037 114.087V115.153C300.033 115.723 299.915 116.287 299.692 116.812C299.469 117.337 299.145 117.812 298.739 118.212C298.333 118.612 297.85 118.927 297.323 119.141C296.791 119.355 296.227 119.462 295.655 119.458H295.643Z" fill="#956363"/>
<g opacity="0.3">
<path opacity="0.3" d="M296.508 115.202V114.302C296.516 113.922 296.67 113.561 296.942 113.295C297.214 113.029 297.575 112.88 297.956 112.879C298.167 112.875 298.374 112.919 298.565 113.006C298.751 113.093 298.922 113.221 299.056 113.382L299.084 113.418C299.113 113.452 299.129 113.492 299.141 113.533C299.153 113.575 299.153 113.618 299.145 113.661C299.141 113.704 299.125 113.745 299.105 113.781C299.08 113.818 299.052 113.85 299.015 113.875C298.979 113.9 298.938 113.917 298.898 113.926C298.857 113.935 298.812 113.936 298.768 113.928C298.727 113.919 298.687 113.903 298.65 113.879C298.614 113.854 298.585 113.823 298.561 113.787C298.488 113.693 298.394 113.617 298.289 113.567C298.179 113.516 298.062 113.491 297.944 113.495C297.729 113.495 297.522 113.58 297.372 113.732C297.218 113.885 297.132 114.091 297.132 114.306V115.21C297.128 115.295 297.088 115.375 297.027 115.435C296.966 115.495 296.885 115.53 296.8 115.534C296.755 115.541 296.71 115.538 296.67 115.523C296.629 115.508 296.589 115.483 296.56 115.449C296.532 115.416 296.512 115.376 296.503 115.332C296.491 115.289 296.495 115.244 296.508 115.202Z" fill="#21252B"/>
</g>
<path d="M282.744 121.107C283.442 121.057 284.124 120.901 284.773 120.645C284.81 120.63 284.846 120.627 284.883 120.636C284.919 120.646 284.952 120.667 284.976 120.697C284.996 120.728 285.008 120.765 285.008 120.802C285.008 120.84 284.992 120.876 284.968 120.905C284.432 121.573 283.718 122.078 282.911 122.364L282.744 121.107Z" fill="white"/>
<path d="M286.165 111.874C283.913 110.767 282.809 111.55 282.809 111.55L282.744 111.801C282.744 111.801 284.838 111.521 285.958 112.028L286.165 111.874Z" fill="#868A91"/>
<path d="M248.001 135.76C248.001 135.76 247.149 131.524 247.088 130.167C247.043 129.125 243.874 126.9 242.405 125.927C242.32 125.87 242.222 125.834 242.12 125.82C242.018 125.807 241.914 125.818 241.817 125.851C241.719 125.885 241.631 125.94 241.559 126.013C241.486 126.086 241.431 126.174 241.399 126.272C241.36 126.39 241.355 126.516 241.384 126.637C241.412 126.758 241.474 126.868 241.561 126.957L244.11 129.502C244.11 129.502 244.333 130.24 243.704 130.033C243.075 129.826 236.282 125.335 236.282 125.335C234.829 124.375 234.371 125.291 234.371 125.291C234.371 125.291 233.397 124.602 232.869 125.218C232.533 125.623 233.19 126.677 233.19 126.677C233.19 126.677 232.273 125.761 231.506 126.304C230.739 126.847 232.37 128.614 232.37 128.614C231.859 129.806 234.943 133.251 235.738 134.2C236.534 135.148 244.844 141.82 244.844 141.82L249.506 137.71L248.001 135.76Z" fill="#956363"/>
<g opacity="0.15">
<path opacity="0.15" d="M240.942 130.884C240.546 130.726 240.169 130.52 239.822 130.272C238.958 129.716 238.134 129.099 237.359 128.424C236.581 127.754 235.844 127.038 235.151 126.28C234.845 125.981 234.573 125.649 234.34 125.291C234.667 125.561 234.975 125.853 235.261 126.166C235.821 126.718 236.596 127.472 237.501 128.25C238.406 129.028 239.266 129.685 239.903 130.135C240.265 130.362 240.612 130.613 240.942 130.884Z" fill="black"/>
</g>
<g opacity="0.15">
<path opacity="0.15" d="M239.368 132.416C239.018 132.208 238.689 131.968 238.386 131.698C237.797 131.228 236.994 130.567 236.142 129.797C235.289 129.027 234.559 128.282 234.056 127.718C233.765 127.431 233.509 127.111 233.293 126.766C233.607 127.025 233.901 127.306 234.174 127.609C234.705 128.14 235.448 128.857 236.296 129.635L238.491 131.581C238.809 131.831 239.102 132.111 239.368 132.416Z" fill="black"/>
</g>
<g opacity="0.15">
<path opacity="0.15" d="M237.525 133.77C237.194 133.626 236.884 133.436 236.604 133.207C235.902 132.692 235.244 132.12 234.636 131.496C234.028 130.874 233.461 130.212 232.94 129.514C232.706 129.24 232.508 128.937 232.348 128.614C232.404 128.57 233.391 129.887 234.803 131.334C235.404 131.95 236.037 132.533 236.702 133.081C236.993 133.29 237.269 133.52 237.525 133.77Z" fill="black"/>
</g>
<path d="M310.604 150.303L307.154 184.472C307.154 184.472 307.073 184.305 309.678 196.441C310.449 200.036 309.561 205.52 309.561 205.52L272.635 208.081C272.635 208.081 274.258 165 276.449 157.591C279.569 147.134 290.611 134.986 290.611 134.986L290.761 132.773C290.773 132.634 290.834 132.503 290.935 132.407C291.037 132.31 291.171 132.256 291.313 132.255L305.921 131.971C306.059 131.968 306.193 132.015 306.294 132.104C306.4 132.193 306.469 132.317 306.485 132.453L306.891 135.29C306.891 135.29 312.592 141.747 310.604 150.303Z" fill="#3F4249"/>
<path opacity="0.3" d="M279.346 164.765C286.606 163.651 296.827 158.568 296.827 158.568L276.506 157.396C276.506 157.457 276.469 157.518 276.449 157.579C274.242 164.988 272.635 208.069 272.635 208.069L280.584 207.518L279.192 195.695C278.368 188.663 278.194 181.569 278.681 174.505L279.346 164.765Z" fill="black"/>
<path opacity="0.3" d="M284.093 143.303C288.744 142.375 293.065 141.37 297.773 140.794L303.961 140.332L282.166 146.006L284.093 143.303Z" fill="black"/>
<path d="M268.625 162.868L295.095 158.896C298.994 158.314 302.728 156.92 306.051 154.806C306.656 154.423 307.179 153.924 307.589 153.339C307.999 152.753 308.291 152.092 308.445 151.393C309.001 148.868 309.52 144.908 307.865 143.137C305.325 140.426 305.373 139.566 303.198 139.299L271.218 149.63L247.719 133.912L242.107 140.58L263.646 160.513C264.179 161.326 264.925 161.976 265.804 162.391C266.683 162.807 267.659 162.972 268.625 162.868Z" fill="#3F4249"/>
<g opacity="0.3">
<path opacity="0.3" d="M308.457 152.224C308.473 152.178 308.485 152.13 308.494 152.082C308.518 151.957 308.546 151.823 308.579 151.677C308.644 151.324 308.737 150.814 308.826 150.173C309.098 148.508 309.058 146.807 308.696 145.159C308.295 143.5 307.305 142.045 305.905 141.066C305.479 140.78 305.004 140.567 304.509 140.433C304.33 140.384 304.148 140.35 303.961 140.332C304.635 140.489 305.272 140.764 305.848 141.143C307.207 142.126 308.173 143.564 308.567 145.196C308.92 146.827 308.976 148.509 308.733 150.161C308.656 150.797 308.579 151.312 308.526 151.669C308.526 151.815 308.485 151.948 308.465 152.074C308.445 152.2 308.449 152.22 308.457 152.224Z" fill="black"/>
</g>
<g opacity="0.3">
<path opacity="0.3" d="M269.21 154.684C269.239 154.613 269.257 154.538 269.263 154.462C269.299 154.267 269.336 154.056 269.381 153.845C269.653 152.495 270.177 151.208 270.927 150.052L271.276 149.525C271.326 149.465 271.367 149.398 271.397 149.326C271.334 149.378 271.278 149.438 271.231 149.505C271.087 149.667 270.951 149.838 270.825 150.015C270.428 150.583 270.094 151.194 269.831 151.835C269.573 152.473 269.386 153.138 269.275 153.817C269.235 154.081 269.21 154.295 269.202 154.445C269.194 154.525 269.196 154.605 269.21 154.684Z" fill="black"/>
</g>
<path opacity="0.3" d="M291.18 134.859C291.18 134.859 302.051 133.299 306.466 135.094" stroke="black" stroke-width="0.69" stroke-miterlimit="10"/>
<path opacity="0.15" d="M284.232 119.178C284.232 119.178 286.188 120.017 286.748 121.966" stroke="black" stroke-width="0.69" stroke-miterlimit="10" stroke-linecap="round"/>
<path d="M280.678 170.718C280.605 170.747 280.305 170.163 280.005 169.417C279.705 168.672 279.53 168.035 279.599 168.007C279.668 167.978 279.972 168.562 280.269 169.312C280.565 170.062 280.751 170.69 280.678 170.718Z" fill="#FAFAFA"/>
<path d="M285.548 181.257C285.474 181.286 285.174 180.702 284.874 179.956C284.574 179.211 284.399 178.574 284.468 178.546C284.537 178.518 284.841 179.101 285.138 179.851C285.434 180.601 285.621 181.229 285.548 181.257Z" fill="#FAFAFA"/>
<path d="M284.021 164.622C283.952 164.589 284.151 163.965 284.472 163.227C284.792 162.49 285.109 161.914 285.182 161.947C285.255 161.979 285.052 162.599 284.736 163.341C284.419 164.083 284.095 164.654 284.021 164.622Z" fill="#FAFAFA"/>
<path d="M287.268 156.516C287.199 156.484 287.397 155.86 287.718 155.122C288.039 154.384 288.355 153.809 288.428 153.841C288.501 153.874 288.298 154.494 287.982 155.235C287.665 155.977 287.341 156.549 287.268 156.516Z" fill="#FAFAFA"/>
<path d="M249.936 144.356C249.867 144.324 250.065 143.699 250.386 142.962C250.707 142.224 251.023 141.649 251.096 141.681C251.169 141.713 250.966 142.334 250.65 143.075C250.333 143.817 250.009 144.389 249.936 144.356Z" fill="#FAFAFA"/>
<path d="M287.892 171.042C287.847 170.981 288.334 170.539 288.979 170.057C289.624 169.575 290.196 169.246 290.237 169.303C290.278 169.36 289.799 169.806 289.149 170.288C288.5 170.771 287.932 171.107 287.892 171.042Z" fill="#FAFAFA"/>
<path d="M275.906 178.403C275.837 178.371 276.036 177.746 276.357 177.009C276.677 176.271 276.994 175.695 277.067 175.728C277.14 175.76 276.937 176.38 276.62 177.122C276.304 177.864 275.979 178.435 275.906 178.403Z" fill="#FAFAFA"/>
<path d="M295.453 176.863C295.416 176.794 295.984 176.457 296.715 176.125C297.445 175.793 298.07 175.57 298.103 175.643C298.135 175.716 297.567 176.048 296.837 176.385C296.106 176.721 295.485 176.924 295.453 176.863Z" fill="#FAFAFA"/>
<path d="M276.62 197.47C276.547 197.499 276.246 196.915 275.946 196.169C275.646 195.424 275.471 194.787 275.54 194.759C275.609 194.73 275.914 195.314 276.21 196.064C276.506 196.814 276.693 197.442 276.62 197.47Z" fill="#FAFAFA"/>
<path d="M278.966 187.255C278.921 187.194 279.408 186.752 280.053 186.27C280.698 185.788 281.271 185.459 281.311 185.516C281.352 185.573 280.873 186.019 280.224 186.501C279.574 186.983 279.006 187.32 278.966 187.255Z" fill="#FAFAFA"/>
<path d="M286.525 193.076C286.489 193.007 287.057 192.67 287.787 192.338C288.518 192.006 289.142 191.783 289.175 191.856C289.207 191.929 288.639 192.261 287.909 192.597C287.178 192.934 286.558 193.136 286.525 193.076Z" fill="#FAFAFA"/>
<path d="M278.814 205.64C278.778 205.571 279.346 205.235 280.076 204.902C280.807 204.57 281.431 204.347 281.464 204.42C281.496 204.493 280.928 204.825 280.198 205.162C279.467 205.498 278.847 205.701 278.814 205.64Z" fill="#FAFAFA"/>
<path d="M294.83 187.02C294.765 187.065 294.339 186.562 293.881 185.902C293.422 185.241 293.106 184.686 293.171 184.621C293.235 184.556 293.657 185.075 294.116 185.739C294.575 186.404 294.911 186.976 294.83 187.02Z" fill="#FAFAFA"/>
<path d="M299.916 158.624C299.879 158.556 300.447 158.219 301.178 157.887C301.908 157.554 302.533 157.332 302.566 157.404C302.598 157.477 302.03 157.81 301.299 158.146C300.569 158.483 299.948 158.685 299.916 158.624Z" fill="#FAFAFA"/>
<path d="M299.295 168.782C299.23 168.826 298.804 168.324 298.346 167.663C297.887 167.003 297.57 166.447 297.635 166.382C297.7 166.318 298.122 166.836 298.581 167.501C299.039 168.166 299.376 168.737 299.295 168.782Z" fill="#FAFAFA"/>
<path d="M275.76 153.38C275.695 153.424 275.269 152.922 274.81 152.261C274.352 151.6 274.035 151.045 274.1 150.98C274.165 150.915 274.587 151.434 275.046 152.099C275.504 152.763 275.841 153.335 275.76 153.38Z" fill="#FAFAFA"/>
<path d="M286.931 204.019C286.895 203.95 287.463 203.614 288.193 203.281C288.924 202.949 289.549 202.726 289.581 202.799C289.614 202.872 289.045 203.204 288.315 203.541C287.585 203.877 286.964 204.08 286.931 204.019Z" fill="#FAFAFA"/>
<path d="M295.236 197.964C295.172 198.008 294.745 197.506 294.287 196.845C293.828 196.184 293.512 195.629 293.577 195.564C293.642 195.499 294.064 196.018 294.522 196.683C294.981 197.347 295.318 197.919 295.236 197.964Z" fill="#FAFAFA"/>
<path d="M302.106 184.256C302.131 184.183 302.772 184.321 303.539 184.572C304.306 184.823 304.906 185.083 304.882 185.156C304.857 185.229 304.216 185.091 303.449 184.844C302.682 184.596 302.082 184.333 302.106 184.256Z" fill="#FAFAFA"/>
<path d="M304.948 166.828C304.972 166.755 305.613 166.893 306.38 167.144C307.147 167.396 307.748 167.655 307.724 167.728C307.699 167.801 307.058 167.663 306.291 167.416C305.524 167.169 304.924 166.905 304.948 166.828Z" fill="#FAFAFA"/>
<path d="M263.964 157.1C263.988 157.027 264.63 157.164 265.396 157.416C266.163 157.667 266.764 157.926 266.74 157.999C266.715 158.072 266.074 157.935 265.307 157.687C264.54 157.44 263.939 157.177 263.964 157.1Z" fill="#FAFAFA"/>
<path d="M290.582 139.169C290.545 139.101 291.113 138.764 291.844 138.432C292.574 138.099 293.199 137.876 293.232 137.949C293.264 138.022 292.696 138.355 291.965 138.691C291.235 139.028 290.614 139.23 290.582 139.169Z" fill="#FAFAFA"/>
<path d="M295.614 147.373C295.638 147.3 296.279 147.438 297.046 147.689C297.813 147.94 298.414 148.2 298.39 148.273C298.365 148.346 297.724 148.208 296.957 147.961C296.19 147.713 295.59 147.45 295.614 147.373Z" fill="#FAFAFA"/>
<path d="M259.094 146.156C259.119 146.083 259.76 146.221 260.527 146.472C261.294 146.724 261.895 146.983 261.87 147.056C261.846 147.129 261.205 146.991 260.438 146.744C259.671 146.497 259.07 146.233 259.094 146.156Z" fill="#FAFAFA"/>
<path d="M303.729 138.051C303.754 137.978 304.395 138.116 305.162 138.367C305.929 138.618 306.529 138.878 306.505 138.951C306.48 139.023 305.839 138.886 305.072 138.638C304.305 138.391 303.705 138.128 303.729 138.051Z" fill="#FAFAFA"/>
<path d="M302.106 204.117C302.131 204.044 302.772 204.182 303.539 204.433C304.306 204.685 304.906 204.944 304.882 205.017C304.857 205.09 304.216 204.952 303.449 204.705C302.682 204.458 302.082 204.194 302.106 204.117Z" fill="#FAFAFA"/>
<path d="M304.977 193.092C305.054 193.113 304.977 193.761 304.762 194.539C304.547 195.317 304.356 195.942 304.267 195.921C304.177 195.901 304.267 195.253 304.482 194.47C304.697 193.688 304.9 193.072 304.977 193.092Z" fill="#FAFAFA"/>
</svg>
