<svg width="379" height="366" viewBox="0 0 379 366" fill="none" xmlns="http://www.w3.org/2000/svg">
<path d="M363.792 227.218C363.792 344.307 295.797 348.279 199.538 348.279C103.28 348.279 15.209 344.307 15.209 227.218C15.209 110.129 93.2419 15.209 189.5 15.209C285.759 15.209 363.792 110.129 363.792 227.218Z" fill="#E2EAFF"/>
<path d="M377.5 231.177C377.5 262.965 372.896 286.937 364.454 305.032C356.028 323.092 343.747 335.366 328.241 343.738C312.699 352.13 293.861 356.63 272.305 359.02C250.75 361.411 226.583 361.683 200.414 361.683C148.005 361.683 98.2547 360.575 61.5873 343.696C43.3138 335.284 28.3301 322.967 17.8958 304.915C7.45108 286.845 1.5 262.914 1.5 231.177C1.5 104.037 85.9355 1.5 189.5 1.5C293.064 1.5 377.5 104.037 377.5 231.177Z" stroke="#4364C8" stroke-width="3"/>
<path d="M336.422 181.198H185.84C182.582 181.198 179.928 178.549 179.928 175.298V87.1133C179.928 83.862 182.582 81.2129 185.84 81.2129H336.422C339.679 81.2129 342.334 83.862 342.334 87.1133V175.298C342.334 178.589 339.679 181.198 336.422 181.198Z" fill="#B1C3F8"/>
<path opacity="0.5" d="M336.422 181.198H185.84C182.582 181.198 179.928 178.549 179.928 175.298V87.1133C179.928 83.862 182.582 81.2129 185.84 81.2129H336.422C339.679 81.2129 342.334 83.862 342.334 87.1133V175.298C342.334 178.589 339.679 181.198 336.422 181.198Z" fill="black"/>
<path d="M332.438 181.198H181.817C178.559 181.198 175.904 178.549 175.904 175.298V87.1133C175.904 83.862 178.559 81.2129 181.817 81.2129H332.438C335.696 81.2129 338.351 83.862 338.351 87.1133V175.298C338.351 178.589 335.696 181.198 332.438 181.198Z" fill="#B1C3F8"/>
<path opacity="0.7" d="M332.438 181.198H181.817C178.559 181.198 175.904 178.549 175.904 175.298V87.1133C175.904 83.862 178.559 81.2129 181.817 81.2129H332.438C335.696 81.2129 338.351 83.862 338.351 87.1133V175.298C338.351 178.589 335.696 181.198 332.438 181.198Z" fill="#ED1D24"/>
<path d="M260.043 134.035H259.037V181.238H260.043V134.035Z" fill="white"/>
<path d="M261.05 134.154H260.045V181.197H261.05V134.154Z" fill="#E6E6E6"/>
<path d="M321.056 134.035H320.051V181.238H321.056V134.035Z" fill="white"/>
<path d="M322.06 134.154H321.055V181.197H322.06V134.154Z" fill="#E6E6E6"/>
<path d="M330.026 131.307H254.775V135.16H330.026V131.307Z" fill="#E6E6E6"/>
<path d="M320.574 135.16H287.434V141.582H320.574V135.16Z" fill="white"/>
<path d="M305.493 137.929C305.493 138.33 305.171 138.651 304.769 138.651C304.367 138.651 304.045 138.33 304.045 137.929C304.045 137.527 304.367 137.206 304.769 137.206C305.171 137.166 305.493 137.527 305.493 137.929Z" fill="#E1E1E1"/>
<path d="M227.787 95.1816H188.814V181.239H227.787V95.1816Z" fill="#E6E6E6"/>
<path d="M227.789 95.1816H190.666V181.239H227.789V95.1816Z" fill="white"/>
<path d="M225.817 97.1074H192.596V179.231H225.817V97.1074Z" fill="#E6E6E6"/>
<path d="M218.615 136.884H221.39C222.155 136.884 222.758 136.282 222.758 135.519C222.758 134.756 222.114 134.154 221.39 134.154H218.615C217.851 134.154 217.248 134.756 217.248 135.519C217.208 136.282 217.851 136.884 218.615 136.884Z" fill="white"/>
<path d="M225.816 97.1074H225.293V179.231H225.816V97.1074Z" fill="#F0F0F0"/>
<path d="M255.257 93.1348C267.886 93.1348 278.142 103.37 278.142 115.974V137.729C278.142 140.177 276.131 142.184 273.677 142.184H240.818L238.847 136.043L236.876 142.184C234.423 142.184 232.412 140.177 232.412 137.729V115.974C232.412 103.37 242.628 93.1348 255.257 93.1348Z" fill="#2F2E41"/>
<path d="M256.544 133.151L255.659 133.191C249.103 133.472 243.593 128.415 243.352 121.912L242.668 105.375C242.547 103.207 244.277 101.401 246.449 101.281L261.973 100.598C264.789 100.478 267.202 102.686 267.323 105.495L267.966 120.869C268.127 127.371 263.059 132.87 256.544 133.151Z" fill="#906363"/>
<path d="M246.772 118.783L246.249 137.969C246.209 139.535 245.123 140.859 243.635 141.261L241.463 141.863L246.49 144.913C251.478 148.004 257.671 148.526 263.061 146.479C264.066 146.117 264.991 145.636 265.916 145.074L270.702 142.224L268.852 142.023C266.882 141.301 266.52 139.535 266.359 138.17L263.865 115.371L246.772 118.783Z" fill="#906363"/>
<path opacity="0.3" d="M247.335 130.463C247.536 130.423 247.576 130.503 247.697 130.624C249.225 131.828 251.558 133.353 255.62 133.233C261.049 133.112 264.146 130.102 265.232 128.777L265.594 132.109C264.87 132.631 263.463 133.554 261.974 133.474C260.567 133.393 259.561 133.193 259.561 133.193C258.355 133.634 256.947 133.915 255.298 133.915C251.115 133.915 248.501 132.35 247.093 131.146C246.973 131.025 246.892 130.824 247.013 130.664C247.093 130.584 247.214 130.463 247.335 130.463Z" fill="black"/>
<path d="M243.232 122.275C243.232 122.275 238.124 122.476 237.24 117.459C236.355 112.401 242.629 111.679 243.313 116.776L243.675 122.315L243.232 122.275Z" fill="#906363"/>
<path opacity="0.15" d="M238.887 114.849C239.45 114.487 239.973 114.407 240.415 114.487C240.898 114.608 241.3 114.929 241.582 115.491C241.903 116.053 242.105 116.775 242.064 117.498V118.02C242.064 118.421 241.381 118.501 241.381 118.02C241.34 117.418 241.34 117.418 241.34 117.418C241.381 117.217 241.26 116.294 240.938 115.772C240.697 115.37 240.456 115.13 240.134 115.049C239.852 114.969 239.49 115.09 239.088 115.29C238.927 115.37 238.726 115.33 238.605 115.17C238.686 115.13 238.766 114.929 238.887 114.849Z" fill="black"/>
<path d="M241.904 121.433C242.467 121.433 242.909 120.991 242.909 120.429C242.909 119.867 242.467 119.426 241.904 119.426C241.341 119.426 240.898 119.867 240.898 120.429C240.898 120.991 241.341 121.433 241.904 121.433Z" fill="#B1C3F8"/>
<path opacity="0.15" d="M242.227 121.311C241.624 121.271 241.142 120.789 241.142 120.187C241.182 119.986 241.222 119.786 241.343 119.625C241.101 119.786 240.9 120.107 240.86 120.428C240.82 120.99 241.262 121.431 241.825 121.471C242.026 121.512 242.268 121.431 242.429 121.311C242.388 121.311 242.268 121.271 242.227 121.311Z" fill="black"/>
<path d="M267.605 122.275C267.605 122.275 272.712 122.476 273.597 117.459C274.482 112.401 268.208 111.679 267.524 116.776L267.162 122.315L267.605 122.275Z" fill="#906363"/>
<path opacity="0.15" d="M271.909 114.849C271.346 114.487 270.823 114.407 270.381 114.487C269.898 114.608 269.496 114.929 269.214 115.491C268.893 116.053 268.691 116.775 268.732 117.498V118.02C268.732 118.421 269.415 118.501 269.415 118.02C269.456 117.418 269.456 117.418 269.456 117.418C269.415 117.217 269.536 116.294 269.858 115.772C270.099 115.37 270.34 115.13 270.662 115.049C270.944 114.969 271.306 115.09 271.708 115.29C271.869 115.37 272.07 115.33 272.191 115.17C272.15 115.13 272.07 114.929 271.909 114.849Z" fill="black"/>
<path d="M268.892 121.433C269.455 121.433 269.898 120.991 269.898 120.429C269.898 119.867 269.455 119.426 268.892 119.426C268.329 119.426 267.887 119.867 267.887 120.429C267.887 120.991 268.329 121.433 268.892 121.433Z" fill="#B1C3F8"/>
<path opacity="0.15" d="M268.568 121.311C269.172 121.271 269.654 120.789 269.654 120.187C269.614 119.986 269.574 119.786 269.453 119.625C269.694 119.786 269.896 120.107 269.936 120.428C269.976 120.99 269.534 121.431 268.97 121.471C268.769 121.512 268.528 121.431 268.367 121.311C268.448 121.311 268.528 121.271 268.568 121.311Z" fill="black"/>
<path d="M268.168 100.961L257.952 96.9869L252.16 96.7461C247.696 97.4285 242.427 99.5558 241.422 103.971L241.945 109.992H248.943L250.914 105.456V110.032H254.131L256.022 102.606L257.268 110.032H268.65L268.168 100.961Z" fill="#2F2E41"/>
<path d="M249.787 119.827C250.511 119.827 251.074 119.265 251.074 118.542C251.074 117.82 250.511 117.258 249.787 117.258C249.063 117.258 248.5 117.82 248.5 118.542C248.5 119.265 249.103 119.827 249.787 119.827Z" fill="#21252B"/>
<path d="M250.311 118.542C250.472 118.542 250.592 118.422 250.592 118.261C250.592 118.101 250.472 117.98 250.311 117.98C250.15 117.98 250.029 118.101 250.029 118.261C250.07 118.422 250.19 118.542 250.311 118.542Z" fill="white"/>
<path d="M259.762 119.827C260.486 119.827 261.049 119.265 261.049 118.542C261.049 117.82 260.486 117.258 259.762 117.258C259.038 117.258 258.475 117.82 258.475 118.542C258.475 119.265 259.078 119.827 259.762 119.827Z" fill="#21252B"/>
<path d="M260.285 118.501C260.446 118.501 260.567 118.381 260.567 118.22C260.567 118.06 260.446 117.939 260.285 117.939C260.125 117.939 260.004 118.06 260.004 118.22C260.044 118.381 260.165 118.501 260.285 118.501Z" fill="white"/>
<path d="M260.888 112.722C259.279 112.883 257.912 113.726 257.067 114.97C255.619 114.488 254.413 114.809 253.85 115.01C252.885 113.405 251.075 112.401 249.064 112.562C246.248 112.762 244.117 115.291 244.318 118.101C244.519 120.911 247.053 123.038 249.868 122.837C252.683 122.637 254.815 120.108 254.614 117.298C254.574 116.696 254.413 116.174 254.172 115.652C254.654 115.492 255.66 115.291 256.746 115.612C256.303 116.415 256.142 117.378 256.223 118.342C256.424 121.151 258.958 123.279 261.773 123.078C264.588 122.877 266.72 120.349 266.519 117.539C266.278 114.689 263.784 112.562 260.888 112.722ZM249.908 122.155C247.455 122.356 245.323 120.509 245.122 118.061C244.921 115.612 246.771 113.485 249.225 113.284C251.678 113.084 253.81 114.93 254.011 117.378C254.172 119.787 252.322 121.994 249.908 122.155ZM261.693 122.356C259.239 122.556 257.108 120.71 256.907 118.261C256.705 115.813 258.556 113.686 261.009 113.485C263.462 113.284 265.594 115.131 265.795 117.579C266.036 120.028 264.146 122.155 261.693 122.356Z" fill="white"/>
<path opacity="0.3" d="M255.418 124.201H254.252C254.051 124.201 253.85 124 253.85 123.799C253.85 123.599 254.051 123.398 254.252 123.398H255.418C255.901 123.398 256.263 123.037 256.263 122.555C256.263 122.073 255.901 121.672 255.418 121.672C255.217 121.672 255.016 121.471 255.016 121.271C255.016 121.07 255.217 120.869 255.418 120.869C256.343 120.869 257.067 121.632 257.067 122.515C257.067 123.478 256.343 124.241 255.418 124.201Z" fill="black"/>
<path d="M251.919 125.646L258.837 125.525C258.998 125.525 259.159 125.686 259.078 125.887C257.872 129.379 253.045 129.459 251.678 126.047V126.007C251.637 125.846 251.758 125.646 251.919 125.646Z" fill="white"/>
<path d="M257.147 169.076L241.461 142.424L231.085 144.551C226.258 145.675 223.202 150.492 223.443 155.549L231.929 165.102C231.929 165.102 233.619 172.167 234.503 181.198H256.423L257.147 169.076Z" fill="#21242B"/>
<path d="M286.47 146.398L274.444 143.348L257.23 166.708L256.426 181.198H278.667C281.161 166.949 286.47 146.398 286.47 146.398Z" fill="#21242B"/>
<path opacity="0.15" d="M257.229 167.59L258.758 164.299L258.597 173.21H256.867L257.229 167.59Z" fill="black"/>
<path d="M234.463 181.2H235.147L237.078 160.769L237.721 143.229L228.752 144.995C224.972 145.918 222.237 149.249 222.076 153.143L221.151 174.376L220.869 181.2H233.377L233.739 173.854L234.463 181.2Z" fill="#21242B"/>
<path d="M293.064 175.5L292.139 154.266C291.978 150.373 289.243 147.081 285.463 146.118L274.402 143.389L278.263 162.013L280.475 181.239H293.346L293.064 175.5Z" fill="#21242B"/>
<path d="M237.721 143.229L245.644 140.299L257.267 147.765L250.913 157.839L237.721 143.229Z" fill="#FBFBFB"/>
<path d="M274.401 143.388L266.518 140.057L257.268 147.763L264.427 157.838L274.401 143.388Z" fill="#FBFBFB"/>
<path d="M237.721 143.229L256.584 177.266L274.401 143.389L264.426 157.879L257.267 147.764L250.913 157.839L237.721 143.229Z" fill="#FBFBFB"/>
<path opacity="0.15" d="M257.268 147.763L264.427 157.436L274.361 143.428L263.984 161.289L257.268 147.763Z" fill="black"/>
<path opacity="0.15" d="M257.268 147.764L250.913 157.839L237.762 143.229L251.999 161.933L257.268 147.764Z" fill="black"/>
<path opacity="0.15" d="M258.313 174.014L256.584 177.265L256.383 181.198H257.911L258.313 174.014Z" fill="black"/>
<path d="M336.422 181.198H185.84C182.582 181.198 179.928 178.549 179.928 175.298V159.684H342.374V175.298C342.334 178.589 339.679 181.198 336.422 181.198Z" fill="#61656D"/>
<path opacity="0.5" d="M336.422 181.198H185.84C182.582 181.198 179.928 178.549 179.928 175.298V159.684H342.374V175.298C342.334 178.589 339.679 181.198 336.422 181.198Z" fill="black"/>
<path d="M332.438 181.198H181.817C178.559 181.198 175.904 178.549 175.904 175.298V159.684H338.351V175.298C338.351 178.589 335.696 181.198 332.438 181.198Z" fill="#61656D"/>
<path d="M266.721 175.538C269.858 175.538 272.432 172.969 272.432 169.838C272.432 166.708 269.858 164.139 266.721 164.139C263.584 164.139 261.01 166.708 261.01 169.838C261.01 173.009 263.544 175.538 266.721 175.538Z" fill="#B1C3F8"/>
<path opacity="0.5" d="M266.721 175.538C269.858 175.538 272.432 172.969 272.432 169.838C272.432 166.708 269.858 164.139 266.721 164.139C263.584 164.139 261.01 166.708 261.01 169.838C261.01 173.009 263.544 175.538 266.721 175.538Z" fill="white"/>
<path d="M264.468 172.77C264.588 172.89 264.789 172.89 264.91 172.77L269.575 168.074C269.696 167.913 269.696 167.712 269.575 167.592L268.932 166.95C268.811 166.829 268.57 166.829 268.449 166.95L264.749 170.683L263.784 171.646C263.663 171.766 263.663 171.967 263.784 172.087L264.468 172.77Z" fill="white"/>
<path d="M268.972 172.77C268.851 172.89 268.65 172.89 268.529 172.77L263.864 168.074C263.743 167.913 263.743 167.712 263.864 167.592L264.507 166.95C264.668 166.829 264.869 166.829 264.99 166.95L268.69 170.683L269.656 171.646C269.776 171.766 269.776 171.967 269.656 172.087L268.972 172.77Z" fill="white"/>
<path d="M247.535 175.538C250.672 175.538 253.247 172.969 253.247 169.838C253.247 166.708 250.672 164.139 247.535 164.139C244.398 164.139 241.824 166.708 241.824 169.838C241.824 173.009 244.398 175.538 247.535 175.538Z" fill="#B1C3F8"/>
<path opacity="0.5" d="M247.535 175.538C250.672 175.538 253.247 172.969 253.247 169.838C253.247 166.708 250.672 164.139 247.535 164.139C244.398 164.139 241.824 166.708 241.824 169.838C241.824 173.009 244.398 175.538 247.535 175.538Z" fill="white"/>
<path d="M248.5 172.129H244.92C244.599 172.129 244.357 171.888 244.357 171.567V168.476C244.357 168.155 244.599 167.914 244.92 167.914H248.5C248.822 167.914 249.063 168.155 249.063 168.476V171.567C249.063 171.848 248.822 172.129 248.5 172.129Z" fill="#FCFCFC"/>
<path d="M249.064 169.277V170.561C249.064 170.642 249.105 170.682 249.145 170.722L250.673 171.525C250.794 171.605 250.955 171.485 250.955 171.364V168.674C250.955 168.554 250.834 168.434 250.713 168.514L249.185 169.116C249.105 169.116 249.064 169.196 249.064 169.277Z" fill="#FCFCFC"/>
<path opacity="0.3" d="M179.646 192.437C179.646 192.437 184.231 189.347 184.272 189.025" stroke="black" stroke-width="0.75" stroke-miterlimit="10" stroke-linecap="round" stroke-linejoin="round"/>
<path opacity="0.3" d="M179.646 193.882C179.646 193.882 181.778 192.437 183.146 191.434" stroke="black" stroke-width="0.75" stroke-miterlimit="10" stroke-linecap="round" stroke-linejoin="round"/>
<path d="M227.99 238.476L226.381 216.119H228.673L229.116 222.18L228.553 222.22L229.397 238.476H227.99Z" fill="#B1C3F8"/>
<path d="M229.396 239.479L230.804 222.38L230.201 222.34L230.684 217.082L233.016 217.443L230.844 239.72L229.396 239.479Z" fill="#B1C3F8"/>
<path d="M231.971 235.947L233.74 213.59L235.59 213.871L233.419 236.148L231.971 235.947Z" fill="#B1C3F8"/>
<path d="M236.837 242.37L235.992 219.973H238.285L238.405 225.552L238.003 225.592L238.325 242.41L236.837 242.37Z" fill="#B1C3F8"/>
<path d="M236.756 237.513L240.858 215.477L243.151 216.079L242.065 221.377L241.582 221.297L238.164 237.874L236.756 237.513Z" fill="#B1C3F8"/>
<path d="M141.034 167.671C141.516 168.875 141.959 170.119 142.441 171.404C143.889 175.578 139.827 176.301 139.827 176.301C139.827 176.301 141.235 179.15 139.264 181.519C137.293 183.927 134.639 182.763 134.639 182.763C134.639 182.763 133.754 184.047 131.26 184.328C127.681 184.69 126.273 183.325 126.273 183.325L122.493 182.803C122.01 183.084 121.688 184.971 117.747 185.573C114.127 186.135 112.196 184.047 112.196 184.047C111.312 185.974 106.807 185.813 106.163 182.843C105.56 180.074 106.807 178.869 106.968 178.749C104.716 180.475 100.613 176.18 104.595 171.765C106.204 169.959 107.089 169.116 107.692 168.233C105.842 168.754 103.791 166.667 104.555 164.7C105.52 162.212 107.571 163.095 109.341 159.523C111.714 154.746 113.604 153.06 113.725 152.98C116.902 149.729 121.769 148.083 127.118 148.203C131.703 148.284 134.398 150.05 136.047 151.896C137.454 153.502 138.178 155.549 138.299 157.636C138.339 158.078 138.379 158.519 138.419 158.961C139.103 160.486 140.551 163.175 142.12 163.938C144.292 165.022 143.246 168.032 141.034 167.671Z" fill="#21252B"/>
<path d="M99.6091 298.203H142.483C145.419 298.203 147.51 295.353 146.666 292.503L126.194 222.06C125.631 220.173 123.942 218.889 122.011 218.889H79.1374C76.2014 218.889 74.11 221.739 74.9546 224.588L95.4263 295.032C95.9492 296.918 97.6786 298.203 99.6091 298.203Z" fill="#84888F"/>
<path d="M105.482 298.203H142.846C145.782 298.203 147.873 295.353 147.029 292.503L126.557 222.06C125.994 220.173 124.305 218.889 122.374 218.889H85.0105C82.0745 218.889 79.983 221.739 80.8277 224.588L101.299 295.032C101.862 296.918 103.552 298.203 105.482 298.203Z" fill="#B1C3F8"/>
<path d="M112.68 298.203H158.088C160.22 298.203 161.909 296.477 161.909 294.389C161.909 292.302 160.179 290.576 158.088 290.576H112.68C110.549 290.576 108.859 292.302 108.859 294.389C108.859 296.517 110.589 298.203 112.68 298.203Z" fill="#B1C3F8"/>
<path d="M144.493 357.809H105.48V361.662H144.493V357.809Z" fill="#84888F"/>
<path d="M140.874 360.859C140.552 362.866 141.88 364.753 143.891 365.074C145.902 365.395 147.792 364.07 148.114 362.063C148.435 360.056 147.108 358.17 145.097 357.849C143.086 357.528 141.196 358.852 140.874 360.859Z" fill="#84888F"/>
<path d="M127.4 295.916H123.539V359.375H127.4V295.916Z" fill="#84888F"/>
<path d="M101.821 360.859C101.5 362.866 102.827 364.753 104.838 365.074C106.849 365.395 108.739 364.07 109.061 362.063C109.383 360.056 108.055 358.17 106.045 357.849C104.074 357.528 102.183 358.852 101.821 360.859Z" fill="#84888F"/>
<path d="M100.813 298.203H146.221C148.352 298.203 150.042 296.477 150.042 294.389C150.042 292.302 148.312 290.576 146.221 290.576H100.813C98.6814 290.576 96.9922 292.302 96.9922 294.389C96.9922 296.517 98.6814 298.203 100.813 298.203Z" fill="#84888F"/>
<path d="M154.107 352.549C199.354 276.647 191.35 267.536 183.588 263.883C183.507 263.843 183.708 263.883 183.588 263.883C174.659 263.241 158.169 256.738 158.169 256.738L135.727 286.601L164.725 292.462C162.473 307.433 162.754 314.177 153.504 331.637C150.085 338.059 155.112 344.843 154.107 352.549Z" fill="#956363"/>
<path opacity="0.08" d="M175.905 312.934L180.57 303.502C180.249 286.925 180.168 277.05 179.203 268.742C178.519 262.962 173.451 262.922 169.912 263.564C171.923 264.046 173.492 265.691 173.934 269.504C175.02 278.937 175.623 292.745 175.905 312.934Z" fill="black"/>
<path d="M181.654 364.794L176.104 360.981V337.981C176.104 337.981 176.104 337.941 176.064 337.941C175.943 303.542 175.38 282.389 173.892 269.505C172.484 257.302 159.815 267.377 156.316 265.732C154.185 264.728 152.777 260.795 148.554 260.554C141.073 260.192 139.987 250.318 139.987 250.318L134.799 280.864L154.466 281.546C153.943 301.455 162.108 314.139 165.848 335.091C163.797 336.416 162.269 338.864 162.269 342.517C171.358 345.527 170.353 362.105 170.353 362.105L181.654 364.794Z" fill="#956363"/>
<path d="M148.556 260.593C152.779 260.793 154.187 264.767 156.319 265.771C157.043 266.092 158.128 265.971 159.456 265.61C157.485 264.406 156.037 260.793 151.975 260.593C144.494 260.232 143.408 250.357 143.408 250.357L142.322 256.82C143.569 258.746 145.54 260.432 148.556 260.593Z" fill="#956363"/>
<path d="M163.356 336.616L150.808 357.769L156.399 365.074L147.229 356.605C147.229 356.605 153.463 343.199 149.601 335.532C152.819 327.706 164.08 329.713 163.356 336.616Z" fill="#956363"/>
<path d="M155.593 365.034L147.107 361.542C146.182 361.141 145.659 360.137 145.9 359.134C146.986 354.919 149.48 343.841 147.268 337.138C147.268 337.138 148.072 331.679 153.422 331.639C153.422 331.639 156.719 336.536 151.531 344.884L150.043 355.642C150.043 355.642 154.829 359.656 156.679 363.87C157.081 364.593 156.358 365.355 155.593 365.034Z" fill="#B1C3F8"/>
<path d="M147.309 337.139L137.777 357.65L138.662 358.011L149.602 338.062L147.309 337.139Z" fill="#B1C3F8"/>
<path opacity="0.2" d="M162.793 265.731C164.362 266.454 167.7 264.888 171.038 264.005C168.504 262.64 164.804 263.885 161.627 264.928C161.989 265.249 162.391 265.53 162.793 265.731Z" fill="black"/>
<path opacity="0.4" d="M176.105 346.65C174.295 344.162 171.842 337.499 171.4 335.05C167.659 314.138 160.339 301.454 160.862 281.505L141.195 280.823L144.855 259.389C140.672 256.7 139.948 250.277 139.948 250.277L134.76 280.823L154.427 281.505C153.904 301.414 162.069 314.098 165.809 335.05C163.758 336.375 162.23 338.823 162.23 342.476C171.319 345.486 170.314 362.064 170.314 362.064L181.656 364.753L176.105 360.94V346.65Z" fill="black"/>
<path d="M181.293 365.114H171.882C170.555 365.114 169.469 364.15 169.268 362.866C168.584 358.25 166.613 347.653 162.189 342.516C162.189 342.516 160.862 337.137 165.769 335.09C165.769 335.09 170.715 338.341 169.107 348.055L171.842 358.571C171.842 358.571 178.518 360.658 181.695 364.231C182.057 364.552 181.816 365.114 181.293 365.114Z" fill="#B1C3F8"/>
<path d="M162.232 342.516L161.307 365.114H162.232L164.685 342.516H162.232Z" fill="#B1C3F8"/>
<path d="M154.79 291.621L183.386 263.845L151.774 254.011L147.872 248.633H102.062V276.81C102.062 284.998 108.699 291.621 116.903 291.621H154.79Z" fill="#3F4249"/>
<path opacity="0.2" d="M123.78 286.042C115.575 286.042 108.939 279.419 108.939 271.231V248.633H102.223V276.81C102.223 284.998 108.859 291.621 117.064 291.621H154.95L160.702 286.042H123.78Z" fill="black"/>
<path d="M46.1567 250.639H43.2207V365.114H46.1567V250.639Z" fill="#61656D"/>
<path d="M218.938 250.639H216.002V365.114H218.938V250.639Z" fill="#61656D"/>
<path d="M249.989 250.639H218.939V365.114H249.989V250.639Z" fill="#61656D"/>
<path opacity="0.5" d="M249.989 250.639H218.939V365.114H249.989V250.639Z" fill="black"/>
<path d="M77.2467 250.639H46.1973V365.114H77.2467V250.639Z" fill="#61656D"/>
<path opacity="0.5" d="M77.2467 250.639H46.1973V365.114H77.2467V250.639Z" fill="black"/>
<path d="M189.66 244.938H249.547C251.115 244.938 252.402 246.222 252.402 247.787C252.402 249.353 251.115 250.637 249.547 250.637H189.66" fill="#61656D"/>
<path opacity="0.5" d="M189.66 244.938H249.547C251.115 244.938 252.402 246.222 252.402 247.787C252.402 249.353 251.115 250.637 249.547 250.637H189.66" fill="black"/>
<path d="M39.4806 244.938H222.399C223.967 244.938 225.254 246.222 225.254 247.787C225.254 249.353 223.967 250.637 222.399 250.637H39.4806C37.912 250.637 36.625 249.353 36.625 247.787C36.625 246.222 37.8718 244.938 39.4806 244.938Z" fill="#61656D"/>
<path opacity="0.5" d="M46.1567 250.639H43.2207V251.602H46.1567V250.639Z" fill="black"/>
<path d="M226.781 244.899H240.014C240.898 244.899 241.582 244.177 241.582 243.334V228.121H225.213V243.334C225.213 244.217 225.937 244.899 226.781 244.899Z" fill="#21252B"/>
<path d="M132.107 178.509C132.952 176.422 131.987 174.053 129.895 173.211C127.804 172.368 125.431 173.331 124.586 175.418C123.742 177.505 124.707 179.874 126.798 180.716C128.89 181.559 131.263 180.596 132.107 178.509Z" fill="#21252B"/>
<path d="M199.07 175.057L183.505 194.644L167.176 189.145L162.27 201.99L178.639 206.646C183.345 207.97 188.372 206.004 190.866 201.789L204.379 178.749L199.07 175.057Z" fill="#F39494"/>
<path d="M199.595 173.732C199.595 173.732 199.997 171.645 200.882 168.113C201.163 166.949 202.732 167.39 202.853 167.752C203.134 168.554 203.054 169.638 203.054 170.602C203.094 172.97 210.293 167.993 212.344 166.507C212.706 166.267 213.189 166.507 213.149 166.949C213.068 168.113 211.902 170.842 206.07 177.024C205.427 177.706 204.703 178.429 203.898 179.231C192.275 190.872 199.595 173.732 199.595 173.732Z" fill="#F39494"/>
<path d="M162.272 201.991L167.179 189.147C167.179 189.147 156.078 185.414 150.005 183.327C147.471 182.484 144.776 182.123 142.082 182.283L134.44 182.725L110.268 184.049C102.506 184.531 96.9153 191.676 98.323 199.302L100.535 211.705L102.144 222.743V244.9H148.034C148.034 244.9 147.149 236.912 148.477 223.024C149.241 214.876 153.424 213.872 152.579 206.367C152.217 203.196 150.729 201.068 149.402 198.058L153.062 199.222L162.272 201.991Z" fill="#B1C3F8"/>
<path d="M118.955 166.708L119.317 180.676C119.357 181.8 118.593 182.804 117.547 183.205L115.979 183.767L119.759 185.774C123.54 187.821 128.044 187.982 131.905 186.256C132.629 185.935 133.273 185.573 133.957 185.132L137.777 182.563L135.968 182.161C134.962 181.961 134.158 181.078 133.997 180.074L131.262 163.537L118.955 166.708Z" fill="#956363"/>
<path d="M129.491 177.506L128.848 177.586C124.062 178.028 119.879 174.576 119.396 169.839L118.23 157.798C118.069 156.192 119.235 154.828 120.844 154.667L132.146 153.543C134.197 153.342 136.047 154.868 136.248 156.915L137.334 168.113C137.696 172.81 134.237 177.064 129.491 177.506Z" fill="#956363"/>
<path d="M127.843 165.264C128.366 165.264 128.768 164.863 128.768 164.341C128.768 163.819 128.366 163.418 127.843 163.418C127.32 163.418 126.918 163.819 126.918 164.341C126.918 164.863 127.32 165.264 127.843 165.264Z" fill="#21252B"/>
<path d="M128.244 164.341C128.365 164.341 128.445 164.261 128.445 164.14C128.445 164.02 128.365 163.939 128.244 163.939C128.123 163.939 128.043 164.02 128.043 164.14C128.043 164.261 128.123 164.341 128.244 164.341Z" fill="white"/>
<path d="M135.122 164.901C135.645 164.901 136.047 164.5 136.047 163.978C136.047 163.456 135.645 163.055 135.122 163.055C134.599 163.055 134.197 163.456 134.197 163.978C134.197 164.5 134.599 164.901 135.122 164.901Z" fill="#21252B"/>
<path d="M135.484 163.899C135.605 163.899 135.685 163.819 135.685 163.699C135.685 163.578 135.605 163.498 135.484 163.498C135.364 163.498 135.283 163.578 135.283 163.699C135.323 163.819 135.404 163.899 135.484 163.899Z" fill="white"/>
<path opacity="0.15" d="M132.026 169.598L130.779 169.799C130.618 169.799 130.497 169.718 130.457 169.598C130.457 169.437 130.537 169.317 130.658 169.276L131.905 169.076C132.227 169.036 132.428 168.714 132.388 168.434C132.347 168.112 132.026 167.912 131.744 167.912C131.583 167.912 131.463 167.831 131.422 167.711C131.422 167.55 131.503 167.43 131.623 167.39C132.227 167.31 132.83 167.751 132.87 168.313C133.071 168.955 132.669 169.518 132.026 169.598Z" fill="black"/>
<path d="M120.04 170.28C120.04 170.28 115.977 171.163 114.57 167.27C113.162 163.336 118.069 161.891 119.316 165.865L120.522 170.24L120.04 170.28Z" fill="#956363"/>
<path opacity="0.15" d="M115.534 164.941C115.936 164.58 116.339 164.419 116.701 164.459C117.103 164.459 117.465 164.7 117.786 165.101C118.108 165.503 118.39 166.065 118.47 166.627L118.551 167.068C118.591 167.389 118.068 167.55 118.028 167.189C117.907 166.747 117.907 166.747 117.907 166.747C117.907 166.587 117.706 165.864 117.384 165.503C117.143 165.222 116.902 165.061 116.66 165.021C116.419 164.981 116.178 165.142 115.856 165.382C115.735 165.463 115.574 165.463 115.454 165.382C115.414 165.182 115.414 165.021 115.534 164.941Z" fill="black"/>
<path d="M118.752 169.759C119.194 169.719 119.556 169.358 119.516 168.916C119.476 168.475 119.114 168.113 118.672 168.153C118.229 168.194 117.867 168.555 117.907 168.996C117.948 169.438 118.31 169.799 118.752 169.759Z" fill="#B1C3F8"/>
<path opacity="0.15" d="M119.117 169.68C118.634 169.76 118.151 169.399 118.111 168.917C118.111 168.757 118.151 168.556 118.192 168.436C117.991 168.596 117.91 168.877 117.91 169.158C117.991 169.64 118.393 169.921 118.835 169.84C118.996 169.84 119.197 169.76 119.278 169.64C119.237 169.6 119.157 169.64 119.117 169.68Z" fill="black"/>
<path opacity="0.15" d="M133.352 176.18C132.065 177.023 130.577 177.464 128.969 177.625C128.607 177.665 128.285 177.665 127.923 177.665C127.802 177.665 127.641 177.665 127.521 177.665C127.48 177.665 127.48 177.665 127.44 177.665C127.239 177.625 127.038 177.665 126.797 177.625C126.716 177.625 126.636 177.585 126.555 177.585C125.188 177.424 124.142 177.023 123.459 176.661C123.338 176.581 123.177 176.621 123.097 176.742C123.016 176.862 123.056 177.023 123.177 177.103C124.062 177.544 125.429 178.066 127.199 178.187C128.164 178.829 129.813 179.591 131.824 179.511C132.508 179.471 133.151 179.351 133.755 179.19L133.352 176.18Z" fill="black"/>
<path d="M132.83 171.004C132.951 171.004 133.031 171.124 132.991 171.245C132.589 172.168 131.704 172.85 130.659 172.89C129.613 172.931 128.688 172.369 128.165 171.526C128.125 171.405 128.165 171.285 128.326 171.285L132.83 171.004Z" fill="white"/>
<path d="M115.979 183.727C116.34 190.39 128.969 195.166 128.969 195.166C128.969 195.166 138.139 189.186 137.777 182.523L135.686 182.041L115.979 183.727Z" fill="#956363"/>
<path d="M135.202 161.21C134.036 161.37 133.07 162.053 132.467 162.976C131.381 162.695 130.496 162.976 130.134 163.136C129.37 162.013 128.003 161.33 126.515 161.531C124.463 161.812 123.015 163.698 123.257 165.745C123.538 167.793 125.429 169.238 127.48 168.997C129.531 168.716 130.979 166.829 130.738 164.782C130.697 164.341 130.536 163.979 130.376 163.578C130.738 163.458 131.461 163.257 132.226 163.458C131.944 164.06 131.864 164.742 131.944 165.464C132.226 167.512 134.116 168.957 136.167 168.716C138.218 168.435 139.666 166.548 139.425 164.501C139.224 162.414 137.293 160.969 135.202 161.21ZM127.56 168.515C125.791 168.756 124.142 167.512 123.9 165.705C123.659 163.899 124.906 162.294 126.716 162.053C128.525 161.812 130.134 163.056 130.376 164.862C130.577 166.629 129.29 168.274 127.56 168.515ZM136.167 168.194C134.398 168.435 132.749 167.19 132.507 165.384C132.266 163.618 133.513 161.972 135.323 161.732C137.092 161.491 138.741 162.735 138.983 164.541C139.224 166.307 137.937 167.953 136.167 168.194Z" fill="white"/>
<path d="M120.441 190.432L135.604 188.826C135.604 188.826 134.84 190.111 132.789 192.077C131.1 193.723 128.968 195.168 128.968 195.168C128.968 195.168 126.756 194.325 124.262 192.92C121.849 191.596 120.441 190.432 120.441 190.432Z" fill="#21252B"/>
<path d="M143.449 235.667L147.149 236.149L154.992 235.467C155.837 235.547 156.199 235.708 156.802 236.229L161.668 240.564C161.99 240.845 161.99 241.327 161.749 241.608C161.508 241.929 161.025 242.009 160.703 241.728L156.118 238.357L159.094 241.889C159.416 242.29 159.295 242.892 158.773 243.093C158.491 243.214 158.21 243.133 158.008 242.933L154.027 239.039L157.043 242.009C157.405 242.371 157.285 242.973 156.802 243.133C156.561 243.254 156.319 243.173 156.118 243.053L151.855 239.962L154.751 242.09C155.072 242.331 155.072 242.852 154.751 243.093C154.55 243.214 154.349 243.254 154.147 243.173L150.286 241.568C149.924 241.407 149.482 241.407 149.12 241.608L147.632 242.331C146.425 242.933 145.098 243.254 143.771 243.254H141.358C137.899 243.173 143.449 235.667 143.449 235.667Z" fill="#956363"/>
<path opacity="0.15" d="M154.708 242.211C154.668 242.211 154.668 242.211 154.627 242.17L151.973 240.244C151.933 240.204 151.892 240.123 151.933 240.043C151.973 240.003 152.053 239.963 152.134 240.003L154.788 241.93C154.828 241.97 154.869 242.05 154.828 242.09C154.788 242.17 154.748 242.211 154.708 242.211Z" fill="black"/>
<path opacity="0.15" d="M157.001 242.128C156.961 242.128 156.921 242.128 156.921 242.088L154.065 239.278C154.025 239.238 154.025 239.158 154.065 239.078C154.106 238.997 154.186 239.037 154.266 239.078L157.122 241.887C157.162 241.927 157.162 242.008 157.122 242.088C157.082 242.128 157.001 242.128 157.001 242.128Z" fill="black"/>
<path opacity="0.15" d="M151.129 241.044C152.014 241.485 153.502 242.248 154.025 242.529C154.749 242.93 154.95 242.408 154.95 242.408C154.99 242.649 154.91 242.89 154.709 243.05C154.508 243.171 154.307 243.211 154.106 243.131L150.244 241.525C149.883 241.365 149.44 241.365 149.078 241.565L149.842 241.124C150.244 240.883 150.727 240.883 151.129 241.044Z" fill="black"/>
<path d="M143.449 235.665L117.347 229.725L115.014 211.141L100.816 213.188L103.592 230.568C104.396 235.826 108.337 239.599 113.646 240.201L141.358 243.171L143.449 235.665Z" fill="#956363"/>
<path d="M137.053 243.172H168.183C168.424 243.172 168.665 243.373 168.665 243.654V244.456C168.665 244.697 168.464 244.938 168.183 244.938H137.053C136.812 244.938 136.57 244.737 136.57 244.456V243.654C136.57 243.413 136.771 243.172 137.053 243.172Z" fill="#21252B"/>
<path opacity="0.6" d="M137.053 243.172H168.183C168.424 243.172 168.665 243.373 168.665 243.654V244.456C168.665 244.697 168.464 244.938 168.183 244.938H137.053C136.812 244.938 136.57 244.737 136.57 244.456V243.654C136.57 243.413 136.771 243.172 137.053 243.172Z" fill="black"/>
<path d="M158.006 243.172H212.262C212.503 243.172 212.745 243.373 212.745 243.654V244.456C212.745 244.697 212.544 244.938 212.262 244.938H158.006C157.765 244.938 157.523 244.737 157.523 244.456V243.654C157.604 243.413 157.765 243.172 158.006 243.172Z" fill="#21252B"/>
<path opacity="0.6" d="M211.577 243.495H156.356C156.276 243.495 156.195 243.415 156.195 243.334C156.195 243.254 156.276 243.174 156.356 243.174H211.577C211.658 243.174 211.738 243.254 211.738 243.334C211.738 243.415 211.618 243.495 211.577 243.495Z" fill="black"/>
<path d="M157.888 243.172H166.053C166.696 243.172 167.219 242.73 167.34 242.088L174.177 206.164C174.338 205.361 173.694 204.639 172.89 204.639H164.766C164.122 204.639 163.599 205.08 163.479 205.722L156.641 241.647C156.48 242.449 157.084 243.172 157.888 243.172Z" fill="#21252B"/>
<path opacity="0.6" d="M157.888 243.172H166.053C166.696 243.172 167.219 242.73 167.34 242.088L174.177 206.164C174.338 205.361 173.694 204.639 172.89 204.639H164.766C164.122 204.639 163.599 205.08 163.479 205.722L156.641 241.647C156.48 242.449 157.084 243.172 157.888 243.172Z" fill="black"/>
<path d="M159.052 243.172H211.539C212.182 243.172 212.705 242.73 212.826 242.088L219.663 206.164C219.824 205.361 219.18 204.639 218.376 204.639H165.93C165.286 204.639 164.763 205.08 164.643 205.722L157.805 241.647C157.645 242.449 158.248 243.172 159.052 243.172Z" fill="#21252B"/>
<path opacity="0.6" d="M189.056 222.903C188.734 223.626 189.096 224.268 189.82 224.268C189.861 224.268 189.901 224.268 189.941 224.268C189.096 225.191 187.809 225.873 186.643 225.833C185.115 225.793 184.35 224.549 185.074 222.983C185.758 221.458 187.568 220.254 189.096 220.254C190.062 220.294 190.745 220.776 190.906 221.579C190.182 221.659 189.378 222.181 189.056 222.903Z" fill="black"/>
<path opacity="0.15" d="M113.445 198.861L120.645 226.999L143.449 235.669L117.347 229.728L113.445 198.861Z" fill="black"/>
<path opacity="0.15" d="M149.441 198.138C147.591 193.322 146.264 182.484 146.264 182.484C146.626 182.484 148.395 182.886 148.395 182.886C148.838 187.823 152.819 199.182 153.423 199.423L149.441 198.138Z" fill="black"/>
<path d="M123.018 154.547C123.018 154.547 122.575 162.133 119.036 165.184C119.036 165.184 118.714 163.177 115.979 163.458C115.979 163.458 115.738 162.976 115.336 160.728C114.934 158.44 116.382 149.048 126.839 149.65C126.839 149.65 130.177 148.968 134.802 152.941C139.467 156.915 136.692 161.25 136.692 161.25C136.692 161.25 128.93 160.207 123.018 154.547Z" fill="#21252B"/>
<path opacity="0.5" d="M80.0195 242.131H85.9318L86.7362 244.9H80.8239L80.0195 242.131Z" fill="black"/>
<path d="M241.623 230.008H225.254V231.373H241.623V230.008Z" fill="black"/>
<path d="M241.623 232.135H225.254V233.098H241.623V232.135Z" fill="black"/>
<path d="M234.947 213.791L234.223 220.574L235.228 220.695L235.952 213.911L234.947 213.791Z" fill="#B1C3F8"/>
</svg>
