<svg width="44" height="44" viewBox="0 0 44 44" fill="none" xmlns="http://www.w3.org/2000/svg">
<rect width="44" height="44" rx="6" fill="#4364C8"/>
<path d="M21.4004 13.1992C20.5582 13.1992 19.9785 13.5648 19.5238 13.9336C19.2441 13.7711 18.8551 13.5992 18.2504 13.5992C17.3176 13.5992 16.6488 14.1164 16.1848 14.7992C16.127 14.8008 16.052 14.8008 16.0191 14.7992C14.4816 14.732 13.252 16.0195 13.2129 17.5305C12.7363 17.8664 12.4004 18.3867 12.4004 18.9992C12.4004 19.5352 12.6691 20.018 13.0441 20.3898C12.6879 20.7258 12.4004 21.1461 12.4004 21.6992C12.4004 22.2633 12.6879 22.8273 13.2004 23.1945V23.5992C13.2004 24.9789 14.191 25.9992 15.4004 25.9992H15.4629C15.641 26.3133 15.9004 26.6008 16.3363 26.7227L15.8145 29.5992L15.691 30.2789L15.5973 30.7992H16.4113L16.4801 30.4195L16.627 29.5992L17.1941 26.4695C17.2145 26.3539 17.1832 26.2336 17.1066 26.143C17.0316 26.0523 16.9191 25.9992 16.8004 25.9992C16.252 25.9992 16.1129 25.7617 16.0363 25.4898C15.9863 25.318 15.8301 25.1992 15.6504 25.1992H15.4004C14.6207 25.1992 14.0004 24.6195 14.0004 23.5992V23.0492C14.0004 22.8898 13.9066 22.7461 13.7598 22.682C13.3598 22.507 13.2004 22.1352 13.2004 21.6992C13.2004 21.282 13.4363 20.9695 13.8098 20.7398C13.9332 20.6648 14.0066 20.5273 14.0004 20.3836C13.9957 20.2383 13.9113 20.1086 13.7832 20.043C13.516 19.9055 13.2004 19.3711 13.2004 18.9992C13.2004 18.593 13.4457 18.2133 13.7707 18.0617C13.9176 17.9914 14.0082 17.8398 14.0004 17.6789C13.9988 17.6492 14.0004 17.6586 14.0004 17.5992C14.0004 16.4898 14.8957 15.5508 15.9816 15.5992C16.1129 15.6039 16.2426 15.5977 16.3441 15.5992C16.491 15.6008 16.627 15.5227 16.6988 15.3961C17.066 14.7445 17.4926 14.3992 18.2504 14.3992C18.8551 14.3992 19.1441 14.5945 19.3113 14.7195C19.4629 14.8336 19.6738 14.8242 19.816 14.6992C20.2441 14.318 20.6754 13.9992 21.4004 13.9992C22.3332 13.9992 22.8363 14.2008 23.3176 14.682C23.4457 14.8102 23.6457 14.8367 23.802 14.7445C24.3426 14.4289 24.6598 14.3992 25.3004 14.3992C26.2191 14.3992 27.1098 14.982 27.4316 15.7523C27.4926 15.9023 27.6395 15.9992 27.8004 15.9992C28.6723 15.9992 29.3926 16.6133 29.5629 17.4305C29.5941 17.5852 29.7145 17.7055 29.8691 17.7383C30.177 17.8055 30.4129 17.9117 30.5582 18.0555C30.7051 18.1977 30.8004 18.3805 30.8004 18.7492C30.8004 19.0133 30.7457 19.1617 30.6863 19.2727C30.6254 19.382 30.5629 19.4336 30.4676 19.5773C30.3504 19.7539 30.391 19.9914 30.5613 20.1195C30.5613 20.1195 30.5848 20.1289 30.652 20.2477C30.7207 20.3664 30.8004 20.5664 30.8004 20.8992C30.8004 21.1852 30.7113 21.4445 30.5051 21.6414C30.2988 21.8383 29.952 21.9992 29.3504 21.9992H29.2301C29.0629 21.9992 28.9129 22.1039 28.8551 22.2617C28.7707 22.493 28.6348 22.6008 28.427 22.6852C28.2207 22.7695 27.9473 22.7992 27.7004 22.7992H27.2004C27.0332 22.7992 26.8848 22.9023 26.8254 23.0586C26.766 23.218 26.6816 23.3586 26.5785 23.4492C26.4754 23.5414 26.3613 23.5992 26.1504 23.5992C25.7566 23.5992 25.6598 23.493 25.4832 23.3164C25.3816 23.2148 25.2316 23.1758 25.0926 23.2148C24.9535 23.2539 24.8457 23.3648 24.8129 23.5055C24.7676 23.6898 24.5941 23.932 24.3535 24.1117C24.1129 24.2914 23.8176 24.3992 23.6004 24.3992H23.2004C22.9816 24.3992 22.8035 24.5742 22.8004 24.793C22.7848 25.8867 21.8926 26.7992 20.8004 26.7992C19.8566 26.7992 19.066 27.2211 18.4895 27.8523C17.9145 28.4836 17.5332 29.3164 17.3129 30.2023C17.3129 30.2055 17.3113 30.207 17.3113 30.2102C17.3113 30.2102 17.2395 30.5211 17.177 30.7992H17.9957C18.0441 30.5867 18.0879 30.3961 18.0879 30.3961C18.1301 30.2305 18.1816 30.0695 18.2363 29.9117C18.2551 29.8539 18.277 29.7945 18.3004 29.732C18.4973 29.2117 18.7582 28.7445 19.0816 28.3914C19.5363 27.8914 20.0863 27.5992 20.8004 27.5992C22.1957 27.5992 23.3004 26.5336 23.516 25.1992H23.6004C24.0488 25.1992 24.477 25.018 24.8316 24.7539C25.0379 24.5992 25.2082 24.407 25.3488 24.1945C25.5613 24.3102 25.8207 24.3992 26.1504 24.3992C26.5395 24.3992 26.8754 24.257 27.1098 24.0492C27.2582 23.9164 27.3207 23.7539 27.4051 23.5992H27.7004C28.0035 23.5992 28.3691 23.5711 28.727 23.4258C29.0066 23.3133 29.2566 23.082 29.4441 22.7852C30.1426 22.7664 30.6957 22.568 31.0582 22.2195C31.4395 21.8539 31.6004 21.3633 31.6004 20.8992C31.6004 20.432 31.4801 20.082 31.3488 19.8508C31.3254 19.8117 31.3191 19.8211 31.2957 19.7867C31.3363 19.7305 31.3473 19.7305 31.3895 19.6508C31.5051 19.4367 31.6004 19.1352 31.6004 18.7492C31.6004 18.218 31.4207 17.7758 31.1176 17.4805C30.8785 17.2492 30.5691 17.1586 30.266 17.068C29.9691 16.0727 29.1066 15.3461 28.0441 15.243C27.5285 14.257 26.4613 13.5992 25.3004 13.5992C24.7066 13.5992 24.1957 13.6898 23.6379 13.9586C23.0535 13.4758 22.3457 13.1992 21.4004 13.1992ZM23.2004 15.9992V16.8367C22.9457 16.8883 22.7129 16.993 22.502 17.1305L21.902 16.5336L21.3379 17.0992L21.9379 17.6977C21.7973 17.9086 21.6941 18.143 21.6426 18.3992H20.8004V19.1992H21.6473C21.7004 19.4477 21.8004 19.6773 21.9379 19.8836L21.3379 20.4805L21.902 21.0477L22.502 20.4492C22.7129 20.5883 22.9457 20.693 23.2004 20.7445V21.5805H24.0004V20.7445C24.2551 20.693 24.4879 20.5883 24.6988 20.4492L25.2988 21.0477L25.8629 20.4805L25.2629 19.8836C25.4004 19.6773 25.5004 19.4477 25.5535 19.1992H26.4004V18.3992H25.5582C25.5066 18.143 25.4035 17.9086 25.2629 17.6977L25.8629 17.0992L25.2988 16.5336L24.6988 17.1305C24.4879 16.993 24.2551 16.8883 24.0004 16.8367V15.9992H23.2004ZM23.6004 17.5945C24.2691 17.5945 24.8004 18.1273 24.8004 18.7914C24.8004 19.4539 24.2691 19.9852 23.6004 19.9852C22.9316 19.9852 22.4004 19.4539 22.4004 18.7914C22.4004 18.1273 22.9316 17.5945 23.6004 17.5945ZM18.4004 19.218V20.0539C18.1457 20.1055 17.9098 20.207 17.7004 20.3461L17.102 19.7508L16.5379 20.318L17.1332 20.9117C16.9973 21.1164 16.8957 21.3492 16.8441 21.5992H16.0004V22.3992H16.8395C16.891 22.6555 16.9941 22.893 17.1332 23.1055L16.5379 23.6992L17.102 24.2648L17.7004 23.6695C17.9098 23.8086 18.1457 23.9102 18.4004 23.9617V24.7992H19.2004V23.9617C19.4551 23.9102 19.691 23.8086 19.9004 23.6695L20.4988 24.2648L21.0629 23.6992L20.4676 23.1055C20.6066 22.893 20.7098 22.6555 20.7613 22.3992H21.6004V21.5992H20.7566C20.7051 21.3492 20.6035 21.1164 20.4676 20.9117L21.0629 20.318L20.4988 19.7508L19.9004 20.3461C19.691 20.207 19.4551 20.1055 19.2004 20.0539V19.218H18.4004ZM18.8004 20.8133C19.4691 20.8133 20.0004 21.3445 20.0004 22.007C20.0004 22.6711 19.4691 23.2039 18.8004 23.2039C18.1316 23.2039 17.6004 22.6711 17.6004 22.007C17.6004 21.3445 18.1316 20.8133 18.8004 20.8133Z" fill="white"/>
</svg>
