<svg width="214" height="214" viewBox="0 0 214 214" fill="none" xmlns="http://www.w3.org/2000/svg">
<path d="M190.053 53.3205L189.716 52.802L189.279 53.2389L185.459 57.0592L183.018 59.5001L182.738 59.7803L182.947 60.1171C191.409 73.7682 196.381 89.7945 196.381 107.001C196.381 156.287 156.287 196.381 107.001 196.381C57.7143 196.381 17.6205 156.287 17.6205 107.001C17.6205 57.7143 57.7143 17.6205 107.001 17.6205C127.824 17.6205 146.934 24.8688 162.141 36.865V45.1013L152.194 55.0476C140.082 44.4801 124.302 38.0205 107.001 38.0205C68.9662 38.0205 38.0205 68.9662 38.0205 107.001C38.0205 145.035 68.9662 175.981 107.001 175.981C145.035 175.981 175.981 145.035 175.981 107.001C175.981 92.6483 171.563 79.307 164.032 68.2575L163.692 67.7587L163.265 68.1855L157.062 74.3882L156.778 74.6729L156.995 75.0117C162.929 84.2614 166.421 95.2197 166.421 107.001C166.421 139.766 139.766 166.421 107.001 166.421C74.2351 166.421 47.5805 139.766 47.5805 107.001C47.5805 74.2351 74.2351 47.5805 107.001 47.5805C121.667 47.5805 135.063 52.9622 145.43 61.812L130.945 76.2967C124.333 71.1137 116.04 67.9805 107.001 67.9805C85.487 67.9805 67.9805 85.487 67.9805 107.001C67.9805 128.514 85.487 146.021 107.001 146.021C128.514 146.021 146.021 128.514 146.021 107.001C146.021 100.985 144.612 95.3127 142.176 90.2247L141.872 89.588L141.372 90.0868L134.843 96.6072L134.619 96.8309L134.726 97.129C135.829 100.221 136.461 103.539 136.461 107.001C136.461 123.245 123.245 136.461 107.001 136.461C90.7559 136.461 77.5406 123.245 77.5406 107.001C77.5406 90.7559 90.7559 77.5406 107.001 77.5406C113.399 77.5406 119.306 79.617 124.141 83.1006L109.055 98.1867C108.383 98.0267 107.695 97.9441 107.003 97.9406H107.001C104.598 97.9406 102.293 98.8951 100.594 100.594C98.8951 102.293 97.9406 104.598 97.9406 107.001C97.9406 109.403 98.8951 111.708 100.594 113.407C102.293 115.106 104.598 116.061 107.001 116.061C109.403 116.061 111.708 115.106 113.407 113.407C115.106 111.708 116.061 109.403 116.061 107.001V107C116.06 106.306 115.98 105.614 115.822 104.938L168.9 51.8605H179.761H179.968L180.114 51.7141L201.514 30.3141L202.368 29.4605H201.161H184.541V12.8405V11.6334L183.687 12.487L167.422 28.7515C150.695 15.8007 129.746 8.06055 107.001 8.06055C52.4454 8.06055 8.06055 52.4454 8.06055 107.001C8.06055 161.556 52.4454 205.941 107.001 205.941C161.556 205.941 205.941 161.556 205.941 107.001C205.941 87.2253 200.088 68.7979 190.053 53.3205Z" fill="#FFF7D9" stroke="#FFF7D9"/>
<circle cx="107" cy="107" r="9" fill="#71C2FF"/>
<path d="M168.5 51.5L115.5 105L109 99L162.5 45V36L183.5 12.5V30.5H200.5L178.5 51.5H168.5Z" fill="#71C2FF" stroke="#71C2FF"/>
</svg>
