<svg width="476" height="459" viewBox="0 0 476 459" fill="none" xmlns="http://www.w3.org/2000/svg">
<path d="M456.899 285.371C456.899 432.428 371.502 437.416 250.607 437.416C129.713 437.416 19.1016 432.428 19.1016 285.371C19.1016 138.315 117.106 19.1016 238 19.1016C358.895 19.1016 456.899 138.315 456.899 285.371Z" fill="#E2EAFF"/>
<path d="M474.5 290.343C474.5 330.301 468.714 360.469 458.079 383.263C447.461 406.022 431.978 421.498 412.432 432.051C392.851 442.624 369.137 448.283 342.04 451.289C314.944 454.294 284.573 454.635 251.707 454.635C185.906 454.635 123.332 453.25 77.1892 432.009C54.1782 421.416 35.294 405.898 22.1436 383.146C8.98279 360.377 1.5 330.25 1.5 290.343C1.5 130.527 107.65 1.5 238 1.5C368.35 1.5 474.5 130.527 474.5 290.343Z" stroke="#4364C8" stroke-width="3"/>
<path d="M422.524 227.575H233.403C229.311 227.575 225.978 224.248 225.978 220.165V109.411C225.978 105.327 229.311 102 233.403 102H422.524C426.615 102 429.949 105.327 429.949 109.411V220.165C429.949 224.299 426.615 227.575 422.524 227.575Z" fill="#B1C3F8"/>
<path opacity="0.5" d="M422.524 227.575H233.403C229.311 227.575 225.978 224.248 225.978 220.165V109.411C225.978 105.327 229.311 102 233.403 102H422.524C426.615 102 429.949 105.327 429.949 109.411V220.165C429.949 224.299 426.615 227.575 422.524 227.575Z" fill="black"/>
<path d="M417.524 227.575H228.352C224.261 227.575 220.927 224.248 220.927 220.165V109.411C220.927 105.327 224.261 102 228.352 102H417.524C421.615 102 424.949 105.327 424.949 109.411V220.165C424.949 224.299 421.615 227.575 417.524 227.575Z" fill="#B1C3F8"/>
<path opacity="0.7" d="M417.524 227.575H228.352C224.261 227.575 220.927 224.248 220.927 220.165V109.411C220.927 105.327 224.261 102 228.352 102H417.524C421.615 102 424.949 105.327 424.949 109.411V220.165C424.949 224.299 421.615 227.575 417.524 227.575Z" fill="#ED1D24"/>
<path d="M326.6 168.342H325.337V227.626H326.6V168.342Z" fill="white"/>
<path d="M327.863 168.492H326.601V227.575H327.863V168.492Z" fill="#E6E6E6"/>
<path d="M403.228 168.342H401.965V227.626H403.228V168.342Z" fill="white"/>
<path d="M404.49 168.492H403.228V227.575H404.49V168.492Z" fill="#E6E6E6"/>
<path d="M414.492 164.914H319.982V169.754H414.492V164.914Z" fill="#E6E6E6"/>
<path d="M402.623 169.754H361V177.82H402.623V169.754Z" fill="white"/>
<path d="M383.68 173.232C383.68 173.736 383.276 174.139 382.771 174.139C382.265 174.139 381.861 173.736 381.861 173.232C381.861 172.727 382.265 172.324 382.771 172.324C383.276 172.274 383.68 172.727 383.68 173.232Z" fill="#E1E1E1"/>
<path d="M286.088 119.543H237.141V227.626H286.088V119.543Z" fill="#E6E6E6"/>
<path d="M286.088 119.543H239.465V227.626H286.088V119.543Z" fill="white"/>
<path d="M283.612 121.963H241.889V225.105H283.612V121.963Z" fill="#E6E6E6"/>
<path d="M274.57 171.92H278.056C279.015 171.92 279.773 171.164 279.773 170.206C279.773 169.248 278.965 168.492 278.056 168.492H274.57C273.611 168.492 272.853 169.248 272.853 170.206C272.802 171.164 273.611 171.92 274.57 171.92Z" fill="white"/>
<path d="M283.612 121.963H282.955V225.105H283.612V121.963Z" fill="#F0F0F0"/>
<path d="M320.589 116.973C336.45 116.973 349.331 129.828 349.331 145.657V172.98C349.331 176.055 346.805 178.576 343.724 178.576H302.455L299.98 170.863L297.504 178.576C294.423 178.576 291.897 176.055 291.897 172.98V145.657C291.897 129.828 304.728 116.973 320.589 116.973Z" fill="#2F2E41"/>
<path d="M322.205 167.232L321.094 167.282C312.86 167.635 305.94 161.283 305.637 153.116L304.778 132.347C304.626 129.624 306.798 127.356 309.526 127.205L329.024 126.348C332.56 126.196 335.591 128.969 335.742 132.498L336.551 151.806C336.753 159.972 330.388 166.879 322.205 167.232Z" fill="#906363"/>
<path d="M309.931 149.185L309.275 173.282C309.224 175.248 307.86 176.912 305.991 177.416L303.264 178.172L309.578 182.003C315.841 185.885 323.62 186.54 330.389 183.969C331.652 183.516 332.814 182.911 333.976 182.205L339.987 178.626L337.663 178.374C335.188 177.466 334.733 175.248 334.531 173.534L331.399 144.9L309.931 149.185Z" fill="#906363"/>
<path opacity="0.3" d="M310.637 163.856C310.89 163.805 310.94 163.906 311.092 164.057C313.011 165.57 315.941 167.485 321.043 167.334C327.862 167.183 331.752 163.402 333.116 161.738L333.57 165.922C332.661 166.578 330.893 167.737 329.024 167.636C327.256 167.536 325.993 167.284 325.993 167.284C324.478 167.838 322.71 168.191 320.639 168.191C315.385 168.191 312.102 166.225 310.334 164.713C310.183 164.561 310.082 164.309 310.233 164.108C310.334 164.007 310.486 163.856 310.637 163.856Z" fill="black"/>
<path d="M305.486 153.571C305.486 153.571 299.071 153.823 297.96 147.521C296.848 141.169 304.728 140.262 305.587 146.664L306.042 153.621L305.486 153.571Z" fill="#906363"/>
<path opacity="0.15" d="M300.03 144.245C300.738 143.792 301.394 143.691 301.95 143.792C302.556 143.943 303.061 144.346 303.415 145.052C303.819 145.758 304.071 146.665 304.021 147.572V148.228C304.021 148.732 303.162 148.833 303.162 148.228C303.112 147.472 303.112 147.472 303.112 147.472C303.162 147.22 303.011 146.06 302.607 145.405C302.303 144.901 302 144.598 301.596 144.497C301.243 144.397 300.788 144.548 300.283 144.8C300.081 144.901 299.828 144.85 299.677 144.649C299.778 144.598 299.879 144.346 300.03 144.245Z" fill="black"/>
<path d="M303.818 152.513C304.526 152.513 305.081 151.958 305.081 151.252C305.081 150.547 304.526 149.992 303.818 149.992C303.111 149.992 302.556 150.547 302.556 151.252C302.556 151.958 303.111 152.513 303.818 152.513Z" fill="#B1C3F8"/>
<path opacity="0.15" d="M304.223 152.361C303.465 152.311 302.859 151.706 302.859 150.95C302.909 150.698 302.96 150.446 303.111 150.244C302.808 150.446 302.556 150.849 302.505 151.252C302.455 151.958 303.01 152.513 303.717 152.563C303.97 152.613 304.273 152.513 304.475 152.361C304.425 152.361 304.273 152.311 304.223 152.361Z" fill="black"/>
<path d="M336.096 153.571C336.096 153.571 342.511 153.823 343.622 147.521C344.733 141.169 336.853 140.262 335.995 146.664L335.54 153.621L336.096 153.571Z" fill="#906363"/>
<path opacity="0.15" d="M341.502 144.245C340.795 143.792 340.138 143.691 339.582 143.792C338.976 143.943 338.471 144.346 338.117 145.052C337.713 145.758 337.461 146.665 337.511 147.572V148.228C337.511 148.732 338.37 148.833 338.37 148.228C338.421 147.472 338.421 147.472 338.421 147.472C338.37 147.22 338.522 146.06 338.926 145.405C339.229 144.901 339.532 144.598 339.936 144.497C340.289 144.397 340.744 144.548 341.249 144.8C341.451 144.901 341.704 144.85 341.855 144.649C341.805 144.598 341.704 144.346 341.502 144.245Z" fill="black"/>
<path d="M337.714 152.513C338.421 152.513 338.977 151.958 338.977 151.252C338.977 150.547 338.421 149.992 337.714 149.992C337.007 149.992 336.451 150.547 336.451 151.252C336.451 151.958 337.007 152.513 337.714 152.513Z" fill="#B1C3F8"/>
<path opacity="0.15" d="M337.308 152.361C338.066 152.311 338.672 151.706 338.672 150.95C338.622 150.698 338.571 150.446 338.42 150.244C338.723 150.446 338.975 150.849 339.026 151.252C339.076 151.958 338.521 152.513 337.813 152.563C337.561 152.613 337.258 152.513 337.056 152.361C337.157 152.361 337.258 152.311 337.308 152.361Z" fill="black"/>
<path d="M336.803 126.803L323.973 121.812L316.699 121.51C311.092 122.367 304.475 125.039 303.212 130.584L303.869 138.146H312.658L315.133 132.449V138.196H319.174L321.548 128.87L323.114 138.196H337.409L336.803 126.803Z" fill="#2F2E41"/>
<path d="M313.719 150.496C314.628 150.496 315.335 149.79 315.335 148.883C315.335 147.975 314.628 147.27 313.719 147.27C312.81 147.27 312.103 147.975 312.103 148.883C312.103 149.79 312.86 150.496 313.719 150.496Z" fill="#21252B"/>
<path d="M314.376 148.884C314.578 148.884 314.73 148.732 314.73 148.531C314.73 148.329 314.578 148.178 314.376 148.178C314.174 148.178 314.022 148.329 314.022 148.531C314.073 148.732 314.225 148.884 314.376 148.884Z" fill="white"/>
<path d="M326.246 150.496C327.156 150.496 327.863 149.79 327.863 148.883C327.863 147.975 327.156 147.27 326.246 147.27C325.337 147.27 324.63 147.975 324.63 148.883C324.63 149.79 325.388 150.496 326.246 150.496Z" fill="#21252B"/>
<path d="M326.902 148.833C327.104 148.833 327.256 148.681 327.256 148.48C327.256 148.278 327.104 148.127 326.902 148.127C326.7 148.127 326.549 148.278 326.549 148.48C326.599 148.681 326.751 148.833 326.902 148.833Z" fill="white"/>
<path d="M327.661 141.574C325.64 141.776 323.923 142.835 322.862 144.397C321.044 143.792 319.528 144.196 318.821 144.448C317.609 142.431 315.336 141.171 312.81 141.373C309.274 141.625 306.597 144.801 306.85 148.329C307.102 151.858 310.284 154.53 313.82 154.278C317.356 154.026 320.033 150.85 319.781 147.321C319.73 146.565 319.528 145.91 319.225 145.254C319.831 145.053 321.094 144.801 322.458 145.204C321.902 146.212 321.7 147.422 321.801 148.632C322.054 152.161 325.236 154.833 328.772 154.581C332.308 154.328 334.985 151.153 334.733 147.624C334.43 144.044 331.298 141.373 327.661 141.574ZM313.871 153.421C310.79 153.673 308.112 151.354 307.86 148.279C307.607 145.204 309.931 142.532 313.012 142.28C316.093 142.028 318.771 144.347 319.023 147.422C319.225 150.447 316.902 153.219 313.871 153.421ZM328.671 153.673C325.59 153.925 322.913 151.606 322.66 148.531C322.408 145.456 324.731 142.784 327.812 142.532C330.894 142.28 333.571 144.599 333.823 147.674C334.127 150.749 331.752 153.421 328.671 153.673Z" fill="white"/>
<path opacity="0.3" d="M320.791 155.991H319.326C319.074 155.991 318.821 155.739 318.821 155.487C318.821 155.235 319.074 154.983 319.326 154.983H320.791C321.397 154.983 321.852 154.529 321.852 153.924C321.852 153.319 321.397 152.815 320.791 152.815C320.539 152.815 320.286 152.563 320.286 152.311C320.286 152.059 320.539 151.807 320.791 151.807C321.953 151.807 322.862 152.764 322.862 153.874C322.862 155.083 321.953 156.041 320.791 155.991Z" fill="black"/>
<path d="M316.396 157.806L325.084 157.654C325.286 157.654 325.488 157.856 325.387 158.108C323.872 162.494 317.81 162.595 316.093 158.31V158.259C316.042 158.058 316.194 157.806 316.396 157.806Z" fill="white"/>
<path d="M322.963 212.35L303.263 178.877L290.23 181.549C284.169 182.96 280.33 189.01 280.633 195.362L291.291 207.36C291.291 207.36 293.413 216.232 294.524 227.575H322.054L322.963 212.35Z" fill="#21242B"/>
<path d="M359.787 183.868L344.684 180.037L323.064 209.377L322.054 227.575H349.987C353.119 209.679 359.787 183.868 359.787 183.868Z" fill="#21242B"/>
<path opacity="0.15" d="M323.064 210.485L324.983 206.352L324.781 217.543H322.609L323.064 210.485Z" fill="black"/>
<path d="M294.473 227.576H295.332L297.756 201.917L298.564 179.887L287.3 182.105C282.552 183.264 279.117 187.448 278.915 192.338L277.753 219.006L277.399 227.576H293.109L293.564 218.351L294.473 227.576Z" fill="#21242B"/>
<path d="M368.07 220.417L366.908 193.749C366.706 188.86 363.271 184.726 358.523 183.516L344.632 180.088L349.481 203.479L352.259 227.626H368.424L368.07 220.417Z" fill="#21242B"/>
<path d="M298.564 179.887L308.516 176.207L323.114 185.584L315.133 198.237L298.564 179.887Z" fill="#FBFBFB"/>
<path d="M344.633 180.088L334.732 175.904L323.114 185.583L332.106 198.237L344.633 180.088Z" fill="#FBFBFB"/>
<path d="M298.564 179.887L322.255 222.636L344.632 180.088L332.105 198.287L323.114 185.583L315.133 198.237L298.564 179.887Z" fill="#FBFBFB"/>
<path opacity="0.15" d="M323.114 185.583L332.106 197.732L344.582 180.139L331.55 202.572L323.114 185.583Z" fill="black"/>
<path opacity="0.15" d="M323.115 185.583L315.134 198.237L298.616 179.887L316.498 203.379L323.115 185.583Z" fill="black"/>
<path opacity="0.15" d="M324.427 218.551L322.255 222.634L322.002 227.574H323.921L324.427 218.551Z" fill="black"/>
<path d="M422.524 227.575H233.403C229.311 227.575 225.978 224.248 225.978 220.165V200.555H430V220.165C429.949 224.299 426.615 227.575 422.524 227.575Z" fill="#61656D"/>
<path opacity="0.5" d="M422.524 227.575H233.403C229.311 227.575 225.978 224.248 225.978 220.165V200.555H430V220.165C429.949 224.299 426.615 227.575 422.524 227.575Z" fill="black"/>
<path d="M417.524 227.575H228.352C224.261 227.575 220.927 224.248 220.927 220.165V200.555H424.949V220.165C424.949 224.299 421.615 227.575 417.524 227.575Z" fill="#61656D"/>
<path d="M334.985 220.467C338.925 220.467 342.158 217.241 342.158 213.309C342.158 209.377 338.925 206.15 334.985 206.15C331.045 206.15 327.812 209.377 327.812 213.309C327.812 217.291 330.995 220.467 334.985 220.467Z" fill="#B1C3F8"/>
<path opacity="0.5" d="M334.985 220.467C338.925 220.467 342.158 217.241 342.158 213.309C342.158 209.377 338.925 206.15 334.985 206.15C331.045 206.15 327.812 209.377 327.812 213.309C327.812 217.291 330.995 220.467 334.985 220.467Z" fill="white"/>
<path d="M332.156 216.99C332.308 217.141 332.56 217.141 332.712 216.99L338.571 211.091C338.723 210.89 338.723 210.638 338.571 210.486L337.763 209.68C337.611 209.529 337.308 209.529 337.157 209.68L332.51 214.368L331.297 215.578C331.146 215.729 331.146 215.981 331.297 216.133L332.156 216.99Z" fill="white"/>
<path d="M337.815 216.99C337.663 217.141 337.411 217.141 337.259 216.99L331.4 211.091C331.248 210.89 331.248 210.638 331.4 210.486L332.208 209.68C332.41 209.529 332.663 209.529 332.814 209.68L337.461 214.368L338.674 215.578C338.825 215.729 338.825 215.981 338.674 216.133L337.815 216.99Z" fill="white"/>
<path d="M310.89 220.467C314.83 220.467 318.063 217.241 318.063 213.309C318.063 209.377 314.83 206.15 310.89 206.15C306.95 206.15 303.717 209.377 303.717 213.309C303.717 217.291 306.95 220.467 310.89 220.467Z" fill="#B1C3F8"/>
<path opacity="0.5" d="M310.89 220.467C314.83 220.467 318.063 217.241 318.063 213.309C318.063 209.377 314.83 206.15 310.89 206.15C306.95 206.15 303.717 209.377 303.717 213.309C303.717 217.291 306.95 220.467 310.89 220.467Z" fill="white"/>
<path d="M312.102 216.184H307.607C307.202 216.184 306.899 215.881 306.899 215.478V211.596C306.899 211.193 307.202 210.891 307.607 210.891H312.102C312.506 210.891 312.809 211.193 312.809 211.596V215.478C312.809 215.831 312.506 216.184 312.102 216.184Z" fill="#FCFCFC"/>
<path d="M312.811 212.603V214.217C312.811 214.318 312.861 214.368 312.912 214.419L314.831 215.427C314.983 215.528 315.185 215.376 315.185 215.225V211.847C315.185 211.696 315.033 211.545 314.882 211.646L312.962 212.402C312.861 212.402 312.811 212.502 312.811 212.603Z" fill="#FCFCFC"/>
<path opacity="0.3" d="M225.625 241.691C225.625 241.691 231.383 237.81 231.434 237.406" stroke="black" stroke-width="0.75" stroke-miterlimit="10" stroke-linecap="round" stroke-linejoin="round"/>
<path opacity="0.3" d="M225.625 243.505C225.625 243.505 228.302 241.69 230.02 240.43" stroke="black" stroke-width="0.75" stroke-miterlimit="10" stroke-linecap="round" stroke-linejoin="round"/>
<path d="M286.342 299.513L284.321 271.434H287.201L287.756 279.046L287.049 279.096L288.11 299.513H286.342Z" fill="#B1C3F8"/>
<path d="M288.109 300.772L289.877 279.297L289.12 279.246L289.726 272.643L292.656 273.096L289.928 301.075L288.109 300.772Z" fill="#B1C3F8"/>
<path d="M291.342 296.337L293.564 268.258L295.888 268.611L293.16 296.589L291.342 296.337Z" fill="#B1C3F8"/>
<path d="M297.453 304.403L296.393 276.273H299.272L299.423 283.281L298.918 283.331L299.322 304.454L297.453 304.403Z" fill="#B1C3F8"/>
<path d="M297.353 298.303L302.505 270.627L305.384 271.383L304.02 278.037L303.414 277.937L299.12 298.757L297.353 298.303Z" fill="#B1C3F8"/>
<path d="M177.132 210.586C177.738 212.099 178.294 213.661 178.9 215.275C180.718 220.517 175.616 221.425 175.616 221.425C175.616 221.425 177.384 225.004 174.909 227.978C172.434 231.003 169.1 229.541 169.1 229.541C169.1 229.541 167.989 231.154 164.857 231.507C160.361 231.961 158.593 230.247 158.593 230.247L153.845 229.592C153.239 229.944 152.835 232.314 147.885 233.07C143.338 233.776 140.914 231.154 140.914 231.154C139.803 233.574 134.145 233.372 133.337 229.642C132.579 226.164 134.145 224.651 134.347 224.5C131.518 226.668 126.366 221.274 131.367 215.728C133.387 213.46 134.499 212.401 135.256 211.292C132.933 211.947 130.357 209.326 131.316 206.856C132.529 203.73 135.105 204.839 137.327 200.353C140.308 194.354 142.682 192.236 142.833 192.136C146.824 188.052 152.936 185.985 159.654 186.137C165.413 186.237 168.797 188.456 170.868 190.775C172.636 192.791 173.545 195.362 173.697 197.983C173.747 198.538 173.798 199.092 173.848 199.647C174.707 201.563 176.526 204.94 178.496 205.898C181.223 207.259 179.91 211.04 177.132 210.586Z" fill="#21252B"/>
<path d="M125.103 374.526H178.95C182.638 374.526 185.264 370.946 184.203 367.367L158.492 278.895C157.785 276.525 155.664 274.912 153.239 274.912H99.3921C95.7046 274.912 93.0779 278.491 94.1387 282.071L119.85 370.543C120.507 372.912 122.679 374.526 125.103 374.526Z" fill="#84888F"/>
<path d="M132.478 374.526H179.405C183.092 374.526 185.719 370.946 184.658 367.367L158.947 278.895C158.24 276.525 156.118 274.912 153.694 274.912H106.767C103.08 274.912 100.453 278.491 101.514 282.071L127.225 370.543C127.932 372.912 130.054 374.526 132.478 374.526Z" fill="#B1C3F8"/>
<path d="M141.519 374.525H198.549C201.226 374.525 203.347 372.358 203.347 369.736C203.347 367.115 201.175 364.947 198.549 364.947H141.519C138.842 364.947 136.721 367.115 136.721 369.736C136.721 372.408 138.893 374.525 141.519 374.525Z" fill="#B1C3F8"/>
<path d="M181.475 449.387H132.478V454.226H181.475V449.387Z" fill="#84888F"/>
<path d="M176.928 453.218C176.524 455.739 178.191 458.108 180.717 458.511C183.243 458.915 185.617 457.251 186.021 454.73C186.425 452.21 184.758 449.84 182.232 449.437C179.707 449.034 177.333 450.697 176.928 453.218Z" fill="#84888F"/>
<path d="M160.007 371.652H155.158V451.353H160.007V371.652Z" fill="#84888F"/>
<path d="M127.882 453.218C127.477 455.739 129.144 458.108 131.67 458.511C134.196 458.915 136.57 457.251 136.974 454.73C137.378 452.21 135.711 449.84 133.185 449.437C130.71 449.034 128.336 450.697 127.882 453.218Z" fill="#84888F"/>
<path d="M126.618 374.525H183.647C186.325 374.525 188.446 372.358 188.446 369.736C188.446 367.115 186.274 364.947 183.647 364.947H126.618C123.941 364.947 121.819 367.115 121.819 369.736C121.819 372.408 123.941 374.525 126.618 374.525Z" fill="#84888F"/>
<path d="M193.548 442.782C250.376 347.453 240.323 336.01 230.574 331.422C230.473 331.372 230.726 331.422 230.574 331.422C219.361 330.616 198.65 322.449 198.65 322.449L170.464 359.956L206.884 367.316C204.055 386.119 204.409 394.588 192.791 416.517C188.497 424.583 194.811 433.103 193.548 442.782Z" fill="#956363"/>
<path opacity="0.08" d="M220.926 393.027L226.785 381.181C226.381 360.36 226.28 347.959 225.068 337.524C224.209 330.265 217.845 330.214 213.399 331.021C215.925 331.626 217.895 333.693 218.451 338.482C219.815 350.329 220.572 367.67 220.926 393.027Z" fill="black"/>
<path d="M228.149 458.159L221.179 453.37V424.484C221.179 424.484 221.179 424.433 221.128 424.433C220.977 381.231 220.269 354.664 218.4 338.482C216.633 323.156 200.721 335.81 196.326 333.743C193.649 332.483 191.881 327.542 186.577 327.24C177.182 326.786 175.818 314.385 175.818 314.385L169.302 352.748L194.003 353.605C193.346 378.609 203.6 394.539 208.298 420.854C205.722 422.518 203.802 425.593 203.802 430.18C215.218 433.961 213.955 454.781 213.955 454.781L228.149 458.159Z" fill="#956363"/>
<path d="M186.578 327.291C191.881 327.543 193.649 332.533 196.327 333.794C197.236 334.197 198.6 334.046 200.267 333.592C197.791 332.08 195.973 327.543 190.871 327.291C181.476 326.837 180.112 314.436 180.112 314.436L178.748 322.552C180.314 324.972 182.789 327.089 186.578 327.291Z" fill="#956363"/>
<path d="M205.167 422.77L189.407 449.337L196.428 458.512L184.911 447.875C184.911 447.875 192.741 431.037 187.891 421.409C191.932 411.579 206.076 414.099 205.167 422.77Z" fill="#956363"/>
<path d="M195.417 458.462L184.759 454.076C183.597 453.572 182.941 452.312 183.244 451.052C184.607 445.758 187.739 431.845 184.961 423.426C184.961 423.426 185.971 416.57 192.69 416.52C192.69 416.52 196.832 422.67 190.315 433.155L188.446 446.666C188.446 446.666 194.458 451.707 196.781 457C197.286 457.908 196.377 458.865 195.417 458.462Z" fill="#B1C3F8"/>
<path d="M185.012 423.426L173.04 449.186L174.151 449.64L187.891 424.585L185.012 423.426Z" fill="#B1C3F8"/>
<path opacity="0.2" d="M204.458 333.743C206.428 334.65 210.621 332.684 214.813 331.575C211.631 329.861 206.984 331.424 202.993 332.734C203.448 333.138 203.953 333.491 204.458 333.743Z" fill="black"/>
<path opacity="0.4" d="M221.179 435.372C218.906 432.247 215.825 423.879 215.269 420.803C210.572 394.539 201.378 378.609 202.035 353.554L177.334 352.697L181.931 325.777C176.677 322.4 175.768 314.334 175.768 314.334L169.252 352.697L193.953 353.554C193.296 378.558 203.55 394.489 208.248 420.803C205.672 422.467 203.752 425.542 203.752 430.13C215.168 433.91 213.905 454.731 213.905 454.731L228.15 458.108L221.179 453.319V435.372Z" fill="black"/>
<path d="M227.695 458.561H215.875C214.208 458.561 212.844 457.352 212.592 455.738C211.733 449.941 209.258 436.632 203.702 430.18C203.702 430.18 202.035 423.425 208.197 420.854C208.197 420.854 214.41 424.937 212.39 437.136L215.825 450.344C215.825 450.344 224.21 452.966 228.2 457.452C228.655 457.856 228.352 458.561 227.695 458.561Z" fill="#B1C3F8"/>
<path d="M203.754 430.18L202.592 458.561H203.754L206.835 430.18H203.754Z" fill="#B1C3F8"/>
<path d="M194.408 366.259L230.323 331.374L190.62 319.023L185.72 312.268H128.186V347.657C128.186 357.941 136.52 366.259 146.825 366.259H194.408Z" fill="#3F4249"/>
<path opacity="0.2" d="M155.461 359.251C145.156 359.251 136.821 350.933 136.821 340.649V312.268H128.386V347.657C128.386 357.941 136.72 366.259 147.025 366.259H194.608L201.832 359.251H155.461Z" fill="black"/>
<path d="M57.9707 314.787H54.2832V458.561H57.9707V314.787Z" fill="#61656D"/>
<path d="M274.976 314.787H271.288V458.561H274.976V314.787Z" fill="#61656D"/>
<path d="M313.972 314.787H274.976V458.561H313.972V314.787Z" fill="#61656D"/>
<path opacity="0.5" d="M313.972 314.787H274.976V458.561H313.972V314.787Z" fill="black"/>
<path d="M97.0185 314.787H58.0225V458.561H97.0185V314.787Z" fill="#61656D"/>
<path opacity="0.5" d="M97.0185 314.787H58.0225V458.561H97.0185V314.787Z" fill="black"/>
<path d="M238.203 307.629H313.417C315.387 307.629 317.004 309.242 317.004 311.208C317.004 313.174 315.387 314.787 313.417 314.787H238.203" fill="#61656D"/>
<path opacity="0.5" d="M238.203 307.629H313.417C315.387 307.629 317.004 309.242 317.004 311.208C317.004 313.174 315.387 314.787 313.417 314.787H238.203" fill="black"/>
<path d="M49.5864 307.629H279.32C281.29 307.629 282.906 309.242 282.906 311.208C282.906 313.174 281.29 314.787 279.32 314.787H49.5864C47.6164 314.787 46 313.174 46 311.208C46 309.242 47.5659 307.629 49.5864 307.629Z" fill="#61656D"/>
<path opacity="0.5" d="M57.9707 314.787H54.2832V315.997H57.9707V314.787Z" fill="black"/>
<path d="M284.825 307.58H301.444C302.556 307.58 303.414 306.672 303.414 305.614V286.508H282.855V305.614C282.855 306.723 283.765 307.58 284.825 307.58Z" fill="#21252B"/>
<path d="M165.918 224.199C166.979 221.577 165.766 218.603 163.14 217.544C160.513 216.486 157.533 217.696 156.472 220.317C155.411 222.938 156.623 225.913 159.25 226.971C161.877 228.03 164.857 226.82 165.918 224.199Z" fill="#21252B"/>
<path d="M250.023 219.861L230.475 244.462L209.966 237.556L203.804 253.688L224.363 259.535C230.273 261.199 236.587 258.729 239.719 253.435L256.691 224.499L250.023 219.861Z" fill="#F39494"/>
<path d="M250.678 218.2C250.678 218.2 251.183 215.578 252.294 211.142C252.648 209.68 254.618 210.235 254.769 210.688C255.123 211.696 255.022 213.058 255.022 214.268C255.073 217.242 264.114 210.991 266.691 209.126C267.145 208.823 267.751 209.125 267.701 209.68C267.6 211.142 266.135 214.57 258.811 222.333C258.002 223.19 257.093 224.098 256.083 225.106C241.485 239.725 250.678 218.2 250.678 218.2Z" fill="#F39494"/>
<path d="M203.803 253.689L209.965 237.558C209.965 237.558 196.024 232.869 188.396 230.248C185.214 229.189 181.83 228.736 178.445 228.937L168.848 229.492L138.489 231.155C128.74 231.76 121.719 240.734 123.487 250.312L126.265 265.889L128.286 279.752V307.58H185.921C185.921 307.58 184.81 297.548 186.477 280.105C187.437 269.872 192.69 268.611 191.629 259.184C191.175 255.202 189.306 252.53 187.639 248.749L192.235 250.211L203.803 253.689Z" fill="#B1C3F8"/>
<path d="M149.401 209.377L149.856 226.92C149.906 228.332 148.946 229.592 147.633 230.096L145.663 230.802L150.411 233.323C155.16 235.894 160.817 236.095 165.666 233.928C166.575 233.524 167.384 233.071 168.242 232.516L173.041 229.29L170.768 228.786C169.505 228.534 168.495 227.424 168.293 226.164L164.858 205.395L149.401 209.377Z" fill="#956363"/>
<path d="M162.633 222.938L161.825 223.039C155.814 223.594 150.56 219.258 149.954 213.31L148.489 198.186C148.287 196.17 149.752 194.456 151.773 194.254L165.967 192.843C168.543 192.591 170.867 194.506 171.119 197.077L172.483 211.142C172.938 217.04 168.594 222.384 162.633 222.938Z" fill="#956363"/>
<path d="M160.563 207.563C161.22 207.563 161.725 207.059 161.725 206.404C161.725 205.748 161.22 205.244 160.563 205.244C159.906 205.244 159.401 205.748 159.401 206.404C159.401 207.059 159.906 207.563 160.563 207.563Z" fill="#21252B"/>
<path d="M161.07 206.403C161.221 206.403 161.323 206.302 161.323 206.15C161.323 205.999 161.221 205.898 161.07 205.898C160.918 205.898 160.817 205.999 160.817 206.15C160.817 206.302 160.918 206.403 161.07 206.403Z" fill="white"/>
<path d="M169.707 207.108C170.363 207.108 170.869 206.604 170.869 205.949C170.869 205.293 170.363 204.789 169.707 204.789C169.05 204.789 168.545 205.293 168.545 205.949C168.545 206.604 169.05 207.108 169.707 207.108Z" fill="#21252B"/>
<path d="M170.161 205.848C170.312 205.848 170.413 205.747 170.413 205.596C170.413 205.445 170.312 205.344 170.161 205.344C170.009 205.344 169.908 205.445 169.908 205.596C169.959 205.747 170.06 205.848 170.161 205.848Z" fill="white"/>
<path opacity="0.15" d="M165.819 213.007L164.253 213.259C164.051 213.259 163.899 213.158 163.849 213.007C163.849 212.806 163.95 212.654 164.101 212.603L165.667 212.351C166.071 212.301 166.324 211.898 166.273 211.545C166.223 211.141 165.819 210.889 165.465 210.889C165.263 210.889 165.111 210.789 165.061 210.637C165.061 210.436 165.162 210.285 165.313 210.235C166.071 210.134 166.829 210.688 166.879 211.394C167.132 212.2 166.627 212.906 165.819 213.007Z" fill="black"/>
<path d="M150.764 213.863C150.764 213.863 145.662 214.972 143.894 210.082C142.126 205.142 148.289 203.327 149.854 208.318L151.37 213.813L150.764 213.863Z" fill="#956363"/>
<path opacity="0.15" d="M145.107 207.157C145.612 206.704 146.117 206.502 146.572 206.552C147.077 206.552 147.531 206.855 147.936 207.359C148.34 207.863 148.693 208.569 148.794 209.275L148.895 209.829C148.946 210.233 148.289 210.434 148.239 209.981C148.087 209.426 148.087 209.426 148.087 209.426C148.087 209.224 147.835 208.317 147.43 207.863C147.127 207.51 146.824 207.309 146.521 207.258C146.218 207.208 145.915 207.41 145.511 207.712C145.359 207.813 145.157 207.813 145.006 207.712C144.955 207.46 144.955 207.258 145.107 207.157Z" fill="black"/>
<path d="M149.148 213.208C149.703 213.157 150.158 212.704 150.107 212.149C150.057 211.595 149.602 211.141 149.047 211.191C148.491 211.242 148.036 211.695 148.087 212.25C148.137 212.805 148.592 213.258 149.148 213.208Z" fill="#B1C3F8"/>
<path opacity="0.15" d="M149.602 213.108C148.996 213.208 148.39 212.755 148.339 212.15C148.339 211.948 148.39 211.696 148.441 211.545C148.188 211.747 148.087 212.099 148.087 212.452C148.188 213.057 148.693 213.41 149.249 213.309C149.451 213.309 149.703 213.209 149.804 213.057C149.754 213.007 149.653 213.057 149.602 213.108Z" fill="black"/>
<path opacity="0.15" d="M167.485 221.273C165.869 222.332 164 222.887 161.979 223.088C161.525 223.139 161.121 223.139 160.666 223.139C160.514 223.139 160.312 223.139 160.161 223.139C160.11 223.139 160.11 223.139 160.06 223.139C159.807 223.088 159.555 223.139 159.252 223.088C159.15 223.088 159.049 223.038 158.948 223.038C157.231 222.836 155.918 222.332 155.059 221.878C154.907 221.778 154.705 221.828 154.604 221.979C154.503 222.13 154.554 222.332 154.705 222.433C155.817 222.987 157.534 223.643 159.757 223.794C160.969 224.601 163.04 225.558 165.566 225.458C166.424 225.407 167.233 225.256 167.99 225.054L167.485 221.273Z" fill="black"/>
<path d="M166.826 214.771C166.978 214.771 167.079 214.923 167.028 215.074C166.523 216.233 165.412 217.09 164.098 217.141C162.785 217.191 161.623 216.485 160.966 215.427C160.916 215.276 160.966 215.124 161.169 215.124L166.826 214.771Z" fill="white"/>
<path d="M145.663 230.752C146.118 239.12 161.979 245.119 161.979 245.119C161.979 245.119 173.496 237.608 173.041 229.24L170.414 228.635L145.663 230.752Z" fill="#956363"/>
<path d="M169.808 202.47C168.343 202.672 167.131 203.529 166.373 204.689C165.009 204.336 163.898 204.689 163.443 204.89C162.483 203.479 160.766 202.622 158.897 202.874C156.321 203.227 154.502 205.596 154.805 208.167C155.159 210.738 157.533 212.553 160.109 212.25C162.685 211.897 164.504 209.528 164.201 206.957C164.15 206.403 163.948 205.949 163.746 205.445C164.201 205.293 165.11 205.041 166.07 205.293C165.716 206.05 165.615 206.907 165.716 207.814C166.07 210.385 168.444 212.2 171.02 211.897C173.596 211.545 175.415 209.175 175.112 206.604C174.859 203.983 172.435 202.168 169.808 202.47ZM160.21 211.645C157.988 211.948 155.917 210.385 155.614 208.117C155.311 205.848 156.877 203.832 159.15 203.529C161.423 203.227 163.443 204.789 163.746 207.058C163.999 209.276 162.382 211.343 160.21 211.645ZM171.02 211.242C168.798 211.545 166.727 209.982 166.423 207.713C166.12 205.495 167.686 203.428 169.959 203.126C172.182 202.823 174.253 204.386 174.556 206.655C174.859 208.873 173.243 210.94 171.02 211.242Z" fill="white"/>
<path d="M151.268 239.171L170.311 237.154C170.311 237.154 169.351 238.767 166.775 241.238C164.654 243.305 161.976 245.119 161.976 245.119C161.976 245.119 159.198 244.061 156.066 242.296C153.036 240.633 151.268 239.171 151.268 239.171Z" fill="#21252B"/>
<path d="M180.163 295.984L184.811 296.589L194.661 295.732C195.721 295.833 196.176 296.035 196.934 296.69L203.046 302.135C203.45 302.488 203.45 303.093 203.147 303.445C202.844 303.849 202.238 303.95 201.834 303.597L196.075 299.362L199.813 303.798C200.217 304.302 200.066 305.059 199.409 305.311C199.055 305.462 198.702 305.361 198.449 305.109L193.448 300.219L197.237 303.95C197.691 304.403 197.54 305.159 196.934 305.361C196.631 305.512 196.328 305.411 196.075 305.26L190.721 301.379L194.358 304.05C194.762 304.353 194.762 305.008 194.358 305.311C194.105 305.462 193.852 305.512 193.6 305.411L188.751 303.395C188.296 303.193 187.74 303.193 187.286 303.445L185.417 304.353C183.901 305.109 182.234 305.512 180.568 305.512H177.537C173.193 305.411 180.163 295.984 180.163 295.984Z" fill="#956363"/>
<path opacity="0.15" d="M194.305 304.202C194.255 304.202 194.255 304.202 194.204 304.151L190.87 301.732C190.82 301.681 190.769 301.58 190.82 301.48C190.87 301.429 190.971 301.379 191.072 301.429L194.406 303.849C194.457 303.899 194.507 304 194.457 304.05C194.406 304.151 194.356 304.202 194.305 304.202Z" fill="black"/>
<path opacity="0.15" d="M197.185 304.1C197.135 304.1 197.084 304.1 197.084 304.05L193.498 300.521C193.447 300.471 193.447 300.37 193.498 300.269C193.548 300.168 193.649 300.219 193.75 300.269L197.337 303.798C197.387 303.848 197.387 303.949 197.337 304.05C197.286 304.1 197.185 304.1 197.185 304.1Z" fill="black"/>
<path opacity="0.15" d="M189.811 302.738C190.922 303.293 192.791 304.251 193.447 304.603C194.357 305.108 194.609 304.452 194.609 304.452C194.66 304.755 194.559 305.057 194.306 305.259C194.054 305.41 193.801 305.46 193.549 305.36L188.699 303.343C188.245 303.141 187.689 303.141 187.234 303.394L188.194 302.839C188.699 302.537 189.305 302.537 189.811 302.738Z" fill="black"/>
<path d="M180.162 295.983L147.379 288.522L144.449 265.182L126.618 267.753L130.104 289.581C131.114 296.185 136.064 300.924 142.732 301.68L177.535 305.41L180.162 295.983Z" fill="#956363"/>
<path d="M172.131 305.41H211.228C211.531 305.41 211.834 305.662 211.834 306.015V307.023C211.834 307.326 211.581 307.628 211.228 307.628H172.131C171.827 307.628 171.524 307.376 171.524 307.023V306.015C171.524 305.713 171.777 305.41 172.131 305.41Z" fill="#21252B"/>
<path opacity="0.6" d="M172.131 305.41H211.228C211.531 305.41 211.834 305.662 211.834 306.015V307.023C211.834 307.326 211.581 307.628 211.228 307.628H172.131C171.827 307.628 171.524 307.376 171.524 307.023V306.015C171.524 305.713 171.777 305.41 172.131 305.41Z" fill="black"/>
<path d="M198.448 305.41H266.59C266.893 305.41 267.196 305.662 267.196 306.015V307.023C267.196 307.326 266.944 307.628 266.59 307.628H198.448C198.145 307.628 197.842 307.376 197.842 307.023V306.015C197.943 305.713 198.145 305.41 198.448 305.41Z" fill="#21252B"/>
<path opacity="0.6" d="M265.73 305.815H196.376C196.275 305.815 196.174 305.715 196.174 305.614C196.174 305.513 196.275 305.412 196.376 305.412H265.73C265.831 305.412 265.932 305.513 265.932 305.614C265.932 305.715 265.781 305.815 265.73 305.815Z" fill="black"/>
<path d="M198.298 305.411H208.552C209.36 305.411 210.017 304.856 210.168 304.05L218.756 258.931C218.958 257.923 218.15 257.016 217.139 257.016H206.936C206.127 257.016 205.471 257.57 205.319 258.377L196.732 303.495C196.53 304.503 197.288 305.411 198.298 305.411Z" fill="#21252B"/>
<path opacity="0.6" d="M198.298 305.411H208.552C209.36 305.411 210.017 304.856 210.168 304.05L218.756 258.931C218.958 257.923 218.15 257.016 217.139 257.016H206.936C206.127 257.016 205.471 257.57 205.319 258.377L196.732 303.495C196.53 304.503 197.288 305.411 198.298 305.411Z" fill="black"/>
<path d="M199.762 305.411H265.681C266.49 305.411 267.146 304.856 267.298 304.05L275.885 258.931C276.087 257.923 275.279 257.016 274.269 257.016H208.4C207.591 257.016 206.935 257.57 206.783 258.377L198.196 303.495C197.994 304.503 198.751 305.411 199.762 305.411Z" fill="#21252B"/>
<path opacity="0.6" d="M237.446 279.954C237.041 280.862 237.496 281.668 238.405 281.668C238.456 281.668 238.506 281.668 238.557 281.668C237.496 282.828 235.88 283.685 234.415 283.634C232.495 283.584 231.536 282.021 232.445 280.055C233.304 278.139 235.577 276.627 237.496 276.627C238.708 276.677 239.567 277.282 239.769 278.291C238.86 278.391 237.85 279.047 237.446 279.954Z" fill="black"/>
<path opacity="0.15" d="M142.479 249.758L151.521 285.096L180.162 295.985L147.379 288.524L142.479 249.758Z" fill="black"/>
<path opacity="0.15" d="M187.69 248.85C185.366 242.801 183.699 229.189 183.699 229.189C184.154 229.189 186.376 229.694 186.376 229.694C186.932 235.894 191.933 250.161 192.691 250.463L187.69 248.85Z" fill="black"/>
<path d="M154.503 194.103C154.503 194.103 153.947 203.631 149.502 207.462C149.502 207.462 149.098 204.941 145.663 205.294C145.663 205.294 145.36 204.689 144.855 201.866C144.35 198.993 146.168 187.196 159.301 187.952C159.301 187.952 163.494 187.095 169.303 192.086C175.163 197.077 171.677 202.521 171.677 202.521C171.677 202.521 161.928 201.211 154.503 194.103Z" fill="#21252B"/>
<path opacity="0.5" d="M100.502 304.102H107.927L108.938 307.58H101.512L100.502 304.102Z" fill="black"/>
<path d="M303.465 288.877H282.906V290.591H303.465V288.877Z" fill="black"/>
<path d="M303.465 291.549H282.906V292.759H303.465V291.549Z" fill="black"/>
<path d="M295.079 268.51L294.17 277.029L295.433 277.181L296.342 268.661L295.079 268.51Z" fill="#B1C3F8"/>
</svg>
