<svg width="476" height="457" viewBox="0 0 476 457" fill="none" xmlns="http://www.w3.org/2000/svg">
<path d="M456.899 285.506C456.899 432.563 371.502 437.551 250.607 437.551C129.713 437.551 19.1016 432.563 19.1016 285.506C19.1016 138.449 117.106 19.2363 238 19.2363C358.895 19.2363 456.899 138.449 456.899 285.506Z" fill="#E2EAFF"/>
<path d="M474.5 290.478C474.5 330.436 468.714 360.604 458.079 383.397C447.461 406.157 431.978 421.633 412.432 432.186C392.851 442.758 369.137 448.418 342.04 451.423C314.944 454.428 284.573 454.77 251.707 454.77C185.906 454.77 123.332 453.384 77.1892 432.143C54.1782 421.551 35.294 406.032 22.1436 383.281C8.98279 360.512 1.5 330.385 1.5 290.478C1.5 130.662 107.65 1.63477 238 1.63477C368.35 1.63477 474.5 130.662 474.5 290.478Z" stroke="#4364C8" stroke-width="3"/>
<path d="M263.634 291.87H226.051L229.858 245.15H259.561L267.475 287.227C267.581 287.793 267.561 288.374 267.417 288.931C267.274 289.488 267.009 290.006 266.642 290.449C266.276 290.892 265.816 291.249 265.296 291.495C264.776 291.74 264.209 291.868 263.634 291.87Z" fill="#3F4249"/>
<path d="M331.236 138.865H338.571C340.03 138.865 341.429 139.445 342.462 140.477C343.491 141.509 344.073 142.909 344.073 144.369V271.569C344.073 272.962 343.518 274.298 342.536 275.284C341.55 276.27 340.215 276.825 338.823 276.827H325.74V144.369C325.74 142.91 326.319 141.511 327.348 140.48C328.38 139.448 329.776 138.867 331.236 138.865Z" fill="#3F4249"/>
<path d="M131.316 251.143H341.143V271.508C341.143 272.92 340.581 274.273 339.586 275.271C338.587 276.269 337.235 276.83 335.822 276.83H136.63C135.22 276.828 133.869 276.267 132.872 275.269C131.876 274.271 131.316 272.919 131.316 271.508V251.143Z" fill="#868A91"/>
<path d="M136.815 138.865H335.638C337.097 138.865 338.496 139.445 339.529 140.477C340.561 141.509 341.14 142.909 341.14 144.369V251.142H131.316V144.369C131.316 142.91 131.896 141.51 132.927 140.478C133.958 139.446 135.357 138.866 136.815 138.865Z" fill="#61656D"/>
<path opacity="0.2" d="M236.227 268.51C238.725 268.51 240.75 266.484 240.75 263.986C240.75 261.487 238.725 259.461 236.227 259.461C233.728 259.461 231.703 261.487 231.703 263.986C231.703 266.484 233.728 268.51 236.227 268.51Z" fill="white"/>
<path d="M263.712 292.675C263.419 292.675 263.126 292.653 262.837 292.607H204.924V291.154H262.975H263.049C263.049 291.154 264.68 291.46 265.551 290.596C266.16 289.99 266.321 288.914 266.032 287.363L267.472 287.094C267.858 289.146 267.559 290.68 266.577 291.645C265.793 292.349 264.765 292.719 263.712 292.675Z" fill="#3F4249"/>
<path d="M245.581 291.137H204.924V292.603H245.581V291.137Z" fill="#868A91"/>
<path d="M334.906 144.49H137.549V245.518H334.906V144.49Z" fill="white"/>
<path d="M334.906 144.49H137.549V152.073H334.906V144.49Z" fill="#868A91"/>
<path d="M146.535 152.072H137.549V245.514H146.535V152.072Z" fill="#868A91"/>
<path d="M334.9 152.072H300.051V245.514H334.9V152.072Z" fill="#B1C3F8"/>
<path opacity="0.6" d="M334.906 241.359H137.549V245.518H334.906V241.359Z" fill="#868A91"/>
<path d="M329.074 156.723H305.791C304.649 156.723 303.723 157.649 303.723 158.792V192.936C303.723 194.079 304.649 195.005 305.791 195.005H329.074C330.218 195.005 331.143 194.079 331.143 192.936V158.792C331.143 157.649 330.218 156.723 329.074 156.723Z" fill="#3F4249"/>
<path d="M329.074 197.816H305.791C304.649 197.816 303.723 198.743 303.723 199.885V210.179C303.723 211.322 304.649 212.248 305.791 212.248H329.074C330.218 212.248 331.143 211.322 331.143 210.179V199.885C331.143 198.743 330.218 197.816 329.074 197.816Z" fill="#3F4249"/>
<path d="M329.074 214.939H305.791C304.649 214.939 303.723 215.866 303.723 217.008V239.288C303.723 240.431 304.649 241.357 305.791 241.357H329.074C330.218 241.357 331.143 240.431 331.143 239.288V217.008C331.143 215.866 330.218 214.939 329.074 214.939Z" fill="#3F4249"/>
<path d="M169.354 152.072H146.535V155.251H169.354V152.072Z" fill="#3F4249"/>
<path d="M300.054 152.072H169.355V155.251H300.054V152.072Z" fill="#B1C3F8"/>
<path d="M327.208 162.574H307.567C307.373 162.574 307.186 162.497 307.049 162.359C306.911 162.222 306.834 162.035 306.834 161.841C306.834 161.646 306.911 161.46 307.049 161.322C307.186 161.185 307.373 161.107 307.567 161.107H327.208C327.403 161.107 327.588 161.185 327.726 161.322C327.864 161.46 327.941 161.646 327.941 161.841C327.941 162.035 327.864 162.222 327.726 162.359C327.588 162.497 327.403 162.574 327.208 162.574Z" fill="#B1C3F8"/>
<path d="M327.207 169.277H307.566C307.379 169.264 307.205 169.181 307.077 169.045C306.95 168.908 306.879 168.728 306.879 168.542C306.879 168.355 306.95 168.175 307.077 168.039C307.205 167.902 307.379 167.819 307.566 167.807H327.207C327.392 167.819 327.567 167.902 327.695 168.039C327.823 168.175 327.893 168.355 327.893 168.542C327.893 168.728 327.823 168.908 327.695 169.045C327.567 169.181 327.392 169.264 327.207 169.277Z" fill="#B1C3F8"/>
<path d="M328.115 205.769H306.657C306.471 205.756 306.297 205.673 306.169 205.537C306.042 205.4 305.971 205.22 305.971 205.034C305.971 204.847 306.042 204.667 306.169 204.53C306.297 204.394 306.471 204.311 306.657 204.299H328.115C328.216 204.292 328.317 204.306 328.411 204.34C328.505 204.373 328.593 204.426 328.667 204.495C328.741 204.564 328.801 204.647 328.841 204.74C328.878 204.833 328.902 204.933 328.902 205.034C328.902 205.135 328.878 205.235 328.841 205.327C328.801 205.42 328.741 205.503 328.667 205.572C328.593 205.641 328.505 205.694 328.411 205.728C328.317 205.761 328.216 205.775 328.115 205.769Z" fill="#B1C3F8"/>
<path d="M324.44 176.135H307.567C307.373 176.135 307.186 176.058 307.049 175.92C306.911 175.782 306.834 175.596 306.834 175.401C306.834 175.207 306.911 175.021 307.049 174.883C307.186 174.745 307.373 174.668 307.567 174.668H324.44C324.635 174.668 324.82 174.745 324.958 174.883C325.096 175.021 325.174 175.207 325.174 175.401C325.174 175.596 325.096 175.782 324.958 175.92C324.82 176.058 324.635 176.135 324.44 176.135Z" fill="#B1C3F8"/>
<path d="M324.44 182.242H307.567C307.373 182.242 307.186 182.165 307.049 182.027C306.911 181.89 306.834 181.703 306.834 181.509C306.834 181.314 306.911 181.128 307.049 180.99C307.186 180.853 307.373 180.775 307.567 180.775H324.44C324.635 180.775 324.82 180.853 324.958 180.99C325.096 181.128 325.174 181.314 325.174 181.509C325.174 181.703 325.096 181.89 324.958 182.027C324.82 182.165 324.635 182.242 324.44 182.242Z" fill="#B1C3F8"/>
<path d="M309.776 192.169C309.107 192.169 308.453 191.97 307.896 191.598C307.34 191.227 306.906 190.698 306.65 190.08C306.394 189.461 306.327 188.781 306.458 188.124C306.588 187.468 306.91 186.865 307.384 186.392C307.857 185.918 308.459 185.596 309.116 185.465C309.772 185.335 310.452 185.402 311.071 185.658C311.689 185.914 312.217 186.348 312.589 186.905C312.961 187.461 313.159 188.115 313.159 188.785C313.159 189.682 312.803 190.542 312.167 191.176C311.533 191.811 310.673 192.168 309.776 192.169ZM309.776 186.871C309.397 186.871 309.028 186.984 308.714 187.195C308.399 187.405 308.155 187.704 308.01 188.054C307.866 188.404 307.829 188.789 307.903 189.16C307.977 189.531 308.159 189.872 308.427 190.139C308.695 190.407 309.036 190.589 309.407 190.662C309.778 190.736 310.163 190.698 310.512 190.553C310.862 190.408 311.16 190.163 311.371 189.848C311.581 189.533 311.693 189.163 311.693 188.785C311.693 188.533 311.643 188.284 311.547 188.051C311.451 187.819 311.309 187.608 311.131 187.43C310.953 187.252 310.742 187.111 310.509 187.015C310.277 186.919 310.027 186.87 309.776 186.871Z" fill="white"/>
<path d="M317.637 192.169C316.968 192.173 316.312 191.978 315.751 191.608C315.192 191.239 314.755 190.711 314.496 190.093C314.237 189.476 314.167 188.795 314.294 188.137C314.426 187.479 314.745 186.874 315.216 186.399C315.69 185.923 316.292 185.599 316.948 185.467C317.607 185.335 318.287 185.4 318.905 185.656C319.528 185.911 320.056 186.345 320.429 186.902C320.802 187.459 321.001 188.114 321.001 188.785C321.001 189.678 320.644 190.536 320.015 191.169C319.386 191.803 318.532 192.162 317.637 192.169ZM317.637 186.87C317.257 186.871 316.887 186.984 316.575 187.194C316.262 187.405 316.016 187.704 315.872 188.054C315.727 188.404 315.69 188.789 315.764 189.16C315.838 189.531 316.02 189.872 316.289 190.139C316.558 190.406 316.898 190.588 317.268 190.662C317.641 190.736 318.024 190.698 318.374 190.553C318.724 190.408 319.023 190.162 319.232 189.848C319.443 189.533 319.554 189.163 319.554 188.785C319.554 188.533 319.504 188.284 319.406 188.051C319.312 187.819 319.171 187.607 318.993 187.43C318.815 187.252 318.603 187.111 318.371 187.015C318.139 186.919 317.89 186.87 317.637 186.87Z" fill="white"/>
<path d="M325.469 192.169C324.8 192.169 324.147 191.97 323.589 191.598C323.034 191.227 322.6 190.698 322.345 190.08C322.086 189.461 322.022 188.781 322.15 188.124C322.281 187.468 322.604 186.865 323.078 186.392C323.549 185.918 324.154 185.596 324.81 185.465C325.466 185.335 326.145 185.402 326.764 185.658C327.383 185.914 327.911 186.348 328.281 186.905C328.654 187.461 328.852 188.115 328.852 188.785C328.852 189.682 328.496 190.542 327.86 191.176C327.225 191.811 326.367 192.168 325.469 192.169ZM325.469 186.871C325.092 186.871 324.719 186.983 324.406 187.193C324.09 187.403 323.845 187.702 323.7 188.052C323.556 188.402 323.518 188.787 323.592 189.158C323.666 189.529 323.848 189.871 324.117 190.138C324.383 190.406 324.726 190.588 325.096 190.662C325.466 190.736 325.853 190.698 326.202 190.553C326.552 190.408 326.851 190.163 327.06 189.848C327.272 189.533 327.383 189.163 327.383 188.785C327.383 188.277 327.181 187.79 326.821 187.431C326.465 187.072 325.977 186.871 325.469 186.871Z" fill="white"/>
<path d="M324.083 208.581C323.888 208.581 323.703 208.503 323.565 208.366C323.427 208.228 323.35 208.042 323.35 207.847V201.974C323.35 201.779 323.427 201.592 323.565 201.455C323.703 201.317 323.888 201.24 324.083 201.24C324.278 201.24 324.463 201.317 324.601 201.455C324.739 201.592 324.816 201.779 324.816 201.974V207.847C324.816 208.041 324.739 208.227 324.601 208.365C324.463 208.502 324.278 208.579 324.083 208.581Z" fill="white"/>
<path d="M311.972 217.875H307.539C307.053 217.875 306.658 218.27 306.658 218.756V223.19C306.658 223.677 307.053 224.072 307.539 224.072H311.972C312.459 224.072 312.853 223.677 312.853 223.19V218.756C312.853 218.27 312.459 217.875 311.972 217.875Z" fill="#B1C3F8"/>
<path d="M315.066 220.975H310.633C310.146 220.975 309.752 221.369 309.752 221.856V226.29C309.752 226.777 310.146 227.171 310.633 227.171H315.066C315.554 227.171 315.947 226.777 315.947 226.29V221.856C315.947 221.369 315.554 220.975 315.066 220.975Z" fill="white"/>
<path d="M328.114 219.588H318.946C318.751 219.588 318.566 219.511 318.428 219.373C318.29 219.236 318.213 219.049 318.213 218.854C318.213 218.66 318.29 218.474 318.428 218.336C318.566 218.198 318.751 218.121 318.946 218.121H328.114C328.309 218.121 328.494 218.198 328.632 218.336C328.77 218.474 328.847 218.66 328.847 218.854C328.847 219.049 328.77 219.236 328.632 219.373C328.494 219.511 328.309 219.588 328.114 219.588Z" fill="#B1C3F8"/>
<path d="M328.116 232.98H306.659C306.465 232.98 306.278 232.903 306.14 232.765C306.003 232.628 305.926 232.441 305.926 232.247C305.926 232.053 306.003 231.866 306.14 231.728C306.278 231.591 306.465 231.514 306.659 231.514H328.116C328.311 231.514 328.496 231.591 328.634 231.728C328.772 231.866 328.849 232.053 328.849 232.247C328.849 232.441 328.772 232.628 328.634 232.765C328.496 232.903 328.311 232.98 328.116 232.98Z" fill="#B1C3F8"/>
<path d="M328.116 238.307H306.659C306.465 238.307 306.278 238.229 306.14 238.092C306.003 237.954 305.926 237.768 305.926 237.573C305.926 237.379 306.003 237.192 306.14 237.055C306.278 236.917 306.465 236.84 306.659 236.84H328.116C328.311 236.84 328.496 236.917 328.634 237.055C328.772 237.192 328.849 237.379 328.849 237.573C328.849 237.768 328.772 237.954 328.634 238.092C328.496 238.229 328.311 238.307 328.116 238.307Z" fill="#B1C3F8"/>
<path opacity="0.1" d="M300.053 162.76V161.303H293.757V155.248H292.287V161.303H286.388V155.248H284.922V161.303H279.026V155.248H277.56V161.303H271.664V155.248H270.215V161.303H264.302V155.248H262.836V161.303H256.94V155.248H255.474V161.303H249.579V155.248H248.112V161.303H242.217V155.248H240.747V161.303H234.855V155.248H233.385V161.303H227.503V155.248H226.023V161.303H220.127V155.248H218.661V161.303H212.766V155.248H211.299V161.303H205.404V155.248H203.937V161.303H198.042V155.248H196.562V161.303H190.68V155.248H189.21V161.303H183.318V155.248H181.848V161.303H175.956V155.248H174.486V161.303H168.591V155.248H167.124V161.303H161.229V155.248H159.762V161.303H153.867V155.248H152.4V161.303H146.535V162.77H152.4V168.553H146.535V170.019H152.4V175.799H146.535V177.269H152.4V183.048H146.535V184.515H152.4V190.298H146.535V191.764H152.4V197.534H146.535V199H152.4V204.783H146.535V206.25H152.4V212.033H146.535V213.499H152.4V219.279H146.535V220.745H152.4V226.528H146.535V227.995H152.4V233.774H146.535V235.244H152.4V241.367H153.867V235.244H159.762V241.367H161.229V235.244H167.124V241.367H168.591V235.244H174.486V241.367H175.956V235.244H181.848V241.367H183.318V235.244H189.21V241.367H190.68V235.244H196.562V241.367H198.028V235.244H203.924V241.367H205.39V235.244H211.286V241.367H212.752V235.244H218.648V241.367H220.114V235.244H226.023V241.367H227.503V235.244H233.398V241.367H234.868V235.244H240.76V241.367H242.23V235.244H248.126V241.367H249.592V235.244H255.488V241.367H256.954V235.244H262.849V241.367H264.316V235.244H270.215V241.367H271.681V235.244H277.577V241.367H279.043V235.244H284.939V241.367H286.405V235.244H292.301V241.367H293.757V235.244H300.056V233.774H293.757V227.995H300.056V226.528H293.757V220.745H300.056V219.279H293.757V213.499H300.056V212.033H293.757V206.25H300.056V204.783H293.757V199H300.056V197.534H293.757V191.754H300.056V190.288H293.757V184.515H300.056V183.048H293.757V177.259H300.056V175.789H293.757V170.009H300.056V168.543H293.757V162.76H300.053ZM284.918 162.76V168.543H279.026V162.76H284.918ZM248.112 197.534H242.217V191.754H248.112V197.534ZM249.579 191.754H255.474V197.534H249.579V191.754ZM240.747 197.534H234.855V191.754H240.747V197.534ZM233.385 197.534H227.503V191.754H233.398L233.385 197.534ZM226.023 197.534H220.127V191.754H226.023V197.534ZM218.661 197.534H212.766V191.754H218.661V197.534ZM211.299 197.534H205.404V191.754H211.299V197.534ZM203.937 197.534H198.042V191.754H203.937V197.534ZM196.575 197.534H190.68V191.754H196.562L196.575 197.534ZM189.21 197.534H183.318V191.754H189.21V197.534ZM189.21 199V204.783H183.318V199H189.21ZM190.68 199H196.562V204.783H190.68V199ZM198.042 199H203.937V204.783H198.042V199ZM205.404 199H211.299V204.783H205.404V199ZM212.766 199H218.661V204.783H212.766V199ZM220.127 199H226.023V204.783H220.127V199ZM227.489 199H233.385V204.783H227.503L227.489 199ZM234.855 199H240.747V204.783H234.855V199ZM242.217 199H248.112V204.783H242.217V199ZM249.579 199H255.474V204.783H249.579V199ZM256.94 199H262.836V204.783H256.94V199ZM256.94 197.534V191.754H262.836V197.534H256.94ZM256.94 190.288V184.515H262.836V190.298L256.94 190.288ZM255.474 190.288H249.579V184.515H255.474V190.288ZM248.112 190.288H242.217V184.515H248.112V190.288ZM240.747 190.288H234.855V184.515H240.747V190.288ZM233.385 190.288H227.503V184.515H233.398L233.385 190.288ZM226.023 190.288H220.127V184.515H226.023V190.288ZM218.661 190.288H212.766V184.515H218.661V190.288ZM211.299 190.288H205.404V184.515H211.299V190.288ZM203.937 190.288H198.042V184.515H203.937V190.288ZM196.575 190.288H190.68V184.515H196.562L196.575 190.288ZM189.21 190.288H183.318V184.515H189.21V190.288ZM181.848 190.288H175.956V184.515H181.848V190.288ZM181.848 191.754V197.534H175.956V191.754H181.848ZM181.848 199V204.783H175.956V199H181.848ZM181.848 206.25V212.033H175.956V206.25H181.848ZM183.318 206.25H189.21V212.033H183.318V206.25ZM190.68 206.25H196.562V212.033H190.68V206.25ZM198.042 206.25H203.937V212.033H198.042V206.25ZM205.404 206.25H211.299V212.033H205.404V206.25ZM212.766 206.25H218.661V212.033H212.766V206.25ZM220.127 206.25H226.023V212.033H220.127V206.25ZM227.489 206.25H233.385V212.033H227.503L227.489 206.25ZM234.855 206.25H240.747V212.033H234.855V206.25ZM242.217 206.25H248.112V212.033H242.217V206.25ZM249.579 206.25H255.474V212.033H249.579V206.25ZM256.94 206.25H262.836V212.033H256.94V206.25ZM264.302 206.25H270.215V212.033H264.302V206.25ZM264.302 204.783V199H270.215V204.783H264.302ZM264.302 197.534V191.754H270.215V197.534H264.302ZM264.302 190.288V184.515H270.215V190.298L264.302 190.288ZM264.302 183.038V177.259H270.215V183.038H264.302ZM262.836 183.038H256.94V177.259H262.836V183.038ZM255.474 183.038H249.579V177.259H255.474V183.038ZM248.112 183.038H242.217V177.259H248.112V183.038ZM240.747 183.038H234.855V177.259H240.747V183.038ZM233.385 183.038H227.503V177.259H233.398L233.385 183.038ZM226.023 183.038H220.127V177.259H226.023V183.038ZM218.661 183.038H212.766V177.259H218.661V183.038ZM211.299 183.038H205.404V177.259H211.299V183.038ZM203.937 183.038H198.042V177.259H203.937V183.038ZM196.575 183.038H190.68V177.259H196.562L196.575 183.038ZM189.21 183.038H183.318V177.259H189.21V183.038ZM181.848 183.038H175.956V177.259H181.848V183.038ZM174.486 183.038H168.591V177.259H174.486V183.038ZM174.486 184.505V190.288H168.591V184.515L174.486 184.505ZM174.486 191.754V197.534H168.591V191.754H174.486ZM174.486 199V204.783H168.591V199H174.486ZM174.486 206.25V212.033H168.591V206.25H174.486ZM174.486 213.499V219.279H168.591V213.499H174.486ZM175.956 213.499H181.848V219.279H175.956V213.499ZM183.318 213.499H189.21V219.279H183.318V213.499ZM190.68 213.499H196.562V219.279H190.68V213.499ZM198.042 213.499H203.937V219.279H198.042V213.499ZM205.404 213.499H211.299V219.279H205.404V213.499ZM212.766 213.499H218.661V219.279H212.766V213.499ZM220.127 213.499H226.023V219.279H220.127V213.499ZM227.489 213.499H233.385V219.279H227.503L227.489 213.499ZM234.855 213.499H240.747V219.279H234.855V213.499ZM242.217 213.499H248.112V219.279H242.217V213.499ZM249.579 213.499H255.474V219.279H249.579V213.499ZM256.94 213.499H262.836V219.279H256.94V213.499ZM264.302 213.499H270.215V219.279H264.302V213.499ZM271.664 213.499H277.56V219.279H271.664V213.499ZM271.664 212.033V206.25H277.56V212.033H271.664ZM271.664 204.783V199H277.56V204.783H271.664ZM271.664 197.534V191.754H277.56V197.534H271.664ZM271.664 190.288V184.515H277.56V190.298L271.664 190.288ZM271.664 183.038V177.259H277.56V183.038H271.664ZM271.664 175.789V170.009H277.56V175.789H271.664ZM270.198 175.789H264.302V170.009H270.215L270.198 175.789ZM262.836 175.789H256.94V170.009H262.836V175.789ZM255.474 175.789H249.579V170.009H255.474V175.789ZM248.112 175.789H242.217V170.009H248.112V175.789ZM240.747 175.789H234.855V170.009H240.747V175.789ZM233.385 175.789H227.503V170.009H233.398L233.385 175.789ZM226.023 175.789H220.127V170.009H226.023V175.789ZM218.661 175.789H212.766V170.009H218.661V175.789ZM211.299 175.789H205.404V170.009H211.299V175.789ZM203.937 175.789H198.042V170.009H203.937V175.789ZM196.575 175.789H190.68V170.009H196.562L196.575 175.789ZM189.21 175.789H183.318V170.009H189.21V175.789ZM181.848 175.789H175.956V170.009H181.848V175.789ZM174.486 175.789H168.591V170.009H174.486V175.789ZM167.124 175.789H161.229V170.009H167.124V175.789ZM167.124 177.259V183.038H161.229V177.259H167.124ZM167.124 184.505V190.288H161.229V184.515L167.124 184.505ZM167.124 191.754V197.534H161.229V191.754H167.124ZM167.124 199V204.783H161.229V199H167.124ZM167.124 206.25V212.033H161.229V206.25H167.124ZM167.124 213.499V219.279H161.229V213.499H167.124ZM167.124 220.745V226.528H161.229V220.745H167.124ZM168.591 220.745H174.486V226.528H168.591V220.745ZM175.956 220.745H181.848V226.528H175.956V220.745ZM183.318 220.745H189.21V226.528H183.318V220.745ZM190.68 220.745H196.562V226.528H190.68V220.745ZM198.042 220.745H203.937V226.528H198.042V220.745ZM205.404 220.745H211.299V226.528H205.404V220.745ZM212.766 220.745H218.661V226.528H212.766V220.745ZM220.127 220.745H226.023V226.528H220.127V220.745ZM227.489 220.745H233.385V226.528H227.503L227.489 220.745ZM234.855 220.745H240.747V226.528H234.855V220.745ZM242.217 220.745H248.112V226.528H242.217V220.745ZM249.579 220.745H255.474V226.528H249.579V220.745ZM256.94 220.745H262.836V226.528H256.94V220.745ZM264.302 220.745H270.215V226.528H264.302V220.745ZM271.664 220.745H277.56V226.528H271.664V220.745ZM279.026 220.745H284.922V226.528H279.026V220.745ZM279.026 219.279V213.499H284.922V219.279H279.026ZM279.026 212.033V206.25H284.922V212.033H279.026ZM279.026 204.783V199H284.922V204.783H279.026ZM279.026 197.534V191.754H284.922V197.534H279.026ZM279.026 190.288V184.515H284.922V190.298L279.026 190.288ZM279.026 183.038V177.259H284.922V183.038H279.026ZM279.026 175.789V170.009H284.922V175.789H279.026ZM277.56 162.76V168.543H271.664V162.76H277.56ZM270.198 162.76V168.543H264.302V162.76H270.198ZM262.836 162.76V168.543H256.94V162.76H262.836ZM255.474 162.76V168.543H249.579V162.76H255.474ZM248.112 162.76V168.543H242.217V162.76H248.112ZM240.747 162.76V168.543H234.855V162.76H240.747ZM233.385 162.76V168.543H227.503V162.76H233.385ZM226.023 162.76V168.543H220.127V162.76H226.023ZM218.661 162.76V168.543H212.766V162.76H218.661ZM211.299 162.76V168.543H205.404V162.76H211.299ZM203.937 162.76V168.543H198.042V162.76H203.937ZM196.575 162.76V168.543H190.68V162.76H196.575ZM189.21 162.76V168.543H183.318V162.76H189.21ZM181.848 162.76V168.543H175.956V162.76H181.848ZM174.486 162.76V168.543H168.591V162.76H174.486ZM167.124 162.76V168.543H161.229V162.76H167.124ZM153.867 162.76H159.762V168.543H153.867V162.76ZM153.867 170.009H159.762V175.789H153.867V170.009ZM153.867 177.259H159.762V183.038H153.867V177.259ZM153.867 184.505H159.762V190.288H153.867V184.505ZM153.867 191.754H159.762V197.534H153.867V191.754ZM153.867 199H159.762V204.783H153.867V199ZM153.867 206.25H159.762V212.033H153.867V206.25ZM153.867 213.499H159.762V219.279H153.867V213.499ZM153.867 220.745H159.762V226.528H153.867V220.745ZM153.867 233.774V227.995H159.762V233.774H153.867ZM161.229 233.774V227.995H167.124V233.774H161.229ZM168.591 233.774V227.995H174.486V233.774H168.591ZM175.956 233.774V227.995H181.848V233.774H175.956ZM183.318 233.774V227.995H189.21V233.774H183.318ZM190.68 233.774V227.995H196.562V233.774H190.68ZM198.042 233.774V227.995H203.937V233.774H198.042ZM205.404 233.774V227.995H211.299V233.774H205.404ZM212.766 233.774V227.995H218.661V233.774H212.766ZM220.127 233.774V227.995H226.023V233.774H220.127ZM227.489 233.774V227.995H233.385V233.774H227.489ZM234.855 233.774V227.995H240.747V233.774H234.855ZM242.217 233.774V227.995H248.112V233.774H242.217ZM249.579 233.774V227.995H255.474V233.774H249.579ZM256.94 233.774V227.995H262.836V233.774H256.94ZM264.302 233.774V227.995H270.215V233.774H264.302ZM271.664 233.774V227.995H277.56V233.774H271.664ZM279.026 233.774V227.995H284.922V233.774H279.026ZM292.284 233.774H286.388V227.995H292.284V233.774ZM292.284 226.528H286.388V220.745H292.284V226.528ZM292.284 219.279H286.388V213.499H292.284V219.279ZM292.284 212.033H286.388V206.25H292.284V212.033ZM292.284 204.783H286.388V199H292.284V204.783ZM292.284 197.534H286.388V191.754H292.284V197.534ZM292.284 190.288H286.388V184.515H292.284V190.288ZM292.284 183.038H286.388V177.259H292.284V183.038ZM292.284 175.789H286.388V170.009H292.284V175.789ZM292.284 168.543H286.388V162.76H292.284V168.543Z" fill="#B1C3F8"/>
<path d="M171.006 216.681L195.843 173.652L220.679 216.681H171.006Z" fill="#3F4249"/>
<path d="M213.224 189.477C215.772 189.477 217.838 187.41 217.838 184.862C217.838 182.312 215.772 180.246 213.224 180.246C210.675 180.246 208.609 182.312 208.609 184.862C208.609 187.41 210.675 189.477 213.224 189.477Z" fill="#B1C3F8"/>
<path d="M185.396 181.844H161.084V206.162H185.396V181.844Z" fill="#B1C3F8"/>
<path opacity="0.7" d="M217.948 224.352C214.836 224.352 211.793 223.429 209.204 221.699C206.616 219.969 204.598 217.51 203.407 214.634C202.216 211.757 201.904 208.591 202.511 205.537C203.119 202.483 204.618 199.678 206.819 197.476C209.02 195.275 211.825 193.775 214.878 193.168C217.931 192.56 221.096 192.872 223.972 194.064C226.848 195.255 229.306 197.273 231.035 199.862C232.765 202.451 233.688 205.495 233.688 208.609C233.684 212.783 232.024 216.784 229.073 219.736C226.122 222.688 222.121 224.348 217.948 224.352ZM217.948 195.166C215.288 195.166 212.687 195.955 210.475 197.434C208.262 198.912 206.538 201.014 205.52 203.473C204.502 205.932 204.235 208.637 204.755 211.247C205.273 213.857 206.555 216.255 208.436 218.137C210.318 220.019 212.714 221.3 215.324 221.82C217.934 222.339 220.638 222.072 223.096 221.054C225.555 220.035 227.656 218.311 229.134 216.098C230.612 213.885 231.401 211.284 231.401 208.622C231.401 205.053 229.984 201.631 227.461 199.107C224.938 196.584 221.516 195.166 217.948 195.166Z" fill="#B1C3F8"/>
<path d="M273.203 187.047H239.376C238.551 187.047 237.883 187.716 237.883 188.54C237.883 189.365 238.551 190.034 239.376 190.034H273.203C274.028 190.034 274.696 189.365 274.696 188.54C274.696 187.716 274.028 187.047 273.203 187.047Z" fill="#868A91"/>
<path d="M287.926 195.693H239.376C238.551 195.693 237.883 196.362 237.883 197.187C237.883 198.012 238.551 198.681 239.376 198.681H287.926C288.751 198.681 289.42 198.012 289.42 197.187C289.42 196.362 288.751 195.693 287.926 195.693Z" fill="#868A91"/>
<path d="M255.321 206.25H241.926C240.096 206.25 238.613 207.734 238.613 209.564C238.613 211.394 240.096 212.877 241.926 212.877H255.321C257.151 212.877 258.634 211.394 258.634 209.564C258.634 207.734 257.151 206.25 255.321 206.25Z" fill="#B1C3F8"/>
<path d="M171.702 153.139C171.724 169.633 165.44 185.511 154.136 197.52C153.095 198.642 152.016 199.715 150.897 200.74C145.784 205.48 139.94 209.365 133.591 212.245C131.058 213.391 128.454 214.372 125.795 215.181C123.929 215.753 122.024 216.24 120.077 216.641C115.724 217.542 111.289 217.992 106.843 217.987H106.813C103.321 217.988 99.834 217.705 96.3874 217.143C93.6707 216.707 90.9855 216.093 88.3495 215.306C84.9484 214.297 81.6367 213.007 78.4484 211.451C67.5639 206.144 58.3815 197.896 51.9405 187.64C45.499 177.384 42.0558 165.53 42.0007 153.418C41.9452 141.307 45.2801 129.422 51.6273 119.107C57.9749 108.793 67.0813 100.462 77.917 95.0559C81.2048 93.4126 84.6279 92.0542 88.1477 90.9956L88.326 90.9417C88.9515 90.7567 89.5804 90.5784 90.2161 90.4136C90.3069 90.3867 90.3977 90.3598 90.4918 90.3396C92.4324 89.835 94.4032 89.4145 96.4076 89.0949C99.8612 88.5345 103.355 88.2532 106.854 88.2539C108.932 88.2539 110.994 88.3515 113.022 88.5466C114.182 88.6542 115.332 88.7921 116.475 88.9671C129.734 90.9495 142.048 97.0077 151.711 106.302C152.36 106.921 152.992 107.553 153.615 108.199C153.796 108.388 153.978 108.579 154.153 108.768C154.671 109.319 155.176 109.88 155.67 110.45C157.198 112.19 158.63 114.014 159.958 115.913C160.782 117.083 161.565 118.268 162.312 119.506C163.945 122.201 165.382 125.012 166.61 127.916C166.808 128.387 167 128.858 167.188 129.335V129.359V129.386C168.291 132.187 169.197 135.062 169.899 137.991C170.034 138.549 170.158 139.111 170.279 139.673C171.219 144.1 171.696 148.613 171.702 153.139Z" fill="#B1C3F8"/>
<path d="M105.643 141.362C95.4189 152.17 79.8778 154.064 70.9217 145.59C61.9657 137.117 63.0049 121.491 73.2289 110.682C74.9955 108.808 76.9818 107.155 79.1446 105.757C88.7901 99.5271 100.591 99.4901 107.95 106.45C109.217 107.651 110.311 109.022 111.202 110.524C116.412 119.328 114.394 132.111 105.643 141.362Z" fill="black"/>
<path d="M101.146 102.334C94.3762 99.9787 86.187 101.21 79.1445 105.758C83.1299 111.921 89.7317 115.948 97.208 115.948C100.231 115.947 103.217 115.28 105.952 113.993C104.334 110.111 102.747 106.219 101.146 102.334Z" fill="#B1C3F8"/>
<path d="M116.689 92.0811C116.689 103.734 107.968 113.177 97.2093 113.177C86.4506 113.177 77.7266 103.734 77.7266 92.0811C77.7172 88.4493 78.5933 84.8696 80.2793 81.6526L80.3734 81.4811C83.6391 75.4258 89.6322 71.2713 96.5333 71.0156C96.7553 71.0156 96.9806 71.0156 97.206 71.0156C97.4313 71.0156 97.7138 71.0156 97.9627 71.0358C98.8136 71.0698 99.6611 71.164 100.498 71.3184C107.423 72.6001 113.104 77.8378 115.478 84.8114C115.589 85.1478 115.693 85.454 115.787 85.7836C116.383 87.83 116.687 89.95 116.689 92.0811Z" fill="black"/>
<path d="M159.453 135.777L161.807 124.737C161.855 124.515 161.82 124.284 161.71 124.086C161.6 123.888 161.422 123.737 161.209 123.66H161.182C160.65 123.468 160.066 123.479 159.542 123.692C159.019 123.905 158.592 124.305 158.347 124.814L156.877 127.899L159.453 135.777Z" fill="#956363"/>
<path opacity="0.15" d="M159.453 135.777L161.807 124.737C161.855 124.515 161.82 124.284 161.71 124.086C161.6 123.888 161.422 123.737 161.209 123.66H161.182C160.65 123.468 160.066 123.479 159.542 123.692C159.019 123.905 158.592 124.305 158.347 124.814L156.877 127.899L159.453 135.777Z" fill="black"/>
<path d="M167.154 129.344L175.155 121.375C175.316 121.215 175.529 121.118 175.756 121.104C175.982 121.089 176.206 121.156 176.386 121.294L176.41 121.311C176.859 121.654 177.165 122.152 177.269 122.708C177.372 123.264 177.266 123.839 176.971 124.322L175.179 127.252L167.154 129.344Z" fill="#956363"/>
<path opacity="0.15" d="M167.154 129.344L175.155 121.375C175.316 121.215 175.529 121.118 175.756 121.104C175.982 121.089 176.206 121.156 176.386 121.294L176.41 121.311C176.859 121.654 177.165 122.152 177.269 122.708C177.372 123.264 177.266 123.839 176.971 124.322L175.179 127.252L167.154 129.344Z" fill="black"/>
<path d="M195.919 76.9746H162.227C157.472 76.9746 153.617 80.8304 153.617 85.5865V119.287C153.617 124.044 157.472 127.899 162.227 127.899H195.919C200.674 127.899 204.528 124.044 204.528 119.287V85.5865C204.528 80.8304 200.674 76.9746 195.919 76.9746Z" fill="#B1C3F8"/>
<path opacity="0.15" d="M195.919 76.9746H162.227C157.472 76.9746 153.617 80.8304 153.617 85.5865V119.287C153.617 124.044 157.472 127.899 162.227 127.899H195.919C200.674 127.899 204.528 124.044 204.528 119.287V85.5865C204.528 80.8304 200.674 76.9746 195.919 76.9746Z" fill="black"/>
<path d="M194.015 76.9746H160.323C155.567 76.9746 151.713 80.8304 151.713 85.5865V119.287C151.713 124.044 155.567 127.899 160.323 127.899H194.015C198.769 127.899 202.624 124.044 202.624 119.287V85.5865C202.624 80.8304 198.769 76.9746 194.015 76.9746Z" fill="#F3EC1B"/>
<path d="M193.057 116.255C192.512 116.263 191.967 116.222 191.43 116.131C191.386 116.121 191.344 116.108 191.302 116.094C191.052 116.014 190.823 115.88 190.629 115.703C190.247 115.182 189.926 114.617 189.674 114.021C189.212 113.07 188.804 112.191 188.45 111.384L187.239 108.531L178.266 87.4088L178.165 87.1699H176.783L176.682 87.4088C175.635 89.8981 174.584 92.3851 173.528 94.8701L167.743 107.99L165.51 112.841C164.8 114.375 164.329 115.276 164.094 115.555C163.889 115.815 163.612 116.007 163.297 116.107C163.169 116.144 163.039 116.17 162.907 116.185C162.543 116.228 162.005 116.259 161.299 116.269L161.107 116.437V117.544L161.299 117.712C162.887 117.6 164.456 117.544 166.008 117.544C167.382 117.544 168.984 117.6 170.813 117.712L170.985 117.544V116.437L170.793 116.269C169.25 116.269 168.281 116.161 167.898 115.989C167.732 115.935 167.588 115.83 167.486 115.69C167.383 115.549 167.327 115.38 167.326 115.206C167.406 114.459 167.614 113.731 167.941 113.056L170.262 107.606H182.578L185.191 114.099C185.365 114.489 185.468 114.907 185.494 115.333C185.502 115.508 185.445 115.679 185.334 115.814C185.224 115.95 185.067 116.04 184.895 116.067C183.911 116.22 182.915 116.288 181.919 116.269L181.747 116.437V117.544L181.919 117.712C184.27 117.658 186.625 117.595 188.981 117.523C189.62 117.523 190.301 117.54 191.023 117.574C191.662 117.607 192.338 117.655 193.04 117.712L193.098 117.655L193.209 117.544V116.437L193.057 116.255ZM171.002 105.763L176.427 92.9358L181.764 105.763H171.002Z" fill="#1F42AB"/>
<path d="M195.026 88.9779V85.375H191.431V86.9359H162.908V85.375H159.312V88.9779H160.87V115.917H159.312V119.51H162.908V117.949H191.431V119.51H195.026V115.907H193.465V88.9779H195.026ZM162.908 117.474V115.917H161.347V88.9779H162.908V87.4203H191.431V88.9779H192.988V115.917H191.431V117.474H162.908Z" fill="#B1C3F8"/>
<path opacity="0.2" d="M195.026 88.9779V85.375H191.431V86.9359H162.908V85.375H159.312V88.9779H160.87V115.917H159.312V119.51H162.908V117.949H191.431V119.51H195.026V115.907H193.465V88.9779H195.026ZM162.908 117.474V115.917H161.347V88.9779H162.908V87.4203H191.431V88.9779H192.988V115.917H191.431V117.474H162.908Z" fill="black"/>
<path d="M112.128 119.663L119.016 137.24C114.856 143.48 95.0333 140.887 89.7565 133.082L83.3867 118.26L84.853 117.857C85.5559 117.67 86.1791 117.261 86.6295 116.69C87.0801 116.119 87.3334 115.418 87.3519 114.691L88.7509 98.2376L106.162 95.8828L106.74 109.339L107.036 116.033C107.112 116.705 107.386 117.338 107.824 117.852C108.262 118.365 108.844 118.736 109.495 118.916L112.128 119.663Z" fill="#956363"/>
<path d="M101.865 113.461L100.954 113.488C97.7935 113.585 94.7239 112.422 92.4198 110.256C90.1161 108.09 88.7668 105.097 88.6683 101.936L88.1503 85.2132C88.1342 84.6908 88.2213 84.1704 88.4059 83.6816C88.5909 83.1928 88.8704 82.745 89.2282 82.3642C89.5864 81.9834 90.0155 81.677 90.4921 81.4623C90.9683 81.2474 91.4822 81.1286 92.0045 81.1125L107.606 80.6314C108.284 80.6102 108.96 80.7233 109.595 80.9631C110.229 81.2033 110.811 81.5663 111.305 82.0312C111.799 82.4961 112.197 83.0535 112.476 83.6725C112.755 84.2911 112.909 84.9585 112.93 85.6371L113.411 101.172C113.46 102.737 113.2 104.297 112.646 105.762C112.092 107.227 111.255 108.568 110.183 109.709C109.111 110.85 107.825 111.769 106.397 112.413C104.97 113.056 103.43 113.412 101.865 113.461Z" fill="#956363"/>
<path d="M100.857 96.7583C101.572 96.7583 102.152 96.1783 102.152 95.4631C102.152 94.7476 101.572 94.168 100.857 94.168C100.142 94.168 99.5625 94.7476 99.5625 95.4631C99.5625 96.1783 100.142 96.7583 100.857 96.7583Z" fill="#21252B"/>
<path d="M101.605 95.9901C101.76 95.9901 101.884 95.8653 101.884 95.7109C101.884 95.5568 101.76 95.4316 101.605 95.4316C101.451 95.4316 101.326 95.5568 101.326 95.7109C101.326 95.8653 101.451 95.9901 101.605 95.9901Z" fill="white"/>
<path d="M110.826 96.604C111.541 96.604 112.121 96.024 112.121 95.3088C112.121 94.5933 111.541 94.0137 110.826 94.0137C110.111 94.0137 109.531 94.5933 109.531 95.3088C109.531 96.024 110.111 96.604 110.826 96.604Z" fill="#21252B"/>
<path d="M111.482 95.8905C111.636 95.8905 111.761 95.7653 111.761 95.6112C111.761 95.4568 111.636 95.332 111.482 95.332C111.328 95.332 111.203 95.4568 111.203 95.6112C111.203 95.7653 111.328 95.8905 111.482 95.8905Z" fill="white"/>
<path opacity="0.3" d="M106.095 102.769L104.346 102.88C104.251 102.88 104.159 102.843 104.09 102.777C104.021 102.712 103.979 102.622 103.973 102.528C103.967 102.432 103.998 102.338 104.058 102.265C104.119 102.191 104.205 102.143 104.299 102.13L106.044 102.019C106.245 101.993 106.427 101.892 106.555 101.736C106.683 101.58 106.747 101.381 106.734 101.18C106.72 100.979 106.631 100.79 106.484 100.652C106.336 100.515 106.142 100.438 105.94 100.438C105.845 100.437 105.754 100.4 105.684 100.335C105.615 100.27 105.573 100.18 105.568 100.085C105.561 99.9901 105.592 99.8962 105.652 99.8225C105.713 99.7489 105.799 99.7008 105.893 99.688C106.3 99.6651 106.699 99.8037 107.003 100.074C107.308 100.343 107.494 100.722 107.521 101.129C107.547 101.535 107.413 101.935 107.146 102.243C106.879 102.55 106.501 102.739 106.095 102.769Z" fill="black"/>
<path d="M89.5434 102.618C89.5434 102.618 83.9 103.479 82.2924 97.9451C80.6848 92.4113 87.5726 90.8806 88.9716 96.4582L90.1857 102.577L89.5434 102.618Z" fill="#956363"/>
<path opacity="0.3" d="M83.8263 94.8329C84.0517 94.6257 84.3174 94.4669 84.6066 94.3666C84.8958 94.2664 85.2029 94.227 85.5079 94.2509C85.8072 94.3084 86.0911 94.4279 86.3413 94.6018C86.5915 94.7757 86.8027 94.9998 86.9608 95.2601C87.4121 95.8902 87.6892 96.6283 87.7646 97.3996L87.8352 98.0085C87.8991 98.4526 87.1323 98.6443 87.0819 98.1229L86.9944 97.4501C86.9154 96.8193 86.6998 96.2132 86.3622 95.6739C86.2714 95.4865 86.1355 95.3247 85.9663 95.2029C85.7975 95.0812 85.6007 95.0035 85.3942 94.9765C85.1874 94.95 84.9775 94.9752 84.7832 95.0499C84.5888 95.1246 84.4159 95.2467 84.2804 95.4048C84.2434 95.4404 84.1993 95.468 84.1512 95.4855C84.1028 95.5033 84.0513 95.5107 84.0002 95.5074C83.9488 95.504 83.899 95.4899 83.8532 95.4663C83.8078 95.4425 83.7675 95.4095 83.7355 95.3695C83.7033 95.3294 83.68 95.283 83.6666 95.2332C83.6535 95.1834 83.6508 95.1316 83.6589 95.0808C83.6666 95.03 83.6851 94.9816 83.7127 94.9382C83.7406 94.8951 83.7769 94.8581 83.8196 94.8295L83.8263 94.8329Z" fill="black"/>
<path d="M116.779 96.3781C116.709 95.3292 116.322 94.3264 115.669 93.5029C115.016 92.679 114.128 92.0735 113.123 91.766C112.525 91.579 111.898 91.505 111.273 91.5474C110.501 91.5988 109.75 91.8229 109.075 92.203C108.401 92.5831 107.82 93.1099 107.375 93.744C106.34 93.3727 105.207 93.3727 104.17 93.744C103.582 92.7375 102.67 91.9594 101.584 91.5356C100.498 91.1117 99.3009 91.0673 98.1864 91.4091C97.0715 91.7509 96.1049 92.459 95.4431 93.4188C94.7809 94.3788 94.4624 95.534 94.5384 96.6977C94.5528 96.9503 94.5878 97.2009 94.6426 97.4478C94.9177 98.7208 95.662 99.8433 96.7278 100.591C97.7932 101.34 99.1015 101.659 100.392 101.486C101.682 101.312 102.86 100.658 103.69 99.655C104.52 98.6518 104.941 97.3725 104.87 96.0719C104.872 96.0551 104.872 96.0383 104.87 96.0215C104.833 95.4419 104.696 94.873 104.466 94.3395C105.3 94.0727 106.196 94.0727 107.029 94.3395C106.584 95.1711 106.377 96.1093 106.43 97.0509C106.474 97.7314 106.651 98.3971 106.952 99.0091C107.252 99.6213 107.671 100.168 108.183 100.618C108.696 101.068 109.292 101.412 109.938 101.632C110.583 101.851 111.266 101.94 111.946 101.895C112.452 101.857 112.95 101.744 113.422 101.559C114.466 101.17 115.357 100.456 115.963 99.5217C116.568 98.5876 116.857 97.4828 116.786 96.3713L116.779 96.3781ZM100 100.859C98.9263 100.928 97.8628 100.613 96.9999 99.9695C96.1372 99.326 95.5318 98.3965 95.2917 97.3469C95.2382 97.1148 95.2033 96.8783 95.1875 96.6405C95.1491 96.0484 95.2275 95.4543 95.4182 94.8925C95.6092 94.3304 95.9085 93.8117 96.3 93.3656C96.6911 92.9195 97.1667 92.5549 97.6987 92.2925C98.2311 92.0304 98.8096 91.8753 99.4015 91.8367C99.9937 91.798 100.588 91.8764 101.149 92.0674C101.711 92.2582 102.23 92.5579 102.676 92.9495C103.122 93.3407 103.486 93.816 103.748 94.3486C104.011 94.8807 104.166 95.4597 104.204 96.0518C104.206 96.083 104.206 96.1147 104.204 96.146C104.259 97.3264 103.85 98.4816 103.064 99.364C102.279 100.247 101.179 100.787 100 100.869V100.859ZM115.777 98.457C115.328 99.5359 114.478 100.398 113.406 100.862C112.932 101.073 112.424 101.196 111.906 101.226C111.014 101.283 110.126 101.076 109.353 100.629C108.579 100.182 107.956 99.5153 107.561 98.714C107.166 97.9124 107.018 97.0119 107.135 96.1261C107.252 95.2404 107.629 94.4091 108.218 93.7377C108.807 93.0659 109.582 92.5841 110.445 92.353C111.307 92.1219 112.219 92.1522 113.065 92.4395C113.911 92.7268 114.653 93.2583 115.196 93.9671C115.74 94.6762 116.061 95.5303 116.12 96.4218C116.14 96.6872 116.14 96.9537 116.12 97.2191C116.068 97.6497 115.952 98.0702 115.777 98.4671V98.457Z" fill="white"/>
<path d="M87.8756 101.861C88.5014 101.861 89.0089 101.353 89.0089 100.727C89.0089 100.101 88.5014 99.5938 87.8756 99.5938C87.2497 99.5938 86.7422 100.101 86.7422 100.727C86.7422 101.353 87.2497 101.861 87.8756 101.861Z" fill="white"/>
<path opacity="0.15" d="M88.3235 101.656C87.9983 101.676 87.6788 101.567 87.4343 101.352C87.1894 101.137 87.0401 100.834 87.0186 100.509C87.0007 100.275 87.0522 100.041 87.1665 99.8359C86.9328 100.024 86.7831 100.297 86.7509 100.595C86.7182 100.893 86.8053 101.192 86.9933 101.425C87.181 101.659 87.4538 101.809 87.7521 101.841C88.05 101.874 88.3487 101.787 88.5824 101.599C88.498 101.626 88.4112 101.645 88.3235 101.656Z" fill="black"/>
<path opacity="0.15" d="M88.4308 102.658H90.2705L88.1719 106.328L88.4308 102.658Z" fill="black"/>
<path opacity="0.15" d="M93.8242 111.906C95.5 112.881 97.3575 113.503 99.2825 113.733C101.068 115.132 103.26 115.91 105.528 115.95C106.03 115.976 106.533 115.904 107.008 115.738L106.853 112.189L106.517 112.333C105.013 112.952 103.416 113.084 101.647 113.141C101.159 113.141 100.682 113.141 100.207 113.117C100.019 113.117 99.8408 113.097 99.6626 113.074C99.6222 113.079 99.5815 113.079 99.5415 113.074C99.2556 113.04 98.9765 112.996 98.7108 112.952L98.3745 112.885C96.8967 112.604 95.4782 112.072 94.1807 111.311C94.1416 111.286 94.0976 111.269 94.0518 111.262C94.0061 111.255 93.9594 111.257 93.9146 111.269C93.8699 111.28 93.8279 111.301 93.7915 111.33C93.7549 111.359 93.7249 111.394 93.7031 111.435C93.6789 111.474 93.6631 111.517 93.6563 111.562C93.6493 111.607 93.6516 111.653 93.6631 111.697C93.6742 111.741 93.6943 111.782 93.7219 111.818C93.7498 111.854 93.7845 111.884 93.8242 111.906Z" fill="black"/>
<path d="M107.051 104.809C107.091 104.809 107.129 104.82 107.162 104.84C107.196 104.86 107.224 104.889 107.243 104.922C107.262 104.956 107.272 104.995 107.272 105.034C107.272 105.073 107.263 105.111 107.243 105.145C106.938 105.771 106.461 106.297 105.868 106.662C105.275 107.027 104.59 107.217 103.894 107.208C103.198 107.199 102.518 106.993 101.934 106.613C101.351 106.232 100.888 105.695 100.598 105.061C100.578 105.026 100.568 104.987 100.568 104.947C100.569 104.907 100.58 104.868 100.601 104.834C100.621 104.8 100.65 104.771 100.685 104.752C100.72 104.733 100.76 104.724 100.799 104.725L107.051 104.809Z" fill="white"/>
<path d="M187.785 118.916C187.535 118.869 187.277 118.916 187.059 119.047C186.842 119.179 186.681 119.386 186.608 119.63L184.835 125.5C184.772 125.704 184.65 125.884 184.484 126.017C184.318 126.151 184.116 126.232 183.904 126.25L171.356 127.303C170.068 127.412 168.845 127.918 167.856 128.751C166.868 129.584 166.162 130.704 165.837 131.955L164.391 137.418L174.46 141.257L175.526 137.741C175.609 137.469 175.763 137.224 175.972 137.032C176.182 136.839 176.438 136.705 176.717 136.645L185.34 134.784C186.35 134.566 187.244 133.982 187.852 133.146L196.26 121.786C196.411 121.571 196.472 121.306 196.431 121.046C196.389 120.787 196.248 120.554 196.038 120.397C195.841 120.26 195.602 120.198 195.363 120.221C195.125 120.244 194.903 120.352 194.736 120.524L191.037 124.534L193.082 118.072C193.159 117.808 193.129 117.524 192.998 117.282C192.867 117.04 192.645 116.86 192.382 116.78C192.139 116.707 191.877 116.726 191.647 116.832C191.416 116.939 191.233 117.126 191.131 117.359L187.24 126.384L188.585 120.144C188.614 120.011 188.616 119.873 188.592 119.739C188.567 119.605 188.516 119.477 188.441 119.363C188.367 119.249 188.271 119.151 188.158 119.074C188.045 118.997 187.918 118.944 187.785 118.916Z" fill="#956363"/>
<path opacity="0.15" d="M190.784 126.719C190.85 126.719 190.915 126.697 190.968 126.658C191.021 126.619 191.06 126.563 191.08 126.5L191.773 124.145C191.787 124.105 191.794 124.063 191.792 124.02C191.79 123.978 191.779 123.936 191.76 123.898C191.741 123.86 191.714 123.826 191.682 123.799C191.649 123.772 191.612 123.751 191.57 123.739C191.53 123.727 191.487 123.724 191.445 123.729C191.403 123.734 191.362 123.748 191.325 123.77C191.289 123.791 191.257 123.82 191.232 123.855C191.207 123.889 191.19 123.928 191.181 123.97L190.488 126.325C190.476 126.364 190.472 126.404 190.476 126.445C190.48 126.485 190.492 126.524 190.512 126.56C190.531 126.596 190.558 126.627 190.589 126.653C190.621 126.678 190.657 126.697 190.696 126.708C190.725 126.715 190.754 126.719 190.784 126.719Z" fill="black"/>
<path d="M175.18 139.414L166.409 194.426C166.171 195.999 165.548 197.49 164.596 198.765C164.334 199.124 164.044 199.461 163.728 199.774C162.336 201.169 160.558 202.115 158.623 202.489C157.972 202.617 157.31 202.681 156.646 202.681C155.976 202.678 155.309 202.606 154.655 202.466L154.402 202.408C154.15 202.348 153.901 202.277 153.656 202.193L153.178 202.008L152.929 201.904C152.687 201.803 152.452 201.692 152.216 201.567C152.011 201.46 151.809 201.342 151.608 201.231L151.433 201.117L151.073 200.868L150.908 200.747C150.665 200.564 150.431 200.368 150.209 200.161C149.846 199.836 149.509 199.484 149.2 199.108L133.094 179.52L131.012 176.987L131.402 182.345L133.588 212.251C131.056 213.398 128.452 214.379 125.792 215.188C123.927 215.76 122.021 216.247 120.075 216.648C115.721 217.548 111.287 217.999 106.841 217.994H106.811L110.13 197.268L111.368 189.531L112.158 184.589L112.979 179.459L115.45 163.985L118.874 142.647L118.962 142.092L117.929 138.428L115.239 128.888L113.665 125.682L110.54 119.311L111.156 119.448L111.912 119.617L113.998 120.081L118.827 121.157C120.398 121.505 121.882 122.171 123.186 123.114C124.491 124.057 125.588 125.257 126.411 126.641L137.092 144.568L142.43 153.529L145.53 158.727L145.806 159.191L153.353 171.86L164.277 136.43L164.64 136.528L169.937 137.974L175.039 139.37L175.18 139.414Z" fill="#414042"/>
<path opacity="0.2" d="M130.04 166.466C130.024 166.287 130.068 166.107 130.165 165.955C130.261 165.803 130.405 165.688 130.574 165.626C130.743 165.564 130.928 165.56 131.099 165.614C131.271 165.668 131.42 165.777 131.523 165.924L152.257 195.746C155.745 199.985 161.425 200.247 165.33 197.62C162.202 203.369 153.798 204.685 149.187 199.1L131.016 176.979L130.04 166.466Z" fill="black"/>
<path d="M123.667 168.558C122.963 170.089 122.658 171.773 122.779 173.453L123.196 179.229L124.04 190.902L125.795 215.18C123.93 215.752 122.024 216.238 120.078 216.64C115.724 217.54 111.29 217.991 106.844 217.986H106.814C103.321 217.986 99.8346 217.704 96.388 217.141C93.6713 216.706 90.9862 216.092 88.3501 215.305L81.94 165.884L79.9221 150.342L79.8649 149.908L77.6688 132.984L76.3235 122.646L76.041 120.473V120.426L78.0589 119.827L82.7673 118.418H82.7841L84.58 117.883C84.58 117.9 84.58 117.913 84.58 117.927C88.3938 131.325 100.814 138.639 109.131 136.984L109.531 136.896C113.503 135.951 114.135 132.624 113.533 129.082C113.463 128.678 113.379 128.268 113.281 127.86C113.281 127.817 113.258 127.773 113.247 127.733C113.237 127.692 113.247 127.716 113.247 127.706C113.194 127.487 113.133 127.272 113.076 127.053L112.925 126.545C112.898 126.462 112.871 126.375 112.844 126.283C112.787 126.111 112.733 125.946 112.672 125.768C112.612 125.59 112.558 125.432 112.497 125.257C112.437 125.082 112.376 124.92 112.313 124.752C112.249 124.584 112.188 124.416 112.124 124.264C112.03 124.025 111.936 123.79 111.838 123.561C111.805 123.477 111.768 123.396 111.734 123.316C111.603 123.01 111.472 122.714 111.344 122.431C111.304 122.343 111.263 122.263 111.23 122.179C111.196 122.095 111.115 121.94 111.061 121.825V121.809C110.937 121.543 110.813 121.291 110.695 121.055C110.686 121.04 110.679 121.024 110.675 121.008C110.618 120.907 110.567 120.81 110.523 120.712L110.379 120.439C110.372 120.425 110.364 120.412 110.355 120.399C110.224 120.147 110.103 119.921 109.999 119.726C109.968 119.659 109.931 119.598 109.898 119.538C109.72 119.218 109.598 119.013 109.561 118.956L111.152 119.383L111.169 119.417L111.196 119.464L113.907 124.258L114.045 124.496L125.896 145.491C127.265 148.168 128.011 151.12 128.076 154.125C128.141 157.131 127.525 160.113 126.273 162.846L123.667 168.558Z" fill="#B1C3F8"/>
<path opacity="0.15" d="M123.665 168.559C122.962 170.09 122.656 171.773 122.777 173.454L123.194 179.23L124.038 190.903L125.794 215.181C123.928 215.753 122.023 216.24 120.076 216.641L119.565 208.638C119.4 206.052 118.438 203.581 116.812 201.564C115.186 199.546 112.976 198.082 110.485 197.372L110.121 197.268L94.3551 192.773L92.0782 192.121L89.7005 172.128L89.418 169.743L92.1085 171.708L111.695 185.951L112.136 184.579L113.599 180.024L118.644 164.321L120.154 159.611C121.716 154.752 121.547 149.501 119.676 144.752L118.872 142.646L117.366 138.825L113.528 129.069C113.458 128.665 113.374 128.255 113.276 127.848C113.276 127.801 113.253 127.754 113.246 127.713C113.245 127.707 113.245 127.7 113.246 127.693C113.192 127.474 113.131 127.259 113.074 127.041C113.017 126.822 112.977 126.704 112.923 126.533C112.896 126.449 112.869 126.362 112.842 126.27C112.788 126.099 112.735 125.934 112.671 125.755C112.607 125.577 112.556 125.419 112.496 125.244C112.435 125.069 112.375 124.908 112.311 124.74C112.247 124.571 112.186 124.403 112.123 124.252C112.028 124.013 111.934 123.777 111.837 123.549C111.803 123.465 111.766 123.384 111.732 123.303C111.601 122.997 111.473 122.701 111.342 122.418C111.302 122.331 111.262 122.25 111.228 122.166C111.194 122.082 111.117 121.927 111.06 121.813V121.796C110.935 121.53 110.811 121.278 110.693 121.043C110.684 121.028 110.678 121.012 110.673 120.995C110.619 120.894 110.569 120.797 110.522 120.699L110.377 120.427C110.37 120.413 110.363 120.399 110.354 120.387C110.226 120.134 110.105 119.909 109.997 119.714C109.967 119.646 109.93 119.586 109.896 119.525C109.718 119.206 109.597 119.001 109.56 118.943L111.151 119.371L111.167 119.404L111.194 119.451L113.905 124.245L114.043 124.484L125.895 145.492C127.264 148.169 128.009 151.12 128.074 154.127C128.14 157.132 127.523 160.114 126.271 162.847L123.665 168.559Z" fill="black"/>
<path opacity="0.06" d="M153.367 171.855L153.074 178.809L145.816 159.18L153.367 171.855Z" fill="black"/>
<path d="M88.1523 95.8874C88.1523 96.5359 88.677 97.0614 89.3244 97.0614C89.9718 97.0614 90.4965 96.5359 90.4965 95.8874V89.7951C90.4965 89.1469 89.9718 88.6211 89.3244 88.6211C88.677 88.6211 88.1523 89.1469 88.1523 89.7951V95.8874Z" fill="black"/>
<path d="M96.3887 217.146C93.6723 216.711 90.9872 216.097 88.3508 215.31C84.9496 214.3 81.638 213.011 78.4497 211.454C74.9248 209.734 71.5623 207.698 68.404 205.372L59.0074 140.235C58.4578 136.431 59.27 132.555 61.301 129.292C63.332 126.03 66.4507 123.59 70.1057 122.406L70.8557 122.163L76.0316 120.481L78.0327 119.836L82.7074 118.318C82.7138 118.354 82.7239 118.389 82.7377 118.423C82.7377 118.47 82.7713 118.53 82.7982 118.611C83.2422 120.054 85.2365 126.893 87.7421 141.268C88.2287 144.048 88.7322 147.121 89.2521 150.485C89.6759 153.27 90.1097 156.262 90.5537 159.46C91.0716 163.241 91.5929 167.325 92.1175 171.712C92.2184 172.57 92.3227 173.441 92.4236 174.322C93.076 179.972 93.7184 186.123 94.3507 192.777C95.0683 200.234 95.7477 208.357 96.3887 217.146Z" fill="#414042"/>
<path d="M157.063 112.774C157.238 112.958 157.338 113.201 157.345 113.455C157.352 113.709 157.265 113.956 157.1 114.15L153.128 118.819C152.99 118.982 152.904 119.182 152.881 119.395C152.858 119.607 152.9 119.821 153 120.01L158.912 131.131C159.518 132.273 159.755 133.576 159.589 134.858C159.424 136.14 158.864 137.339 157.988 138.29L154.188 142.465L145.507 136.073L147.882 133.274C148.066 133.057 148.189 132.795 148.238 132.515C148.288 132.234 148.261 131.946 148.16 131.68L145.053 123.421C144.69 122.452 144.696 121.384 145.07 120.42L150.057 107.183C150.156 106.94 150.346 106.745 150.586 106.64C150.825 106.535 151.096 106.526 151.342 106.618C151.567 106.705 151.751 106.872 151.862 107.086C151.972 107.301 152 107.548 151.941 107.782L150.596 113.077L154.917 107.859C155.097 107.65 155.353 107.522 155.627 107.501C155.902 107.48 156.174 107.569 156.384 107.748C156.576 107.913 156.702 108.144 156.736 108.395C156.771 108.647 156.713 108.902 156.572 109.114L151.093 117.271L155.606 112.754C155.704 112.659 155.818 112.585 155.944 112.535C156.069 112.484 156.204 112.46 156.339 112.462C156.474 112.464 156.608 112.492 156.732 112.546C156.856 112.599 156.969 112.677 157.063 112.774Z" fill="#956363"/>
<path opacity="0.15" d="M148.87 114.486C148.833 114.43 148.816 114.363 148.821 114.297C148.826 114.23 148.852 114.166 148.896 114.116L150.487 112.266C150.54 112.204 150.616 112.166 150.697 112.159C150.778 112.153 150.859 112.179 150.921 112.232C150.983 112.285 151.021 112.361 151.028 112.442C151.034 112.523 151.007 112.604 150.955 112.666L149.364 114.52C149.31 114.582 149.234 114.62 149.152 114.626C149.07 114.632 148.989 114.606 148.927 114.553C148.905 114.533 148.886 114.511 148.87 114.486Z" fill="black"/>
<path d="M59.9181 140.877L61.6703 149.623L111.341 189.494C112.667 190.56 114.206 191.329 115.855 191.75C117.503 192.171 119.223 192.234 120.898 191.934C122.572 191.633 124.163 190.978 125.563 190.011C126.963 189.044 128.14 187.788 129.014 186.328C138.986 169.713 156.057 141.18 156.205 140.726C156.286 140.5 155.257 139.504 153.881 138.307L153.841 138.273C151.315 136.07 147.673 133.207 147.673 133.207L117.448 165.626L77.0903 132.527L70.8517 122.156C67.0483 123.39 63.8305 125.978 61.8102 129.43C59.79 132.882 59.1083 136.956 59.8946 140.877H59.9181Z" fill="#414042"/>
<path opacity="0.2" d="M156.202 140.729C156.118 140.965 151.42 148.86 145.528 158.717C142.743 163.383 139.689 168.472 136.726 173.431C135.489 175.503 134.268 177.545 133.084 179.513C132.512 180.475 131.952 181.417 131.402 182.339L129.011 186.329C128.139 187.785 126.966 189.038 125.57 190.004C124.174 190.97 122.588 191.626 120.917 191.928C119.247 192.23 117.532 192.172 115.886 191.757C114.24 191.342 112.702 190.579 111.375 189.521C111.363 189.513 111.352 189.504 111.341 189.494L92.4437 174.319L89.7162 172.129L81.9373 165.885L67.8793 154.592C67.5928 154.366 67.2427 154.235 66.8781 154.216C66.5132 154.197 66.1517 154.292 65.8433 154.488C65.5349 154.684 65.2951 154.971 65.1569 155.309C65.0183 155.647 64.9884 156.02 65.0711 156.375C65.0711 156.392 65.0711 156.406 65.0711 156.423L78.4497 211.468C74.9241 209.743 71.562 207.703 68.404 205.372L59.0074 140.235C58.4578 136.431 59.27 132.555 61.301 129.292C63.332 126.03 66.4507 123.59 70.1057 122.406L70.8557 122.163L76.0316 120.481L78.0327 119.836L82.7074 118.318C82.7179 118.354 82.7337 118.388 82.7545 118.419C82.7747 118.463 82.8016 118.517 82.8319 118.587L82.7982 118.611L76.3107 122.648L73.1628 124.636L73.035 124.713C72.8803 124.811 72.7324 124.912 72.5844 125.016C66.7191 129.14 66.2348 137.766 71.6528 142.6L79.8589 149.91L80.481 150.465L90.5705 159.457L112.982 179.449L113.625 180.024L114.139 180.482C114.759 181.034 115.486 181.451 116.275 181.707C117.064 181.963 117.898 182.053 118.723 181.969C119.548 181.886 120.347 181.632 121.069 181.224C121.791 180.816 122.421 180.262 122.917 179.597L123.19 179.23L130.333 169.69L132.324 167.056L142.45 153.519L151.958 140.82L153.865 138.274L153.902 138.311C154.681 138.948 155.408 139.648 156.074 140.403C156.182 140.558 156.232 140.669 156.202 140.729Z" fill="black"/>
<path d="M102.059 79.5379C102.058 80.1121 102.014 80.6857 101.928 81.2535C101.52 83.8051 100.224 86.1303 98.2663 87.817C96.3093 89.5037 93.8182 90.4426 91.235 90.4682C88.6517 90.4934 86.1428 89.6037 84.1532 87.9556C82.1632 86.3079 80.8207 84.0086 80.3633 81.4654C83.6289 75.4102 89.622 71.2557 96.5232 71C96.7452 71 96.9705 71 97.1958 71C97.4211 71 97.7036 71 97.9525 71.0202C98.7479 71.6318 99.4511 72.3547 100.041 73.1664C101.367 75.0247 102.073 77.2544 102.059 79.5379Z" fill="black"/>
<path d="M115.487 84.7824C113.82 85.5662 111.983 85.9164 110.144 85.8004C108.306 85.6847 106.527 85.1064 104.972 84.1194C103.416 83.132 102.135 81.7683 101.248 80.1542C100.36 78.5402 99.8936 76.7276 99.8926 74.8855C99.897 74.3093 99.9464 73.7347 100.041 73.1665C100.142 72.524 100.302 71.8926 100.518 71.2793C107.439 72.5711 113.113 77.8088 115.487 84.7824Z" fill="black"/>
<path d="M128.685 313.887C150.203 313.887 167.647 296.439 167.647 274.915C167.647 253.392 150.203 235.943 128.685 235.943C107.167 235.943 89.7227 253.392 89.7227 274.915C89.7227 296.439 107.167 313.887 128.685 313.887Z" fill="#B1C3F8"/>
<path d="M165.604 282.703V299.557C165.606 300.013 165.517 300.465 165.344 300.887C165.171 301.309 164.916 301.693 164.594 302.016C164.272 302.339 163.89 302.596 163.469 302.77C163.048 302.945 162.596 303.036 162.14 303.036H114.047C110.894 303.036 107.87 301.783 105.64 299.552C103.411 297.322 102.158 294.298 102.158 291.144C102.158 287.99 103.411 284.965 105.64 282.735C107.87 280.505 110.894 279.252 114.047 279.252H162.14C163.059 279.252 163.94 279.617 164.589 280.267C165.239 280.917 165.604 281.798 165.604 282.717V282.703Z" fill="black"/>
<path d="M165.605 281.739V298.592C165.607 299.048 165.519 299.499 165.346 299.921C165.173 300.342 164.919 300.726 164.597 301.049C164.276 301.372 163.895 301.628 163.474 301.804C163.054 301.979 162.603 302.07 162.148 302.071H114.055C110.901 302.071 107.878 300.818 105.648 298.588C103.418 296.358 102.166 293.333 102.166 290.179C102.166 287.025 103.418 284 105.648 281.77C107.878 279.54 110.901 278.287 114.055 278.287H162.148C163.066 278.287 163.947 278.652 164.597 279.302C165.247 279.952 165.612 280.833 165.612 281.752L165.605 281.739Z" fill="#3F4249"/>
<path d="M129.266 281.537V299.403H123.404C122.914 299.403 122.444 299.209 122.096 298.861C121.75 298.515 121.555 298.044 121.555 297.553V283.387C121.555 282.897 121.75 282.426 122.096 282.079C122.444 281.732 122.914 281.537 123.404 281.537H129.266Z" fill="#B1C3F8"/>
<path d="M136.977 299.392V281.539H129.266V299.392H136.977Z" fill="#B1C3F8"/>
<path d="M144.694 299.392V281.539H136.982V299.392H144.694Z" fill="#B1C3F8"/>
<path d="M152.403 299.392V281.539H144.691V299.392H152.403Z" fill="#B1C3F8"/>
<path d="M160.12 283.389V297.542C160.12 298.032 159.925 298.503 159.578 298.85C159.231 299.197 158.761 299.392 158.27 299.392H152.408V281.539H158.263C158.507 281.538 158.748 281.586 158.973 281.678C159.198 281.771 159.403 281.907 159.576 282.079C159.748 282.251 159.885 282.455 159.978 282.68C160.072 282.905 160.12 283.146 160.12 283.389Z" fill="#B1C3F8"/>
<path opacity="0.15" d="M158.268 281.539H123.402C122.912 281.539 122.441 281.734 122.095 282.081C121.747 282.428 121.553 282.898 121.553 283.389V297.545C121.553 298.036 121.747 298.506 122.095 298.853C122.441 299.2 122.912 299.395 123.402 299.395H158.268C158.759 299.395 159.229 299.2 159.576 298.853C159.923 298.506 160.118 298.036 160.118 297.545V283.389C160.118 282.898 159.923 282.428 159.576 282.081C159.229 281.734 158.759 281.539 158.268 281.539Z" fill="black"/>
<path opacity="0.2" d="M136.977 299.392V281.539H129.266V299.392H136.977Z" fill="white"/>
<path opacity="0.4" d="M144.694 299.392V281.539H136.982V299.392H144.694Z" fill="white"/>
<path opacity="0.6" d="M152.403 299.392V281.539H144.691V299.392H152.403Z" fill="white"/>
<path opacity="0.8" d="M160.12 283.389V297.542C160.12 298.032 159.925 298.503 159.578 298.85C159.231 299.197 158.761 299.392 158.27 299.392H152.408V281.539H158.263C158.507 281.538 158.748 281.586 158.973 281.678C159.198 281.771 159.403 281.907 159.576 282.079C159.748 282.251 159.885 282.455 159.978 282.68C160.072 282.905 160.12 283.146 160.12 283.389Z" fill="white"/>
<path d="M112.195 294.872C114.628 294.872 116.601 292.899 116.601 290.465C116.601 288.032 114.628 286.059 112.195 286.059C109.762 286.059 107.789 288.032 107.789 290.465C107.789 292.899 109.762 294.872 112.195 294.872Z" fill="#B1C3F8"/>
<path d="M112.195 292.863C113.519 292.863 114.593 291.79 114.593 290.465C114.593 289.141 113.519 288.066 112.195 288.066C110.87 288.066 109.797 289.141 109.797 290.465C109.797 291.79 110.87 292.863 112.195 292.863Z" fill="#61656D"/>
<path d="M144.478 247.2L156.392 259.118C157.042 259.767 157.406 260.649 157.406 261.568C157.406 262.487 157.042 263.368 156.392 264.018L122.385 298.034C120.155 300.264 117.132 301.516 113.979 301.516C110.825 301.516 107.801 300.264 105.572 298.034C103.342 295.803 102.09 292.779 102.09 289.625C102.09 286.471 103.342 283.446 105.572 281.216L139.579 247.2C140.228 246.551 141.109 246.186 142.028 246.186C142.947 246.186 143.828 246.551 144.478 247.2Z" fill="black"/>
<path d="M143.779 246.507L155.693 258.424C156.342 259.074 156.707 259.956 156.707 260.875C156.707 261.794 156.342 262.675 155.693 263.325L121.686 297.34C119.456 299.57 116.433 300.823 113.279 300.823C110.126 300.823 107.102 299.57 104.873 297.34C102.643 295.11 101.391 292.085 101.391 288.932C101.391 285.778 102.643 282.753 104.873 280.523L138.88 246.507C139.529 245.858 140.411 245.492 141.329 245.492C142.248 245.492 143.129 245.858 143.779 246.507Z" fill="#3F4249"/>
<path d="M117.956 272.078L130.577 284.702L126.432 288.848C126.085 289.195 125.614 289.39 125.124 289.39C124.633 289.39 124.163 289.195 123.816 288.848L113.811 278.841C113.464 278.494 113.27 278.023 113.27 277.533C113.27 277.042 113.464 276.571 113.811 276.224L117.956 272.078Z" fill="#61656D"/>
<path d="M136.027 279.249L123.406 266.625L117.953 272.079L130.574 284.703L136.027 279.249Z" fill="#61656D"/>
<path d="M141.482 273.792L128.861 261.168L123.408 266.622L136.029 279.246L141.482 273.792Z" fill="#61656D"/>
<path d="M146.939 268.337L134.318 255.713L128.865 261.167L141.486 273.791L146.939 268.337Z" fill="#61656D"/>
<path d="M141.079 251.565L151.084 261.573C151.431 261.919 151.626 262.39 151.626 262.881C151.626 263.372 151.431 263.842 151.084 264.189L146.939 268.335L134.318 255.712L138.463 251.565C138.81 251.218 139.281 251.023 139.771 251.023C140.262 251.023 140.732 251.218 141.079 251.565Z" fill="#61656D"/>
<path opacity="0.2" d="M136.027 279.249L123.406 266.625L117.953 272.079L130.574 284.703L136.027 279.249Z" fill="white"/>
<path opacity="0.4" d="M141.482 273.792L128.861 261.168L123.408 266.622L136.029 279.246L141.482 273.792Z" fill="white"/>
<path opacity="0.6" d="M146.939 268.337L134.318 255.713L128.865 261.167L141.486 273.791L146.939 268.337Z" fill="white"/>
<path opacity="0.8" d="M141.079 251.565L151.084 261.573C151.431 261.919 151.626 262.39 151.626 262.881C151.626 263.372 151.431 263.842 151.084 264.189L146.939 268.335L134.318 255.712L138.463 251.565C138.81 251.218 139.281 251.023 139.771 251.023C140.262 251.023 140.732 251.218 141.079 251.565Z" fill="white"/>
<path d="M112.195 294.872C114.628 294.872 116.601 292.899 116.601 290.465C116.601 288.032 114.628 286.059 112.195 286.059C109.762 286.059 107.789 288.032 107.789 290.465C107.789 292.899 109.762 294.872 112.195 294.872Z" fill="#B1C3F8"/>
<path d="M112.195 292.863C113.519 292.863 114.593 291.79 114.593 290.465C114.593 289.141 113.519 288.066 112.195 288.066C110.87 288.066 109.797 289.141 109.797 290.465C109.797 291.79 110.87 292.863 112.195 292.863Z" fill="#61656D"/>
<path d="M104.437 237.041H121.286C122.205 237.041 123.086 237.406 123.735 238.056C124.385 238.706 124.75 239.587 124.75 240.506V288.611C124.75 291.765 123.497 294.79 121.268 297.02C119.038 299.25 116.014 300.503 112.861 300.503C109.708 300.503 106.684 299.25 104.455 297.02C102.225 294.79 100.973 291.765 100.973 288.611V240.506C100.973 239.587 101.338 238.706 101.987 238.056C102.637 237.406 103.518 237.041 104.437 237.041Z" fill="black"/>
<path d="M103.47 237.041H120.319C121.238 237.041 122.119 237.406 122.769 238.056C123.418 238.706 123.783 239.587 123.783 240.506V288.611C123.783 291.765 122.531 294.79 120.301 297.02C118.072 299.25 115.048 300.503 111.895 300.503C108.742 300.503 105.718 299.25 103.488 297.02C101.259 294.79 100.006 291.765 100.006 288.611V240.506C100.006 239.587 100.371 238.706 101.021 238.056C101.67 237.406 102.551 237.041 103.47 237.041Z" fill="#B1C3F8"/>
<path d="M103.47 237.041H120.319C121.238 237.041 122.119 237.406 122.769 238.056C123.418 238.706 123.783 239.587 123.783 240.506V288.611C123.783 291.765 122.531 294.79 120.301 297.02C118.072 299.25 115.048 300.503 111.895 300.503C108.742 300.503 105.718 299.25 103.488 297.02C101.259 294.79 100.006 291.765 100.006 288.611V240.506C100.006 239.587 100.371 238.706 101.021 238.056C101.67 237.406 102.551 237.041 103.47 237.041Z" fill="#3F4249"/>
<path d="M103.27 273.393H121.118V279.256C121.118 279.747 120.923 280.217 120.576 280.564C120.229 280.911 119.758 281.106 119.268 281.106H105.119C104.629 281.106 104.158 280.911 103.811 280.564C103.464 280.217 103.27 279.747 103.27 279.256V273.393Z" fill="#B1C3F8"/>
<path d="M121.118 265.676H103.27V273.389H121.118V265.676Z" fill="#B1C3F8"/>
<path d="M121.118 257.961H103.27V265.675H121.118V257.961Z" fill="#B1C3F8"/>
<path d="M121.118 250.244H103.27V257.958H121.118V250.244Z" fill="#B1C3F8"/>
<path d="M105.119 242.531H119.268C119.758 242.531 120.229 242.726 120.576 243.073C120.923 243.42 121.118 243.891 121.118 244.381V250.245H103.27V244.395C103.268 244.151 103.314 243.909 103.406 243.683C103.499 243.457 103.634 243.251 103.807 243.078C103.979 242.905 104.183 242.767 104.408 242.673C104.634 242.579 104.875 242.531 105.119 242.531Z" fill="#B1C3F8"/>
<path opacity="0.2" d="M121.118 265.676H103.27V273.389H121.118V265.676Z" fill="white"/>
<path opacity="0.4" d="M121.118 257.961H103.27V265.675H121.118V257.961Z" fill="white"/>
<path opacity="0.6" d="M121.118 250.244H103.27V257.958H121.118V250.244Z" fill="white"/>
<path opacity="0.8" d="M105.119 242.531H119.268C119.758 242.531 120.229 242.726 120.576 243.073C120.923 243.42 121.118 243.891 121.118 244.381V250.245H103.27V244.395C103.268 244.151 103.314 243.909 103.406 243.683C103.499 243.457 103.634 243.251 103.807 243.078C103.979 242.905 104.183 242.767 104.408 242.673C104.634 242.579 104.875 242.531 105.119 242.531Z" fill="white"/>
<path d="M112.195 294.872C114.628 294.872 116.601 292.899 116.601 290.465C116.601 288.032 114.628 286.059 112.195 286.059C109.762 286.059 107.789 288.032 107.789 290.465C107.789 292.899 109.762 294.872 112.195 294.872Z" fill="black"/>
<path d="M112.195 292.863C113.519 292.863 114.593 291.79 114.593 290.465C114.593 289.141 113.519 288.066 112.195 288.066C110.87 288.066 109.797 289.141 109.797 290.465C109.797 291.79 110.87 292.863 112.195 292.863Z" fill="#3F4249"/>
<path d="M237.313 279.562H203.621C198.866 279.562 195.012 283.418 195.012 288.174V321.875C195.012 326.631 198.866 330.487 203.621 330.487H237.313C242.068 330.487 245.923 326.631 245.923 321.875V288.174C245.923 283.418 242.068 279.562 237.313 279.562Z" fill="#B1C3F8"/>
<path opacity="0.15" d="M237.313 279.562H203.621C198.866 279.562 195.012 283.418 195.012 288.174V321.875C195.012 326.631 198.866 330.487 203.621 330.487H237.313C242.068 330.487 245.923 326.631 245.923 321.875V288.174C245.923 283.418 242.068 279.562 237.313 279.562Z" fill="black"/>
<path d="M235.411 279.562H201.719C196.964 279.562 193.109 283.418 193.109 288.174V321.875C193.109 326.631 196.964 330.487 201.719 330.487H235.411C240.166 330.487 244.021 326.631 244.021 321.875V288.174C244.021 283.418 240.166 279.562 235.411 279.562Z" fill="#F3EC1B"/>
<path d="M233.732 291.773H204.062C203.998 291.773 203.937 291.748 203.891 291.703C203.846 291.657 203.82 291.596 203.82 291.531C203.82 291.467 203.846 291.405 203.891 291.36C203.937 291.315 203.998 291.289 204.062 291.289H233.732C233.796 291.289 233.858 291.315 233.903 291.36C233.949 291.405 233.974 291.467 233.974 291.531C233.974 291.596 233.949 291.657 233.903 291.703C233.858 291.748 233.796 291.773 233.732 291.773Z" fill="#1F42AB"/>
<path d="M220.121 295.895H217.707C216.425 302.347 213.358 308.651 209.057 312.856L213.261 319.382H224.567L228.768 312.856C224.477 308.647 221.403 302.347 220.121 295.895ZM218.914 314.814C218.382 314.814 217.862 314.656 217.419 314.36C216.977 314.065 216.632 313.644 216.428 313.152C216.225 312.66 216.171 312.119 216.275 311.597C216.379 311.075 216.635 310.596 217.012 310.219C217.388 309.843 217.867 309.587 218.389 309.483C218.911 309.379 219.452 309.432 219.944 309.636C220.436 309.84 220.856 310.185 221.151 310.627C221.447 311.07 221.605 311.59 221.605 312.123C221.605 312.836 221.321 313.521 220.817 314.026C220.312 314.53 219.628 314.814 218.914 314.814Z" fill="#1F42AB"/>
<path d="M219.262 295.895H218.562V307.15H219.262V295.895Z" fill="#B1C3F8"/>
<path d="M224.471 319.381H213.262V322.086H224.471V319.381Z" fill="#B1C3F8"/>
<path d="M233.729 305.539C233.669 305.539 233.61 305.516 233.566 305.475C233.522 305.434 233.495 305.377 233.49 305.317C233.267 301.89 231.841 298.652 229.464 296.174C227.088 293.695 223.912 292.136 220.499 291.77C220.435 291.763 220.377 291.731 220.338 291.681C220.298 291.631 220.28 291.568 220.287 291.504C220.294 291.441 220.326 291.383 220.376 291.343C220.426 291.304 220.489 291.285 220.553 291.293C224.075 291.678 227.35 293.291 229.803 295.849C232.256 298.407 233.732 301.747 233.971 305.283C233.975 305.347 233.953 305.41 233.911 305.458C233.869 305.505 233.81 305.535 233.746 305.539H233.729Z" fill="#1F42AB"/>
<path d="M204.097 305.542C204.066 305.541 204.034 305.533 204.005 305.519C203.977 305.505 203.951 305.486 203.93 305.462C203.909 305.438 203.893 305.41 203.883 305.38C203.873 305.35 203.869 305.318 203.872 305.286C204.119 301.752 205.598 298.418 208.049 295.862C210.501 293.306 213.772 291.691 217.291 291.298C217.354 291.291 217.418 291.309 217.468 291.349C217.518 291.389 217.55 291.447 217.557 291.51C217.564 291.574 217.545 291.637 217.506 291.687C217.466 291.737 217.408 291.769 217.345 291.776C213.933 292.145 210.76 293.705 208.384 296.182C206.008 298.659 204.581 301.894 204.353 305.32C204.347 305.382 204.317 305.44 204.269 305.482C204.222 305.523 204.16 305.545 204.097 305.542Z" fill="#1F42AB"/>
<path d="M217.301 293.253H220.529V291.531V290.023H217.301V291.531V293.253Z" fill="#B1C3F8"/>
<path d="M202.449 293.253H205.678V291.531V290.023H202.449V291.531V293.253Z" fill="#B1C3F8"/>
<path d="M232.15 293.253H235.379V291.531V290.023H232.15V291.531V293.253Z" fill="#B1C3F8"/>
<path d="M232.15 308.53H235.379V305.301H232.15V308.53Z" fill="#B1C3F8"/>
<path d="M202.445 308.53H205.674V305.301H202.445V308.53Z" fill="#B1C3F8"/>
<path opacity="0.2" d="M219.262 295.895H218.562V307.15H219.262V295.895Z" fill="black"/>
<path opacity="0.2" d="M224.471 319.381H213.262V322.086H224.471V319.381Z" fill="black"/>
<path opacity="0.2" d="M217.301 293.253H220.529V291.531V290.023H217.301V291.531V293.253Z" fill="black"/>
<path opacity="0.2" d="M202.449 293.253H205.678V291.531V290.023H202.449V291.531V293.253Z" fill="black"/>
<g opacity="0.2">
<path opacity="0.2" d="M232.15 293.253H235.379V291.531V290.023H232.15V291.531V293.253Z" fill="black"/>
</g>
<g opacity="0.2">
<path opacity="0.2" d="M232.154 308.53H235.383V305.301H232.154V308.53Z" fill="black"/>
</g>
<path opacity="0.2" d="M202.445 308.53H205.674V305.301H202.445V308.53Z" fill="black"/>
<path d="M361.106 113.402H327.414C322.659 113.402 318.805 117.258 318.805 122.014V155.715C318.805 160.471 322.659 164.327 327.414 164.327H361.106C365.862 164.327 369.716 160.471 369.716 155.715V122.014C369.716 117.258 365.862 113.402 361.106 113.402Z" fill="#B1C3F8"/>
<path opacity="0.15" d="M361.106 113.402H327.414C322.659 113.402 318.805 117.258 318.805 122.014V155.715C318.805 160.471 322.659 164.327 327.414 164.327H361.106C365.862 164.327 369.716 160.471 369.716 155.715V122.014C369.716 117.258 365.862 113.402 361.106 113.402Z" fill="black"/>
<path d="M359.2 113.402H325.508C320.753 113.402 316.898 117.258 316.898 122.014V155.715C316.898 160.471 320.753 164.327 325.508 164.327H359.2C363.956 164.327 367.81 160.471 367.81 155.715V122.014C367.81 117.258 363.956 113.402 359.2 113.402Z" fill="#F3EC1B"/>
<g opacity="0.8">
<path opacity="0.8" d="M350.724 142.969C356.196 142.969 360.632 138.532 360.632 133.059C360.632 127.586 356.196 123.148 350.724 123.148C345.252 123.148 340.816 127.586 340.816 133.059C340.816 138.532 345.252 142.969 350.724 142.969Z" fill="white"/>
</g>
<g opacity="0.42">
<path opacity="0.42" d="M335.896 142.575C341.368 142.575 345.804 138.138 345.804 132.664C345.804 127.191 341.368 122.754 335.896 122.754C330.424 122.754 325.988 127.191 325.988 132.664C325.988 138.138 330.424 142.575 335.896 142.575Z" fill="white"/>
</g>
<path d="M345.022 128.811C344.638 127.9 344.12 127.051 343.485 126.295C341.837 128.064 340.892 130.374 340.831 132.791C340.771 135.208 341.595 137.563 343.148 139.415C344.45 138.016 345.318 136.271 345.651 134.389C345.984 132.508 345.765 130.571 345.022 128.811Z" fill="#1F42AB"/>
<path d="M352.725 147.402C353.659 142.01 350.047 136.879 344.656 135.943C339.265 135.006 334.136 138.619 333.198 144.012C332.263 149.404 335.875 154.535 341.266 155.471C346.657 156.408 351.786 152.795 352.725 147.402Z" fill="#1F42AB"/>
<path d="M352.443 142.821C351.74 140.506 350.213 138.528 348.148 137.263C346.086 135.997 343.634 135.531 341.25 135.952C341.956 138.266 343.483 140.243 345.545 141.509C347.606 142.774 350.061 143.241 352.443 142.821Z" fill="#B1C3F8"/>
<path d="M335.067 139.731C334.468 140.517 333.991 141.389 333.654 142.318C336.012 142.871 338.487 142.541 340.619 141.391C342.748 140.24 344.383 138.349 345.213 136.074C343.35 135.637 341.4 135.75 339.597 136.399C337.798 137.048 336.224 138.205 335.067 139.731Z" fill="#B1C3F8"/>
<path d="M343.135 139.437C344.043 138.467 344.745 137.322 345.199 136.073C345.122 136.053 345.045 136.04 344.964 136.023L344.83 135.996L344.577 135.949L344.402 135.922L344.16 135.892C344.039 135.875 343.918 135.865 343.797 135.855L343.585 135.838H343.353H343.155H342.633L342.297 135.855H342.146C342.028 135.855 341.91 135.875 341.793 135.888H341.709C341.564 135.905 341.419 135.929 341.275 135.952H341.234C341.624 137.23 342.274 138.415 343.135 139.437Z" fill="white"/>
<path d="M457.362 298.742C457.376 312.476 453.767 325.972 446.906 337.868C440.046 349.765 430.171 359.644 418.279 366.507C417.418 367.011 416.541 367.496 415.66 367.967L414.916 368.354C404.016 373.968 391.943 376.932 379.684 376.999H379.119C378.11 376.999 377.121 376.979 376.129 376.945C367.422 376.626 358.832 374.846 350.714 371.684C348.43 370.786 346.197 369.794 344.018 368.704L343.937 368.66C336.737 365.023 330.142 360.3 324.38 354.652C322.81 353.105 321.296 351.49 319.84 349.808C307.59 335.617 300.861 317.488 300.885 298.739C300.885 264.91 322.339 236.098 352.385 225.171C355.19 224.148 358.056 223.29 360.961 222.601C361.345 222.507 361.732 222.416 362.118 222.332C367.701 221.098 373.405 220.477 379.126 220.479C381.574 220.479 383.996 220.591 386.39 220.815C386.773 220.849 387.153 220.889 387.537 220.929C391.539 221.356 395.501 222.093 399.389 223.133C432.771 232.064 457.362 262.532 457.362 298.742Z" fill="#B1C3F8"/>
<path d="M358.851 232.229C358.606 232.165 358.36 232.091 358.118 232.01C353.554 230.486 351.772 226.113 352.26 221.558C353.269 212.025 361.552 207.843 371.48 212.812C381.408 217.781 385.393 208.24 391.729 211.49C398.066 214.739 395.765 221.441 395.765 221.441C395.765 221.441 400.107 220.939 402.848 229.269C405.589 237.598 396.391 248.474 391.255 252.07C386.12 255.666 381.613 227.237 381.613 227.237C378.559 228.538 375.435 229.675 372.26 230.645C368.053 231.946 363.294 233.4 358.851 232.229Z" fill="black"/>
<path d="M377.852 288.63C376.635 287.927 355.272 267.773 350.655 268.597C349.841 263.958 357.401 267.107 360.102 262.929C360.784 261.811 361.777 260.914 362.957 260.345C365.197 259.336 367.023 259.673 367.622 260.265C376.329 268.907 382.188 265.247 391.248 258.815C392.321 258.054 396.629 258.448 397.749 262.515C401.354 269.421 408.329 263.82 408.326 270.646C408.326 271.164 407.68 271.124 406.712 270.888C403.268 270.076 399.646 270.651 396.622 272.489L377.852 288.63Z" fill="#B1C3F8"/>
<path d="M252.203 315.232L245.608 312.621L236.944 313.021C236.784 313.021 236.626 313.06 236.485 313.135C236.343 313.21 236.222 313.319 236.133 313.452C236.043 313.586 235.988 313.739 235.972 313.898C235.956 314.058 235.979 314.219 236.04 314.367C236.133 314.601 236.293 314.802 236.5 314.946C236.707 315.09 236.951 315.169 237.203 315.174L245.275 315.575L238.098 315.911C237.968 315.914 237.841 315.946 237.725 316.005C237.609 316.063 237.507 316.147 237.427 316.249C237.347 316.351 237.291 316.47 237.262 316.596C237.233 316.723 237.233 316.854 237.261 316.981C237.334 317.209 237.482 317.406 237.681 317.54C237.88 317.674 238.118 317.738 238.357 317.721L245.47 318.057L240.166 318.861C240.08 318.876 239.997 318.911 239.925 318.962C239.853 319.013 239.794 319.079 239.75 319.156C239.707 319.233 239.682 319.319 239.676 319.407C239.67 319.495 239.683 319.583 239.716 319.665C239.791 319.806 239.903 319.925 240.039 320.007C240.176 320.091 240.332 320.135 240.493 320.136H246.439L252.644 323.5L252.203 315.232Z" fill="#FFEDDF"/>
<path opacity="0.15" d="M252.203 315.232L245.608 312.621L236.944 313.021C236.784 313.021 236.626 313.06 236.485 313.135C236.343 313.21 236.222 313.319 236.133 313.452C236.043 313.586 235.988 313.739 235.972 313.898C235.956 314.058 235.979 314.219 236.04 314.367C236.133 314.601 236.293 314.802 236.5 314.946C236.707 315.09 236.951 315.169 237.203 315.174L245.275 315.575L238.098 315.911C237.968 315.914 237.841 315.946 237.725 316.005C237.609 316.063 237.507 316.147 237.427 316.249C237.347 316.351 237.291 316.47 237.262 316.596C237.233 316.723 237.233 316.854 237.261 316.981C237.334 317.209 237.482 317.406 237.681 317.54C237.88 317.674 238.118 317.738 238.357 317.721L245.47 318.057L240.166 318.861C240.08 318.876 239.997 318.911 239.925 318.962C239.853 319.013 239.794 319.079 239.75 319.156C239.707 319.233 239.682 319.319 239.676 319.407C239.67 319.495 239.683 319.583 239.716 319.665C239.791 319.806 239.903 319.925 240.039 320.007C240.176 320.091 240.332 320.135 240.493 320.136H246.439L252.644 323.5L252.203 315.232Z" fill="black"/>
<path d="M252.265 312.818L260.861 321.262C261.366 321.732 261.959 322.097 262.607 322.335L282.261 328.232L277.024 340.295L259.311 333.258C255.611 333.325 252.329 331.384 249.81 328.901H249.743C249.387 328.56 248.97 328.287 248.515 328.097C246.834 327.495 242.697 325.954 242.697 325.954C242.635 325.938 242.576 325.909 242.526 325.869C242.475 325.83 242.433 325.78 242.402 325.724C242.37 325.668 242.35 325.607 242.343 325.543C242.336 325.479 242.342 325.414 242.361 325.352C242.62 324.279 243.706 323.475 245.075 323.61L248.101 323.946C249.716 324.081 250.947 322.809 250.62 321.399L248.875 315.233C248.828 315.037 248.74 314.852 248.618 314.691C248.496 314.53 248.342 314.396 248.165 314.298L238.274 308.801C238.173 308.762 238.082 308.702 238.004 308.626C237.927 308.55 237.865 308.459 237.823 308.36C237.781 308.26 237.76 308.152 237.76 308.044C237.76 307.935 237.782 307.828 237.824 307.728C237.932 307.48 238.134 307.284 238.386 307.184C238.638 307.084 238.919 307.087 239.169 307.193C241.755 308.202 249.706 311.482 251.515 312.286C251.787 312.43 252.04 312.608 252.265 312.818Z" fill="#FFEDDF"/>
<path opacity="0.15" d="M260.681 331.435C256.982 331.502 253.06 329.555 250.541 327.062H250.477C250.12 326.721 249.703 326.448 249.246 326.258C247.565 325.656 243.428 324.115 243.428 324.115C243.376 324.098 243.328 324.073 243.284 324.041C242.831 324.346 242.507 324.809 242.376 325.34C242.357 325.401 242.351 325.466 242.358 325.53C242.365 325.594 242.385 325.655 242.417 325.712C242.448 325.768 242.49 325.817 242.541 325.857C242.591 325.896 242.65 325.925 242.712 325.942C242.712 325.942 246.849 327.482 248.53 328.085C248.985 328.274 249.402 328.547 249.758 328.889H249.825C252.344 331.371 255.64 333.312 259.326 333.245L277.039 340.282C277.039 340.282 271.658 334.591 266.634 332.017C264.458 330.92 262.026 331.227 260.681 331.435Z" fill="black"/>
<path d="M344.617 269.789L343.689 300.29L331.329 343.552C327.714 355.823 317.729 361.025 307.62 356.156L265.146 335.71L269.633 324.511L308.982 334.856L323.106 287.087C324.317 282.995 326.604 279.304 329.732 276.401C332.859 273.498 336.707 271.489 340.877 270.586L344.627 269.775L344.617 269.789Z" fill="#6E8FF0"/>
<path opacity="0.15" d="M344.614 269.789L343.685 300.291L331.329 343.548C327.714 355.824 317.729 361.041 307.62 356.157L265.146 335.714L266.623 332.013L304.522 350.28C314.631 355.144 324.616 349.943 328.232 337.671L340.591 294.414L341.318 270.502L344.614 269.789Z" fill="black"/>
<path d="M424.63 276.228C421.782 275.336 420.766 287.174 420.302 302.05C420.231 304.193 420.177 306.393 420.13 308.633L419.67 313.905V314.016L418.755 324.444L414.924 368.348C404.024 373.962 391.954 376.926 379.692 376.993H379.127C378.118 376.993 377.129 376.973 376.137 376.94C367.43 376.62 358.84 374.84 350.722 371.678C348.438 370.78 346.208 369.788 344.026 368.698L342.082 332.669L341.692 325.474L341.587 323.556L341.47 321.437L340.864 310.191L340.837 309.7C340.478 305.747 340.145 301.646 339.788 297.677V297.559C339.788 297.502 339.788 297.451 339.788 297.394C338.725 285.593 337.461 275.01 334.764 273.025C336.903 272.074 339.105 271.276 341.359 270.64C342.233 270.384 343.135 270.149 344.049 269.93C346.168 269.412 348.391 268.975 350.692 268.612H350.735C355.834 267.833 360.979 267.368 366.135 267.219C366.169 267.216 366.199 267.216 366.233 267.219C371.516 267.041 376.904 267.128 382.184 267.424C385.863 267.626 389.485 267.929 392.98 268.312C393.938 268.42 394.89 268.531 395.828 268.649C397.301 268.83 398.744 269.026 400.157 269.237C403.052 269.668 405.803 270.156 408.353 270.684C414.282 271.898 419.115 273.328 422.212 274.795C423.066 275.182 423.88 275.663 424.63 276.228Z" fill="#6E8FF0"/>
<path opacity="0.15" d="M395.52 309.44C398.096 309.44 400.188 306.029 400.188 301.821C400.188 297.612 398.096 294.201 395.52 294.201C392.94 294.201 390.852 297.612 390.852 301.821C390.852 306.029 392.94 309.44 395.52 309.44Z" fill="black"/>
<path opacity="0.15" d="M408.327 270.634C408.33 270.645 408.33 270.657 408.327 270.668C408.33 270.698 408.33 270.728 408.327 270.759C408.32 270.794 408.303 270.829 408.283 270.859C408.273 270.873 408.263 270.887 408.253 270.903C408.216 270.937 408.172 270.963 408.125 270.981C407.853 271.088 407.368 271.018 406.743 270.866C405.734 270.622 404.698 270.501 403.659 270.506H403.245C402.929 270.506 402.613 270.533 402.304 270.57L401.85 270.624L401.476 270.681L401.217 270.728L400.834 270.806C400.686 270.833 400.535 270.87 400.387 270.91C400.05 270.991 399.754 271.081 399.438 271.189L399.102 271.3C398.89 271.378 398.678 271.458 398.47 271.552C398.365 271.593 398.264 271.637 398.16 271.684L397.73 271.882C397.588 271.949 397.444 272.023 397.306 272.097C397.091 272.208 396.879 272.33 396.667 272.457L379.717 287.04V376.981H379.152C378.143 376.981 377.154 376.961 376.162 376.927V287.188C376.027 287.067 375.883 286.946 375.735 286.818C375.704 286.787 375.674 286.758 375.641 286.731L375.059 286.22L374.093 285.368L373.391 284.749C373 284.402 372.594 284.044 372.163 283.676C372.062 283.586 371.965 283.498 371.86 283.411L371.46 283.074L370.72 282.432C370.555 282.287 370.384 282.139 370.216 281.998C370.216 281.998 370.216 281.998 370.192 281.974L369.684 281.537C369.18 281.096 368.652 280.649 368.124 280.191C368.07 280.148 368.02 280.1 367.962 280.057L367.038 279.273C366.856 279.118 366.671 278.963 366.483 278.812C366.294 278.661 366.116 278.503 365.928 278.351C365.739 278.2 365.558 278.042 365.369 277.89C365.181 277.739 365 277.577 364.811 277.426C364.767 277.386 364.72 277.352 364.677 277.315C364.202 276.925 363.725 276.538 363.244 276.154C363.089 276.027 362.931 275.899 362.77 275.774C362.521 275.572 362.265 275.374 362.013 275.176L361.821 275.024C361.192 274.536 360.57 274.052 359.955 273.594L359.817 273.49C359.558 273.295 359.299 273.103 359.043 272.918L358.596 272.582C358.297 272.367 358.004 272.158 357.715 271.956C357.543 271.835 357.379 271.717 357.207 271.62C356.871 271.388 356.535 271.172 356.232 270.964L355.781 270.678C355.758 270.661 355.734 270.647 355.707 270.634C355.569 270.54 355.428 270.459 355.293 270.375C355.159 270.291 354.994 270.19 354.846 270.106C354.698 270.022 354.557 269.934 354.412 269.857C354.268 269.78 354.13 269.699 353.989 269.628C353.713 269.477 353.45 269.346 353.195 269.228C353.067 269.171 352.946 269.114 352.825 269.063C352.704 269.013 352.647 268.986 352.563 268.955C352.505 268.93 352.445 268.909 352.384 268.892H352.354C352.277 268.861 352.203 268.834 352.135 268.814L351.903 268.744H351.88L351.708 268.703C351.695 268.698 351.678 268.698 351.661 268.703C351.611 268.688 351.557 268.678 351.503 268.673H351.48L351.301 268.646H351.264C351.174 268.646 351.093 268.646 351.012 268.646C350.925 268.644 350.841 268.65 350.753 268.666H350.71C349.896 264.027 357.436 267.176 360.153 262.994C360.839 261.878 361.828 260.982 363.009 260.414C363.15 260.35 363.294 260.29 363.432 260.236C363.671 260.143 363.913 260.063 364.159 259.997C364.263 259.967 364.364 259.943 364.461 259.92H364.522L364.741 259.876L364.905 259.849L365.148 259.819L365.38 259.799H365.504C365.662 259.799 365.813 259.799 365.958 259.799C366.005 259.795 366.049 259.795 366.093 259.799L366.321 259.822C366.412 259.822 366.5 259.849 366.584 259.866L366.795 259.913H366.822C366.863 259.922 366.903 259.935 366.943 259.95C367.017 259.973 367.091 260 367.162 260.031C367.226 260.056 367.29 260.085 367.35 260.118H367.371C367.475 260.176 367.572 260.248 367.656 260.33C368.127 260.798 368.588 261.228 369.045 261.629L369.335 261.874C369.832 262.298 370.323 262.675 370.808 263.018C370.919 263.099 371.026 263.176 371.144 263.247C371.968 263.808 372.846 264.283 373.767 264.663C374.063 264.781 374.356 264.885 374.645 264.969C374.722 264.996 374.796 265.016 374.874 265.036C374.951 265.057 375.109 265.107 375.21 265.134C375.311 265.161 375.479 265.198 375.61 265.221C375.674 265.237 375.738 265.249 375.802 265.258C375.916 265.282 376.027 265.295 376.138 265.312C376.249 265.329 376.317 265.336 376.397 265.346L376.676 265.376H376.737C376.855 265.376 376.966 265.396 377.073 265.4C377.181 265.403 377.379 265.4 377.531 265.4C377.685 265.4 377.843 265.4 377.998 265.4H378.028C378.18 265.4 378.338 265.4 378.489 265.366C378.64 265.332 378.778 265.336 378.926 265.312C378.953 265.316 378.983 265.316 379.01 265.312C379.145 265.295 379.286 265.272 379.421 265.245C379.787 265.181 380.154 265.094 380.527 264.989L380.9 264.878C381.065 264.828 381.237 264.774 381.388 264.717C381.539 264.66 381.657 264.623 381.795 264.569L381.957 264.505C382.256 264.39 382.555 264.263 382.861 264.121C383.019 264.051 383.177 263.98 383.339 263.899C383.43 263.859 383.517 263.815 383.608 263.768L383.978 263.58C384.442 263.342 384.913 263.083 385.387 262.803C385.532 262.719 385.68 262.631 385.824 262.54C385.969 262.449 386.049 262.402 386.16 262.332C387.297 261.635 388.471 260.841 389.705 259.977L390.765 259.237L391.252 258.9C391.289 258.876 391.33 258.853 391.367 258.833C391.437 258.793 391.511 258.76 391.585 258.736L391.74 258.688C391.807 258.67 391.871 258.655 391.938 258.645C391.989 258.634 392.039 258.626 392.09 258.621L392.275 258.598H392.302H392.443C392.577 258.598 392.719 258.598 392.863 258.598H393.021L393.297 258.625C393.411 258.625 393.532 258.665 393.654 258.688C393.973 258.756 394.286 258.851 394.588 258.971L394.773 259.052L394.962 259.139C395.026 259.168 395.09 259.201 395.15 259.237C395.523 259.434 395.87 259.679 396.183 259.963L396.236 260.011C396.304 260.074 396.371 260.138 396.435 260.206C396.516 260.29 396.59 260.377 396.667 260.468C396.744 260.559 396.781 260.609 396.835 260.68L396.929 260.811C396.983 260.881 397.033 260.954 397.077 261.03C397.087 261.048 397.097 261.064 397.111 261.08C397.168 261.185 397.229 261.289 397.286 261.397C397.34 261.498 397.39 261.602 397.434 261.709L397.471 261.793C397.518 261.904 397.565 262.026 397.605 262.13C397.652 262.264 397.696 262.399 397.736 262.544C401.355 269.41 408.33 263.809 408.327 270.634Z" fill="black"/>
<path d="M450.944 329.84C444.251 345.24 432.803 358.091 418.278 366.507C417.417 367.012 416.539 367.496 415.658 367.967L429.477 337.103L419.67 313.891L417.598 308.99C415.523 305.948 414.164 302.478 413.616 298.837C412.792 293.552 413.216 288.147 414.857 283.056C416.579 277.839 419.414 274.31 422.182 274.771C422.518 274.868 433.751 278.108 437.017 287.971L449.73 322.308C450.439 324.759 450.846 327.289 450.944 329.84Z" fill="#6E8FF0"/>
<path opacity="0.15" d="M431.013 339.549L418.277 366.509C417.416 367.013 416.538 367.498 415.657 367.969L429.476 337.104L419.659 314.03L419.626 313.956L418.745 324.458C415.526 319.88 413.895 308.712 413.616 298.858C413.431 292.164 413.865 286.075 414.857 283.078C415.156 282.169 416.179 282.503 416.35 283.444C417.537 289.893 418.577 296.689 420.302 302.064C420.645 303.16 421.045 304.237 421.502 305.29L431.131 331.506C431.683 332.778 431.958 334.154 431.938 335.541C431.918 336.927 431.602 338.294 431.013 339.549Z" fill="black"/>
<path d="M399.314 226.742C399.149 227.671 397.894 247.808 387.516 255.982V232.572L399.314 226.742Z" fill="black"/>
<path d="M393.042 269.624L391.387 245.333L391.051 240.502C390.224 221.939 366.009 237.138 366.009 237.138C366.009 237.138 366.682 243.556 366.978 250.665C366.984 252.127 367.142 253.584 367.458 255.011L365.871 269.432L393.042 269.624Z" fill="#FFEDDF"/>
<path d="M393.037 269.625C393.034 270.067 392.916 270.502 392.701 270.888C392.486 271.275 392.177 271.6 391.8 271.835L387.532 274.735L378.485 280.874C378.28 280.992 378.041 281.042 377.806 281.017C377.57 280.992 377.348 280.894 377.174 280.736L369.458 274.102L366.825 271.835C366.469 271.548 366.196 271.175 366.028 270.752C365.86 270.328 365.803 269.868 365.863 269.416L393.037 269.625Z" fill="#FFEDDF"/>
<path d="M390.28 223.457L390.953 239.604C390.953 239.604 389.16 264.498 373.155 262.375C354.735 259.96 363.287 223.938 363.287 223.938L390.28 223.457Z" fill="#FFEDDF"/>
<path opacity="0.15" d="M376.209 263.269C379.512 262.82 382.545 261.206 384.765 258.717C384.829 258.653 384.866 258.566 384.866 258.475C384.866 258.384 384.829 258.297 384.765 258.233C384.701 258.169 384.614 258.133 384.523 258.133C384.432 258.133 384.344 258.169 384.281 258.233C382.538 260.15 380.292 261.538 377.796 262.236C372.829 263.34 368.413 261.062 366.826 259.474L366.207 265.271C369.674 265.956 373.273 265.236 376.209 263.269Z" fill="black"/>
<path d="M375.52 242.224C376.32 242.224 376.969 241.575 376.969 240.774C376.969 239.973 376.32 239.324 375.52 239.324C374.719 239.324 374.07 239.973 374.07 240.774C374.07 241.575 374.719 242.224 375.52 242.224Z" fill="black"/>
<path d="M374.895 240.64C375.087 240.64 375.242 240.485 375.242 240.294C375.242 240.102 375.087 239.947 374.895 239.947C374.704 239.947 374.549 240.102 374.549 240.294C374.549 240.485 374.704 240.64 374.895 240.64Z" fill="white"/>
<path d="M364.137 242.224C364.937 242.224 365.587 241.575 365.587 240.774C365.587 239.973 364.937 239.324 364.137 239.324C363.337 239.324 362.688 239.973 362.688 240.774C362.688 241.575 363.337 242.224 364.137 242.224Z" fill="black"/>
<path d="M363.516 240.64C363.708 240.64 363.863 240.485 363.863 240.294C363.863 240.102 363.708 239.947 363.516 239.947C363.325 239.947 363.17 240.102 363.17 240.294C363.17 240.485 363.325 240.64 363.516 240.64Z" fill="white"/>
<g opacity="0.15">
<path opacity="0.15" d="M368.418 247.401C368.475 246.939 368.71 246.517 369.07 246.222C369.43 245.927 369.888 245.78 370.352 245.813C370.557 245.813 370.688 246.018 370.688 246.294C370.688 246.503 370.483 246.631 370.207 246.631C370.089 246.622 369.972 246.636 369.861 246.672C369.746 246.709 369.642 246.768 369.555 246.844C369.464 246.921 369.39 247.015 369.336 247.12C369.282 247.225 369.252 247.34 369.242 247.458C369.232 247.576 369.249 247.694 369.286 247.806C369.319 247.919 369.38 248.023 369.457 248.112C369.534 248.202 369.625 248.275 369.733 248.329C369.837 248.382 369.952 248.415 370.069 248.424L372 248.562C372.208 248.562 372.336 248.77 372.336 249.046C372.336 249.251 372.127 249.382 371.852 249.382L369.921 249.244C369.699 249.231 369.481 249.171 369.282 249.069C369.084 248.967 368.909 248.825 368.768 248.652C368.626 248.479 368.522 248.278 368.462 248.063C368.401 247.847 368.388 247.622 368.418 247.401Z" fill="black"/>
</g>
<path d="M380.971 236.993H360.684C360.402 236.973 360.116 237.015 359.85 237.116C359.588 237.218 359.346 237.376 359.15 237.58C358.952 237.784 358.801 238.029 358.71 238.297C358.616 238.565 358.582 238.85 358.612 239.133V240.791C358.619 241.806 358.892 242.802 359.399 243.681C359.907 244.559 360.637 245.29 361.515 245.8C362.298 246.26 363.183 246.525 364.091 246.574C365.002 246.621 365.907 246.451 366.738 246.076C367.767 245.624 368.645 244.882 369.263 243.941C369.879 243 370.212 241.9 370.215 240.774V239.116C370.202 238.639 370.034 238.178 369.734 237.807H372.011C371.85 237.983 371.722 238.189 371.638 238.413C371.554 238.638 371.517 238.877 371.527 239.116V240.774C371.527 242.312 372.136 243.786 373.225 244.873C374.312 245.96 375.785 246.571 377.322 246.571C378.858 246.571 380.332 245.96 381.418 244.873C382.504 243.786 383.116 242.312 383.116 240.774V239.116C383.109 238.551 382.881 238.012 382.477 237.615C382.077 237.217 381.536 236.994 380.971 236.993ZM369.173 240.791C369.183 241.673 368.957 242.54 368.517 243.304C368.076 244.067 367.437 244.698 366.67 245.131C365.914 245.545 365.066 245.76 364.205 245.756C363.227 245.761 362.268 245.48 361.448 244.946C360.758 244.495 360.196 243.878 359.81 243.152C359.423 242.425 359.228 241.614 359.238 240.791V239.133C359.248 238.789 359.389 238.461 359.631 238.218C359.874 237.974 360.203 237.834 360.546 237.824H367.861C368.204 237.833 368.534 237.973 368.779 238.217C369.021 238.46 369.163 238.788 369.173 239.133V240.791ZM382.208 240.694C382.225 241.357 382.111 242.017 381.869 242.634C381.626 243.252 381.263 243.815 380.799 244.29C380.338 244.765 379.783 245.143 379.175 245.401C378.563 245.659 377.907 245.791 377.241 245.791C376.578 245.791 375.922 245.659 375.31 245.401C374.702 245.143 374.147 244.765 373.686 244.29C373.222 243.815 372.859 243.252 372.616 242.634C372.374 242.017 372.26 241.357 372.277 240.694V239.039C372.347 238.349 372.949 237.868 373.656 237.727H380.9C381.243 237.736 381.573 237.877 381.815 238.121C382.06 238.365 382.198 238.694 382.208 239.039V240.694Z" fill="black"/>
<path d="M389.456 241.881C388.834 244.64 388.145 246.708 391.73 246.433C398.56 245.951 399.32 236.774 395.318 234.995C391.8 233.41 390.61 236.791 390.61 236.791L389.456 241.881Z" fill="#FFEDDF"/>
<path opacity="0.15" d="M395.73 239.251C395.592 239.456 395.394 239.456 395.111 239.388C394.627 239.052 394.143 238.904 393.8 239.052C393.463 239.052 393.178 239.388 392.835 239.88C392.35 240.502 392.212 241.676 392.212 241.952L392.074 242.779C392.074 242.988 391.866 243.116 391.59 243.116C391.385 243.116 391.254 242.907 391.254 242.631L391.392 241.804C391.53 240.838 391.597 240.007 392.064 239.251C392.549 238.628 393.03 238.147 393.652 238.076C394.335 237.985 395.024 238.159 395.582 238.561C395.73 238.628 395.801 238.837 395.73 239.251Z" fill="black"/>
<path opacity="0.15" d="M350.713 371.689C348.429 370.791 346.199 369.799 344.017 368.709L343.936 368.665L342.029 332.67L341.649 325.475L341.545 323.557L341.434 321.438L340.842 310.525L340.822 310.273L339.766 297.685V297.567L340.149 296.002L340.61 294.132L341.709 289.648C341.844 288.582 343.28 288.383 344.03 288.975C344.165 289.077 344.272 289.208 344.35 289.357C344.427 289.507 344.471 289.671 344.477 289.84L346.885 321.461L347.05 323.581L347.191 325.498L347.743 332.694L350.713 371.689Z" fill="black"/>
<path d="M360.891 222.34C360.891 222.34 362.132 229.586 373.156 228.435C379.287 227.793 382.237 227.238 383.612 226.871C383.76 226.835 383.911 226.833 384.059 226.865C384.207 226.896 384.349 226.961 384.466 227.053C384.587 227.146 384.685 227.265 384.752 227.401C384.819 227.536 384.856 227.685 384.86 227.837V230.551C384.86 230.998 385.035 231.425 385.351 231.741C385.667 232.056 386.094 232.233 386.541 232.233C386.985 232.233 387.416 232.411 387.729 232.726C388.045 233.042 388.223 233.469 388.223 233.915V239.994C388.223 240.36 388.368 240.711 388.626 240.97C388.885 241.228 389.235 241.373 389.602 241.373C389.965 241.373 390.318 241.228 390.577 240.97C390.836 240.711 390.981 240.36 390.981 239.994V222.34H360.891Z" fill="black"/>
<path d="M361.83 248.394C361.83 248.394 362.415 250.819 364.396 251.085C366.377 251.351 366.37 249.208 369.579 249.211C372.787 249.215 376.305 248.693 378.293 250.456C380.529 252.427 383.405 252.178 385.059 249.672C386.287 247.814 387.202 245.769 387.77 243.617C387.844 243.317 388.385 240.004 388.214 240.004H390.972C390.972 240.004 391.769 248.707 389.381 254.446C386.993 260.185 381.256 273.173 373.05 272.073C364.843 270.973 362.264 259.027 361.83 248.394Z" fill="black"/>
<path d="M374.745 253.207V253.247C374.745 254.761 373.262 255.982 371.429 255.982C369.596 255.982 368.113 254.761 368.113 253.247V253.207H374.745Z" fill="white"/>
</svg>
