<svg width="476" height="457" viewBox="0 0 476 457" fill="none" xmlns="http://www.w3.org/2000/svg">
<path d="M456.899 285.776C456.899 432.832 371.502 437.82 250.607 437.82C129.713 437.82 19.1016 432.832 19.1016 285.776C19.1016 138.719 117.106 19.5059 238 19.5059C358.895 19.5059 456.899 138.719 456.899 285.776Z" fill="#E2EAFF"/>
<path d="M474.5 290.748C474.5 330.705 468.714 360.873 458.079 383.667C447.461 406.426 431.978 421.902 412.432 432.456C392.851 443.028 369.137 448.688 342.04 451.693C314.944 454.698 284.573 455.039 251.707 455.039C185.906 455.039 123.332 453.654 77.1892 432.413C54.1782 421.82 35.294 406.302 22.1436 383.55C8.98279 360.781 1.5 330.654 1.5 290.748C1.5 130.931 107.65 1.9043 238 1.9043C368.35 1.9043 474.5 130.931 474.5 290.748Z" stroke="#1F42AB" stroke-width="3"/>
<path d="M64.9312 37.7324H387.25C391.63 37.7324 395.182 41.2212 395.182 45.5246V281.187C395.182 285.49 391.63 288.979 387.25 288.979H64.9312C60.55 288.979 56.9998 285.49 56.9998 281.187V45.5246C56.9998 41.2212 60.55 37.7324 64.9312 37.7324Z" fill="#4364C8"/>
<path opacity="0.6" d="M64.9312 37.7324H387.25C391.63 37.7324 395.182 41.2212 395.182 45.5246V281.187C395.182 285.49 391.63 288.979 387.25 288.979H64.9312C60.55 288.979 56.9998 285.49 56.9998 281.187V45.5246C56.9998 41.2212 60.55 37.7324 64.9312 37.7324Z" fill="white"/>
<path d="M68.7496 37.7324H391.069C395.449 37.7324 399 41.2212 399 45.5246V281.187C399 285.49 395.449 288.979 391.069 288.979H68.7496C64.3684 288.979 60.8182 285.49 60.8182 281.187V45.5246C60.8182 41.2212 64.3684 37.7324 68.7496 37.7324Z" fill="white"/>
<path d="M391.069 37.7324H372.666V288.983H391.069C393.172 288.983 395.189 288.162 396.677 286.701C398.164 285.24 399 283.258 399 281.191V45.5246C399 43.4582 398.164 41.4761 396.677 40.0148C395.189 38.5534 393.172 37.7324 391.069 37.7324Z" fill="#4364C8"/>
<path d="M380.375 49.7793H391.289C392.146 49.7793 392.84 50.4606 392.84 51.301C392.84 52.1415 392.146 52.8227 391.289 52.8227H380.375C379.518 52.8227 378.824 52.1415 378.824 51.301C378.824 50.4606 379.518 49.7793 380.375 49.7793Z" fill="white"/>
<path d="M382.967 71.4551H388.696C389.443 71.4551 390.049 72.0497 390.049 72.784V78.4127C390.049 79.1466 389.443 79.7417 388.696 79.7417H382.967C382.22 79.7417 381.614 79.1466 381.614 78.4127V72.784C381.614 72.0497 382.22 71.4551 382.967 71.4551Z" fill="white"/>
<path d="M382.967 98.3594H388.696C389.443 98.3594 390.049 98.9544 390.049 99.6883V105.317C390.049 106.051 389.443 106.646 388.696 106.646H382.967C382.22 106.646 381.614 106.051 381.614 105.317V99.6883C381.614 98.9544 382.22 98.3594 382.967 98.3594Z" fill="#4364C8"/>
<path d="M382.967 125.27H388.696C389.443 125.27 390.049 125.865 390.049 126.598V132.227C390.049 132.961 389.443 133.556 388.696 133.556H382.967C382.22 133.556 381.614 132.961 381.614 132.227V126.598C381.614 125.865 382.22 125.27 382.967 125.27Z" fill="#4364C8"/>
<path d="M382.967 152.174H388.696C389.443 152.174 390.049 152.769 390.049 153.503V159.131C390.049 159.866 389.443 160.46 388.696 160.46H382.967C382.22 160.46 381.614 159.866 381.614 159.131V153.503C381.614 152.769 382.22 152.174 382.967 152.174Z" fill="#4364C8"/>
<path opacity="0.4" d="M382.967 98.3594H388.696C389.443 98.3594 390.049 98.9544 390.049 99.6883V105.317C390.049 106.051 389.443 106.646 388.696 106.646H382.967C382.22 106.646 381.614 106.051 381.614 105.317V99.6883C381.614 98.9544 382.22 98.3594 382.967 98.3594Z" fill="white"/>
<path opacity="0.4" d="M382.967 125.27H388.696C389.443 125.27 390.049 125.865 390.049 126.598V132.227C390.049 132.961 389.443 133.556 388.696 133.556H382.967C382.22 133.556 381.614 132.961 381.614 132.227V126.598C381.614 125.865 382.22 125.27 382.967 125.27Z" fill="white"/>
<path opacity="0.4" d="M382.967 152.174H388.696C389.443 152.174 390.049 152.769 390.049 153.503V159.131C390.049 159.866 389.443 160.46 388.696 160.46H382.967C382.22 160.46 381.614 159.866 381.614 159.131V153.503C381.614 152.769 382.22 152.174 382.967 152.174Z" fill="white"/>
<path d="M330.508 48.5176H362.243C363.727 48.5176 364.93 49.6996 364.93 51.1573C364.93 52.6155 363.727 53.7971 362.243 53.7971H330.508C329.024 53.7971 327.821 52.6155 327.821 51.1573C327.821 49.6996 329.024 48.5176 330.508 48.5176Z" fill="#868A91"/>
<path d="M71.6119 46.0508H99.6306C100.508 46.0508 101.219 46.7493 101.219 47.611V54.7048C101.219 55.5665 100.508 56.265 99.6306 56.265H71.6119C70.7347 56.265 70.0237 55.5665 70.0237 54.7048V47.611C70.0237 46.7493 70.7347 46.0508 71.6119 46.0508Z" fill="#4364C8"/>
<path d="M111.347 46.0508H139.365C140.242 46.0508 140.953 46.7493 140.953 47.611V54.7048C140.953 55.5665 140.242 56.265 139.365 56.265H111.347C110.47 56.265 109.759 55.5665 109.759 54.7048V47.611C109.759 46.7493 110.47 46.0508 111.347 46.0508Z" stroke="#4364C8" stroke-miterlimit="10"/>
<path d="M378.567 269.953C378.567 266.012 381.819 262.816 385.831 262.816C389.843 262.816 393.096 266.012 393.096 269.953C393.096 273.895 389.843 277.09 385.831 277.09C381.819 277.09 378.567 273.895 378.567 269.953Z" fill="white"/>
<path d="M385.83 270.165C386.352 270.165 386.857 269.973 387.243 269.628C387.63 269.282 387.872 268.808 387.921 268.296L388.06 266.813C388.089 266.526 388.057 266.237 387.966 265.963C387.874 265.689 387.726 265.437 387.529 265.223C387.332 265.01 387.092 264.839 386.824 264.722C386.556 264.605 386.266 264.545 385.973 264.545H385.691C385.398 264.545 385.108 264.605 384.839 264.722C384.572 264.839 384.331 265.01 384.135 265.223C383.938 265.437 383.789 265.689 383.698 265.963C383.606 266.237 383.574 266.526 383.605 266.813L383.743 268.296C383.792 268.807 384.033 269.281 384.419 269.626C384.805 269.972 385.308 270.164 385.83 270.165Z" fill="#4364C8"/>
<path d="M379.679 273.752C379.967 274.207 380.307 274.628 380.695 275.004C381.467 275.763 382.402 276.34 383.432 276.695C384.463 277.049 385.561 277.17 386.646 277.05C387.73 276.93 388.773 276.571 389.698 276C390.621 275.429 391.403 274.661 391.982 273.752C391.805 272.965 391.359 272.26 390.718 271.756C390.078 271.251 389.281 270.976 388.46 270.977H383.201C382.381 270.976 381.584 271.251 380.943 271.756C380.303 272.26 379.857 272.965 379.679 273.752Z" fill="#4364C8"/>
<g opacity="0.4">
<path opacity="0.4" d="M385.832 270.165C386.354 270.165 386.858 269.973 387.245 269.628C387.632 269.282 387.874 268.808 387.923 268.296L388.062 266.813C388.091 266.526 388.059 266.237 387.968 265.963C387.876 265.689 387.728 265.437 387.531 265.223C387.334 265.01 387.094 264.839 386.826 264.722C386.558 264.605 386.268 264.545 385.975 264.545H385.693C385.4 264.545 385.11 264.605 384.841 264.722C384.574 264.839 384.333 265.01 384.136 265.223C383.94 265.437 383.791 265.689 383.7 265.963C383.608 266.237 383.576 266.526 383.606 266.813L383.745 268.296C383.794 268.807 384.035 269.281 384.421 269.626C384.807 269.972 385.31 270.164 385.832 270.165Z" fill="white"/>
<path opacity="0.4" d="M379.681 273.752C379.969 274.207 380.309 274.628 380.697 275.004C381.468 275.763 382.404 276.34 383.434 276.695C384.465 277.049 385.563 277.17 386.647 277.05C387.732 276.93 388.775 276.571 389.7 276C390.623 275.429 391.405 274.661 391.984 273.752C391.807 272.965 391.361 272.261 390.72 271.756C390.08 271.251 389.283 270.976 388.462 270.977H383.203C382.383 270.976 381.586 271.251 380.945 271.756C380.305 272.261 379.859 272.965 379.681 273.752Z" fill="white"/>
</g>
<path d="M274.909 66.5293H360.779C363.071 66.5293 364.93 68.3549 364.93 70.6068V115.224C364.93 117.476 363.071 119.301 360.779 119.301H274.909C272.617 119.301 270.758 117.476 270.758 115.224V70.6068C270.758 68.3549 272.617 66.5293 274.909 66.5293Z" fill="#4364C8"/>
<path opacity="0.5" d="M274.909 66.5293H360.779C363.071 66.5293 364.93 68.3549 364.93 70.6068V115.224C364.93 117.476 363.071 119.301 360.779 119.301H274.909C272.617 119.301 270.758 117.476 270.758 115.224V70.6068C270.758 68.3549 272.617 66.5293 274.909 66.5293Z" fill="white"/>
<path d="M299.511 96.4551H352.46C353.605 96.4551 354.533 97.3667 354.533 98.4916V104.846C354.533 105.971 353.605 106.882 352.46 106.882H299.511C298.367 106.882 297.439 105.971 297.439 104.846V98.4916C297.439 97.3667 298.367 96.4551 299.511 96.4551Z" fill="white"/>
<path d="M288.111 82.7422H331.434C332.436 82.7422 333.248 83.5405 333.248 84.5247C333.248 85.5094 332.436 86.3072 331.434 86.3072H288.111C287.108 86.3072 286.296 85.5094 286.296 84.5247C286.296 83.5405 287.108 82.7422 288.111 82.7422Z" fill="#4364C8"/>
<path opacity="0.3" d="M288.111 82.7422H331.434C332.436 82.7422 333.248 83.5405 333.248 84.5247C333.248 85.5094 332.436 86.3072 331.434 86.3072H288.111C287.108 86.3072 286.296 85.5094 286.296 84.5247C286.296 83.5405 287.108 82.7422 288.111 82.7422Z" fill="white"/>
<path d="M347.123 91.8055C343.031 91.8055 339.714 88.5462 339.714 84.5258C339.714 80.5054 343.031 77.2461 347.123 77.2461C351.216 77.2461 354.533 80.5054 354.533 84.5258C354.533 88.5462 351.216 91.8055 347.123 91.8055Z" fill="#4364C8"/>
<path opacity="0.3" d="M347.123 91.8055C343.031 91.8055 339.714 88.5462 339.714 84.5258C339.714 80.5054 343.031 77.2461 347.123 77.2461C351.216 77.2461 354.533 80.5054 354.533 84.5258C354.533 88.5462 351.216 91.8055 347.123 91.8055Z" fill="white"/>
<path d="M174.573 66.625H260.287C262.574 66.625 264.428 68.4465 264.428 70.6935V115.229C264.428 117.476 262.574 119.297 260.287 119.297H174.573C172.286 119.297 170.432 117.476 170.432 115.229V70.6935C170.432 68.4465 172.286 66.625 174.573 66.625Z" fill="#4364C8"/>
<path d="M199.131 96.4961H251.982C253.125 96.4961 254.051 97.4055 254.051 98.5281V104.873C254.051 105.996 253.125 106.905 251.982 106.905H199.131C197.988 106.905 197.062 105.996 197.062 104.873V98.5281C197.062 97.4055 197.988 96.4961 199.131 96.4961Z" fill="white"/>
<path d="M187.754 82.8125H230.999C231.998 82.8125 232.809 83.6085 232.809 84.5905C232.809 85.5724 231.998 86.3684 230.999 86.3684H187.754C186.755 86.3684 185.945 85.5724 185.945 84.5905C185.945 83.6085 186.755 82.8125 187.754 82.8125Z" fill="#4364C8"/>
<path opacity="0.3" d="M187.754 82.8125H230.999C231.998 82.8125 232.809 83.6085 232.809 84.5905C232.809 85.5724 231.998 86.3684 230.999 86.3684H187.754C186.755 86.3684 185.945 85.5724 185.945 84.5905C185.945 83.6085 186.755 82.8125 187.754 82.8125Z" fill="white"/>
<path d="M246.655 91.8603C242.57 91.8603 239.259 88.6069 239.259 84.5942C239.259 80.5811 242.57 77.3281 246.655 77.3281C250.74 77.3281 254.051 80.5811 254.051 84.5942C254.051 88.6069 250.74 91.8603 246.655 91.8603Z" fill="#4364C8"/>
<path opacity="0.3" d="M246.655 91.8603C242.57 91.8603 239.259 88.6069 239.259 84.5942C239.259 80.5811 242.57 77.3281 246.655 77.3281C250.74 77.3281 254.051 80.5811 254.051 84.5942C254.051 88.6069 250.74 91.8603 246.655 91.8603Z" fill="white"/>
<path d="M74.1615 66.625H159.874C162.162 66.625 164.016 68.4465 164.016 70.6935V115.229C164.016 117.476 162.162 119.297 159.874 119.297H74.1615C71.8762 119.297 70.0202 117.476 70.0202 115.229V70.6935C70.0202 68.4465 71.8762 66.625 74.1615 66.625Z" fill="#B2B6BB"/>
<path d="M98.7166 96.4961H151.568C152.711 96.4961 153.637 97.4055 153.637 98.5281V104.873C153.637 105.996 152.711 106.905 151.568 106.905H98.7166C97.5762 106.905 96.6483 105.996 96.6483 104.873V98.5281C96.6483 97.4055 97.5762 96.4961 98.7166 96.4961Z" fill="white"/>
<path d="M87.3402 82.8125H130.585C131.582 82.8125 132.395 83.6085 132.395 84.5905C132.395 85.5724 131.582 86.3684 130.585 86.3684H87.3402C86.3384 86.3684 85.5305 85.5724 85.5305 84.5905C85.5305 83.6085 86.3384 82.8125 87.3402 82.8125Z" fill="#4364C8"/>
<path d="M87.3402 82.8125H130.585C131.582 82.8125 132.395 83.6085 132.395 84.5905C132.395 85.5724 131.582 86.3684 130.585 86.3684H87.3402C86.3384 86.3684 85.5305 85.5724 85.5305 84.5905C85.5305 83.6085 86.3384 82.8125 87.3402 82.8125Z" fill="#868A91"/>
<path d="M146.241 91.8603C142.156 91.8603 138.845 88.6069 138.845 84.5942C138.845 80.5811 142.156 77.3281 146.241 77.3281C150.326 77.3281 153.637 80.5811 153.637 84.5942C153.637 88.6069 150.326 91.8603 146.241 91.8603Z" fill="#868A91"/>
<path d="M74.1615 125.533H159.874C162.162 125.533 164.016 127.355 164.016 129.602V238.729C164.016 240.976 162.162 242.797 159.874 242.797H74.1615C71.8762 242.797 70.0202 240.976 70.0202 238.729V129.602C70.0202 127.355 71.8762 125.533 74.1615 125.533Z" fill="#4364C8"/>
<path opacity="0.85" d="M74.1615 125.533H159.874C162.162 125.533 164.016 127.355 164.016 129.602V238.729C164.016 240.976 162.162 242.797 159.874 242.797H74.1615C71.8762 242.797 70.0202 240.976 70.0202 238.729V129.602C70.0202 127.355 71.8762 125.533 74.1615 125.533Z" fill="white"/>
<path d="M95.6128 154.493L96.0375 154.039L103.997 161.337L103.572 161.79C100.368 165.15 98.5905 169.584 98.5997 174.187C98.609 178.791 100.405 183.217 103.623 186.564C106.845 189.91 111.24 191.923 115.917 192.193C120.594 192.463 125.201 190.969 128.798 188.015L129.259 187.621L136.221 195.835L135.759 196.229C130.039 200.927 122.708 203.303 115.266 202.874C107.824 202.445 100.825 199.243 95.7051 193.921C90.5805 188.599 87.7182 181.558 87.6951 174.233C87.6767 166.908 90.5021 159.851 95.5943 154.502L95.6128 154.493Z" fill="#4364C8"/>
<path opacity="0.5" d="M95.6128 154.493L96.0375 154.039L103.997 161.337L103.572 161.79C100.368 165.15 98.5905 169.584 98.5997 174.187C98.609 178.791 100.405 183.217 103.623 186.564C106.845 189.91 111.24 191.923 115.917 192.193C120.594 192.463 125.201 190.969 128.798 188.015L129.259 187.621L136.221 195.835L135.759 196.229C130.039 200.927 122.708 203.303 115.266 202.874C107.824 202.445 100.825 199.243 95.7051 193.921C90.5805 188.599 87.7182 181.558 87.6951 174.233C87.6767 166.908 90.5021 159.851 95.5943 154.502L95.6128 154.493Z" fill="white"/>
<path d="M95.6135 154.493C99.136 150.782 103.596 148.056 108.54 146.592L109.14 146.424L109.731 146.261C114.57 145.037 119.648 145.051 124.482 146.302C129.315 147.552 133.741 149.998 137.339 153.404L137.801 153.826L130.253 161.537L129.791 161.11C126.37 157.86 121.79 156.047 117.03 156.058C115.354 156.057 113.683 156.28 112.067 156.72C108.822 157.618 105.89 159.375 103.591 161.8L103.162 162.253L95.2026 154.955L95.6135 154.493Z" fill="#4364C8"/>
<path d="M128.798 188.016C130.784 186.388 132.4 184.368 133.536 182.086C134.674 179.804 135.309 177.313 135.402 174.774C135.495 172.235 135.043 169.705 134.074 167.349C133.106 164.994 131.642 162.865 129.782 161.101L129.32 160.679L136.868 152.969L137.33 153.395C140.296 156.199 142.628 159.586 144.172 163.334C145.716 167.084 146.437 171.11 146.29 175.152C146.142 179.193 145.128 183.159 143.315 186.789C141.501 190.419 138.928 193.633 135.765 196.22L135.303 196.611L128.318 188.428L128.798 188.016Z" fill="#61656D"/>
<path d="M110.208 169.896H123.827C125.12 169.896 126.168 170.926 126.168 172.196V176.056C126.168 177.326 125.12 178.355 123.827 178.355H110.208C108.915 178.355 107.867 177.326 107.867 176.056V172.196C107.867 170.926 108.915 169.896 110.208 169.896Z" fill="#4364C8"/>
<path opacity="0.4" d="M110.208 169.896H123.827C125.12 169.896 126.168 170.926 126.168 172.196V176.056C126.168 177.326 125.12 178.355 123.827 178.355H110.208C108.915 178.355 107.867 177.326 107.867 176.056V172.196C107.867 170.926 108.915 169.896 110.208 169.896Z" fill="white"/>
<path d="M295.669 248.893H359.578C360.672 248.893 361.559 249.763 361.559 250.838V277.694C361.559 278.768 360.672 279.64 359.578 279.64H295.669C294.575 279.64 293.689 278.768 293.689 277.694V250.838C293.689 249.763 294.575 248.893 295.669 248.893Z" fill="#4364C8"/>
<path d="M221.114 248.893H285.023C286.117 248.893 287.004 249.763 287.004 250.838V277.694C287.004 278.768 286.117 279.64 285.023 279.64H221.114C220.021 279.64 219.134 278.768 219.134 277.694V250.838C219.134 249.763 220.021 248.893 221.114 248.893Z" fill="#4364C8"/>
<path d="M146.556 248.893H210.465C211.558 248.893 212.445 249.763 212.445 250.838V277.694C212.445 278.768 211.558 279.64 210.465 279.64H146.556C145.462 279.64 144.575 278.768 144.575 277.694V250.838C144.575 249.763 145.462 248.893 146.556 248.893Z" fill="#4364C8"/>
<path d="M72.0012 248.893H135.91C137.004 248.893 137.891 249.763 137.891 250.838V277.694C137.891 278.768 137.004 279.64 135.91 279.64H72.0012C70.9071 279.64 70.0207 278.768 70.0207 277.694V250.838C70.0207 249.763 70.9071 248.893 72.0012 248.893Z" fill="#4364C8"/>
<g opacity="0.85">
<path opacity="0.85" d="M295.669 248.893H359.578C360.672 248.893 361.559 249.763 361.559 250.838V277.694C361.559 278.768 360.672 279.64 359.578 279.64H295.669C294.575 279.64 293.689 278.768 293.689 277.694V250.838C293.689 249.763 294.575 248.893 295.669 248.893Z" fill="white"/>
</g>
<g opacity="0.85">
<path opacity="0.85" d="M221.114 248.893H285.023C286.117 248.893 287.004 249.763 287.004 250.838V277.694C287.004 278.768 286.117 279.64 285.023 279.64H221.114C220.021 279.64 219.134 278.768 219.134 277.694V250.838C219.134 249.763 220.021 248.893 221.114 248.893Z" fill="white"/>
</g>
<path opacity="0.85" d="M146.556 248.893H210.465C211.558 248.893 212.445 249.763 212.445 250.838V277.694C212.445 278.768 211.558 279.64 210.465 279.64H146.556C145.462 279.64 144.575 278.768 144.575 277.694V250.838C144.575 249.763 145.462 248.893 146.556 248.893Z" fill="white"/>
<path opacity="0.85" d="M72.0012 248.893H135.91C137.004 248.893 137.891 249.763 137.891 250.838V277.694C137.891 278.768 137.004 279.64 135.91 279.64H72.0012C70.9071 279.64 70.0207 278.768 70.0207 277.694V250.838C70.0207 249.763 70.9071 248.893 72.0012 248.893Z" fill="white"/>
<path d="M174.626 125.533H359.525C361.812 125.533 363.666 127.355 363.666 129.602V238.702C363.666 240.949 361.812 242.77 359.525 242.77H174.626C172.339 242.77 170.485 240.949 170.485 238.702V129.602C170.485 127.355 172.339 125.533 174.626 125.533Z" fill="#4364C8"/>
<path opacity="0.85" d="M174.626 125.533H359.525C361.812 125.533 363.666 127.355 363.666 129.602V238.702C363.666 240.949 361.812 242.77 359.525 242.77H174.626C172.339 242.77 170.485 240.949 170.485 238.702V129.602C170.485 127.355 172.339 125.533 174.626 125.533Z" fill="white"/>
<path opacity="0.2" d="M170.483 210.248H363.562V210.661H170.483V210.248Z" fill="#4364C8"/>
<path opacity="0.2" d="M170.483 178.623H363.562V179.036H170.483V178.623Z" fill="#4364C8"/>
<path opacity="0.2" d="M170.483 146.99H363.562V147.403H170.483V146.99Z" fill="#4364C8"/>
<path opacity="0.4" d="M363.563 194.606C363.563 194.606 336.246 204.611 316.801 194.606C297.355 184.6 276.363 161.768 247.809 185.507C224.06 205.255 212.773 161.768 197.025 161.768C181.278 161.768 170.479 191.113 170.479 191.113V238.701C170.479 239.784 170.917 240.822 171.696 241.587C172.475 242.353 173.532 242.783 174.634 242.783H359.519C360.621 242.783 361.678 242.353 362.457 241.587C363.236 240.822 363.674 239.784 363.674 238.701L363.563 194.606Z" fill="#4364C8"/>
<path d="M337.647 199.462C340.954 199.451 344.256 199.219 347.531 198.769C353.031 198.034 358.443 196.769 363.689 194.99L363.394 194.215C358.199 195.972 352.841 197.224 347.397 197.952C339.013 199.081 326.936 199.358 316.992 194.242C313.363 192.373 309.725 190.087 305.879 187.665C289.513 177.374 270.968 165.708 247.534 185.193C243.046 188.922 238.836 190.555 234.653 190.183C226.892 189.498 220.595 181.987 214.501 174.725C208.73 167.849 203.283 161.35 197.027 161.35C181.173 161.35 170.532 189.765 170.084 190.972L170.878 191.253C172.859 186.172 175.316 181.282 178.219 176.648C185.831 164.688 192.65 162.18 197.027 162.18C202.885 162.18 208.209 168.529 213.85 175.256C220.05 182.649 226.463 190.291 234.579 191.008C238.988 191.398 243.411 189.702 248.078 185.824C258.337 177.292 268.493 174.095 279.186 176.054C288.608 177.782 297.158 183.161 305.422 188.359C309.286 190.79 312.938 193.085 316.599 194.968C320.897 197.181 327.735 199.462 337.647 199.462Z" fill="#4364C8"/>
<path d="M267.249 176.808C266.494 176.808 265.882 176.207 265.882 175.466C265.882 174.724 266.494 174.123 267.249 174.123C268.004 174.123 268.615 174.724 268.615 175.466C268.615 176.207 268.004 176.808 267.249 176.808Z" fill="#4364C8"/>
<path d="M234.878 192.021C234.123 192.021 233.511 191.42 233.511 190.678C233.511 189.937 234.123 189.336 234.878 189.336C235.632 189.336 236.244 189.937 236.244 190.678C236.244 191.42 235.632 192.021 234.878 192.021Z" fill="#4364C8"/>
<path d="M196.364 163.111C195.609 163.111 194.997 162.509 194.997 161.768C194.997 161.027 195.609 160.426 196.364 160.426C197.119 160.426 197.73 161.027 197.73 161.768C197.73 162.509 197.119 163.111 196.364 163.111Z" fill="#4364C8"/>
<path d="M299.403 185.707C298.648 185.707 298.036 185.106 298.036 184.364C298.036 183.622 298.648 183.021 299.403 183.021C300.158 183.021 300.77 183.622 300.77 184.364C300.77 185.106 300.158 185.707 299.403 185.707Z" fill="#4364C8"/>
<path d="M331.465 200.048C330.711 200.048 330.099 199.447 330.099 198.706C330.099 197.964 330.711 197.363 331.465 197.363C332.22 197.363 332.832 197.964 332.832 198.706C332.832 199.447 332.22 200.048 331.465 200.048Z" fill="#4364C8"/>
<path d="M363.563 196.144C362.808 196.144 362.197 195.543 362.197 194.802C362.197 194.06 362.808 193.459 363.563 193.459C364.318 193.459 364.93 194.06 364.93 194.802C364.93 195.543 364.318 196.144 363.563 196.144Z" fill="#4364C8"/>
<path d="M170.483 192.021C169.728 192.021 169.117 191.42 169.117 190.678C169.117 189.937 169.728 189.336 170.483 189.336C171.238 189.336 171.85 189.937 171.85 190.678C171.85 191.42 171.238 192.021 170.483 192.021Z" fill="#4364C8"/>
<path d="M297.453 132.367H355.129C356.614 132.367 357.816 133.549 357.816 135.007C357.816 136.465 356.614 137.647 355.129 137.647H297.453C295.969 137.647 294.766 136.465 294.766 135.007C294.766 133.549 295.969 132.367 297.453 132.367Z" fill="#868A91"/>
<path d="M118.854 132.367H155.003C156.487 132.367 157.689 133.549 157.689 135.007C157.689 136.465 156.487 137.647 155.003 137.647H118.854C117.368 137.647 116.167 136.465 116.167 135.007C116.167 133.549 117.368 132.367 118.854 132.367Z" fill="#868A91"/>
<path d="M153.911 210.248H156.916C157.694 210.248 158.324 210.868 158.324 211.631V214.584C158.324 215.348 157.694 215.967 156.916 215.967H153.911C153.133 215.967 152.503 215.348 152.503 214.584V211.631C152.503 210.868 153.133 210.248 153.911 210.248Z" fill="#4364C8"/>
<path opacity="0.5" d="M153.911 210.248H156.916C157.694 210.248 158.324 210.868 158.324 211.631V214.584C158.324 215.348 157.694 215.967 156.916 215.967H153.911C153.133 215.967 152.503 215.348 152.503 214.584V211.631C152.503 210.868 153.133 210.248 153.911 210.248Z" fill="white"/>
<path d="M153.911 220.875H156.916C157.694 220.875 158.324 221.495 158.324 222.258V225.211C158.324 225.975 157.694 226.594 156.916 226.594H153.911C153.133 226.594 152.503 225.975 152.503 225.211V222.258C152.503 221.495 153.133 220.875 153.911 220.875Z" fill="#4364C8"/>
<path d="M153.911 231.502H156.916C157.694 231.502 158.324 232.121 158.324 232.885V235.838C158.324 236.602 157.694 237.221 156.916 237.221H153.911C153.133 237.221 152.503 236.602 152.503 235.838V232.885C152.503 232.121 153.133 231.502 153.911 231.502Z" fill="#61656D"/>
<path d="M106.495 211.723H146.937C147.717 211.723 148.35 212.344 148.35 213.111V213.115C148.35 213.882 147.717 214.503 146.937 214.503H106.495C105.714 214.503 105.082 213.882 105.082 213.115V213.111C105.082 212.344 105.714 211.723 106.495 211.723Z" fill="#4364C8"/>
<path d="M106.495 222.35H146.937C147.717 222.35 148.35 222.971 148.35 223.738V223.742C148.35 224.509 147.717 225.13 146.937 225.13H106.495C105.714 225.13 105.082 224.509 105.082 223.742V223.738C105.082 222.971 105.714 222.35 106.495 222.35Z" fill="#4364C8"/>
<path d="M106.495 232.977H146.937C147.717 232.977 148.35 233.598 148.35 234.364V234.369C148.35 235.136 147.717 235.757 146.937 235.757H106.495C105.714 235.757 105.082 235.136 105.082 234.369V234.364C105.082 233.598 105.714 232.977 106.495 232.977Z" fill="#4364C8"/>
<path opacity="0.5" d="M106.495 211.723H146.937C147.717 211.723 148.35 212.344 148.35 213.111V213.115C148.35 213.882 147.717 214.503 146.937 214.503H106.495C105.714 214.503 105.082 213.882 105.082 213.115V213.111C105.082 212.344 105.714 211.723 106.495 211.723Z" fill="white"/>
<path opacity="0.5" d="M106.495 222.35H146.937C147.717 222.35 148.35 222.971 148.35 223.738V223.742C148.35 224.509 147.717 225.13 146.937 225.13H106.495C105.714 225.13 105.082 224.509 105.082 223.742V223.738C105.082 222.971 105.714 222.35 106.495 222.35Z" fill="white"/>
<path opacity="0.5" d="M106.495 232.977H146.937C147.717 232.977 148.35 233.598 148.35 234.364V234.369C148.35 235.136 147.717 235.757 146.937 235.757H106.495C105.714 235.757 105.082 235.136 105.082 234.369V234.364C105.082 233.598 105.714 232.977 106.495 232.977Z" fill="white"/>
<path d="M77.1249 211.723H88.265C89.0452 211.723 89.6777 212.344 89.6777 213.111V213.115C89.6777 213.882 89.0452 214.503 88.265 214.503H77.1249C76.3447 214.503 75.7122 213.882 75.7122 213.115V213.111C75.7122 212.344 76.3447 211.723 77.1249 211.723Z" fill="#4364C8"/>
<path d="M77.1249 222.35H88.265C89.0452 222.35 89.6777 222.971 89.6777 223.738V223.742C89.6777 224.509 89.0452 225.13 88.265 225.13H77.1249C76.3447 225.13 75.7122 224.509 75.7122 223.742V223.738C75.7122 222.971 76.3447 222.35 77.1249 222.35Z" fill="#4364C8"/>
<path d="M77.1249 232.977H88.265C89.0452 232.977 89.6777 233.598 89.6777 234.364V234.369C89.6777 235.136 89.0452 235.757 88.265 235.757H77.1249C76.3447 235.757 75.7122 235.136 75.7122 234.369V234.364C75.7122 233.598 76.3447 232.977 77.1249 232.977Z" fill="#4364C8"/>
<path d="M305.802 257.945H353.336C354.108 257.945 354.734 258.56 354.734 259.319C354.734 260.078 354.108 260.694 353.336 260.694H305.802C305.029 260.694 304.403 260.078 304.403 259.319C304.403 258.56 305.029 257.945 305.802 257.945Z" fill="#4364C8"/>
<path opacity="0.15" d="M335.146 266.404H352.754C353.848 266.404 354.734 267.276 354.734 268.35V271.561C354.734 272.636 353.848 273.507 352.754 273.507H335.146C334.052 273.507 333.165 272.636 333.165 271.561V268.35C333.165 267.276 334.052 266.404 335.146 266.404Z" fill="white"/>
<path opacity="0.5" d="M305.802 257.945H353.336C354.108 257.945 354.734 258.56 354.734 259.319C354.734 260.078 354.108 260.694 353.336 260.694H305.802C305.029 260.694 304.403 260.078 304.403 259.319C304.403 258.56 305.029 257.945 305.802 257.945Z" fill="white"/>
<path d="M229.3 257.947H276.834C277.606 257.947 278.232 258.562 278.232 259.321C278.232 260.08 277.606 260.696 276.834 260.696H229.3C228.527 260.696 227.901 260.08 227.901 259.321C227.901 258.562 228.527 257.947 229.3 257.947Z" fill="#4364C8"/>
<path opacity="0.15" d="M258.644 266.404H276.252C277.346 266.404 278.232 267.276 278.232 268.35V271.561C278.232 272.636 277.346 273.507 276.252 273.507H258.644C257.55 273.507 256.663 272.636 256.663 271.561V268.35C256.663 267.276 257.55 266.404 258.644 266.404Z" fill="white"/>
<path opacity="0.5" d="M229.3 257.947H276.834C277.606 257.947 278.232 258.562 278.232 259.321C278.232 260.08 277.606 260.696 276.834 260.696H229.3C228.527 260.696 227.901 260.08 227.901 259.321C227.901 258.562 228.527 257.947 229.3 257.947Z" fill="white"/>
<path d="M154.286 257.945H201.82C202.593 257.945 203.219 258.56 203.219 259.319C203.219 260.078 202.593 260.694 201.82 260.694H154.286C153.514 260.694 152.888 260.078 152.888 259.319C152.888 258.56 153.514 257.945 154.286 257.945Z" fill="#4364C8"/>
<path opacity="0.15" d="M183.63 266.404H201.238C202.332 266.404 203.219 267.276 203.219 268.35V271.561C203.219 272.636 202.332 273.507 201.238 273.507H183.63C182.536 273.507 181.65 272.636 181.65 271.561V268.35C181.65 267.276 182.536 266.404 183.63 266.404Z" fill="white"/>
<path opacity="0.5" d="M154.286 257.945H201.82C202.593 257.945 203.219 258.56 203.219 259.319C203.219 260.078 202.593 260.694 201.82 260.694H154.286C153.514 260.694 152.888 260.078 152.888 259.319C152.888 258.56 153.514 257.945 154.286 257.945Z" fill="white"/>
<path d="M80.1888 257.947H127.722C128.493 257.947 129.121 258.562 129.121 259.321C129.121 260.08 128.493 260.696 127.722 260.696H80.1888C79.4178 260.696 78.7899 260.08 78.7899 259.321C78.7899 258.562 79.4178 257.947 80.1888 257.947Z" fill="#4364C8"/>
<path d="M109.533 266.404H127.141C128.235 266.404 129.121 267.276 129.121 268.35V271.561C129.121 272.636 128.235 273.507 127.141 273.507H109.533C108.438 273.507 107.552 272.636 107.552 271.561V268.35C107.552 267.276 108.438 266.404 109.533 266.404Z" fill="#4364C8"/>
<path d="M335.146 266.404H352.754C353.848 266.404 354.734 267.276 354.734 268.35V271.561C354.734 272.636 353.848 273.507 352.754 273.507H335.146C334.052 273.507 333.165 272.636 333.165 271.561V268.35C333.165 267.276 334.052 266.404 335.146 266.404Z" fill="#4364C8"/>
<path d="M258.644 266.404H276.252C277.346 266.404 278.232 267.276 278.232 268.35V271.561C278.232 272.636 277.346 273.507 276.252 273.507H258.644C257.55 273.507 256.663 272.636 256.663 271.561V268.35C256.663 267.276 257.55 266.404 258.644 266.404Z" fill="#4364C8"/>
<path d="M183.63 266.404H201.238C202.332 266.404 203.219 267.276 203.219 268.35V271.561C203.219 272.636 202.332 273.507 201.238 273.507H183.63C182.536 273.507 181.65 272.636 181.65 271.561V268.35C181.65 267.276 182.536 266.404 183.63 266.404Z" fill="#4364C8"/>
<path d="M109.533 266.404H127.141C128.235 266.404 129.121 267.276 129.121 268.35V271.561C129.121 272.636 128.235 273.507 127.141 273.507H109.533C108.438 273.507 107.552 272.636 107.552 271.561V268.35C107.552 267.276 108.438 266.404 109.533 266.404Z" fill="#4364C8"/>
<path opacity="0.15" d="M335.146 266.404H352.754C353.848 266.404 354.734 267.276 354.734 268.35V271.561C354.734 272.636 353.848 273.507 352.754 273.507H335.146C334.052 273.507 333.165 272.636 333.165 271.561V268.35C333.165 267.276 334.052 266.404 335.146 266.404Z" fill="white"/>
<path opacity="0.15" d="M258.644 266.404H276.252C277.346 266.404 278.232 267.276 278.232 268.35V271.561C278.232 272.636 277.346 273.507 276.252 273.507H258.644C257.55 273.507 256.663 272.636 256.663 271.561V268.35C256.663 267.276 257.55 266.404 258.644 266.404Z" fill="white"/>
<path opacity="0.15" d="M183.63 266.404H201.238C202.332 266.404 203.219 267.276 203.219 268.35V271.561C203.219 272.636 202.332 273.507 201.238 273.507H183.63C182.536 273.507 181.65 272.636 181.65 271.561V268.35C181.65 267.276 182.536 266.404 183.63 266.404Z" fill="white"/>
<path opacity="0.15" d="M335.146 266.404H352.754C353.848 266.404 354.734 267.276 354.734 268.35V271.561C354.734 272.636 353.848 273.507 352.754 273.507H335.146C334.052 273.507 333.165 272.636 333.165 271.561V268.35C333.165 267.276 334.052 266.404 335.146 266.404Z" fill="white"/>
<path opacity="0.15" d="M258.644 266.404H276.252C277.346 266.404 278.232 267.276 278.232 268.35V271.561C278.232 272.636 277.346 273.507 276.252 273.507H258.644C257.55 273.507 256.663 272.636 256.663 271.561V268.35C256.663 267.276 257.55 266.404 258.644 266.404Z" fill="white"/>
<path opacity="0.15" d="M183.63 266.404H201.238C202.332 266.404 203.219 267.276 203.219 268.35V271.561C203.219 272.636 202.332 273.507 201.238 273.507H183.63C182.536 273.507 181.65 272.636 181.65 271.561V268.35C181.65 267.276 182.536 266.404 183.63 266.404Z" fill="white"/>
<path opacity="0.15" d="M109.533 266.404H127.141C128.235 266.404 129.121 267.276 129.121 268.35V271.561C129.121 272.636 128.235 273.507 127.141 273.507H109.533C108.438 273.507 107.552 272.636 107.552 271.561V268.35C107.552 267.276 108.438 266.404 109.533 266.404Z" fill="white"/>
<path opacity="0.5" d="M80.1888 257.947H127.722C128.493 257.947 129.121 258.562 129.121 259.321C129.121 260.08 128.493 260.696 127.722 260.696H80.1888C79.4178 260.696 78.7899 260.08 78.7899 259.321C78.7899 258.562 79.4178 257.947 80.1888 257.947Z" fill="white"/>
<path d="M336.724 257.397L338.704 278.801L345.094 347.851C345.508 351.313 345.733 354.796 345.768 358.284C345.768 359.059 345.768 359.835 345.768 360.615L345.685 365.713C345.724 366.788 346.187 367.809 346.977 368.553C347.767 369.301 348.822 369.714 349.918 369.709H350.625C351.229 369.705 351.826 369.578 352.375 369.328C352.925 369.083 353.414 368.725 353.811 368.276C354.208 367.827 354.503 367.301 354.676 366.734C354.85 366.167 354.897 365.568 354.817 364.978L353.612 358.942C352.997 355.88 352.773 352.759 352.947 349.643L355.509 278.334V278.13L356.262 257.193L336.724 257.397Z" fill="#E2D2C6"/>
<path opacity="0.15" d="M338.707 278.802L345.096 347.852C345.51 351.313 345.735 354.796 345.77 358.284C346.652 359.146 348.014 359.903 347.871 356.094L343.748 286.399C343.703 285.659 343.863 284.922 344.212 284.265C344.561 283.608 345.085 283.057 345.729 282.671C348.82 280.879 352.1 279.422 355.512 278.326C355.973 278.167 356.273 278.09 356.273 278.09L355.521 278.122L338.707 278.802Z" fill="black"/>
<path d="M347.93 357.725C346.485 357.725 345.27 355.91 345.132 357.271C345.086 357.761 345.044 358.337 345.044 358.868L344.998 369.998C345.052 371.957 345.628 373.867 346.669 375.541L346.891 375.94C347.213 376.43 347.655 376.833 348.175 377.11C348.696 377.391 349.28 377.536 349.873 377.536H353.345C354.096 377.541 354.829 377.305 355.433 376.865C356.036 376.425 356.477 375.804 356.688 375.096C357.13 373.445 357.192 371.717 356.868 370.043L353.978 358.115C353.89 357.661 353.751 357.23 353.617 356.754C353.257 355.647 352.172 357.661 350.912 357.661H347.93V357.706V357.725Z" fill="#37383A"/>
<path d="M345.233 364.511L345.501 364.202C345.728 363.944 346.026 363.758 346.358 363.662C346.691 363.567 347.044 363.567 347.377 363.662C347.71 363.758 348.008 363.944 348.236 364.202C348.464 364.456 348.612 364.774 348.663 365.109L350.648 377.659H352.86L352.398 365.331C352.394 364.987 352.49 364.647 352.676 364.352C352.862 364.057 353.13 363.821 353.448 363.671C353.766 363.522 354.121 363.467 354.471 363.508C354.82 363.549 355.15 363.69 355.422 363.912L353.529 356.328C353.487 356.17 353.411 356.02 353.306 355.888C353.201 355.761 353.069 355.652 352.92 355.58C352.77 355.503 352.606 355.462 352.438 355.453C352.27 355.444 352.102 355.471 351.946 355.53L350.911 355.929C349.898 356.319 348.774 356.337 347.749 355.974L346.71 355.621C346.531 355.557 346.339 355.544 346.152 355.566C345.964 355.593 345.785 355.666 345.631 355.775C345.476 355.884 345.35 356.024 345.263 356.192C345.177 356.355 345.131 356.541 345.131 356.727V364.488L345.233 364.511Z" fill="#21252B"/>
<path d="M311.808 101.049C311.786 101.254 311.807 101.46 311.868 101.657C311.929 101.854 312.03 102.036 312.165 102.194C312.3 102.351 312.466 102.48 312.653 102.572C312.84 102.665 313.044 102.719 313.254 102.732V102.822L313.669 104.841L313.748 105.217C313.78 105.358 313.812 105.498 313.854 105.63C314.952 109.753 317.482 111.912 321.24 111.912H323.133L322.935 114.588C322.842 115.817 318.341 115.794 317.127 116.103L315.313 118.543L330.58 126.145L348.959 118.049L341.48 115.817C338.608 114.796 337.256 112.683 336.217 110.932L335.187 107.93L338.165 87.5192L330.852 84.5938H317.81L314.38 92.4404L313.655 98.4728C313.601 98.7413 313.488 98.9948 313.325 99.2162C313.161 99.438 312.951 99.6221 312.709 99.7563C312.455 99.8734 312.237 100.055 312.079 100.282C311.921 100.51 311.827 100.774 311.808 101.049Z" fill="#E2D2C6"/>
<path d="M320.732 89.7462C321.845 81.065 329.536 78.6566 338.156 81.1603C346.928 83.7229 350.801 95.3613 347.043 103.625C343.285 111.889 331.808 113.604 326.014 110.882C321.037 108.501 319.615 98.4274 320.732 89.7462Z" fill="#231F20"/>
<path opacity="0.15" d="M341.731 78.7166C349.081 84.0052 352.299 96.3693 348.786 105.631C349.372 104.883 322.272 112.285 321.349 111.913C320.194 109.924 319.265 107.818 318.579 105.631C319.188 107.382 319.603 110.253 319.086 111.214C318.694 111.94 317.037 110.679 317.037 110.679C315.652 105.939 316.072 94.7002 316.196 90.6453C318.892 88.8674 338.698 76.662 341.731 78.7166Z" fill="black"/>
<path d="M342.118 78.717C339.067 76.657 335.445 75.5707 331.744 75.6056C326.666 75.4695 313.213 78.7397 312.552 90.9859C313.647 91.8295 315.456 91.7071 316.246 92.4237C315.784 101.558 317.982 113.043 319.81 117.506C320.452 116.925 321.13 116.34 321.85 115.778C320.601 112.792 319.822 109.637 319.542 106.421C320.277 109.379 321.526 112.19 323.235 114.73C331.864 108.28 344.071 104.298 348.904 106.525C352.404 97.2632 349.491 84.0056 342.118 78.717Z" fill="#21252B"/>
<g opacity="0.15">
<path opacity="0.15" d="M315.074 104.378C315.097 104.348 315.125 104.322 315.157 104.301C315.246 104.245 315.353 104.226 315.457 104.246C315.508 104.254 315.557 104.273 315.6 104.301C315.643 104.329 315.679 104.366 315.706 104.41C315.761 104.488 315.785 104.584 315.772 104.679C315.759 104.773 315.711 104.861 315.637 104.922C315.406 105.15 315.131 105.33 314.828 105.452C314.525 105.574 314.201 105.634 313.873 105.63C313.832 105.498 313.799 105.358 313.767 105.217L313.689 104.841C313.94 104.871 314.195 104.845 314.435 104.765C314.675 104.685 314.893 104.553 315.074 104.378Z" fill="black"/>
</g>
<path d="M313.739 101.475C314.824 101.475 315.41 99.2068 315.41 97.0433C315.41 94.8798 314.824 92.6074 313.739 92.6074C312.654 92.6074 312.068 94.8752 312.068 97.0433C312.068 99.2113 312.682 101.475 313.739 101.475ZM313.739 93.1426C314.233 93.1426 314.912 94.6485 314.912 97.0886C314.912 99.5288 314.233 101.035 313.739 101.035C313.245 101.035 312.566 99.5243 312.566 97.0886C312.566 94.653 313.277 93.1426 313.739 93.1426Z" fill="#21252B"/>
<path d="M278.131 369.958L280.439 373.06L289.488 368.611L297.539 354.337C297.51 351.906 297.881 349.489 298.638 347.175L315.821 282.833L316.842 279.014L322.668 257.197L300.226 257.778L297.742 278.478L289.465 347.524C289.213 348.981 288.722 350.387 288.01 351.688L278.131 369.958Z" fill="#FFEDDF"/>
<path opacity="0.15" d="M278.131 369.958L280.439 373.06L291.764 352.001C292.629 350.391 293.171 348.629 293.361 346.817L299.146 291.274C299.304 290.023 299.839 288.848 300.682 287.898C301.526 286.948 302.639 286.268 303.878 285.944L315.822 282.833L316.842 279.014L297.743 278.479L289.465 347.524C289.213 348.981 288.722 350.387 288.011 351.689L278.131 369.958Z" fill="black"/>
<path d="M268.958 375.547C268.893 375.71 268.869 375.882 268.888 376.054C268.906 376.227 268.967 376.395 269.065 376.535C269.164 376.68 269.296 376.798 269.45 376.884C269.605 376.966 269.779 377.012 269.955 377.016H281.368C282.765 377.021 284.146 376.721 285.41 376.132C286.675 375.546 287.79 374.694 288.676 373.632L294.946 366.085C295.052 365.954 295.198 365.854 295.362 365.808C295.527 365.759 295.703 365.763 295.866 365.813C296.03 365.867 296.172 365.972 296.274 366.108C296.376 366.244 296.433 366.407 296.437 366.575L296.769 377.007H297.933L299.428 366.861C300.09 362.597 299.448 358.239 297.582 354.338L287.286 366.584C286.205 367.89 284.79 368.893 283.185 369.487C281.581 370.081 279.845 370.249 278.155 369.968L271.761 372.825C270.533 373.383 269.543 374.349 268.958 375.547Z" fill="#21252B"/>
<path d="M342.493 115.918L355.253 118.245C356.872 118.555 358.396 119.23 359.703 120.219C361.01 121.208 362.065 122.482 362.783 123.941C363.164 124.714 363.444 125.531 363.619 126.373L371.578 164.44C371.818 165.593 371.794 166.784 371.508 167.927C371.222 169.07 370.68 170.136 369.923 171.048C369.166 171.96 368.211 172.695 367.128 173.199C366.046 173.704 364.863 173.965 363.665 173.965H339.437L339.257 163.583L356.98 163.284L350.004 127.906L342.493 115.918Z" fill="#3F4249"/>
<path d="M227.74 115.404L234.318 122.207L233.857 121.926C233.567 121.744 233.219 121.672 232.879 121.724C232.54 121.776 232.23 121.948 232.01 122.207C231.823 122.436 231.721 122.721 231.719 123.014C231.717 123.213 231.76 123.41 231.843 123.591C231.927 123.772 232.05 123.933 232.204 124.062L232.398 124.203C232.263 124.093 232.107 124.012 231.939 123.965C231.771 123.917 231.595 123.904 231.421 123.927C231.248 123.95 231.081 124.007 230.931 124.096C230.782 124.185 230.652 124.303 230.551 124.443C230.408 124.655 230.325 124.901 230.311 125.155C230.314 125.496 230.453 125.822 230.699 126.062L231.276 126.584C231.148 126.466 230.994 126.376 230.828 126.321C230.661 126.266 230.484 126.247 230.308 126.265C230.133 126.283 229.964 126.338 229.813 126.426C229.661 126.514 229.53 126.632 229.429 126.774C229.281 126.965 229.197 127.197 229.189 127.437C229.19 127.717 229.293 127.988 229.48 128.199L231.558 130.67L232.282 131.578C234.226 133.951 236.832 135.716 239.78 136.657L242.001 137.37L255.347 147.348L260.375 139.27L247.079 131.106L237.943 121.128L228.995 114.002C228.8 113.846 228.551 113.768 228.3 113.786C228.048 113.803 227.813 113.915 227.643 114.097C227.552 114.184 227.479 114.288 227.429 114.402C227.38 114.517 227.353 114.64 227.352 114.764C227.412 115.011 227.548 115.234 227.74 115.404Z" fill="#E2D2C6"/>
<path opacity="0.15" d="M241.256 135.053L243.191 135.67C243.401 135.724 243.598 135.822 243.768 135.956L257.018 145.408L255.471 147.404L242.124 137.425L239.904 136.713C236.955 135.772 234.35 134.006 232.406 131.633L231.681 130.726L229.604 128.254C229.416 128.043 229.313 127.772 229.313 127.492L232.36 130.536C234.331 132.962 238.329 134.101 241.256 135.053Z" fill="black"/>
<path d="M351.042 188.338L351.356 189.612C356.572 209.94 359.083 230.847 358.826 251.809L359.527 278.048L295.235 282.216L307.105 188.429L351.042 188.338Z" fill="#B1C3F8"/>
<path d="M352.561 194.732L351.309 188.863H306.906L306.278 194.946L352.561 194.732Z" fill="#231F20"/>
<path opacity="0.2" d="M324.473 194.842C316.938 194.842 312.469 199.078 311.495 204.652L303.374 281.69L295.235 282.216L306.278 194.946L324.473 194.842Z" fill="black"/>
<path d="M278.97 160.171L302.76 141.884C302.605 142.935 302.518 143.996 302.497 145.059C302.495 145.99 302.627 146.916 302.889 147.812C303.383 149.431 304.27 150.908 305.474 152.116L306.813 153.545C306.942 153.675 307.044 153.83 307.111 154C307.179 154.17 307.211 154.351 307.206 154.534L307.076 188.918L351.309 188.882L354.707 141.258L355.598 124.694C355.598 121.677 351.637 117.378 346.992 116.734L340.256 115.486C336.66 118.884 324.527 119.487 317.127 116.13L310.95 117.491C307.358 118.398 304.948 119.945 302.538 122.181L274.035 146.614L256.163 136.545L250.822 143.689L271.597 160.171C272.654 160.971 273.95 161.404 275.283 161.404C276.617 161.404 277.913 160.971 278.97 160.171Z" fill="#3F4249"/>
<path opacity="0.3" d="M306.813 153.545C306.942 153.676 307.044 153.83 307.111 154C307.178 154.17 307.21 154.351 307.205 154.534L307.076 188.918H309.984L310.363 157.409C310.374 156.501 310.054 155.62 309.461 154.922C308.869 154.226 308.043 153.759 307.131 153.608L306.813 153.545Z" fill="black"/>
<path d="M328.827 180.54L329.727 180.676L330.124 181.479L330.53 180.68L331.426 180.558L330.779 179.927L330.941 179.052L330.133 179.46L329.334 179.043L329.482 179.923L328.827 180.54Z" fill="white"/>
<path d="M315.131 171.515L316.027 171.646L316.424 172.449L316.83 171.651L317.73 171.529L317.084 170.903L317.241 170.023L316.438 170.435L315.634 170.014L315.782 170.894L315.131 171.515Z" fill="white"/>
<path d="M346.041 171.675L346.937 171.807L347.334 172.609L347.74 171.811L348.641 171.689L347.994 171.063L348.151 170.183L347.348 170.596L346.545 170.174L346.692 171.054L346.041 171.675Z" fill="white"/>
<path d="M330.207 165.717L331.107 165.854L331.504 166.652L331.91 165.858L332.811 165.731L332.164 165.105L332.321 164.23L331.513 164.638L330.715 164.221L330.862 165.101L330.207 165.717Z" fill="white"/>
<path d="M346.633 187.031L347.529 187.162L347.926 187.965L348.332 187.167L349.232 187.044L348.586 186.418L348.743 185.538L347.94 185.951L347.136 185.529L347.284 186.409L346.633 187.031Z" fill="white"/>
<path d="M345.608 151.364L346.503 151.495L346.9 152.298L347.307 151.5L348.207 151.378L347.561 150.752L347.718 149.876L346.914 150.284L346.111 149.867L346.263 150.743L345.608 151.364Z" fill="white"/>
<path d="M335.936 146.615L336.836 146.746L337.233 147.549L337.64 146.751L338.535 146.628L337.889 146.002L338.05 145.122L337.242 145.535L336.444 145.113L336.592 145.993L335.936 146.615Z" fill="white"/>
<path d="M321.43 156.112L322.33 156.248L322.727 157.051L323.134 156.253L324.029 156.13L323.383 155.5L323.545 154.624L322.737 155.033L321.938 154.615L322.086 155.495L321.43 156.112Z" fill="white"/>
<path d="M311.759 141.86L312.66 141.996L313.057 142.794L313.463 142.001L314.363 141.878L313.717 141.252L313.874 140.372L313.066 140.781L312.267 140.363L312.415 141.243L311.759 141.86Z" fill="white"/>
<path d="M326.263 132.365L327.164 132.496L327.561 133.299L327.967 132.501L328.867 132.378L328.221 131.752L328.378 130.872L327.574 131.285L326.771 130.863L326.918 131.743L326.263 132.365Z" fill="white"/>
<path d="M345.608 132.365L346.503 132.496L346.9 133.299L347.307 132.501L348.207 132.378L347.561 131.752L347.718 130.872L346.914 131.285L346.111 130.863L346.263 131.743L345.608 132.365Z" fill="white"/>
<path d="M345.608 120.96L346.503 121.092L346.9 121.895L347.307 121.096L348.207 120.974L347.561 120.348L347.718 119.468L346.914 119.881L346.111 119.459L346.263 120.339L345.608 120.96Z" fill="white"/>
<path d="M360.114 135.212L361.009 135.343L361.406 136.146L361.813 135.348L362.713 135.225L362.067 134.599L362.224 133.724L361.42 134.132L360.617 133.715L360.769 134.595L360.114 135.212Z" fill="white"/>
<path d="M355.28 149.464L356.175 149.595L356.572 150.398L356.979 149.6L357.879 149.477L357.233 148.851L357.39 147.976L356.586 148.384L355.783 147.967L355.931 148.847L355.28 149.464Z" fill="white"/>
<path d="M364.947 158.964L365.847 159.096L366.244 159.899L366.651 159.1L367.551 158.978L366.9 158.352L367.061 157.472L366.253 157.885L365.455 157.463L365.603 158.343L364.947 158.964Z" fill="white"/>
<path d="M360.114 168.464L361.009 168.6L361.406 169.402L361.813 168.604L362.713 168.482L362.067 167.856L362.224 166.976L361.42 167.389L360.617 166.967L360.769 167.847L360.114 168.464Z" fill="white"/>
<path d="M311.759 123.809L312.66 123.945L313.057 124.748L313.463 123.95L314.363 123.827L313.717 123.201L313.874 122.322L313.066 122.729L312.267 122.312L312.415 123.192L311.759 123.809Z" fill="white"/>
<path d="M298.223 133.311L299.119 133.443L299.516 134.246L299.922 133.447L300.822 133.325L300.176 132.699L300.337 131.824L299.529 132.232L298.726 131.814L298.874 132.694L298.223 133.311Z" fill="white"/>
<path d="M310.793 184.614L311.689 184.75L312.086 185.553L312.492 184.755L313.393 184.632L312.746 184.006L312.908 183.126L312.1 183.539L311.297 183.117L311.449 183.997L310.793 184.614Z" fill="white"/>
<path d="M286.616 138.536L287.516 138.672L287.913 139.47L288.319 138.676L289.215 138.549L288.573 137.924L288.73 137.048L287.922 137.456L287.123 137.039L287.271 137.919L286.616 138.536Z" fill="white"/>
<path d="M286.616 150.411L287.516 150.547L287.913 151.35L288.319 150.551L289.215 150.429L288.573 149.803L288.73 148.923L287.922 149.336L287.123 148.914L287.271 149.794L286.616 150.411Z" fill="white"/>
<path d="M276.943 155.165L277.843 155.297L278.24 156.1L278.647 155.301L279.547 155.179L278.901 154.553L279.058 153.673L278.25 154.086L277.451 153.664L277.599 154.544L276.943 155.165Z" fill="white"/>
<path d="M266.306 155.165L267.207 155.297L267.604 156.1L268.01 155.301L268.91 155.179L268.264 154.553L268.421 153.673L267.613 154.086L266.814 153.664L266.962 154.544L266.306 155.165Z" fill="white"/>
<path d="M256.639 143.76L257.535 143.896L257.932 144.699L258.338 143.901L259.238 143.774L258.592 143.148L258.749 142.273L257.946 142.681L257.142 142.264L257.29 143.144L256.639 143.76Z" fill="white"/>
<path opacity="0.3" d="M353.127 163.324L356.977 163.27L354.157 148.969L354.226 149.01C354.697 149.292 355.104 149.666 355.422 150.109C355.739 150.553 355.961 151.055 356.073 151.586L358.732 164.286C358.747 164.353 358.746 164.422 358.729 164.488C358.712 164.555 358.681 164.617 358.636 164.67C358.592 164.723 358.536 164.765 358.472 164.794C358.409 164.822 358.34 164.836 358.27 164.834H353.021L353.127 163.324Z" fill="black"/>
<path opacity="0.3" d="M352.252 162.929L354.154 148.945L351.31 188.863H349.773L352.252 162.929Z" fill="black"/>
</svg>
